<svg id="圖層_2" data-name="圖層 2" xmlns="http://www.w3.org/2000/svg" viewBox="0 0 515 800"><defs><style>.cls-1{fill:#211715;}.cls-2{fill:#3f88c1;}.cls-3{fill:#fff;}.cls-4{fill:#febe69;}.cls-5{fill:#645d5c;}.cls-6{fill:#f8b8b4;}.cls-7{fill:#abddc0;}.cls-8{fill:#faa264;}.cls-9{fill:#2f281e;}</style></defs><path class="cls-1" d="M503.89,286.63A42.72,42.72,0,0,1,480.18,275c-4.62-4.53-9.2-9.07-13.51-13.9-1.37-1.53-1.54-2.76-.15-4.4,15.73-18.52,33-35.33,53.71-48.25l-.4-11.22c-4.65-3-9.37-5.93-13.9-9.13-4.68-2.67-9.43-5.23-13.34-9.25l12.94,6.69c4.55,2,8.79,4.84,14.07,4.81l-.19-5.18a17.72,17.72,0,0,1-7.38-2c-9.24-4.58-18.57-9-27.41-14.38a4.64,4.64,0,0,0-5.56,0,21.06,21.06,0,0,1-6.91,2.79,1.65,1.65,0,0,1-2.18-1.07c-.36-1.13.67-1.23,1.34-1.55l4.27-2.08c.86-.42,1.73-1,1.4-2-.43-1.44-1.66-.87-2.57-.64-1.54.37-3,1-4.56,1.35-1.05.21-2.54.52-3-.8-.55-1.55,1-1.73,2-2.16,2.07-.92,4.16-1.79,6.23-2.7.87-.38,2.24-.47,1.71-2-.48-1.34-1.65-.86-2.63-.71-.56.09-1.11.24-1.66.36l-.07-.16-6.94,2.76c-.77.31-1.66,1.37-2.33.32s.4-1.83,1.23-2.42a34.92,34.92,0,0,1,8.95-4.79c.68-.23,1.71-.08,1.72-1.24a2.3,2.3,0,0,0-1.21-1.93c-2.08-1.43-4.41-1.57-6.84-1.37-.81.07-2.05.52-2.36-.64-.37-1.33,1-1.59,1.85-2,4.62-2.31,11.11-.84,13.85,3.85,4.17,7.14,9.93,9.8,17.67,9.93,2.7,0,5.38.88,8.09,1a26.86,26.86,0,0,1,12.6,4.13l-.2-5.79c-13.69-8.09-27.4-16.17-41.18-24.12a4.88,4.88,0,0,1-2.84-4.45c-.87-12.46-2-24.9-3.67-37.27-.68-5-3.71-6.46-8.29-4.31s-9.34,4.43-13.95,6.77c-.77.4-1.1,1.12-1.65-.14-.88-2.06-2.84-2.42-4.75-2.81-7.25-1.5-12.43-5.75-16.16-12a105.21,105.21,0,0,1-5.89-12.25c-3.4-7.82-7.91-14.81-14.88-19.93-11-8.12-23.34-5.7-30.17,6a2.8,2.8,0,0,1-2.26,1.66,33,33,0,0,0-8,2.33c-14.28,5.46-24.77,19.41-23.5,35.28.41,5.12-.84,8.13-4.41,11.69-12.12,12.11-23.71,24.76-35.53,37.17-4.64,4.88-3.58,8.56,3,10.53,14.56,4.36,29.1,8.82,43.69,13.1,1.88.56,1.88,1.34,1.53,2.86a24.07,24.07,0,0,0-.76,8.44c1.65,13.09,4.91,25.87,7.56,38.77.58,2.78,2.34,4.56,5.1,4.69,2,.09,2.36,1.08,2.7,2.65,2,9.33,4.12,18.63,6.19,27.94a37.27,37.27,0,0,0,3.67,10.22c3.38,6,9.16,8.57,15.86,7,5.36-1.27,9.31-4.61,12.48-8.91a315,315,0,0,0,17.3-26.53c1.29-2.19,2.08-3.19,4.59-1,16.43,14.11,34,27,48.8,42.89,8.47,9.1,18.72,15,31.21,16.63,6.31.83,12.61,1.69,18.9,2.62l-.18-5.12C516.65,288.61,510.26,287.68,503.89,286.63ZM481.07,143.17c.05-.06.5.22.76.35a6.2,6.2,0,0,1,3.32,2l13.61,7.84c-4.5,2-8.95.84-11.43-2.72-.95-1.36-1.94-2.7-2.91-4.05a9.94,9.94,0,0,1-2.93-2.55C481.19,143.82,480.57,143.73,481.07,143.17Zm-1.44-1.1.28.17-.15.47c-.08-.05-.24-.11-.24-.17A2.12,2.12,0,0,1,479.63,142.07Zm-.21.22a6,6,0,0,1-4.75-2.15A7,7,0,0,1,479.42,142.29Zm-16.17-48.1c2-.93,2.52-.43,2.72,1.57.91,9.24,1.93,18.46,2.87,27.7a8.2,8.2,0,0,1-.27,2c1.49,4.22,1.17,8.74,2.14,13,.31,1.38-.36,2.1-1.71,2.38a16.89,16.89,0,0,0-5.11,1.78c-5.57,3.22-5.81,6.62-.57,11-1.36,1.18-2.8,2.25-4,3.52-2.28,2.36-2.06,4.92.45,7,7.51,6.24,7.43,7.08-1,11.42-5.54,2.85-11.4,5.07-16.71,8.36-2.16,1.34-3.6.91-4.32-1.62-.54-1.87-1.22-3.75-3.34-4.38-1.39-.41-1-1.21-.7-2.09a20.24,20.24,0,0,0,1.09-3.21c.44-2.63.65-5.23-2.1-7-2.56-1.61-4.72-.94-7.19,1.83a156.68,156.68,0,0,1-2.32-19.58c-1.09-9.91-2.12-19.83-3.31-29.74-.35-2.87.82-4.09,3.36-5.25C436.62,106.82,449.94,100.51,463.25,94.19Zm-90.06,52.63c1.22-3.2,0-6.73.49-10.53,8,3.19,15.89,2.81,23.8,1.48,3.73-.62,7-2.09,9.22-5.21,1-1.4,2-2.09,3.57-.8,1.37,1.11,2.53,2,1.67,4.19-2.07,5.24-6.41,7.7-11.16,9.76-8.21,3.56-16.87,4.26-25.67,4C373.26,149.69,372.26,149.24,373.19,146.82Zm-4.34-19.39a19.32,19.32,0,0,1-1.91-2.34c-1.82-2.83-3.51-4.9-7.75-4-3.9.87-7.11-3.63-5.7-7,.76-1.81,2-3.23,4.17-2.69,2.44.62,3.24-.42,3.54-2.58a15,15,0,0,1,.94-2.91c1.13-3.08,2.29-6.15,3.51-9.43,10.21,5.8,20.88,8.75,32.43,8.08a3,3,0,0,1,2.6,1c2.35,2.31,4.32,1.77,5.61-1.32a11.46,11.46,0,0,0,.39-1.3,1.54,1.54,0,0,1,1.53-1.12c1-.08,1.07.71,1.14,1.36,1.09,10.15-.56,19.55-7.72,27.38a5.33,5.33,0,0,1-2.19,1.56C391.37,134.63,376.41,136,368.85,127.43Zm43-.88c-.91-.51-.75-1.25-.5-2,.87-2.76,1.74-5.53,2.82-9,1.28,3.95,1.12,7.48,1.7,10.88.09.55.21,1.3-.55,1.33A6.67,6.67,0,0,1,411.88,126.55Zm3-15.23c-.34.34-.9-.15-.91-.62a20.59,20.59,0,0,1,.15-3.93,1.07,1.07,0,0,1,1.62-.63c1.59.75,3.23,1.41,5.21,2.26C419,110.43,416.46,109.75,414.88,111.32ZM382.94,52.4c3.77-3.92,10.35-4.63,16.12-1.64s9.86,7.91,13.15,13.43a112.52,112.52,0,0,1,6.18,12.86c4.14,9.47,9.81,17.41,20.58,20.13.79.2,1.65.55,1.67,1.45s-.82,1-1.43,1.28c-3.49,1.63-7,3.29-10.48,4.87a3,3,0,0,1-2,.14c-3.57-1.11-7.12-2.29-10.66-3.5-.83-.29-1.83-.58-1.84-1.73,0-1,.74-1.37,1.52-1.6,2-.59,2.11-2.25,2-3.84a45.64,45.64,0,0,0-.85-8.51c-4.3-12.84-10.77-23.93-24.15-29.33a24.3,24.3,0,0,0-9-1.73c-.66,0-1.47.28-1.75-.56S382.46,52.9,382.94,52.4Zm-32.48,57.75C341,87.8,349,68.29,371,61.61c6.23-1.9,12.62-3.06,19.07-.93,10.89,3.61,16.54,12.17,20.54,22.14a33.88,33.88,0,0,1,2,9.59c-1.81-.9-2.25-2.21-3-3.29-4.62-7.06-10.37-12.88-18.12-16.51a7.25,7.25,0,0,0-1.86-.81c-1.39-.2-2.79-.14-3.5,1.39-.8,1.74.43,2.62,1.7,3.14,5.84,2.4,10.2,6.67,14.4,11.16a29.94,29.94,0,0,1,5.43,8.57c.62,1.41.52,2.34-1.27,2.67-15,2.68-28.89.29-41.19-9.12a16,16,0,0,1-3.94-5.08c-.69-1.21-1.63-2-3.06-1.21A2.44,2.44,0,0,0,357,86.76c.13.31.17.72.4.92,5.79,5.18,2,10.66.49,16a4.14,4.14,0,0,1-2.69,2.88A10.57,10.57,0,0,0,350.46,110.15ZM419,224.83a326.84,326.84,0,0,1-20.54,32.1,21.8,21.8,0,0,1-8.67,6.83c-3.57,1.71-8,.24-10.48-3.29s-3.4-7.41-4.32-11.38c-2.35-10.06-4.69-20.12-6.76-30.24-.63-3.08-1.73-4.48-4.91-3.53-2.15,1.06-2.18-.64-2.43-1.93q-2.37-12.27-4.69-24.55c-1.63-7-3.2-13.86-1.24-21.11,1.54-5.69,5.82-9.18,9.57-13.15.78-.82,1.86-.4,2.89-.33,9.25.58,18.53,1.09,27.63-1.36,8.59-2.31,16.34-6,21.71-14.28a153.76,153.76,0,0,1,1.67,16c0,.27,0,.55-.07.82l-.18.23c.42,2.32.79,4.66,1.28,7a5.86,5.86,0,0,1-.95,4.79c-1.26,1.86-2.24,3.91-3.44,5.81-4.46,7.08-6.2,14.65-4.39,22.92,2.7,5.7.39,9.91-3.74,13.91-3.76,3.65-3.58,3.84-9,1.36-1.79-.52-1.86-2.09-2.16-3.52-1.48-7.12-2.95-14.24-4.46-21.35-.37-1.76-.63-4-3.19-3.5s-2.07,2.56-1.71,4.41c1.19,6.13,2.37,12.26,3.58,18.38.24,1.23.84,2.52-1.11,2.87-.1,4.24,1.2,8.27,2.17,12.3.83,3.43.56,6.15-2.21,8.54a12.24,12.24,0,0,0-2.37,3.28,2,2,0,0,0,.87,2.92,1.92,1.92,0,0,0,2.72-.42c8.77-9.65,18.14-18.73,26.38-28.86a5.21,5.21,0,0,0,.91-5.38c-.66-1.93-1-4-1.55-5.93a22.4,22.4,0,0,1,1.56-15.88c1.52-3.13,3-6.29,4.61-9.77,1.87,2.4.67,4.54.46,6.63-.08.8-.89,2,.37,2.36,1.07.35,1.48-.79,1.95-1.54,1.18-1.92,1.85-4.14,3.42-5.83.37-1,.9-2.11,2.08-1.64s.53,1.58.23,2.39c-.57,1.56-.61,3.32-1.7,4.69l-2.43,5.22c-.45,1-.82,2,.11,2.83s1.8.08,2.62-.6,1.82-2.11,3.17-.92.48,2.26-.2,3.35c-.48.77-1.09,1.56-.17,2.42s1.73.67,2.75.06,2.05-1.12,3.08,0-.35,2-.49,2.93C435.38,205.16,425.1,213.85,419,224.83Zm-22.63-2.89c-.49-2.24-.94-4.32-1.46-6.75C400.29,218.2,400.3,218.24,396.4,221.94Zm62.41,32.48c-4.48-3.82-9-7.56-13.55-11.33-6.44-5.24-12.86-10.5-19.34-15.69-2.09-1.67-.73-2.86.34-4.16.22-.26.43-.52.65-.77h-.05c.13-.64.16-1.4,1.14-1-.24-2.2,1.48-3.41,2.58-4.93,2.17-3.56,4.28-7.15,6.51-10.67,1.72-2.69,3.39-5.41,3.84-8.6.42-3,3.94-4.77,3.12-8.27-.06-.26,1.42-.92,2.21-1.34,6.8-3.59,13.61-7.14,20.39-10.76a3.49,3.49,0,0,1,2.82-.65,6.72,6.72,0,0,0,5.57-.85c3-2,4.95-1.07,6.36,1.92,4.35,4.27,9.47,7.48,14.69,10.53a28.2,28.2,0,0,1,6.77,4.9c5.25,2.22,9.64,5.89,14.61,8.57,2.82,1.52,1.19,2.72-.16,3.64-2.2,1.51-4.74,2.43-7,3.95-15.62,10.5-28.94,23.54-41.38,37.53-2.31,2.6-5,4.92-6.76,8C461.3,255.89,460,255.47,458.81,254.42Z"/><path class="cls-1" d="M428.06,221.46l-.06,0v.09Z"/><path class="cls-2" d="M466.52,256.66c-1.39,1.64-1.22,2.87.15,4.4,4.31,4.83,8.89,9.37,13.51,13.9a42.72,42.72,0,0,0,23.71,11.67c6.37,1.05,12.76,2,19.16,2.84l-2.82-81.06C499.49,221.33,482.25,238.14,466.52,256.66Z"/><path class="cls-3" d="M505.93,188.06c-4.68-2.67-9.43-5.23-13.34-9.25l12.94,6.69C505.66,186.35,505.79,187.21,505.93,188.06Z"/><path class="cls-3" d="M428.84,176.6l-2.43,5.22c-.45,1-.82,2,.11,2.83s1.8.08,2.62-.6,1.82-2.11,3.17-.92.48,2.26-.2,3.35c-.48.77-1.09,1.56-.17,2.42s1.73.67,2.75.06,2.05-1.12,3.08,0-.35,2-.49,2.93c-1.9,13.3-12.18,22-18.25,33a326.84,326.84,0,0,1-20.54,32.1,21.8,21.8,0,0,1-8.67,6.83c-3.57,1.71-8,.24-10.48-3.29s-3.4-7.41-4.32-11.38c-2.35-10.06-4.69-20.12-6.76-30.24-.63-3.08-1.73-4.48-4.91-3.53-.13-.86.3-1.08,1.09-1.31,7.23-2.12,14.76-3.12,21.9-5.59a3.06,3.06,0,0,1,2.6.32c-.1,4.24,1.2,8.27,2.17,12.3.83,3.43.56,6.15-2.21,8.54a12.24,12.24,0,0,0-2.37,3.28,2,2,0,0,0,.87,2.92,1.92,1.92,0,0,0,2.72-.42c8.77-9.65,18.14-18.73,26.38-28.86a5.21,5.21,0,0,0,.91-5.38c-.66-1.93-1-4-1.55-5.93a22.4,22.4,0,0,1,1.56-15.88c1.52-3.13,3-6.29,4.61-9.77,1.87,2.4.67,4.54.46,6.63-.08.8-.89,2,.37,2.36,1.07.35,1.48-.79,1.95-1.54,1.18-1.92,1.85-4.14,3.42-5.83,1.49.56.92,1.75.42,2.42C427.78,174.76,428.5,175.62,428.84,176.6Z"/><path class="cls-4" d="M481.4,177.29c4.35,4.27,9.47,7.48,14.69,10.53a28.2,28.2,0,0,1,6.77,4.9c-.22.25-.39.59-.66.73-21.46,10.63-38.89,26.19-54.17,44.35-1.27,1.5-2.79,3-2.77,5.29-6.44-5.24-12.86-10.5-19.34-15.69-2.09-1.67-.73-2.86.34-4.16.22-.26.43-.52.65-.77h-.05c.66,0,1.14-.27,1.2-1l-.06.07a15.51,15.51,0,0,0,5.26-5.71c2.08-1.27,3.24-3.44,4.94-5.1,12.43-12.16,25.87-22.95,41.36-31C480.56,179.17,481.71,178.8,481.4,177.29Z"/><path class="cls-5" d="M350.46,110.15C341,87.8,349,68.29,371,61.61c6.23-1.9,12.62-3.06,19.07-.93,10.89,3.61,16.54,12.17,20.54,22.14a33.88,33.88,0,0,1,2,9.59c-1.81-.9-2.25-2.21-3-3.29-4.62-7.06-10.37-12.88-18.12-16.51a7.25,7.25,0,0,0-1.86-.81c-1.39-.2-2.79-.14-3.5,1.39-.8,1.74.43,2.62,1.69,3.14,5.85,2.4,10.21,6.67,14.41,11.16a29.94,29.94,0,0,1,5.43,8.57c.62,1.41.52,2.34-1.27,2.67-15,2.68-28.89.29-41.19-9.12a16,16,0,0,1-3.94-5.08c-.69-1.21-1.63-2-3.06-1.21A2.44,2.44,0,0,0,357,86.76c.13.31.17.72.4.92,5.79,5.18,2,10.66.49,16a4.14,4.14,0,0,1-2.69,2.88A10.57,10.57,0,0,0,350.46,110.15Z"/><path class="cls-4" d="M388.94,208.74a3.06,3.06,0,0,0-2.6-.32c-7.14,2.47-14.67,3.47-21.9,5.59-.79.23-1.22.45-1.09,1.31-2.15,1.06-2.18-.64-2.43-1.93q-2.37-12.27-4.69-24.55c10.26-1.43,19.86-5.28,29.73-8.14a9.61,9.61,0,0,0,3.87-2.63c8.74-8.37,17.88-16.24,28.38-22.38.42,2.32.79,4.66,1.28,7a5.86,5.86,0,0,1-.95,4.79c-1.26,1.86-2.24,3.91-3.44,5.81-4.46,7.08-6.19,14.65-4.39,22.92A55.5,55.5,0,0,0,398,211.45c-1.79-.52-1.86-2.09-2.16-3.52-1.48-7.12-2.95-14.24-4.46-21.35-.37-1.76-.63-4-3.19-3.5s-2.07,2.56-1.71,4.41c1.19,6.13,2.37,12.26,3.58,18.38C390.29,207.1,390.89,208.39,388.94,208.74Z"/><path class="cls-3" d="M445.26,243.09c0-2.25,1.5-3.79,2.77-5.29,15.28-18.16,32.71-33.72,54.17-44.35.27-.14.44-.48.66-.73,5.25,2.22,9.64,5.89,14.61,8.57,2.82,1.52,1.19,2.72-.16,3.64-2.2,1.51-4.74,2.43-7,3.95-15.62,10.5-28.94,23.54-41.38,37.53-2.31,2.6-5,4.92-6.76,8-.87,1.48-2.13,1.06-3.36,0C454.33,250.6,449.78,246.86,445.26,243.09Z"/><path class="cls-2" d="M468.57,125.45c1.49,4.22,1.17,8.74,2.14,13,.31,1.38-.36,2.1-1.71,2.38a16.89,16.89,0,0,0-5.11,1.78c-5.57,3.22-5.81,6.62-.57,11-1.36,1.18-2.8,2.25-4,3.52-2.28,2.36-2.06,4.92.45,7,7.51,6.24,7.43,7.08-1,11.42-5.54,2.85-11.4,5.07-16.71,8.36-2.16,1.34-3.6.91-4.32-1.62-.54-1.87-1.22-3.75-3.34-4.38-1.39-.41-1-1.21-.7-2.09a20.24,20.24,0,0,0,1.09-3.21c.44-2.63.65-5.23-2.1-7-2.56-1.61-4.72-.94-7.19,1.83a156.68,156.68,0,0,1-2.32-19.58,9.4,9.4,0,0,0,1.94-.53c8.31-4.31,16.57-8.72,24.93-12.94C456.16,131.35,462.14,127.93,468.57,125.45Z"/><path class="cls-3" d="M418.21,155.69c-10.5,6.14-19.64,14-28.38,22.38A9.61,9.61,0,0,1,386,180.7c-9.87,2.86-19.47,6.71-29.73,8.14-1.64-7-3.2-13.86-1.24-21.11,1.54-5.69,5.82-9.18,9.57-13.15.78-.82,1.86-.4,2.89-.33,9.25.58,18.53,1.09,27.63-1.36,8.59-2.31,16.34-6,21.71-14.28a153.76,153.76,0,0,1,1.67,16c-.24.25-.39.52-.07.82Z"/><path class="cls-3" d="M468.57,125.45c-6.43,2.48-12.41,5.9-18.54,9-8.36,4.22-16.62,8.63-24.93,12.94a9.4,9.4,0,0,1-1.94.53c-1.09-9.91-2.12-19.83-3.31-29.74-.35-2.87.82-4.09,3.36-5.25,13.41-6.11,26.73-12.42,40-18.74,2-.93,2.52-.43,2.72,1.57.91,9.24,1.93,18.46,2.87,27.7A8.2,8.2,0,0,1,468.57,125.45Zm-30.29,1.19c.82,3.66,3.89,5.55,7.38,4.31a11.9,11.9,0,0,0,8.08-9.63c.84-4.7-3.06-8-7.75-7C440.89,115.55,437.14,121.53,438.28,126.64Z"/><path class="cls-3" d="M365.65,96.5c10.21,5.8,20.88,8.75,32.43,8.08a3,3,0,0,1,2.6,1c2.35,2.31,4.32,1.77,5.61-1.32a11.46,11.46,0,0,0,.39-1.3,1.54,1.54,0,0,1,1.53-1.12c1-.08,1.07.71,1.14,1.36,1.09,10.15-.56,19.55-7.72,27.38a5.33,5.33,0,0,1-2.19,1.56c-8.07,2.53-23,3.9-30.59-4.67a19.32,19.32,0,0,1-1.91-2.34c-1.82-2.83-3.51-4.9-7.75-4-3.9.87-7.11-3.63-5.7-7,.76-1.81,2-3.23,4.17-2.69,2.44.62,3.24-.42,3.54-2.58a15,15,0,0,1,.94-2.91C363.27,102.85,364.43,99.78,365.65,96.5Zm19.86,12.31c-.65-1.64-1.45-3.17-3.41-2.58-2.18.65-2.28,2.49-1.86,4.4a2.46,2.46,0,0,0,3.23,2.09C385.7,112.24,385.5,110.4,385.51,108.81ZM398,118.27a1.85,1.85,0,0,0-2.31-1.24c-1.18.23-1.2,1.16-1,2.11a1.53,1.53,0,0,0,2,1.26C397.78,120.21,398.13,119.43,398,118.27Z"/><path class="cls-3" d="M506.11,160.83c-2.71-.14-5.39-1-8.09-1-7.74-.13-13.5-2.79-17.67-9.93-2.74-4.69-9.23-6.16-13.85-3.85-.86.43-2.22.69-1.85,2,.31,1.16,1.55.71,2.36.64,2.43-.2,4.76-.06,6.84,1.37a2.3,2.3,0,0,1,1.21,1.93c0,1.16-1,1-1.72,1.24a34.92,34.92,0,0,0-8.95,4.79c-.83.59-1.95,1.3-1.23,2.42s1.56,0,2.33-.32l6.94-2.76.07.16c.55-.12,1.1-.27,1.66-.36,1-.15,2.15-.63,2.63.71.53,1.5-.84,1.59-1.71,2-2.07.91-4.16,1.78-6.23,2.7-1,.43-2.55.61-2,2.16.46,1.32,1.95,1,3,.8,1.55-.31,3-1,4.56-1.35.91-.23,2.14-.8,2.57.64.33,1.06-.54,1.61-1.4,2l-4.27,2.08c-.67.32-1.7.42-1.34,1.55a1.65,1.65,0,0,0,2.18,1.07,21.06,21.06,0,0,0,6.91-2.79,4.64,4.64,0,0,1,5.56,0c8.84,5.34,18.17,9.8,27.41,14.38a17.72,17.72,0,0,0,7.38,2l-.7-20.17A26.86,26.86,0,0,0,506.11,160.83Z"/><path class="cls-5" d="M416.93,85.74c-4.3-12.84-10.77-23.93-24.15-29.33a24.3,24.3,0,0,0-9-1.73c-.66,0-1.47.28-1.75-.56s.4-1.22.88-1.72c3.77-3.92,10.36-4.63,16.12-1.64s9.86,7.91,13.15,13.43a112.52,112.52,0,0,1,6.18,12.86c4.14,9.47,9.81,17.41,20.58,20.13.79.2,1.65.55,1.67,1.45s-.82,1-1.43,1.28c-3.49,1.63-7,3.29-10.48,4.87a3,3,0,0,1-2,.14c-3.57-1.11-7.12-2.29-10.66-3.5-.83-.29-1.83-.58-1.84-1.73,0-1,.74-1.37,1.52-1.6,2-.59,2.11-2.25,2-3.84A45.64,45.64,0,0,0,416.93,85.74Z"/><path class="cls-3" d="M481.4,177.29c.31,1.51-.84,1.88-1.84,2.41-15.49,8.07-28.93,18.86-41.36,31-1.7,1.66-2.86,3.83-4.94,5.1l-2.68.69c2.17-3.56,4.28-7.15,6.51-10.67,1.72-2.69,3.39-5.41,3.84-8.6.42-3,3.94-4.77,3.12-8.27-.06-.26,1.42-.92,2.21-1.34,6.8-3.59,13.61-7.14,20.39-10.76a3.49,3.49,0,0,1,2.82-.65,6.72,6.72,0,0,0,5.57-.85C478.07,173.34,480,174.3,481.4,177.29Z"/><path class="cls-3" d="M373.69,136.29c8,3.19,15.88,2.81,23.79,1.48,3.73-.62,7-2.09,9.22-5.21,1-1.4,2-2.09,3.57-.8,1.37,1.11,2.53,2,1.67,4.19-2.07,5.24-6.41,7.7-11.16,9.76-8.21,3.56-16.87,4.26-25.67,4-1.85-.05-2.85-.5-1.92-2.92C374.41,143.62,373.23,140.09,373.69,136.29Z"/><path class="cls-3" d="M398,211.45a55.5,55.5,0,0,1,12.72-15.27c2.7,5.7.39,9.91-3.74,13.91C403.21,213.74,403.39,213.93,398,211.45Z"/><path class="cls-3" d="M485.15,145.53l13.61,7.84c-4.5,2-8.95.84-11.43-2.72-.95-1.36-1.94-2.7-2.91-4.05Z"/><path class="cls-3" d="M414.2,115.51c1.28,3.95,1.12,7.48,1.7,10.88.09.55.21,1.3-.55,1.33a6.67,6.67,0,0,1-3.47-1.17c-.91-.51-.75-1.25-.5-2C412.25,121.75,413.12,119,414.2,115.51Z"/><path class="cls-3" d="M421,108.4c-1.92,2-4.49,1.35-6.07,2.92-.34.34-.9-.15-.91-.62a20.59,20.59,0,0,1,.15-3.93,1.07,1.07,0,0,1,1.62-.63C417.33,106.89,419,107.55,421,108.4Z"/><path class="cls-3" d="M394.94,215.19c5.35,3,5.36,3.05,1.46,6.75Z"/><path class="cls-3" d="M428.84,176.6c-.34-1-1.06-1.84-.19-3,.5-.67,1.07-1.86-.42-2.42.37-1,.9-2.11,2.08-1.64s.53,1.58.23,2.39C430,173.47,429.93,175.23,428.84,176.6Z"/><path class="cls-3" d="M430.58,216.51l2.68-.69a15.51,15.51,0,0,1-5.26,5.71C427.7,219.27,429.46,218.05,430.58,216.51Z"/><path class="cls-3" d="M485.15,145.53l-.73,1.07a9.94,9.94,0,0,1-2.93-2.55l.34-.53A6.2,6.2,0,0,1,485.15,145.53Z"/><path class="cls-3" d="M474.67,140.14a7,7,0,0,1,4.75,2.15A6,6,0,0,1,474.67,140.14Z"/><path class="cls-3" d="M428.06,221.46c-.06.75-.54,1-1.2,1C427,221.82,427,221,428.06,221.46Z"/><path class="cls-3" d="M426.91,222.47c-.22.25-.43.51-.65.77C426.48,223,426.69,222.72,426.91,222.47Z"/><path class="cls-3" d="M479.91,142.24l-.15.47c-.08-.05-.24-.11-.24-.17a2.12,2.12,0,0,1,.11-.47Z"/><path class="cls-2" d="M418.39,155.46c-.32-.3-.17-.57.07-.82C418.44,154.91,418.42,155.19,418.39,155.46Z"/><path class="cls-3" d="M481.49,144.05c-.3-.23-.92-.32-.42-.88.05-.06.5.22.76.35Z"/><path class="cls-2" d="M438.28,126.64c-1.14-5.11,2.61-11.09,7.71-12.28,4.69-1.09,8.59,2.26,7.75,7a11.9,11.9,0,0,1-8.08,9.63C442.17,132.19,439.1,130.3,438.28,126.64Z"/><path class="cls-1" d="M385.51,108.81c0,1.59.19,3.43-2,3.91a2.46,2.46,0,0,1-3.23-2.09c-.42-1.91-.32-3.75,1.86-4.4C384.06,105.64,384.86,107.17,385.51,108.81Z"/><path class="cls-1" d="M398,118.27c.11,1.16-.24,1.94-1.31,2.13a1.53,1.53,0,0,1-2-1.26c-.19-1-.17-1.88,1-2.11A1.85,1.85,0,0,1,398,118.27Z"/><path class="cls-1" d="M-2.46,708.92c15.36-4.17,31-7.33,46.43-11,7.68-1.82,14.65-5.69,21.87-8.95-3.67-.24-7.27-.08-10.87-.38-10.34-.87-12.35-8.92-10.52-16.15a25.67,25.67,0,0,1,4.64-8.78c6-8.29,13.27-15.54,20.28-23,.66-.7,1.37-1.36,2-2.07,3.4-3.65,3.39-3.65.44-7.53-5.68-7.46-3.08-20.64,5.21-25.11,1.86-1,1.79-1.79,1.46-3.4-.71-3.47-1.24-7-1.79-10.49-.4-2.62-.55-5.21,2-7,2.82-1.92,5.14-.33,7.4,1.16q17.64,11.63,35.25,23.32c4.75,3.15,9.42,6.42,14.17,9.57a13.63,13.63,0,0,1,6.12,9.8c1,6.92,2.06,13.84,3.15,20.75.12.76-.32,1.93.74,2.22.91.25,1.53-.64,2.12-1.24a117,117,0,0,0,13.37-16.95c3.71-5.42,7.62-10.69,11.85-15.72,18.41-21.91,50.22-14.51,61.32,8.2,6.86,14,5.55,27.76-2.49,40.89-1.34,2.19-1.06,3,1,4.1,4.24,2.33,8.38,4.84,12.56,7.28,1.21.7,2.44,1.38,3.59,2.17,5.14,3.46,5.54,8.71.45,12.09C236.87,701,224.21,709,211.61,717c-.71.46-1.79.56-2,1.5-1.13,5.71-5.63,9-9.23,12.91-1.23,1.35-2.54,2.63-3.82,3.94-1,1.06-1.81,2.45-3.74,1.72-.9-.33-1.53.64-2.18,1.15-4.33,3.37-8.5,7-13,10.12-7.52,5.32-14.25,6.24-21.9,1a17.53,17.53,0,0,1-5.63-7c-.86-1.74-1.57-1.8-3.11-.88-8.68,5.18-17.37,10.36-26.15,15.37-3.31,1.9-6.41,4.41-10.56,4.44-.61,0-1.26.73-1.82,1.2a143.64,143.64,0,0,1-39.24,23.3q-17.51,7.08-35,14.08c-.87.35-1.89.45-2.46,1.36-10.77,0-21.54,0-32.31,0-1.62,0-2-.37-2-2,.08-10.34,0-20.67,0-31,10.88-6.51,21.75-13,32.33-20.05A11.5,11.5,0,0,0,35.68,744a27.84,27.84,0,0,0-8.5,3q-14.23,4.62-28.47,9.23a3,3,0,0,1-1.17-.12ZM83.3,625.66l-.51-.62c-1.27-2.11-3.07-3.89-4-6.24-.26-.69-.83-1.85-.17-2,4.69-1,1.21-3.49.9-5.2s-1.36-1.59-2.4-.31C75,614,74.66,617,74.05,620.34c-.91,5,.83,7.76,4.27,10.4,2.13,1.77,4.06,3.83,6.89,4.65-1.41-2.68-3.88-4.27-6.16-6.06-.32-.92-1.24-1.76-.37-2.84,1.36.22,2.23,1.19,3.25,1.92l3.72,4.09c.91-3.18-.56-5-2.25-6.73Zm-2.67,12.49c-.11-.4-.4-.85-.76-.62-.58.37-.22.82.19,1.16.37,1.22,1.4,1.84,2.33,2.57,6.67,5.29,14.06,9.51,21.14,14.19,2.42,1.59,4.68,3.47,7.4,4.55,1.49.59,3.48,1.32,4.51.09.82-1-.77-2.46-1.44-3.64-.32-.56-.79-1-1.12-1.58-1.15-2-2.59-4.11-.62-6.18s4.25-1.54,6.41-.1c2.43-5.53,5.3-6.23,9.73-2,3,2.9,5.75,6.1,9,8.76.78.65,1.46,2,2.56,1.51s.51-2,.37-3C139.23,646,138,638,136.9,630a10.33,10.33,0,0,0-5.07-7.77c-4.66-2.89-9.18-6-13.75-9Q101.28,602.12,84.47,591c-.78-.52-1.65-1.42-2.6-.78-.76.51-.45,1.63-.28,2.42,1.48,6.91,1.79,14.05,3.94,20.84.78,2.44,1.65,4.89.64,7.53-.43,1.14.29,2,1,2.86a13.53,13.53,0,0,1,3.55,7.46,9.08,9.08,0,0,1-3.12,8.39c-2.29,1.88-4.16-.34-6.09-1.32A4.65,4.65,0,0,0,80.63,638.15ZM53.9,699.34c.77,1.35,1.92,1.52,2.84,2,12.08,6.22,23.41,13.48,33.11,23.11,8.9,8.85,16.92,18.31,20.89,30.52.8,2.47,2,1.17,3.09.53,10.21-5.91,20.35-11.92,30.61-17.74,2.28-1.29,2.92-2.46,2.06-5.06-3.76-11.4-7.31-22.87-10.92-34.32-1.35-4.28-1.59-9.4-4.17-12.7-5.08-6.49-6.68-15.83-15.4-19.4-.46-.19-.78-.73-1.16-1.1a2.69,2.69,0,0,0-3.2-.6c-.12.66.31,1,.66,1.41,2.62,3,2.39,4-1.16,5.64-2.44,1.11-5,2.11-7.28,3.42A355.62,355.62,0,0,1,65.24,694.2C61.43,695.78,57.71,697.61,53.9,699.34ZM190.16,616a12,12,0,0,0-1.22.37A47.08,47.08,0,0,0,163.47,640c-3.77,7.55-3,16.33,2.88,22.18.89.89,2.73,1.66,1,3.3-1.49,1.45-3,1.11-4-.56s-1.62-1-2.6,0c-2.52,2.39-4.82,5-7.73,7-1.63,1.08-.61,1.61.33,2.26a84.82,84.82,0,0,0,20.8,10.1,3.56,3.56,0,0,0,4.45-1.4,24.9,24.9,0,0,1,13.44-9,4,4,0,0,1,4.12.84,8.78,8.78,0,0,0,7.41,2.45c2.77-.46,5.05-1.72,6.06-4.63.94-2.71-.32-4.62-2.3-6.15a6.23,6.23,0,0,1-2.41-5.33,22.1,22.1,0,0,1,2.65-11.15c2.08-3.8,2-3.75-1.73-6C195.49,637.53,187.49,629.83,190.16,616Zm-74.31,35.57a13.69,13.69,0,0,0,2.4,4.34c3.51,5.15,8.88,9.24,9.34,16.17,0,.28.71.46.9.8,2.83,4.89,7,8.87,8.68,14.59,3.81,13,8.07,25.85,12.23,38.74,1.62,5,2.87,10.17,5.41,14.83,3.95,7.27,11.64,9.46,18.32,4.78,5.54-3.87,10.61-8.42,15.88-12.67a2,2,0,0,0,.79-2.78c-2.12-4.47-4.17-9-7.83-12.49-2.67-2.55-5.48-2.94-8.87-1.5-1.4.59-1.73,1.3-1.12,2.69,1,2.36,1.94,4.77,2.9,7.16.71,1.77.89,3.56-1.25,4.31s-2.49-1.24-3-2.53c-8.47-20-18.67-39.24-26.25-59.63-.85-2.28-2-4.43-4.14-5.61-5.45-3-9.39-7.66-13.59-12-.82-.85-1.51-2-2.84-2.24a3.15,3.15,0,0,0,.34,2.68c1.36,2.19,2.7,4.4,4.13,6.53.59.88,1.13,1.82.29,2.58s-1.57-.19-2.19-.72c-1.88-1.6-3.67-3.32-5.61-4.85C119.31,653.54,118.29,651.69,115.85,651.54ZM93.11,672.05c0-4.61,0-4.61-4.06-4.6a4.49,4.49,0,0,1-1,0c-7-1.6-11.6,1.3-14.49,7.62-.65,1.41-1.73,3.1-3.74,1.92s-.93-2.77-.16-4.2A29.58,29.58,0,0,1,71.34,670c4.2-6.11,8.37-12.24,12.67-18.28,1.14-1.6,1.38-2.48-.53-3.7a58.86,58.86,0,0,1-7.38-5.71c-1-.92-1.48-.78-2.25.14-6.9,8.23-14.76,15.65-21,24.41a20.77,20.77,0,0,0-4,8.73c-.74,4.53,1.48,7.45,6,8.2,4.2.7,8.47-.69,12.54.06,7,1.29,12.87-.92,18.59-4.41a29.38,29.38,0,0,1,3.44-1.77C92.12,676.52,94.06,674.93,93.11,672.05Zm61.43,9.05c.46,1.19.84,2.41,1.37,3.56,3.91,8.48,8,16.9,11.7,25.45,1.21,2.77,2.45,3.42,4.88,1.64a6,6,0,0,1,3.38-.88c5.35-.25,8.77,3,11.89,6.64s4.92,8.16,7.55,13.09c2-2.24,3.64-4.2,5.38-6.09,5.23-5.67,5.68-12.68.51-18.42a54.46,54.46,0,0,0-19.32-14.16C172.91,688.18,163.36,685.81,154.54,681.1Zm41.8,14.27c6.36,4.62,11.32,9.92,13.32,17.61,1.65-1.15,2.94-2.1,4.28-3q15.56-10.07,31.11-20.09c3.77-2.43,3.78-3.77-.13-6.08-4.89-2.9-9.88-5.64-14.73-8.61-2-1.25-3.12-1.17-4.61,1C221,682.7,215.24,688,207.73,691,204.15,692.45,200.53,693.77,196.34,695.37Zm-91.56-33.09c-4.82-3.29-9.63-6.59-14.47-9.85-.94-.64-1.33.31-1.75.86-1.81,2.39-3.64,4.78-5.35,7.24-.62.89-1.1,2,.83,2.09C90.86,662.81,97.67,663.39,104.78,662.28Zm4.2,4.84c-3.09.2-6.18.43-9.28.61-.92.06-1.76.15-1.77,1.33s-.31,2.28.56,3.05,1.56-.15,2.24-.59A54,54,0,0,1,109,667.12Z"/><path class="cls-1" d="M-2.46,579.9C0,578,2.47,576.13,4.93,574.22c3.37-2.61,6.81-2.69,10.48-.54C23.57,578.44,31.82,583,40,587.85c6.17,3.66,6.3,8.34.3,12.5C32.58,605.68,24.78,610.83,17,616c-5.79,3.9-11.59,7.8-17.41,11.65-.58.39-1.1,1.36-2.08.66v-4.52c.64-.37,1.32-.7,1.93-1.12,6.53-4.53,13-9.14,19.57-13.6C25.17,605,31.41,601,37.57,596.85c3.14-2.09,3.37-3.43.9-4.86Q27.6,585.7,16.69,579.47a38,38,0,0,0-4.92-2.42,4.16,4.16,0,0,0-5.23,2.09C5.62,580.82,8,581.21,9,581.81c5.92,3.49,12,6.8,17.93,10.19,3.68,2.09,3.66,2.1.33,4.36Q13.92,605.42.61,614.48c-.95.65-1.74,1.66-3.07,1.59Z"/><path class="cls-2" d="M-2.46,616.07c1.33.07,2.12-.94,3.07-1.59q13.34-9,26.63-18.12c3.33-2.26,3.35-2.27-.33-4.36-6-3.39-12-6.7-17.93-10.19-1-.6-3.36-1-2.44-2.67a4.16,4.16,0,0,1,5.23-2.09,38,38,0,0,1,4.92,2.42Q27.6,585.69,38.47,592c2.47,1.43,2.24,2.77-.9,4.86C31.41,601,25.17,605,19,609.11c-6.57,4.46-13,9.07-19.57,13.6-.61.42-1.29.75-1.93,1.12Z"/><path class="cls-3" d="M29.87,748.29c-10.58,7-21.45,13.54-32.33,20.05V756.07a3,3,0,0,0,1.17.12Q13,751.6,27.18,747C28.13,747.3,29.77,746.24,29.87,748.29Z"/><path class="cls-2" d="M75.4,325.44c-.55-2.93-1.12-5.85-1.62-8.79-.19-1.12-.26-2.3,1.2-2.73s2.25.48,2.73,1.77c1.14,3.09,1,6.37,1.52,9.55.22,1.36-.5,2.12-1.85,2.25S75.43,326.72,75.4,325.44Z"/><path class="cls-2" d="M85.74,329.13a1.72,1.72,0,0,1-1.84-.25,1.74,1.74,0,0,1-.43-2.05c1.58-3.52,3.18-7,4.83-10.51a1.84,1.84,0,0,1,2.52-1,1.6,1.6,0,0,1,.91,2.43c-1.73,3.58-3.46,7.16-5.22,10.73C86.36,328.8,86,329,85.74,329.13Z"/><path class="cls-2" d="M62.25,322.18c-.29-1-.51-1.95.62-2.58a1.73,1.73,0,0,1,2.32.42c2.3,2.39,4,5.3,6.61,7.45a1.44,1.44,0,0,1,0,2.29c-.74.71-1.81,1.44-2.61.59C66.71,327.76,64.05,325.33,62.25,322.18Z"/><path class="cls-2" d="M89,332.55c0-.15,0-.27-.06-.4-.14-1.77,8.54-8.44,10-7.6s2,2,.5,3.21c-2.42,1.91-4.92,3.71-7.46,5.45C90.91,334,89.67,334.18,89,332.55Z"/><path class="cls-4" d="M53.9,699.34c3.81-1.73,7.53-3.56,11.34-5.14a355.62,355.62,0,0,0,38.63-19.15c2.33-1.31,4.84-2.31,7.28-3.42,3.55-1.6,3.78-2.66,1.16-5.64-.35-.4-.78-.75-.66-1.41a2.69,2.69,0,0,1,3.2.6c.38.37.7.91,1.16,1.1,8.72,3.57,10.32,12.91,15.4,19.4,2.58,3.3,2.82,8.42,4.17,12.7,3.61,11.45,7.16,22.92,10.92,34.32.86,2.6.22,3.77-2.06,5.06-10.26,5.82-20.4,11.83-30.61,17.74-1.1.64-2.29,1.94-3.09-.53-4-12.21-12-21.67-20.89-30.52-9.7-9.63-21-16.89-33.11-23.11C55.82,700.86,54.67,700.69,53.9,699.34Z"/><path class="cls-3" d="M190.16,616c-2.67,13.86,5.33,21.56,15.68,27.87,3.69,2.25,3.81,2.2,1.73,6A22.1,22.1,0,0,0,204.92,661a6.23,6.23,0,0,0,2.41,5.33c2,1.53,3.24,3.44,2.3,6.15-1,2.91-3.29,4.17-6.06,4.63a8.78,8.78,0,0,1-7.41-2.45,4,4,0,0,0-4.12-.84,24.9,24.9,0,0,0-13.44,9,3.56,3.56,0,0,1-4.45,1.4,84.82,84.82,0,0,1-20.8-10.1c-.94-.65-2-1.18-.33-2.26,2.91-1.94,5.21-4.58,7.73-7,1-.92,1.6-1.63,2.6,0s2.55,2,4,.56c1.69-1.64-.15-2.41-1-3.3-5.84-5.85-6.65-14.63-2.88-22.18a47.08,47.08,0,0,1,25.47-23.64A12,12,0,0,1,190.16,616Zm2.48,35.67a3.4,3.4,0,0,0,3.24-3.52,2.14,2.14,0,0,0-2.39-2.4,3.38,3.38,0,0,0-3.37,3.55C190,650.8,190.9,651.63,192.64,651.64Zm-18.06-18.82c-.26,1.56.29,2.64,1.93,2.7,2.07.07,3.12-1.37,3.53-3.14a2.09,2.09,0,0,0-2-2.7A3.27,3.27,0,0,0,174.58,632.82Zm-1.49,16.37c-.08-.47-.17-1.2-1.21-1.2s-1.7.25-1.78,1.37c-.06.86.21,1.5,1.15,1.58S172.85,650.49,173.09,649.19Z"/><path class="cls-2" d="M80.64,638.14a5.64,5.64,0,0,1,.91.28c1.93,1,3.8,3.2,6.09,1.32a9.08,9.08,0,0,0,3.12-8.39,13.53,13.53,0,0,0-3.55-7.46c-.75-.84-1.47-1.72-1-2.86,1-2.64.14-5.09-.64-7.53-2.15-6.79-2.46-13.93-3.94-20.84-.17-.79-.48-1.91.28-2.42.95-.64,1.82.26,2.6.78q16.82,11.09,33.61,22.21c4.57,3,9.09,6.13,13.75,9A10.33,10.33,0,0,1,136.9,630c1.12,8,2.33,15.93,3.43,23.91.14,1,.71,2.42-.37,3s-1.78-.86-2.56-1.51c-3.25-2.66-6-5.86-9-8.76-4.43-4.26-7.3-3.56-9.73,2-2.16-1.44-4.51-1.89-6.41.1s-.53,4.21.62,6.18c.33.55.8,1,1.12,1.58.67,1.18,2.26,2.65,1.44,3.64-1,1.23-3,.5-4.51-.09-2.72-1.08-5-3-7.4-4.55-7.08-4.68-14.47-8.9-21.14-14.19-.93-.73-2-1.35-2.33-2.57ZM114,636.76c-.23-5.1-2.92-8.8-7-11.57-1.63-1.11-3.65-1.69-5.45-.44s-2.08,3.39-1.71,5.51a16.51,16.51,0,0,0,6.1,10.26c1.6,1.31,3.28,2.51,5.52,1.39S114.11,639,114,636.76Z"/><path class="cls-3" d="M115.85,651.54c2.44.15,3.46,2,4.88,3.14,1.94,1.53,3.73,3.25,5.61,4.85.62.53,1.37,1.46,2.19.72s.3-1.7-.29-2.58c-1.43-2.13-2.77-4.34-4.13-6.53a3.15,3.15,0,0,1-.34-2.68c1.33.28,2,1.39,2.84,2.24,4.2,4.38,8.14,9,13.59,12,2.13,1.18,3.29,3.33,4.14,5.61,7.58,20.39,17.78,39.63,26.25,59.63.55,1.29,1,3.25,3,2.53s2-2.54,1.25-4.31c-1-2.39-1.87-4.8-2.9-7.16-.61-1.39-.28-2.1,1.12-2.69,3.39-1.44,6.2-1.05,8.87,1.5,3.66,3.5,5.71,8,7.83,12.49a2,2,0,0,1-.79,2.78c-5.27,4.25-10.34,8.8-15.88,12.67-6.68,4.68-14.37,2.49-18.32-4.78-2.54-4.66-3.79-9.83-5.41-14.83-4.16-12.89-8.42-25.75-12.23-38.74-1.68-5.72-5.85-9.7-8.68-14.59-.19-.34-.88-.52-.9-.8-.46-6.93-5.83-11-9.34-16.17A13.69,13.69,0,0,1,115.85,651.54Z"/><path class="cls-3" d="M93.11,672.05c1,2.88-1,4.47-3.69,5.64A29.38,29.38,0,0,0,86,679.46c-5.72,3.49-11.6,5.7-18.59,4.41-4.07-.75-8.34.64-12.54-.06-4.53-.75-6.75-3.67-6-8.2a20.77,20.77,0,0,1,4-8.73c6.29-8.76,14.15-16.18,21-24.41.77-.92,1.21-1.06,2.25-.14A58.86,58.86,0,0,0,83.48,648c1.91,1.22,1.67,2.1.53,3.7-4.3,6-8.47,12.17-12.67,18.28a29.58,29.58,0,0,0-1.65,2.76c-.77,1.43-1.83,3,.16,4.2s3.09-.51,3.74-1.92c2.89-6.32,7.48-9.22,14.49-7.62a4.49,4.49,0,0,0,1,0C93.13,667.44,93.13,667.44,93.11,672.05Z"/><path class="cls-4" d="M154.54,681.1c8.82,4.71,18.37,7.08,27.34,10.83a54.46,54.46,0,0,1,19.32,14.16c5.17,5.74,4.72,12.75-.51,18.42-1.74,1.89-3.41,3.85-5.38,6.09-2.63-4.93-4.42-9.42-7.55-13.09s-6.54-6.89-11.89-6.64a6,6,0,0,0-3.38.88c-2.43,1.78-3.67,1.13-4.88-1.64-3.73-8.55-7.79-17-11.7-25.45C155.38,683.51,155,682.29,154.54,681.1Z"/><path class="cls-3" d="M196.34,695.37c4.19-1.6,7.81-2.92,11.39-4.37,7.51-3,13.27-8.3,17.85-14.81,1.49-2.13,2.58-2.21,4.61-1,4.85,3,9.84,5.71,14.73,8.61,3.91,2.31,3.9,3.65.13,6.08Q229.5,700,213.94,710c-1.34.87-2.63,1.82-4.28,3C207.66,705.29,202.7,700,196.34,695.37Z"/><path class="cls-3" d="M104.78,662.28c-7.11,1.11-13.92.53-20.74.34-1.93,0-1.45-1.2-.83-2.09,1.71-2.46,3.54-4.85,5.35-7.24.42-.55.81-1.5,1.75-.86C95.15,655.69,100,659,104.78,662.28Z"/><path class="cls-3" d="M78.32,630.74c-3.44-2.64-5.18-5.41-4.27-10.4.61-3.34.93-6.38,3.09-9.05,1-1.28,2.08-1.46,2.4.31s3.79,4.18-.9,5.2c-.66.15-.09,1.31.17,2,.91,2.35,2.71,4.13,4,6.24l.51.62.1.11a2.14,2.14,0,0,1-1.47,2.64c-1-.73-1.89-1.7-3.25-1.92-.87,1.08,0,1.92.37,2.84A1.51,1.51,0,0,1,78.32,630.74Z"/><path class="cls-4" d="M109,667.12a54,54,0,0,0-8.25,4.4c-.68.44-1.43,1.31-2.24.59s-.56-2-.56-3.05.85-1.27,1.77-1.33C102.8,667.55,105.89,667.32,109,667.12Z"/><path class="cls-3" d="M29.87,748.29c-.1-2-1.74-1-2.69-1.33a27.84,27.84,0,0,1,8.5-3A11.5,11.5,0,0,1,29.87,748.29Z"/><path class="cls-3" d="M78.32,630.74a1.51,1.51,0,0,0,.73-1.41c2.28,1.79,4.75,3.38,6.16,6.06C82.38,634.57,80.45,632.51,78.32,630.74Z"/><path class="cls-3" d="M81.93,628.41a2.14,2.14,0,0,0,1.47-2.64c1.69,1.73,3.16,3.55,2.25,6.73Z"/><path class="cls-2" d="M80.06,638.69c-.41-.34-.77-.79-.19-1.16.36-.23.65.22.77.62C80.44,638.32,80.25,638.51,80.06,638.69Z"/><path class="cls-3" d="M83.3,625.66l-.51-.62Z"/><path class="cls-1" d="M252.25,741.05c1.45-.06,3,.81,4.46,1.65,8.6,4.88,17.16,9.82,25.73,14.74a13.68,13.68,0,0,1,1.35.89c3.25,2.42,3.44,5.64.12,7.94C277,771,270,775.59,263,780.21a6.56,6.56,0,0,1-7.31.16c-9.36-5.29-18.75-10.52-28-16-4.07-2.38-4.19-5.72-.37-8.38,6.34-4.43,12.8-8.7,19.26-13A10,10,0,0,1,252.25,741.05Zm26.21,21c-.08-.74-.62-1.09-1.21-1.38-8-3.92-15.42-8.86-23.22-13.13-1.39-.76-2.67-1.11-4.19-.09-5.42,3.66-10.9,7.24-16.4,10.8-1.76,1.14-1.48,1.87.2,2.8,7.78,4.32,15.55,8.66,23.24,13.12,1.89,1.1,3.27.84,5-.32,4.95-3.4,9.76-7,15-10C277.56,763.54,278.43,763.13,278.46,762.08Z"/><path class="cls-4" d="M278.47,762.08c0,1-.91,1.46-1.61,1.85-5.25,2.94-10.06,6.55-15,10-1.7,1.16-3.08,1.42-5,.32-7.69-4.46-15.46-8.8-23.24-13.12-1.68-.93-2-1.66-.2-2.8,5.5-3.56,11-7.14,16.4-10.8,1.52-1,2.8-.67,4.19.09,7.8,4.27,15.23,9.21,23.22,13.13A1.81,1.81,0,0,1,278.47,762.08Z"/><path class="cls-1" d="M495.12,534.24c1.41-.08,2.08.85,1,2.54-3.64,5.59-6.48,11.52-12.88,15.18-10.16,5.8-19.71,12.66-29.46,19.16-6.08,4.06-13,5.51-20,6.69-2.42.41-3.05-.87-1.86-2.8,3.8-6.14,6.94-12.44,14-16.3a224.93,224.93,0,0,0,27.37-18.2C479.75,535.58,487,535,495.12,534.24Zm-44,33.07c.95-.71,1.86-1.47,2.84-2.11q12.74-8.37,25.52-16.69c1.4-.91,2.5-1.72,1.06-3.5-1.07-1.31-1.75-2.45-3.81-1-9.09,6.25-18.31,12.31-27.49,18.44-.75.5-2,.81-1.13,2.12C448.84,565.68,449.58,566.9,451.08,567.31Zm-8.56-3-3.9,8.08c2.93-.62,5.62-.89,8.25-2A22.4,22.4,0,0,0,442.52,564.3Zm46.84-24.58c-.33-1.38-1.24-1-1.84-.8-1.69.61-4.58-.46-4.76,2.14-.09,1.32,2.1,4.34,2.93,3.84C487.38,543.85,488.24,541.44,489.36,539.72Z"/><path class="cls-4" d="M451.08,567.31c-1.5-.41-2.24-1.63-3-2.77-.87-1.31.38-1.62,1.13-2.12,9.18-6.13,18.4-12.19,27.49-18.44,2.06-1.42,2.74-.28,3.81,1,1.44,1.78.34,2.59-1.06,3.5q-12.78,8.31-25.52,16.69C452.94,565.84,452,566.6,451.08,567.31Z"/><path class="cls-3" d="M442.52,564.3a22.4,22.4,0,0,1,4.35,6.09c-2.63,1.1-5.32,1.37-8.25,2Z"/><path class="cls-3" d="M489.36,539.72c-1.12,1.72-2,4.13-3.67,5.18-.83.5-3-2.52-2.93-3.84.18-2.6,3.07-1.53,4.76-2.14C488.12,538.71,489,538.34,489.36,539.72Z"/><path class="cls-1" d="M192.64,651.64c-1.74,0-2.6-.84-2.52-2.37a3.38,3.38,0,0,1,3.37-3.55,2.14,2.14,0,0,1,2.39,2.4A3.4,3.4,0,0,1,192.64,651.64Z"/><path class="cls-1" d="M174.58,632.82a3.27,3.27,0,0,1,3.41-3.14,2.09,2.09,0,0,1,2,2.7c-.41,1.77-1.46,3.21-3.53,3.14C174.87,635.46,174.32,634.38,174.58,632.82Z"/><path class="cls-1" d="M173.09,649.19c-.24,1.3-.82,1.83-1.84,1.75s-1.21-.72-1.15-1.58c.08-1.12.83-1.38,1.78-1.37S173,648.72,173.09,649.19Z"/><path class="cls-3" d="M114,636.76c.11,2.21-.4,4.09-2.53,5.15s-3.92-.08-5.52-1.39a16.51,16.51,0,0,1-6.1-10.26c-.37-2.12-.16-4.2,1.71-5.51s3.82-.67,5.45.44C111.08,628,113.77,631.66,114,636.76Z"/><path class="cls-1" d="M-5.21,457.32c3.7-1.34,6.76-3.78,10.11-5.73.87-.5,1.4-1.29.31-2-3.66-2.42-6.7-5.76-10.91-7.36l-2-63c1.54,1,3.17,1.89,4.61,3q14,10.92,27.81,21.93c1.4,1.11,2.76,2.24,4.66,1a132.45,132.45,0,0,1,14.89-7.89,6,6,0,0,0,3.39-4c2.81-8,4.14-16.5,7.85-24.21,2.42-5,5-10,10.41-12.39,1.38-.61,1.2-1.6,1.1-2.68-.35-3.48-.68-7-1.06-10.44-.23-2.23.32-4.15,2.27-5.42s4-.7,5.85.42c.65.39,1.32.77,2,1.18,7.63,4.91,15.31,9.74,22.84,14.79,3.47,2.33,6.78,4.66,11.3,3.72a5.61,5.61,0,0,1,2.24.35c6.35,1.5,11.33,5.52,16.55,9.08,1.83,1.25,3.17.75,3.35-1.5a12.88,12.88,0,0,0-.44-3.23c-1.25-6.93-.53-13.51,3.51-19.47,1.84-2.71,3.92-5.26,5.62-8.06.95-1.56,4-2.73,1.6-5.39a2,2,0,0,1,.84-1.2c3.45-1.44,2.83-3.85,1.9-6.6a34,34,0,0,1-.88-5.48c-.27-1.78.44-2.1,2-1.51,2.12.79,4.29,1.41,6.4,2.2,1.54.58,2.28.24,2.7-1.45.68-2.75,1.63-5.43,2.48-8.13s1.92-3.23,4.29-1.22a54.36,54.36,0,0,0,14,8.34c1.37.58,1.93.52,2.26-1a16.19,16.19,0,0,1,2.08-5.53c5.83,4.63,11.56,9.26,14,16.31a52.8,52.8,0,0,0,6,12c5,7.58,4.93,15.95,1.26,24.12-1.37,3-.83,4.48,2.07,6,4.74,2.47,9.29,5.32,13.83,8.16,7.58,4.74,7.68,11.08.19,15.86q-17.69,11.26-35.55,22.28a2.53,2.53,0,0,0-1.44,2.57c.16,6.39-2.19,11.89-5.78,17.07-2.47,3.58-5.92,6.47-7.53,10.66a1.79,1.79,0,0,1-2.1,1.22c-2.26-.84-3.2.83-4.35,2-5.28,5.53-10.39,11.26-16.47,16-8.84,6.82-19.45,4.21-24.32-5.86a25.84,25.84,0,0,1-1.75-4.23c-.74-2.63-1.78-3.09-4.26-1.54-7.21,4.53-14.58,8.81-21.9,13.17-24.91,14.83-51,27.37-77.27,39.54-6.23,2.89-12.19,6.37-18.76,8.47Zm107.92-69.67c-.36,2.14-1.63,2.31-3.16,1.27s-3-2.36-4.71-3.67c-1,2.1,1,2.95,1.8,4.06,1.43,1.94,2.23,3.24-1.78,3a36.28,36.28,0,0,0,6.55,7.56,25.86,25.86,0,0,1,6.21,9.85c5.51,14.71,11,29.43,16.84,44,3.5,8.78,11.06,10.53,18.38,4.51,6.34-5.22,11.65-11.51,17.46-17.29a2,2,0,0,0,.36-2.64c-3.16-5.74-7.38-10.25-13.91-12.17a3,3,0,0,0-3.64,1.17c-4.12,5-4.16,4.93-1.29,10.74,1.31,2.64,2.7,5.26,3.16,8.21.18,1.18.29,2.49-1.18,3.07-1.66.66-2.13-.68-2.64-1.71-7.8-15.74-15.71-31.43-23.28-47.28-2.84-6-3.76-12.76-7.39-18.45-.28-.43-.6-.84-.95-1.31-3.1,5.71-3.1,5.71-6.08,4.12-1.83-1.69-3.65-3.4-5.51-5.06-.61-.54-1.26-1.54-2.18-.73s-.39,1.69.2,2.35c1.85,2.08,3.43,4.47,6.06,5.73l0,0ZM100.13,362c-7-5.25-14.54-9.53-21.87-14.21-2.36-1.51-4.75-3-7.19-4.49a3.11,3.11,0,0,0,.25,3.28c.12,2.51.22,5,.35,7.52a9.3,9.3,0,0,0,3.49,7.36,31.66,31.66,0,0,1,6.53,7.7A12.9,12.9,0,0,1,83.44,376c.15,3.56-3.94,3-4.72,4.88-.91,2.25-.42,5.15-3.84,5.47-1.65.15-2,1.14-2,2.42a4.9,4.9,0,0,0,2.45,4.7c8.47,4.76,16.49,10.21,24.49,15.7.5.34,1.07,1,1.69.3a1.5,1.5,0,0,0,0-1.84,27.69,27.69,0,0,0-5.36-7A16.79,16.79,0,0,1,90,386.51c.18-3.16,1.35-6.35,1.71-9.64.26-2.31,3.79-3.35,5.89-2,1.91,1.24,3.62,2.78,5.44,4.17.56.42.91,1.44,1.85.91.65-.37.44-1.17.41-1.79-.22-3.7-.48-7.39-.73-11.09.62-3.51-2.4-3.91-4.42-5.17Zm-27.2,18.77c-.28-2.81-2.16-4.3-4-5.8-.35-.92-2.14-1.41-.85-2.82,1-1.05,1.36.34,2,.49a13.92,13.92,0,0,0,5,4.05c-1-3.24-3.16-4.78-4.83-6.66-.09-1-.7-2.23,1.13-2.24l7.34,7.53c-.33-4.9-3.76-7.54-6.79-10.46-4.25-4.57-5.9-4.45-9.41.73a35.08,35.08,0,0,0-4.23,8c-1.4,4-.43,5.68,3.72,6.08.86.09,1.73-.09,2.37.68,1.26,1.93,3.65,1.46,5.36,2.46.14.08.74-.28.73-.38-.06-.4-.16-1-.44-1.14-1.37-.85-2.81-1.6-4.23-2.39-1.18-2-.68-2.87,1.68-2.47ZM62.82,393.33c-9.44,4.77-18.92,9.47-28.35,14.27-1.34.68-3.84,1.25-.85,3.37,19.62,13.92,33.69,32,41.1,55,.81,2.52,1.28,2.61,3.61,1.21,11.78-7,23.6-14,35.27-21.23,1.75-1.09,1.85-2.06,1.24-3.7q-4.19-11.21-8.25-22.43a3.6,3.6,0,0,0-1.65-1.89c-10.34-6.64-20.6-13.41-31-19.94-3.26-2-5.67-4.36-5.58-9.43C66.81,391.64,64.72,392.37,62.82,393.33Zm91.31-61.12c-1.07-.3-2.16-.75-3.1.12-8,7.38-15.27,15.16-14.88,27.13a4.89,4.89,0,0,0,.17,1.63c2.33,6.06-.38,10.45-5,13.84-2.84,2.08-2.43,3.87-.66,6.19,4.44,5.83,10.95,8.07,17.52,10.24,1.33.44,1.41-.58,1.79-1.3,3.81-7.29,11.23-9.67,17.88-13.08,1.34-.69,2.24.51,3.21,1.12,3.07,1.9,6.23,2.61,9.62.89a6,6,0,0,0,2.94-8c-.36-.79-.6-1.61-1.91-1.76-2.66-.32-3.1-2.17-1.94-4.26,2.34-4.23,1.85-8.05-.45-12.26a28.19,28.19,0,0,1-3-15.92c.18-2.36-.38-3.17-2.74-2.74a23.93,23.93,0,0,1-3.6.15A47.27,47.27,0,0,1,154.13,332.21Zm8.31,66.52c-4.69-1.76-9.63-1.81-14.42-2.82-8.07-1.72-15.44-4.85-20.7-11.52-2.62-3.33-4.63-7-2.11-11.42a1.4,1.4,0,0,0-.34-2c-4.14-3-8.29-6-13.28-7.58-2-.61-2.62,0-2.35,2,.39,2.92.65,5.85,1,8.76a3.08,3.08,0,0,0,.69,1.77,29.78,29.78,0,0,1,8.37,14.85c2,8.08,6.77,14.84,10.1,22.27,1.83,4.06,3.92,8,5.78,12.05,1,2.16,2.07,2.53,3.32.37,2.38-4.11,5.66-4.67,10-3.42,7.08,2,12,6.54,15.5,12.68,1.53,2.72,2.19,2,3.69.27,5.53-6.23,8.88-12.68,8.53-19.42C176.49,409.25,171.06,402,162.44,398.73ZM196,371a56.5,56.5,0,0,1-10,9.89c-4.88,3.88-10.24,5.25-16.09,2a2.33,2.33,0,0,0-2.44-.33c-3.89,2-7.85,3.81-11.17,6.73-1.68,1.47-2,2.42.67,3.06,5.75,1.4,11.36,3.16,16,7.1a23.66,23.66,0,0,1,6.1,7.6c.66,1.34,1.19,2,2.9.93,11-7,22.19-13.9,33.25-20.9,4.43-2.8,4.41-4.76-.09-7.55-5-3.1-10.1-6.05-15.17-9.05-.65-.39-1.35-.7-1.88-1C196.83,369.35,196.51,370.3,196,371ZM65.39,386.08c-3-1.29-5.67-2.37-8.28-3.54-.81-.36-1.24-.13-1.45.62-.89,3.07-1.75,6.14-2.78,9.76A100,100,0,0,0,65.39,386.08Z"/><path class="cls-3" d="M-5.21,457.32c3.7-1.34,6.76-3.78,10.11-5.73.87-.5,1.4-1.29.31-2-3.66-2.42-6.7-5.76-10.91-7.36Z"/><path class="cls-6" d="M68.34,388.61c-1.53,3-3.62,3.76-5.52,4.72-9.44,4.77-18.92,9.47-28.35,14.27-1.34.68-3.84,1.25-.85,3.37,19.62,13.92,33.69,32,41.1,55,.81,2.52,1.28,2.61,3.61,1.21,11.78-7,23.6-14,35.27-21.23,1.75-1.09,1.85-2.06,1.24-3.7q-4.19-11.21-8.25-22.43a3.6,3.6,0,0,0-1.65-1.89c-10.34-6.64-20.6-13.41-31-19.94C70.66,396,68.25,393.68,68.34,388.61Z"/><path class="cls-3" d="M173.59,334.05c2.36-.43,2.92.38,2.74,2.74a28.19,28.19,0,0,0,3,15.92c2.3,4.21,2.79,8,.45,12.26-1.16,2.09-.72,3.94,1.94,4.26,1.31.15,1.55,1,1.91,1.76a6,6,0,0,1-2.94,8c-3.39,1.72-6.55,1-9.62-.89-1-.61-1.87-1.81-3.21-1.12-6.65,3.41-14.07,5.79-17.88,13.08-.38.72-.46,1.74-1.79,1.3-6.57-2.17-13.08-4.41-17.52-10.24-1.77-2.32-2.18-4.11.66-6.19,4.63-3.39,7.34-7.78,5-13.84a4.89,4.89,0,0,1-.17-1.63c-.39-12,6.9-19.75,14.88-27.13.94-.87,2-.42,3.1-.12a47.27,47.27,0,0,0,15.86,2A23.93,23.93,0,0,0,173.59,334.05Z"/><path class="cls-3" d="M166.22,350.82a3.2,3.2,0,0,0-3,3.66c.1,1.55.89,2.88,2.69,2.61a3.22,3.22,0,0,0,2.92-3.7C168.79,351.69,168,350.57,166.22,350.82Z"/><path class="cls-3" d="M151.2,340.53c-2.15.36-3,1.93-3,3.94a2,2,0,0,0,2.32,2.1c2.28-.16,3.06-1.69,3.16-3.81C153.47,341.36,152.9,340.24,151.2,340.53Z"/><path class="cls-6" d="M176.26,415.55c.23-6.3-5.2-13.58-13.82-16.82-4.69-1.76-9.63-1.81-14.42-2.82-8.07-1.72-15.44-4.85-20.7-11.52-2.62-3.33-4.63-7-2.11-11.42a1.4,1.4,0,0,0-.34-2c-4.14-3-8.29-6-13.28-7.58-2-.61-2.62,0-2.35,2,.39,2.92.65,5.85,1,8.76a3.08,3.08,0,0,0,.69,1.77,29.78,29.78,0,0,1,8.37,14.85c2,8.08,6.77,14.84,10.1,22.27,1.83,4.06,3.92,8,5.78,12.05,1,2.16,2.07,2.53,3.32.37,2.38-4.11,5.66-4.67,10-3.42,7.08,2,12,6.54,15.5,12.68,1.53,2.72,2.19,2,3.69.27C173.26,428.74,176.61,422.29,176.26,415.55Z"/><path class="cls-3" d="M102.71,387.65c-.36,2.14-1.63,2.31-3.16,1.27s-3-2.36-4.71-3.67c-1,2.1,1,2.95,1.8,4.06,1.43,1.94,2.23,3.24-1.78,3a36.28,36.28,0,0,0,6.55,7.56,25.86,25.86,0,0,1,6.21,9.85c5.51,14.71,11,29.43,16.84,44,3.5,8.78,11.06,10.53,18.38,4.51,6.34-5.22,11.65-11.51,17.46-17.29a2,2,0,0,0,.36-2.64c-3.16-5.74-7.38-10.25-13.91-12.17a3,3,0,0,0-3.64,1.17c-4.12,5-4.16,4.93-1.29,10.74,1.31,2.64,2.7,5.26,3.16,8.21.18,1.18.29,2.49-1.18,3.07-1.66.66-2.13-.68-2.64-1.71-7.8-15.74-15.71-31.43-23.28-47.28-2.84-6-3.76-12.76-7.39-18.45-.28-.43-.6-.84-.95-1.31-3.1,5.71-3.1,5.71-6.08,4.12-.51.74-1.58,1.13-1.43,2.29l0,0Z"/><path class="cls-3" d="M198.12,369.45c-1.29-.1-1.61.85-2.12,1.51a56.5,56.5,0,0,1-10,9.89c-4.88,3.88-10.24,5.25-16.09,2a2.33,2.33,0,0,0-2.44-.33c-3.89,2-7.85,3.81-11.17,6.73-1.68,1.47-2,2.42.67,3.06,5.75,1.4,11.36,3.16,16,7.1a23.66,23.66,0,0,1,6.1,7.6c.66,1.34,1.19,2,2.9.93,11-7,22.19-13.9,33.25-20.9,4.43-2.8,4.41-4.76-.09-7.55-5-3.1-10.1-6.05-15.17-9.05C199.35,370,198.65,369.72,198.12,369.45Z"/><path class="cls-3" d="M71.32,346.53c.12,2.51.22,5,.35,7.52a9.3,9.3,0,0,0,3.49,7.36,31.66,31.66,0,0,1,6.53,7.7A12.9,12.9,0,0,1,83.44,376c.15,3.56-3.94,3-4.72,4.88-.91,2.25-.42,5.15-3.84,5.47-1.65.15-2,1.14-2,2.42a4.9,4.9,0,0,0,2.45,4.7c8.47,4.76,16.49,10.21,24.49,15.7.5.34,1.07,1,1.69.3a1.5,1.5,0,0,0,0-1.84,27.69,27.69,0,0,0-5.36-7A16.79,16.79,0,0,1,90,386.51c.18-3.16,1.35-6.35,1.71-9.64.26-2.31,3.79-3.35,5.89-2,1.91,1.24,3.62,2.78,5.44,4.17.56.42.91,1.44,1.85.91.65-.37.44-1.17.41-1.79-.22-3.7-.48-7.39-.73-11.09-1.16-2-4-2.54-4.42-5.17V362c-2.11.21-3.69-1-5.33-2Q84.23,353,73.62,346.17A1.58,1.58,0,0,0,71.32,346.53Z"/><path class="cls-3" d="M65.83,378.89c-1.18-2-.68-2.87,1.68-2.47l1.4-1.5c-.35-.92-2.14-1.41-.85-2.82,1-1.05,1.36.34,2,.49.06-.87.12-1.74.17-2.61s-.7-2.23,1.13-2.24a5.93,5.93,0,0,0,.55-2.93c-4.25-4.57-5.9-4.45-9.41.73a35.08,35.08,0,0,0-4.23,8c-1.4,4-.43,5.68,3.72,6.08.86.09,1.73-.09,2.36.68C65.41,380.37,65.82,379.83,65.83,378.89Z"/><path class="cls-3" d="M52.88,392.92a100,100,0,0,0,12.51-6.84c-3-1.29-5.67-2.37-8.28-3.54-.81-.36-1.24-.13-1.45.62C54.77,386.23,53.91,389.3,52.88,392.92Z"/><path class="cls-3" d="M71.32,346.53a1.58,1.58,0,0,1,2.3-.36Q84.23,353,94.8,359.93c1.64,1.06,3.22,2.23,5.33,2-7-5.25-14.54-9.53-21.87-14.21-2.36-1.51-4.75-3-7.19-4.49A3.11,3.11,0,0,0,71.32,346.53Z"/><path class="cls-3" d="M102,387c-.15-1.16.92-1.55,1.43-2.29-1.83-1.69-3.65-3.4-5.51-5.06-.61-.54-1.26-1.54-2.18-.73s-.39,1.69.2,2.35C97.82,383.36,99.4,385.75,102,387Z"/><path class="cls-3" d="M72,364.81a5.93,5.93,0,0,1-.55,2.93l7.34,7.53C78.42,370.37,75,367.73,72,364.81Z"/><path class="cls-3" d="M68.91,374.92l-1.4,1.5,5.42,4.3C72.65,377.91,70.77,376.42,68.91,374.92Z"/><path class="cls-3" d="M70.28,370c0,.87-.11,1.74-.17,2.61a13.92,13.92,0,0,0,5,4.05C74.11,373.4,72,371.86,70.28,370Z"/><path class="cls-3" d="M65.83,378.89c0,.94-.42,1.48-1.43,1.45,1.27,1.93,3.66,1.46,5.37,2.46.14.08.74-.28.73-.38-.06-.4-.16-1-.44-1.14C68.69,380.43,67.25,379.68,65.83,378.89Z"/><path class="cls-3" d="M100.13,361.9c.41,2.63,3.26,3.18,4.42,5.17C105.17,363.56,102.15,363.16,100.13,361.9Z"/><path class="cls-3" d="M102.71,387.65l-.64-.61Z"/><path class="cls-1" d="M168.85,353.39c-.06-1.7-.85-2.82-2.63-2.57a3.2,3.2,0,0,0-3,3.66c.1,1.55.89,2.88,2.69,2.61A3.21,3.21,0,0,0,168.85,353.39Z"/><path class="cls-1" d="M153.64,342.76c-.17-1.4-.74-2.52-2.44-2.23-2.15.36-3,1.93-3,3.94a2,2,0,0,0,2.32,2.1C152.76,346.41,153.54,344.88,153.64,342.76Z"/><path class="cls-1" d="M149.19,361.26a9.28,9.28,0,0,1-3.62-2.17,7.17,7.17,0,0,1-2.29-3.72,1.14,1.14,0,0,1,1.16-1.25,1.47,1.47,0,0,1,1.37,1.28c-.11-.55,0,0,.09.19s.21.39,0,0l.17.32c.17.27.36.53.56.79,0,0-.2-.22,0,0a1.8,1.8,0,0,0,.19.2c.15.17.32.32.48.48l.46.39.21.18.13.09L148,358a2.66,2.66,0,0,0,.77.47l.35.17c.29.14-.27-.09,0,0l.47.16a1.4,1.4,0,0,1,1,1.55,1.14,1.14,0,0,1-1.47.88Z"/><path class="cls-1" d="M249.39,305.85c-2.16.06-4.23-.94-6.2-2Q222,292.19,200.91,280.4c-4.77-2.67-4.93-7.11-.4-10.2,13.43-9.14,26.93-18.18,40.36-27.33a8.87,8.87,0,0,1,10.24-.39c14.13,8,28.3,16,42.45,23.92A17.85,17.85,0,0,1,296,268a5.42,5.42,0,0,1-.36,9L256.4,303.24C254.33,304.62,252.23,305.94,249.39,305.85ZM283,271.07c1.16-.18,2.16-.7,2.2-1.95,0-1.86-1.69-2.44-2.9-3.13-10.87-6.19-21.82-12.23-32.69-18.43-2.45-1.4-3.75-.82-4.51,1.72-11.68,6.87-22.48,15-34,22.41,12.76,7.09,25.15,13.93,37.48,20.88,1.34.75,2.35.85,3.47-.06C261.77,284.58,273,278.78,283,271.07Zm-77,4.14c-.32.21-.8.35-.95.65-.31.61.21,1,.66,1.27,2.3,1.38,4.58,2.79,6.91,4.1q11.2,6.3,22.45,12.52c3.57,2,7.2,3.82,10.81,5.71.58.3,1.3.59,1.72-.1s0-1.26-.55-1.68-1.12-.65-1.59-1.08c-3-2.84-7.14-3.76-10.57-5.92-8.77-5.55-18.13-10-27.26-14.93A10,10,0,0,0,205.94,275.21Zm46.94,23.91c2.9-1.76,5.38-3.15,7.75-4.71q12.89-8.51,25.73-17.09c.7-.47,1.8-.9,1.28-1.89-.63-1.22-1.67-.41-2.49,0a27.26,27.26,0,0,0-2.5,1.47c-9.16,6-18.29,12-27.47,17.91A4.46,4.46,0,0,0,252.88,299.12Z"/><path class="cls-3" d="M283,271.07c-9.94,7.71-21.19,13.51-31,21.44-1.12.91-2.13.81-3.47.06-12.33-6.95-24.72-13.79-37.48-20.88,11.55-7.37,22.35-15.54,34-22.41,8.11,5.09,16.75,9.22,25,14.09C274.35,265.92,279.25,267.51,283,271.07Zm-35.3,16.8a7.56,7.56,0,0,0,3.62-1.8c6.38-4.76,13.3-8.7,19.89-13.14,1-.67,2.76-1.21,1.86-2.84s-2.44-.68-3.6.05c-4.69,3-9.37,6-14,9.06-3,1.94-5.86,4-8.75,6-.58.41-1.27,1-.77,1.87C246.24,287.72,246.89,287.83,247.66,287.87ZM231.85,279a12.79,12.79,0,0,0,1.83-.9c7.29-4.92,14.56-9.89,21.86-14.81,1-.65,1.91-1.35,1.23-2.56-.94-1.68-2-.4-2.94.17q-6.66,4.2-13.27,8.5c-3.24,2.1-6.45,4.23-9.66,6.37-.73.48-1.46,1-1.1,2.08C230.1,278.66,230.93,278.7,231.85,279ZM264.57,266c-.78-1.63-1.82-1.6-3.28-.6-7.18,4.87-14.41,9.67-21.6,14.52a10.78,10.78,0,0,0-1.6,1.57c-.37.4-.69.86-.33,1.42a1.34,1.34,0,0,0,1.66.63,10.72,10.72,0,0,0,2-1.1L263,268C263.75,267.54,264.52,267.15,264.57,266Zm-40.95,8.31c.52-.29,1.2-.62,1.82-1q10.74-7.33,21.47-14.71c.79-.55,2.32-.87,1.29-2.34-.92-1.31-1.92-.76-3,0-3.84,2.53-7.79,4.88-11.61,7.43s-7.25,5-10.81,7.6c-.62.45-1.63,1-1.11,2A1.81,1.81,0,0,0,223.62,274.34Z"/><path class="cls-2" d="M283,271.07c-3.71-3.56-8.61-5.15-12.92-7.7-8.23-4.87-16.87-9-25-14.09.76-2.54,2.06-3.12,4.51-1.72,10.87,6.2,21.82,12.24,32.69,18.43,1.21.69,2.94,1.27,2.9,3.13C285.12,270.37,284.12,270.89,283,271.07Z"/><path class="cls-2" d="M205.94,275.21a10,10,0,0,1,1.63.54c9.13,4.9,18.49,9.38,27.26,14.93,3.43,2.16,7.53,3.08,10.57,5.92.47.43,1.1.67,1.59,1.08s.94,1,.55,1.68-1.14.4-1.72.1c-3.61-1.89-7.24-3.74-10.81-5.71q-11.25-6.19-22.45-12.52c-2.33-1.31-4.61-2.72-6.91-4.1-.45-.28-1-.66-.66-1.27C205.14,275.56,205.62,275.42,205.94,275.21Z"/><path class="cls-2" d="M252.88,299.12a4.46,4.46,0,0,1,2.3-4.31c9.18-5.94,18.31-11.94,27.47-17.91a27.26,27.26,0,0,1,2.5-1.47c.82-.41,1.86-1.22,2.49,0,.52,1-.58,1.42-1.28,1.89q-12.87,8.55-25.73,17.09C258.26,296,255.78,297.36,252.88,299.12Z"/><path class="cls-2" d="M247.66,287.87c-.77,0-1.42-.15-1.77-.78-.5-.9.19-1.46.77-1.87,2.89-2,5.79-4.08,8.75-6,4.65-3.07,9.33-6.07,14-9.06,1.16-.73,2.62-1.82,3.6-.05s-.87,2.17-1.86,2.84c-6.59,4.44-13.51,8.38-19.89,13.14A7.56,7.56,0,0,1,247.66,287.87Z"/><path class="cls-2" d="M231.85,279c-.92-.26-1.75-.3-2-1.15-.36-1.05.37-1.6,1.1-2.08,3.21-2.14,6.42-4.27,9.66-6.37q6.62-4.29,13.27-8.5c.9-.57,2-1.85,2.94-.17.68,1.21-.27,1.91-1.23,2.56-7.3,4.92-14.57,9.89-21.86,14.81A12.79,12.79,0,0,1,231.85,279Z"/><path class="cls-2" d="M264.57,266c-.05,1.12-.82,1.51-1.55,2l-21.65,14.45a10.72,10.72,0,0,1-2,1.1,1.34,1.34,0,0,1-1.66-.63c-.36-.56,0-1,.33-1.42a10.78,10.78,0,0,1,1.6-1.57c7.19-4.85,14.42-9.65,21.6-14.52C262.75,264.43,263.79,264.4,264.57,266Z"/><path class="cls-2" d="M223.62,274.34a1.81,1.81,0,0,1-2-1c-.52-1.06.49-1.59,1.11-2,3.56-2.59,7.14-5.16,10.81-7.6s7.77-4.9,11.61-7.43c1.12-.73,2.12-1.28,3,0,1,1.47-.5,1.79-1.29,2.34Q236.19,266,225.44,273.3C224.82,273.72,224.14,274.05,223.62,274.34Z"/><path class="cls-1" d="M319.08,403.55c.14-6.25-.66-12-.11-17.86a37,37,0,0,1,3.72-14.05,2.57,2.57,0,0,0-.26-3.33A32,32,0,0,1,316,352.88c-.77-5.29.53-10.5,2.69-15.29a69.85,69.85,0,0,0,6.48-26c.82-17.91,12-32,28.56-36.48C364.92,272.06,376,272.93,386,279c12.13,7.4,18.72,18.57,20.34,32.69.41,3.63.87,7.27,1.59,10.85,1.78,8.84,6.43,16.09,12.75,22.37a93.41,93.41,0,0,1,10.07,11.33c6.56,9.05,7.49,18.52,2,28.36-.64,1.15-.73,1.67,0,2.77a35.12,35.12,0,0,1,6,24.22c-.81,6.64-1.48,13.29-2.4,19.92-1.2,8.73-2.69,17.41-4,26.11a144.86,144.86,0,0,1-5.48,23.9,15.41,15.41,0,0,1-3.84,6.61c-1.48,1.4-1.1,3.27-.82,5.12A100.71,100.71,0,0,1,421,529.13c-2.62,12.93-9.29,23.72-17.9,33.54-15.85,18.07-34,33.6-53.54,47.4-18,12.71-32.37,11.17-48.21-4.27a170.64,170.64,0,0,1-15.72-17.51,13.06,13.06,0,0,0-4.42-3.65c-9.6-4.93-18.8-10.45-26.93-17.61a5.43,5.43,0,0,0-3.18-1.32,197.65,197.65,0,0,1-51.52-12.77c-6.48-2.58-12.18-6.32-16.22-12.26-5.05-7.43-4.18-16.81.64-23.83,4.61-6.71,11.23-10.85,18.33-14.35,3.37-1.66,6.81-3.21,10.31-4.56,2.24-.86,1.16-2.24.75-3.36-2.68-7.26-5.48-14.48-8.21-21.72q-3.65-9.64-7.22-19.32a13.77,13.77,0,0,1-1.11-5c0-2.93,2.25-4.61,5.18-4a14.57,14.57,0,0,1,4.13,1.77q31.68,17.72,63.31,35.5a5,5,0,0,0,4.44.49,82.09,82.09,0,0,1,10.68-2.4,52.8,52.8,0,0,0,26-12.64,77.78,77.78,0,0,1,7.07-5.62c1.78-1.23,1.56-2.08.31-3.52-3.93-4.52-8.81-8.21-11.89-13.48-.48-.81-1.42-.85-2.22-1.12-8.16-2.67-13.61-8.3-17.41-15.81-1.65-3.27-1.52-6.3.85-9,1.69-1.91,1.67-3.71.71-5.86-2.1-4.72-4.16-9.45-6.12-14.23-.94-2.28-2-4.79.27-6.89s4.65-1.32,7-.38C299,395.31,308.86,399.36,319.08,403.55Zm20.11,42.29,1.24.32c.69.82,1.63.65,2.53.63.82.67,1.82.5,2.76.65,4.7.78,9.08,2.29,12.74,5.53,11.22,9.9,22.39,19.87,34.39,28.82,4.65,3.47,9.61,6.51,15.46,7.74,4.67,1,8.19-.81,11-4.3a16.43,16.43,0,0,0,3.06-6,236.15,236.15,0,0,0,7.37-34.38c.83-6.33,1.8-12.63,2.65-19,.94-7,2.14-14,1.61-21.1a28.15,28.15,0,0,0-10.41-20.51c-1.58-1.3-2.7-1.14-4.2,0a33,33,0,0,0-13,20.14c-1.33,6-.88,11.79,3.13,16.84.92,1.16.72,2.36.6,3.66q-1.66,18.48-3.24,37c-.14,1.6-.33,3.17,1.52,4.19,1.25.68,2.31,1.84,1.14,3.42s-2.44.56-3.65-.13c-8.31-4.76-16.2-10.18-24.26-15.35-7.51-4.82-14.85-9.63-19.25-18-2.85-5.42-8-8.15-14.44-8.21-3.65,0-7.3-.54-11-.76a23.16,23.16,0,0,0-3.53.14c-.66.06-1.3.36-1.37,1.14s.69.91,1.31,1c1.16.22,2.32.48,3.48.66,3.61.56,7.22,1.06,10.83,1.64.85.14,1.75.51,1.64,1.63s-1.11.91-1.77.95c-2.26.14-4.52.09-6.77.24a34.39,34.39,0,0,1-8.24-.64,5.52,5.52,0,0,0,3.44,2.06c3.94,1.1,8.06.83,12,1.63.88.18,2.2.12,2,1.56-.2,1.24-1.38.75-2.13.76a83.25,83.25,0,0,1-13.58-.71,8.47,8.47,0,0,0,5.49,2.43c3.09.21,6.15.88,9.22,1.37.77.12,1.58.33,1.64,1.25.07,1.32-1.05,1.07-1.85,1.2a3.24,3.24,0,0,0-2.55-.22l-4.57-.31c-1-.39-2-1.13-3-.15C338.33,445,338.57,445.64,339.19,445.84Zm-15-43c.1.86-.38,1.89,1.1,2.84,2.71-13.66,8.28-26.48,7.15-41-4.93,4.19-6.53,9.81-7.94,15.17-1.56,5.95-1.1,12.22-.67,18.38A9.29,9.29,0,0,0,324.23,402.88Zm13.71,19.61c.94-3.38-.29-5.81-4.05-7.39q-22.31-9.35-44.66-18.56c-.88-.37-2-1.6-2.85-.48s.28,2.15,1,3.09q2.88,6.66,5.74,13.32c.3.7.45,1.41,1.4,1.56,2.11.32,4.2.84,6.32,1.05a6.87,6.87,0,0,1,5,2.56c2.41,3,7.46,4.09,6.74,9.35,0,.06.14.16.22.22,2.45,2,2.25,4.56,1.5,7.09-.47,1.57,0,2.09,1.34,2.62,4.77,1.94,9.51,4,14.28,5.93,1,.42,2.1,1.18,3.45.28-1-1.82-4.17-1.83-4-4.57.1-1.28-.76-2.11-1.21-3.16-2.38-5.55-2.52-11.57,5.33-12.49C335,422.73,336.51,423.18,337.94,422.49ZM313.78,542.57c3.21,1.71,6.51,3.28,9.65,5.11,4.28,2.51-5.7,5.71-7.29,6-2.69.46-2.79,2.06-2.05,4.42.12.41.3.81.39,1.23.39,1.94,1.26,2.07,3,1.17,12.35-6.52,24.76-12.93,37.13-19.41.82-.43,2.1-.76,2.13-1.74,0-1.24-1.39-1.49-2.29-2q-14.7-8.39-29.44-16.72c-10-5.66-20-11.3-30.5-17.24,1,3,2,5.48,2.6,8,1.27,5.13,6,6.58,10.23,8.88,2.4,1.32,4.77,2.68,7.13,4.08s4.9,2.57,6.83,4.28c-.58.71-2.25,1.31-3.14,1.86-1.69,1-3.07,1.7-5.12,1-.75-.24-9.43-5.52-9.4-5.58l-.48.85c1.62,2.65,4.75,3.17,7.17,4.7.61.68,3,1.08,2.78,2.15s-4.11,2.57-5,3.08c-2.3,1.34,1.77,3.62,2.77,4.2S312.8,542.05,313.78,542.57Zm-47.44-1.77a2.56,2.56,0,0,0,0,.83c7.63,25,22,45.7,41.17,63.07,11.53,10.44,23,12.43,36.9,2.89a307,307,0,0,0,50.41-43.13c9.83-10.5,18.48-21.76,21.45-36.47,2.18-10.78,2.27-21.54,1.3-32.4-.14-1.49-.33-2.42-2.29-1.88-5.88,1.63-11.21-.08-16.38-2.85-2-1.05-3.77-2.65-6.16-2.66C381,488.13,370,484.68,359.42,480s-21.11-9.46-28.31-19.1c-1.38-1.84-2.66-1.31-4.09-.23-3.94,3-7.93,5.92-11.8,9-6.74,5.35-13.21,11.11-22,13-4,.84-8,1.63-12,2.6-.91.23-2.57-.2-2.62,1.24,0,1.27,1.32,1.77,2.45,2.23,4.19,1.7,8.47,3.27,10.67,7.76.29.58,1.16.92,1.81,1.29,15.08,8.51,30.2,16.94,45.23,25.56,7.25,4.16,15,7.49,21.62,12.73,2.71,2.13,2.87,5.46.15,7.54a25,25,0,0,1-3.6,2.13c-10.21,5.34-20.39,10.71-30.66,15.93a5.7,5.7,0,0,0-3.35,4.69c-.67,4.57-1.51,9.11-.76,13.77.32,2.05-.33,3.87-2.61,4s-2.57-2-2.62-3.66c-.07-2.78.18-5.57.31-8.36.05-1.09.14-2.1-1-2.79-3.16-1.84-6.18-3.92-9.4-5.62-4.84-2.54-9.76-5.09-14.31-7.94-8-5-16.41-9.34-24.35-14.44C267.65,541,267.19,540.38,266.34,540.8Zm42.31,17.64c.42-1.87-.36-3.34-.89-4.8-6.42-17.56-12.93-35.09-19.3-52.67a10.21,10.21,0,0,0-5-5.86q-35.64-19.86-71.17-39.89c-3.22-1.81-6.46-3.57-10.34-5.71.61,2,.94,3.17,1.36,4.35q4.25,11.72,8.52,23.43c3.68,10,7.48,20,11,30.14a7.17,7.17,0,0,0,3.33,4.28q17.37,9.77,34.72,19.59C276.76,540.31,292.64,549.35,308.65,558.44Zm38.93-197.85c-1.17,6-.46,11.49-.06,17.06.8,11.06,5.77,18.45,17.12,20.7,1.05.21,2,.69,3.07,1,7.69,2.15,14.16.56,19.34-5.87s9.11-13.29,13.69-19.92c.93-1.35.49-2-.81-2.73-6.6-3.74-10.58-9.6-13.14-16.57-.64-1.74-1.36-3.45-2.11-5.36-1.39,1.38-2.39,2.5-3.52,3.47-1,.81-2,1.89-3.39.74s-.56-2.3.15-3.41a41.91,41.91,0,0,0,3.25-5.18c1.39-3.07,3-5.35,6.9-5.49,3-.1,4.77-2.44,5.17-5.37a5.84,5.84,0,0,0-3.23-6.19c-2.58-1.39-5.27-1.42-7.42.83-1.44,1.51-2.85,1.55-4.61.86a22.11,22.11,0,0,1-5.67-3,24.53,24.53,0,0,1-9.47-16.56,15.85,15.85,0,0,0-1.32,1.4,39.93,39.93,0,0,1-24.27,16.46c-1.63.37-1.62,1.31-1.47,2.62A41.52,41.52,0,0,0,341.66,348c6.63,10.44,14.49,13.21,26.13,9.21.95-.33,1.9-.6,2.58.46a2.12,2.12,0,0,1-.19,2.68,9.58,9.58,0,0,1-3.94,2.72C359.78,365.69,353.81,364.13,347.58,360.59Zm-10.35,9.67a46.28,46.28,0,0,1-.39,7.71c-1.28,9.38-4.89,18.27-5.82,27.74-.2,2,0,3,2,3.55,5.93,1.51,9.18,5.62,10.73,11.31.49,1.79,1.52,2.47,3.48,2.52,5.84.15,11.27,1.6,15.55,6a44.34,44.34,0,0,1,6.81,9,12.49,12.49,0,0,0,3.68,4.43q13.32,8.82,26.7,17.56c1.66,1.09,2.38.83,2.54-1.33.78-10.5,1.7-21,2.52-31.49.1-1.36.38-2.77-.46-4.08-4.63-7.12-4.64-14.72-2.24-22.54a38.47,38.47,0,0,1,11.93-18.41c4-3.39,3.74-2.76-.45-5a23.61,23.61,0,0,1-4-2.14c-2.49-2-3.78-.94-5.28,1.32-4.17,6.27-7.77,12.9-12.45,18.83-4.48,5.67-10,9.77-17.33,9.93-6.54.14-12.62-2.29-18.63-4.75-7.3-3-11-8.62-12.49-16.06-1.37-6.77-2.16-13.58-1.28-20.48.32-2.52-1-2.7-2.89-2.14a2.78,2.78,0,0,0-2.25,3.07C337.29,366.6,337.23,368.43,337.23,370.26Zm-152.35,160c.74,6.87,4.93,12,11.27,15.29,15,7.85,31.55,11,48,14.21.74.15,1.87.63,2.3-.4s-.67-1.48-1.27-2c-4.63-4.1-8.17-9-9.08-15.18s-4.49-11.27-7.86-16.37a2.78,2.78,0,0,0-3.54-1.26q-5.43,1.5-10.92,2.77c-1.65.38-3.69,1-4.36-1.29s1.25-3.16,3.11-3.59c4.08-.94,8.18-1.77,12.28-2.66.9-.19,2.15.05,2.38-1.17s-.9-1.7-1.73-2.06c-4.68-2-7-5.8-8-10.57-.13-.62-.48-1.19-.66-1.81-.49-1.64-1.32-2.21-3.09-1.5-6.58,2.69-13,5.66-18.8,9.85S185.29,522.34,184.88,530.3ZM232.33,521c.37,3.84,2.33,6.29,4.07,8.8,1.85,2.68,3.55,5.37,3.82,8.74a20.57,20.57,0,0,0,5.12,11.93,121.31,121.31,0,0,0,16.48,16.28,83.78,83.78,0,0,0,14.08,9.14,1,1,0,0,0,.05-1.39c-5.5-8.18-9.29-17.15-12.53-26.42a30.79,30.79,0,0,0-8.33-12.88C248.52,529.39,240.65,525.33,232.33,521Zm152.34-38.85a8.81,8.81,0,0,0-.95-1.3c-8.23-6.41-16-13.37-24-20.1-3.4-2.88-6-6.93-10.67-8.12-4.88-1.27-9.86-2.11-14.67-3.7-1.6-.53-2.33-.26-2,1.81.74,4.74,3.3,8.31,6.69,11.43,8.67,8,19.38,12.21,30.13,16.34A50.14,50.14,0,0,0,384.67,482.14ZM304,439c2.25.1,7.12-5.84,6.69-7.92-.3-1.41-1.07-1.05-1.83-.39-1.05.92-2.06,1.88-3.12,2.78s-2.06,1.63-3.11.56c-1.23-1.26.2-2.06.92-2.91,1.31-1.55,2.69-3.06,4-4.64a1.66,1.66,0,0,0,0-2.36c-1.17-1-1.31.51-1.82.95-1.8,1.53-3.44,3.24-5.28,4.71-1,.8-2.22,2.45-3.55,1.15s.31-2.47,1.14-3.49c1.35-1.66,2.8-3.25,4.12-4.94.59-.74,1.21-1.67.32-2.59s-1.71,0-2.41.57c-2.25,1.82-4.42,3.75-6.72,5.49-1.34,1-1.44,1.89-.51,3.21a36.66,36.66,0,0,0,7.95,8.35A7.12,7.12,0,0,0,304,439Zm24.77,14.25c-.79-1.56-.63-3.09-.73-4.57a2.5,2.5,0,0,0-1.84-2.32c-4.63-1.94-9.23-3.94-13.84-5.92-.88-.38-1.84-1.07-2.63-.09s.26,1.54.74,2.18c3.73,5,8.23,9.29,12.47,13.81.66.7,1.35,1.2,2.17.41C326.29,455.54,328.25,455.06,328.72,453.21Zm-31.44-36.46a13.88,13.88,0,0,0-7.59,5.69,1.35,1.35,0,0,0,0,1.76.89.89,0,0,0,1.4-.09C293.21,422,295.72,420.19,297.28,416.75Zm14.49,132.5c.68,2.49,2.1,3.86,5.19,3.33C314.87,551.25,313.32,550.25,311.77,549.25Z"/><path class="cls-2" d="M266.34,540.8c.85-.42,1.31.17,1.82.49,7.94,5.1,16.34,9.43,24.35,14.44,4.55,2.85,9.47,5.4,14.31,7.94,3.22,1.7,6.24,3.78,9.4,5.62,1.19.69,1.1,1.7,1,2.79-.13,2.79-.38,5.58-.31,8.36.05,1.66.19,3.85,2.62,3.66s2.93-2,2.61-4c-.75-4.66.09-9.2.76-13.77a5.7,5.7,0,0,1,3.35-4.69c10.27-5.22,20.45-10.59,30.66-15.93a25,25,0,0,0,3.6-2.13c2.72-2.08,2.56-5.41-.15-7.54-6.63-5.24-14.37-8.57-21.62-12.73-15-8.62-30.15-17-45.23-25.56-.65-.37-1.52-.71-1.81-1.29-2.2-4.49-6.48-6.06-10.67-7.76-1.13-.46-2.49-1-2.45-2.23.05-1.44,1.71-1,2.62-1.24,4-1,8-1.76,12-2.6,8.8-1.85,15.27-7.61,22-13,3.87-3.07,7.86-6,11.8-9,1.43-1.08,2.71-1.61,4.09.23,7.2,9.64,17.81,14.41,28.31,19.1s21.53,8.16,33.29,8.23c2.39,0,4.19,1.61,6.16,2.66,5.17,2.77,10.5,4.48,16.38,2.85,2-.54,2.15.39,2.29,1.88,1,10.86.88,21.62-1.3,32.4-3,14.71-11.62,26-21.45,36.47a307,307,0,0,1-50.41,43.13c-13.86,9.54-25.37,7.55-36.9-2.89-19.19-17.37-33.54-38.08-41.17-63.07A2.56,2.56,0,0,1,266.34,540.8Zm143.13-32.47a2.76,2.76,0,0,0-2.18-3.08c-1.78-.48-2.3.92-2.67,2.11-3.66,11.89-10.36,22.15-17.3,32.27a141.73,141.73,0,0,1-27.1,29.66c-1.59,1.3-4.91,2.2-2.75,5s4.29.15,6-1.24c17.21-14.15,30.13-31.72,40.55-51.24A66.88,66.88,0,0,0,409.47,508.33Zm-22.9-13.65c.14-2-.36-2.63-2.06-3s-2.38.6-2.7,2c-.25,1.15-.43,2.32-.65,3.49-2.51,13.4-9.83,23.37-21.66,30-1.69.95-3.7,1.62-2.65,3.88s3.1,2,5,.86C375.91,523.42,384.34,511.1,386.57,494.68ZM313.71,505.3c.94-.44,2.25-.93,3.45-1.62,10.61-6,17.66-15.16,22.44-26.2.72-1.66,1.41-3.33-.87-4.34-2.45-1.08-2.93.93-3.62,2.46-2.95,6.52-6.57,12.56-11.94,17.42-3.12,2.82-6.27,5.57-10.35,7a2.69,2.69,0,0,0-1.85,3.58C311.27,504.75,312,505.41,313.71,505.3Zm47.12-17.64c.06-1.69-.48-2.5-1.78-2.81a2.2,2.2,0,0,0-2.9,1.35c-2.23,6.49-3.95,13.16-7.61,19.09-.87,1.4.11,2.72,1.44,3.48s2.53,0,3.23-1.16a43.35,43.35,0,0,0,2.1-4.34A86.18,86.18,0,0,0,360.83,487.66Zm12.42,4.62a2.56,2.56,0,0,0-2-2.83c-1.82-.49-2.53.65-3,2.13-1.77,6.09-3.3,12.25-5.57,18.19a2.42,2.42,0,0,0,1.54,3.39,2.23,2.23,0,0,0,3.16-1.38A189,189,0,0,0,373.25,492.28Zm-23.84-9.34c.3-2.1-.46-3-1.82-3.52-1.71-.65-2.38.52-2.9,1.74-2.09,4.93-3.71,10.06-6.64,14.61-1.16,1.81-1.05,3.64,1,4.65s3-.63,3.67-2.11c2.13-4.56,4.17-9.17,6.22-13.78A9.46,9.46,0,0,0,349.41,482.94Zm-18.65-13.16c.13-1.51-.12-2.43-1.31-3a2,2,0,0,0-2.84.6,115.23,115.23,0,0,1-8.24,11.08c-1.15,1.27-.35,2.74.63,3.76,1.2,1.25,2.23.45,3.28-.54a47.57,47.57,0,0,0,8-10.45A6.18,6.18,0,0,0,330.76,469.78Z"/><path class="cls-3" d="M308.65,558.44c-16-9.09-31.89-18.13-47.78-27.14q-17.34-9.82-34.72-19.59a7.17,7.17,0,0,1-3.33-4.28c-3.56-10.09-7.36-20.1-11-30.14q-4.29-11.7-8.52-23.43c-.42-1.18-.75-2.39-1.36-4.35,3.88,2.14,7.12,3.9,10.34,5.71q35.58,19.95,71.17,39.89a10.21,10.21,0,0,1,5,5.86c6.37,17.58,12.88,35.11,19.3,52.67C308.29,555.1,309.07,556.57,308.65,558.44ZM244,497.3c0,6.25,8.39,15.64,14.57,16.33,3.52.39,5.84-2.16,5.33-5.87-.76-5.48-7.89-13.54-13.28-15C246.56,491.67,244,493.44,244,497.3Z"/><path class="cls-3" d="M348.83,445.35c.8-.13,1.92.12,1.85-1.2-.06-.92-.87-1.13-1.64-1.25-3.07-.49-6.13-1.16-9.22-1.37a8.47,8.47,0,0,1-5.49-2.43,83.25,83.25,0,0,0,13.58.71c.75,0,1.93.48,2.13-.76.23-1.44-1.09-1.38-2-1.56-4-.8-8.09-.53-12-1.63a5.52,5.52,0,0,1-3.44-2.06,34.39,34.39,0,0,0,8.24.64c2.25-.15,4.51-.1,6.77-.24.66,0,1.66.1,1.77-.95s-.79-1.49-1.64-1.63c-3.61-.58-7.22-1.08-10.83-1.64-1.16-.18-2.32-.44-3.48-.66-.62-.11-1.39-.09-1.31-1s.71-1.08,1.37-1.14A23.16,23.16,0,0,1,337,427c3.65.22,7.3.72,11,.76,6.41.06,11.59,2.79,14.44,8.21,4.4,8.37,11.74,13.18,19.25,18,8.06,5.17,15.95,10.59,24.26,15.35,1.21.69,2.44,1.76,3.65.13s.11-2.74-1.14-3.42c-1.85-1-1.66-2.59-1.52-4.19q1.59-18.5,3.24-37c.12-1.3.32-2.5-.6-3.66-4-5.05-4.46-10.82-3.13-16.84a33,33,0,0,1,13-20.14c1.5-1.1,2.62-1.26,4.2,0A28.15,28.15,0,0,1,434,404.8c.53,7.09-.67,14.1-1.61,21.1-.85,6.32-1.82,12.62-2.65,19a236.15,236.15,0,0,1-7.37,34.38,16.43,16.43,0,0,1-3.06,6c-2.83,3.49-6.35,5.27-11,4.3-5.85-1.23-10.81-4.27-15.46-7.74-12-9-23.17-18.92-34.39-28.82-3.66-3.24-8-4.75-12.74-5.53-.94-.15-1.94,0-2.76-.65-.4-.66-1.49-.89-1.25-2l4.57.31A2.54,2.54,0,0,0,348.83,445.35Z"/><path class="cls-3" d="M347.58,360.59c6.23,3.54,12.2,5.1,18.66,2.43a9.58,9.58,0,0,0,3.94-2.72,2.12,2.12,0,0,0,.19-2.68c-.68-1.06-1.63-.79-2.58-.46-11.64,4-19.5,1.23-26.13-9.21A41.52,41.52,0,0,1,335.78,330c-.15-1.31-.16-2.25,1.47-2.62A39.93,39.93,0,0,0,361.52,311a15.85,15.85,0,0,1,1.32-1.4,24.53,24.53,0,0,0,9.47,16.56,22.11,22.11,0,0,0,5.67,3c1.76.69,3.17.65,4.61-.86,2.15-2.25,4.84-2.22,7.42-.83a5.84,5.84,0,0,1,3.23,6.19c-.4,2.93-2.19,5.27-5.17,5.37-3.94.14-5.51,2.42-6.9,5.49a41.91,41.91,0,0,1-3.25,5.18c-.71,1.11-1.53,2.25-.15,3.41s2.43.07,3.39-.74c1.13-1,2.13-2.09,3.52-3.47.75,1.91,1.47,3.62,2.11,5.36,2.56,7,6.54,12.83,13.14,16.57,1.3.74,1.74,1.38.81,2.73-4.58,6.63-8.61,13.62-13.69,19.92s-11.65,8-19.34,5.87c-1-.29-2-.77-3.07-1-11.35-2.25-16.32-9.64-17.12-20.7C347.12,372.08,346.41,366.55,347.58,360.59Z"/><path class="cls-2" d="M337.23,370.26c0-1.83.06-3.66,0-5.49a2.78,2.78,0,0,1,2.25-3.07c1.9-.56,3.21-.38,2.89,2.14-.88,6.9-.09,13.71,1.28,20.48,1.49,7.44,5.19,13.06,12.49,16.06,6,2.46,12.09,4.89,18.63,4.75,7.37-.16,12.85-4.26,17.33-9.93,4.68-5.93,8.28-12.56,12.45-18.83,1.5-2.26,2.79-3.33,5.28-1.32a23.61,23.61,0,0,0,4,2.14c4.19,2.21,4.43,1.58.45,5a38.47,38.47,0,0,0-11.93,18.41c-2.4,7.82-2.39,15.42,2.24,22.54.84,1.31.56,2.72.46,4.08-.82,10.5-1.74,21-2.52,31.49-.16,2.16-.88,2.42-2.54,1.33q-13.35-8.77-26.7-17.56a12.49,12.49,0,0,1-3.68-4.43,44.34,44.34,0,0,0-6.81-9c-4.28-4.37-9.71-5.82-15.55-6-2,0-3-.73-3.48-2.52-1.55-5.69-4.8-9.8-10.73-11.31-2-.51-2.17-1.56-2-3.55.93-9.47,4.54-18.36,5.82-27.74A46.28,46.28,0,0,0,337.23,370.26Z"/><path class="cls-2" d="M184.88,530.3c.41-8,4.15-13.51,10-17.75s12.22-7.16,18.8-9.85c1.77-.71,2.6-.14,3.09,1.5.18.62.53,1.19.66,1.81,1,4.77,3.36,8.54,8,10.57.83.36,1.95.88,1.73,2.06s-1.48,1-2.38,1.17c-4.1.89-8.2,1.72-12.28,2.66-1.86.43-3.82,1.17-3.11,3.59s2.71,1.67,4.36,1.29q5.49-1.27,10.92-2.77a2.78,2.78,0,0,1,3.54,1.26c3.37,5.1,6.93,10,7.86,16.37s4.45,11.08,9.08,15.18c.6.53,1.67,1,1.27,2s-1.56.55-2.3.4c-16.45-3.21-33-6.36-48-14.21C189.81,542.28,185.62,537.17,184.88,530.3Z"/><path class="cls-2" d="M337.94,422.49c-1.43.69-3,.24-4.45.42-7.85.92-7.71,6.94-5.33,12.49.45,1.05,1.31,1.88,1.21,3.16-.21,2.74,2.94,2.75,4,4.57-1.35.9-2.42.14-3.45-.28-4.77-2-9.51-4-14.28-5.93-1.31-.53-1.81-1.05-1.34-2.62.75-2.53.95-5.14-1.5-7.09-.08-.06-.23-.16-.22-.22.72-5.26-4.33-6.35-6.74-9.35a6.87,6.87,0,0,0-5-2.56c-2.12-.21-4.21-.73-6.32-1.05-1-.15-1.1-.86-1.4-1.56q-2.85-6.66-5.74-13.32c1.25-.43,2.36.19,3.41.64,4.53,1.94,9,4,13.52,6,7.8,3.32,15.69,6.42,23.43,9.87C331.45,417.32,336.33,417.53,337.94,422.49Z"/><path class="cls-2" d="M232.33,521c8.32,4.34,16.19,8.4,22.76,14.2a30.79,30.79,0,0,1,8.33,12.88c3.24,9.27,7,18.24,12.53,26.42a1,1,0,0,1-.05,1.39,83.78,83.78,0,0,1-14.08-9.14,121.31,121.31,0,0,1-16.48-16.28,20.57,20.57,0,0,1-5.12-11.93c-.27-3.37-2-6.06-3.82-8.74C234.66,527.28,232.7,524.83,232.33,521Z"/><path class="cls-2" d="M384.67,482.14a50.14,50.14,0,0,1-15.42-3.64c-10.75-4.13-21.46-8.37-30.13-16.34-3.39-3.12-5.95-6.69-6.69-11.43-.33-2.07.4-2.34,2-1.81,4.81,1.59,9.79,2.43,14.67,3.7,4.64,1.19,7.27,5.24,10.67,8.12,8,6.73,15.72,13.69,24,20.1A8.81,8.81,0,0,1,384.67,482.14Z"/><path class="cls-3" d="M323.87,398.32c-.43-6.16-.89-12.43.67-18.38,1.41-5.36,3-11,7.94-15.17,1.13,14.47-4.44,27.29-7.15,41-1.48-1-1-2-1.1-2.84C324.41,401.34,324.74,399.78,323.87,398.32Z"/><path class="cls-3" d="M337.94,422.49c-1.61-5-6.49-5.17-10.24-6.85-7.74-3.45-15.63-6.55-23.43-9.87-4.53-1.93-9-4-13.52-6-1.05-.45-2.16-1.07-3.41-.64-.68-.94-1.77-2-1-3.09s2,.11,2.85.48q22.36,9.22,44.66,18.56C337.65,416.68,338.88,419.11,337.94,422.49Z"/><path class="cls-3" d="M304,439a7.12,7.12,0,0,1-3.28-1.47,36.66,36.66,0,0,1-7.95-8.35c-.93-1.32-.83-2.2.51-3.21,2.3-1.74,4.47-3.67,6.72-5.49.7-.57,1.38-1.64,2.41-.57s.27,1.85-.32,2.59c-1.32,1.69-2.77,3.28-4.12,4.94-.83,1-2.51,2.14-1.14,3.49s2.56-.35,3.55-1.15c1.84-1.47,3.48-3.18,5.28-4.71.51-.44.65-2,1.82-.95a1.66,1.66,0,0,1,0,2.36c-1.27,1.58-2.65,3.09-4,4.64-.72.85-2.15,1.65-.92,2.91,1.05,1.07,2.19.24,3.11-.56s2.07-1.86,3.12-2.78c.76-.66,1.53-1,1.83.39C311.07,433.12,306.2,439.06,304,439Z"/><path class="cls-3" d="M328.72,453.21c-.47,1.85-2.43,2.33-3.66,3.5-.82.79-1.51.29-2.17-.41-4.24-4.52-8.74-8.82-12.47-13.81-.48-.64-1.49-1.26-.74-2.18s1.75-.29,2.63.09c4.61,2,9.21,4,13.84,5.92a2.5,2.5,0,0,1,1.84,2.32C328.09,450.12,327.93,451.65,328.72,453.21Z"/><path class="cls-3" d="M297.28,416.75c-1.56,3.44-4.07,5.24-6.2,7.36a.89.89,0,0,1-1.4.09,1.35,1.35,0,0,1,0-1.76A13.88,13.88,0,0,1,297.28,416.75Z"/><path class="cls-3" d="M311.77,549.25c1.55,1,3.1,2,5.19,3.33C313.87,553.11,312.45,551.74,311.77,549.25Z"/><path class="cls-3" d="M341.71,444.82c-.24,1.08.85,1.31,1.25,2-.9,0-1.84.19-2.53-.63,0-.43,0-.92-.47-1.06s-.62.37-.77.74c-.62-.2-.86-.82-.52-1.17C339.66,443.69,340.71,444.43,341.71,444.82Z"/><path class="cls-3" d="M323.87,398.32c.87,1.46.54,3,.36,4.56A9.29,9.29,0,0,1,323.87,398.32Z"/><path class="cls-3" d="M348.83,445.35a2.54,2.54,0,0,1-2.55-.22A3.24,3.24,0,0,1,348.83,445.35Z"/><path class="cls-3" d="M339.19,445.84c.15-.37.17-.92.77-.74s.46.63.47,1.06Z"/><path class="cls-1" d="M409.47,508.33A66.88,66.88,0,0,1,404,521.8c-10.42,19.52-23.34,37.09-40.55,51.24-1.68,1.39-3.83,4-6,1.24s1.16-3.69,2.75-5a141.73,141.73,0,0,0,27.1-29.66c6.94-10.12,13.64-20.38,17.3-32.27.37-1.19.89-2.59,2.67-2.11A2.76,2.76,0,0,1,409.47,508.33Z"/><path class="cls-1" d="M386.57,494.69c-2.23,16.41-10.66,28.73-24.74,37.28-1.88,1.15-3.95,1.36-5-.86s1-2.93,2.65-3.88c11.83-6.65,19.15-16.62,21.66-30,.22-1.17.4-2.34.65-3.49.32-1.41,1-2.34,2.7-2S386.71,492.7,386.57,494.69Z"/><path class="cls-1" d="M313.71,505.3c-1.67.11-2.44-.55-2.74-1.72a2.69,2.69,0,0,1,1.85-3.58c4.08-1.41,7.23-4.16,10.35-7,5.37-4.86,9-10.9,11.94-17.42.69-1.53,1.17-3.54,3.62-2.46,2.28,1,1.59,2.68.87,4.34-4.78,11-11.83,20.16-22.44,26.2C316,504.37,314.65,504.86,313.71,505.3Z"/><path class="cls-1" d="M360.83,487.66a86.18,86.18,0,0,1-5.52,15.61,43.35,43.35,0,0,1-2.1,4.34c-.7,1.17-1.79,2-3.23,1.16s-2.31-2.08-1.44-3.48c3.66-5.93,5.38-12.6,7.61-19.09a2.2,2.2,0,0,1,2.9-1.35C360.35,485.16,360.89,486,360.83,487.66Z"/><path class="cls-1" d="M373.25,492.28a189,189,0,0,1-5.87,19.5,2.23,2.23,0,0,1-3.16,1.38,2.42,2.42,0,0,1-1.54-3.39c2.27-5.94,3.8-12.1,5.57-18.19.43-1.48,1.14-2.62,3-2.13A2.56,2.56,0,0,1,373.25,492.28Z"/><path class="cls-1" d="M349.41,482.94a9.46,9.46,0,0,1-.49,1.59c-2.05,4.61-4.09,9.22-6.22,13.78-.69,1.48-1.7,3.09-3.67,2.11s-2.14-2.84-1-4.65c2.93-4.55,4.55-9.68,6.64-14.61.52-1.22,1.19-2.39,2.9-1.74C349,479.94,349.71,480.84,349.41,482.94Z"/><path class="cls-1" d="M330.76,469.78a6.18,6.18,0,0,1-.53,1.46,47.57,47.57,0,0,1-8,10.45c-1,1-2.08,1.79-3.28.54-1-1-1.78-2.49-.63-3.76a115.23,115.23,0,0,0,8.24-11.08,2,2,0,0,1,2.84-.6C330.64,467.35,330.89,468.27,330.76,469.78Z"/><path class="cls-1" d="M244,497.3c0-3.86,2.58-5.63,6.62-4.53,5.39,1.45,12.52,9.51,13.28,15,.51,3.71-1.81,6.26-5.33,5.87C252.37,512.94,244,503.55,244,497.3Z"/><path class="cls-1" d="M326.11,549.4a12.88,12.88,0,0,0-7.82-5.09c-.45-.29-1.11-.81-.63-1.19,1.92-1.51,3.38-4,6.41-3.43,3.35,1.29,6.19,3.73,9.8,4.46l-.05-.08c-.62,2.37-3,2.54-4.61,3.7A22.26,22.26,0,0,1,326.11,549.4Z"/><path class="cls-1" d="M327,538.9c-.49-.27-.77-.54-.52-.77,1.31-1.24,5.42-3.58,7.28-2.6,2.36,1.25,4.62,2.68,6.92,4s-3.71,3.7-4.56,4a2,2,0,0,1-1.3.14c-1.16-.4-2.21-2.07-3.36-2.71C330.06,540.2,328.48,539.69,327,538.9Z"/><path class="cls-1" d="M329.86,534.19c.44.58-5.48,2.42-6.09,2.42a6.37,6.37,0,0,1-5.44-3,.56.56,0,0,1-.12-.34c0-.17.16-.29.3-.39,1.59-1.17,3.26-2.56,5.37-2.38C326.25,530.71,328.31,532.5,329.86,534.19Z"/><path class="cls-1" d="M314,541.16c-.76-.39-4.32-2.55-4.39-2.45,1.34-1.78,3.7-3.63,6-3.64,2.09,0,4.07,1.87,5.16,3.53a24.5,24.5,0,0,1-3.06,2.21c-.3.16-3.6,1.22-3.6.4Z"/><path class="cls-1" d="M360.12,350.93A10,10,0,0,1,355.9,352a7.79,7.79,0,0,1-4.42-.92,1.12,1.12,0,0,1-.1-1.71,1.55,1.55,0,0,1,1.94-.1c-.49-.3.06,0,.21.07s.44.11,0,0c.12,0,.24.07.36.09a8.46,8.46,0,0,0,1,.15s-.3,0,0,0h.29c.23,0,.46,0,.7,0l.62-.05.29,0,.16,0h-.1a3,3,0,0,0,.9-.22l.38-.14c.31-.11-.27.13,0,0l.45-.23a1.48,1.48,0,0,1,1.9.33,1.13,1.13,0,0,1-.41,1.67Z"/><path class="cls-1" d="M356.22,342.41a15.25,15.25,0,0,0-.36,1.86l0-.32a1,1,0,0,0,0,.25l-.07-.32s0,.08,0,.11l-.15-.28a.18.18,0,0,0,0,.07l-.23-.23.07.06-.28-.18.16.07-.33-.1a1.37,1.37,0,0,0,.28.05l-.36,0h.26l-.36.06a2.47,2.47,0,0,1,.29-.06,1.1,1.1,0,0,1,.54-.05,1,1,0,0,1,.52.11,1.14,1.14,0,0,1,.58,1.63h0a1.29,1.29,0,0,1-.79.59c-.25.05-.49.11-.74.14a2.83,2.83,0,0,1-1.16-.18,1.58,1.58,0,0,1-1-.94,2.11,2.11,0,0,1,0-1,18,18,0,0,1,.34-1.78,1.4,1.4,0,0,1,1.64-.93h0a1.41,1.41,0,0,1,.85.51,1.16,1.16,0,0,1,.19.92Z"/><path class="cls-1" d="M366.69,336.58c.4,1,.3,3.27-1.83,3.58-2.83.14-3.13-2.62-2.25-4A2.37,2.37,0,0,1,366.69,336.58Z"/><path class="cls-1" d="M344,337.8c-.3,1,0,3.29,2.2,3.37C349,341,349,338.23,348,337A2.36,2.36,0,0,0,344,337.8Z"/><path class="cls-1" d="M521.25,796.26c-5.67-4.83-11.46-9.51-17.42-14.43a17.53,17.53,0,0,1,2.05-1.07c1.63-.57,3-1.39,3-3.34s-1.58-2.55-3.1-3.22C495.36,769.64,485,765,475,759.7c-11.69-6.13-24-11.27-33.88-20.36-.58-.53-1.61-.72-1.41-2.07,4.17.58,8.3,1.22,12.46,1.71,5.28.62,10.39.11,13.37-5s3.2-9.82.36-14.22c-1.65-2.56-3.6-4.77-5-7.52a66,66,0,0,1-3.54-8.46c-2.8-8-5.09-16.21-8.14-24.14-3.11-8.18-6.22-16.4-8.1-25a30.08,30.08,0,0,0-1.91-5.47c-1.61-3.71-3.71-7.08-7.74-8.57-1.44-.54-1.25-1.52-1.25-2.55,0-4.41.06-8.82,0-13.23-.09-4.67-3.46-7-7.88-5.44a74.21,74.21,0,0,0-7.3,3.39c-10.38,5-11,3.91-10.57,16.55a2.68,2.68,0,0,1-1.72,3c-3.71,1.78-5.78,4.93-6.93,8.83-1.73,5.85-.47,11.49.95,17.16.55,2.23,1.44,4.45.87,6.9a14.49,14.49,0,0,1-9.49-5.25c-5.27-6.31-12.52-9.52-19.73-12.74a17.66,17.66,0,0,0-9.2-1.2,5.34,5.34,0,0,1-3.86-1c-8.17-5.54-17.17-7.91-27-6.17-8.89,1.58-16.86,5.15-21.3,13.49-1.7,3.19-3.28,6.14-6.22,8.25a10.41,10.41,0,0,0-3.17,4.36,24.89,24.89,0,0,0-2.56,13c.28,2.62-.73,4.15-2.87,5.44a78.56,78.56,0,0,0-11.73,8.41c-4.9,4.36-4.52,10,.76,13.92,1.72,1.29,3.52,2.48,5.21,3.81,7.95,6.23,15.57,12.91,24.56,17.7,5.05,2.7,10,5.57,16.11,4.63,1.36-.21,1.52.34,1.46,1.61-.56,11.48,5.1,20,15.91,24.13a49,49,0,0,1,10.15,4.84c12.67,8.47,25.05,17.32,37.3,26.37a5.27,5.27,0,0,1,2,2.47h4.53c-1.09-13.62,4.54-24.28,14.92-32.52a70.76,70.76,0,0,1,34.71-15.19,11,11,0,0,1,6.7,1.4c13.81,6.93,27.27,14.6,41.63,20.4l3.24,1.25c-15.36,2.12-27.72,10.07-41.38,14.45A23.73,23.73,0,0,0,445,801.29h7.11c1.78-3.16,5-4.26,7.95-5.93,6.21-3.55,11.68-3.46,16.51,2.33,1.14,1.36,3.07,1.92,4,3.6h7.11c-1.64-3.1-4.87-4.45-7.34-6.62-5.71-5-5.8-4.92,1.27-7.72,3.89-1.54,7.81-3,11.71-4.51,1.1-.43,2.14-.91,3.29,0,7.57,6.27,15.62,12,22.74,18.81h7.1C525.36,798.94,523.07,797.81,521.25,796.26ZM413.18,629.13c3.18-1.28,6.21-2.92,9.32-4.37,1.73-.81,2.63-.35,2.58,1.69-.06,2.25,0,4.51,0,6.77h0a36.42,36.42,0,0,0,0,4.18c.32,2.75-.06,4.92-3,6.26-2.14,1-2.66,3.3-2.77,5.49a3.77,3.77,0,0,1-1.92,3.45c-1,.56-1.75,1.86-3.1,1.31s-.94-2-1.13-3.11c-.29-1.66-.38-3.49-2.45-4.13-1.34-.42-1.29-1.53-1.28-2.63,0-2.9.2-5.82-.06-8.7C409.14,632.2,410.25,630.32,413.18,629.13Zm6.17,48.73c2.73,1.67,4.44-.3,6.3-1.62,2.8-2,2.92-2,3.34,1.49,1.08,9.16,2,18.34,3.06,28.15.47,2.42-.95,2-2.89,1-6.47-3.17-13-6.19-20.39-6.42-2-.06-1.48-1.4-1-2.14,4.09-6.07,6.92-12.79,10.1-19.33C418.17,678.46,418.36,677.25,419.35,677.86ZM363.27,660.6c3.22.66,6.13,2.19,9.07,3.61,3.8,1.84,7.52,3.82,10.48,6.9,3.19,3.31,6.15,6.25,10.41,8.14,2.11.93,2.14,1.82.75,3.49a191.5,191.5,0,0,1-16.2,16.9c-.94.88-1.78,1.88-2.79,2.67-.71.56-1.12,2.26-2.49,1.12-1.18-1-2.85-1.87-2.14-3.89,3.09-8.89-.41-18.76-4.94-26.51a6.54,6.54,0,0,1-.7-1.43c-.46-1.47-.31-3.15-.64-4.66a16.91,16.91,0,0,0-1.76-4.77C361.69,661.08,361.64,660.26,363.27,660.6Zm-60.62,15.58c.27-.46.48-1.1.89-1.31,4.87-2.53,6.24-7.54,8.87-11.77,3.39-5.44,9-8.23,15.27-9.3,10.43-1.79,19.88.32,27.78,7.72a7.18,7.18,0,0,1,2.42,3.36c.35.25.71.67.31,1s-.6-.26-.77-.59c-3.82-.83-7.13-3-10.8-4.18-4.68-1.58-9.33-3.3-14.39-3.21-1.51,0-2.82.2-2.93,2.16s1.45,2,2.61,2.18c4.34.71,8.7,1.3,12.68,3.37.56.3,1.36.38,1.37,1.15s-.78,1-1.34,1.23a52,52,0,0,1-26.72,3.94c-.85-.09-1.69-.29-2.54-.35a2.2,2.2,0,0,0-2.39,1.27,2.05,2.05,0,0,0,.55,2.36c6.52,7.38,8.93,16.2,9.52,25.79.12,1.85-.09,4.42,2.67,5.14,3.64-2.58,1.86-6.42,1.71-9.51a38.81,38.81,0,0,0-3.49-14.27,10.73,10.73,0,0,0-3.88-4.87,97.36,97.36,0,0,0,13.32-1.12,55.14,55.14,0,0,0,17.78-6.85c1-.58,1.69-.89,2.85-.26,7.61,4.08,15,17.93,12.4,26.79a13.9,13.9,0,0,1-2.14,4.63c-1.33,1.76-1.19,3,1.16,3.38a3.9,3.9,0,0,1,1.91,1c2.23,1.73,2.35,3-.16,4.81-3.78,2.65-7.34,5.62-10.9,8.56-1.28,1.06-2,.88-2.6-.54-2.69-6.11-8.33-6.79-13.92-7.48-1.35-.17-2.35.93-3.51,1.44-4.79,2.14-8.69.38-10.34-4.68-.26.16-.72.3-.75.5-.49,3.76-.7,4-4.43,2.57-8-3-15.51-6.64-19.13-15.15C298.85,688.57,299.06,682.28,302.65,676.18ZM331.7,735c-3.26,3.45-7.61,2.68-11.47,1.23-6.69-2.5-12.49-6.36-18.24-10.53q-6.86-5-13.42-10.35c-3.18-2.59-9.5-5.94-4.61-10,3.56-2.94,7.4-5.54,11.13-8.27a3.23,3.23,0,0,1,.69-.32c1.2-.1,1.37.77,1.7,1.39,2.18,4,5.73,9.12,9.79,11.4,3.23,1.82,6.77,2.89,10.21,4.21,3.67,1.4,7.42,2.76,11.37,3a21.8,21.8,0,0,0,9.52-1.48c2.81-1.13,6.05-1.38,8.71.38a5.09,5.09,0,0,1,1.8,6.84,5.17,5.17,0,0,1-3.22,2.32c-.72.46-1.46.87-2.2,1.28A46.78,46.78,0,0,0,331.7,735Zm105.63,16c-14,4.26-26.21,11.37-35.58,22.83a35.38,35.38,0,0,0-7.5,17.26c-.35,2.24-.69,2.93-3,1.16q-15-11.34-30.73-21.69c-1-.64-1.87-1.41-2.8-2.12a35.35,35.35,0,0,0-9.84-4.69,24.83,24.83,0,0,1-10.29-6.44c-6.49-6.89-5.87-16.72,1.53-22.74a82.66,82.66,0,0,1,12-7.55,89.41,89.41,0,0,0,15.33-10.67c10.1-8.87,20.21-17.74,29.07-27.91a37.62,37.62,0,0,0,6.31-10.81,10.07,10.07,0,0,0,.17-6c-1-4.54-2.3-9-2.41-13.7a19.17,19.17,0,0,1,2.24-9.74c1.12,3.3-.72,5.67-.18,8.15.22,1-.17,2.52,1.08,2.7s1.27-1.33,1.58-2.27c.7-2.14,1.35-4.29,2.14-6.38.25-.64.77-1.42,1.71-1.1.78.27.6,1.07.63,1.67.05,1.4,0,2.8.05,4.2s-.32,3.2,2.23,2.37a1.57,1.57,0,0,1,1.39.53c.95,2.85,3.22,4.72,4.94,7,1,1.32.05,3-.38,4.34-1.73,5.46-4.59,10.42-7.27,15.43-5.46,10.22-10.49,20.69-17.22,30.19a32.71,32.71,0,0,1-9.18,8.9c-11.42,7.26-21.21,16.49-30.5,26.25-1.08,1.13-1.53,2.4-.5,3.75,1.15,1.51,2.24.47,3.34-.2.63-.39,1.34-.67,2-1,.3-1.6,1.58-2.49,2.62-3.55a159.8,159.8,0,0,1,26.76-22.18c5.8-3.78,9.73-9.33,13.36-15.09.68-1.08,1.16-2.32,2.36-3,.32-2.59,1.83-3.65,4.38-3.7a23.86,23.86,0,0,1,9.19,1.33c2.3.88,4.53,2,6.89,2.71,6.48,2,11.13,5.33,11.12,13a9.73,9.73,0,0,0,2.16,5.32,2.24,2.24,0,0,0,2.89.65c1-.38,1-1.27.7-2.18-4.31-14.56-3.73-29.79-6.07-44.62-.3-1.9-.52-3.82-.72-5.74s-.34-3.55,2-4.41c1.1-.39,1.32-1.66.71-3-1.79-4-10.72,3.38-12.6,4.64-.44.29-1,.57-1.45.25s-.21-1.17.15-1.69c1.85-2.66,4.8-4.3,7.4-6.13.47-.34,1-.75,1-1.33a1.3,1.3,0,0,0-1-1.25,3.17,3.17,0,0,0-1.72.13,11.14,11.14,0,0,0-4.8,3,2.4,2.4,0,0,1-.49-2.94c.9-1.79,3.29-2.66,4.82-3.82,2-1.52.13-3.1-1.78-2.56a9.15,9.15,0,0,0-3.36,1.78c-.73.61-1.68,1.37-2.49.9a1.39,1.39,0,0,1-.5-1.6,3.52,3.52,0,0,1,1-1.45,17.41,17.41,0,0,1,5.74-3.62,5.18,5.18,0,0,0,2.17-1.19,1.5,1.5,0,0,0-.09-2.19,2.16,2.16,0,0,0-1-.22l-3.1-.1c.21-1.57,1.79-2.6,3.32-3,1.85-.5,4.05-.35,5.4,1a7.52,7.52,0,0,1,1.53,2.77c3.23,8.71,5.33,17.74,8,26.63a277.67,277.67,0,0,0,9.25,26.29q1.79,4.33,3.7,8.62c1.2,2.68,2.76,5,4.12,7.54,1.1,1.54,2.26,2.71,2.72,4.59s-.13,3.79-.06,5.63a4.83,4.83,0,0,1-4.46,5.31,11.15,11.15,0,0,1-2.58.09q-10.33-1.11-20.67-2.3a4.31,4.31,0,0,1-3-1.68,34.38,34.38,0,0,0-7-7.09,4.68,4.68,0,0,1-1.64-2.71c-2.06-6.74-6-9.82-13.08-10.1-.64,0-1.29,0-1.94,0a24.68,24.68,0,0,0,5.89,4.33,5.4,5.4,0,0,1,2.56,2.82c4.15,10.46,12.89,17,20.72,24.34,2.49,2.33,5.3,4.33,8.42,6.86C442.32,749.49,439.82,750.2,437.33,751Z"/><path class="cls-2" d="M398.46,801.29c-1.09-13.62,4.54-24.28,14.92-32.52a70.76,70.76,0,0,1,34.71-15.19,11,11,0,0,1,6.7,1.4c13.81,6.93,27.27,14.6,41.63,20.4l3.24,1.25c-15.36,2.12-27.72,10.07-41.38,14.45A23.73,23.73,0,0,0,445,801.29Z"/><path class="cls-3" d="M487.64,801.29c-1.64-3.1-4.87-4.45-7.34-6.62-5.71-5-5.8-4.92,1.27-7.72,3.89-1.54,7.81-3,11.71-4.51,1.1-.43,2.14-.91,3.29,0,7.57,6.27,15.62,12,22.74,18.81Z"/><path class="cls-3" d="M452.1,801.29c1.78-3.16,5-4.26,7.95-5.93,6.21-3.55,11.68-3.46,16.51,2.33,1.14,1.36,3.07,1.92,4,3.6Z"/><path class="cls-7" d="M407.57,710.31a24.68,24.68,0,0,0,5.89,4.33,5.4,5.4,0,0,1,2.56,2.82c4.15,10.46,12.89,17,20.72,24.34,2.49,2.33,5.3,4.33,8.42,6.86-2.84.83-5.34,1.54-7.83,2.29-14,4.26-26.21,11.37-35.58,22.83a35.38,35.38,0,0,0-7.5,17.26c-.35,2.24-.69,2.93-3,1.16q-15-11.34-30.73-21.69c-1-.64-1.87-1.41-2.8-2.12,1.45-5.25.59-10.5,0-15.75.3-1.6,1.58-2.49,2.62-3.55a159.8,159.8,0,0,1,26.76-22.18c5.8-3.78,9.73-9.33,13.36-15.09.68-1.08,1.16-2.32,2.36-3C404.29,709.63,406.18,709.17,407.57,710.31Z"/><path class="cls-3" d="M357.69,752.64c.6,5.25,1.46,10.5,0,15.75a35.35,35.35,0,0,0-9.84-4.69,24.83,24.83,0,0,1-10.29-6.44c-6.49-6.89-5.87-16.72,1.53-22.74a82.66,82.66,0,0,1,12-7.55,89.41,89.41,0,0,0,15.33-10.67c10.1-8.87,20.21-17.74,29.07-27.91a37.62,37.62,0,0,0,6.31-10.81,10.07,10.07,0,0,0,.17-6c-1-4.54-2.3-9-2.41-13.7a19.17,19.17,0,0,1,2.24-9.74c1.12,3.3-.72,5.67-.18,8.15.21,1-.17,2.52,1.08,2.7s1.27-1.33,1.58-2.27c.7-2.14,1.35-4.29,2.14-6.38.25-.64.77-1.42,1.71-1.1.78.27.6,1.07.63,1.67.05,1.4,0,2.8.05,4.2s-.32,3.2,2.23,2.37a1.57,1.57,0,0,1,1.39.53c.95,2.85,3.22,4.72,4.94,7,1,1.32.05,3-.38,4.34-1.73,5.46-4.59,10.42-7.27,15.43-5.46,10.22-10.49,20.69-17.22,30.19a32.71,32.71,0,0,1-9.18,8.9c-11.42,7.26-21.21,16.49-30.5,26.25-1.08,1.13-1.53,2.4-.5,3.75,1.15,1.51,2.24.47,3.34-.2C356.31,753.25,357,753,357.69,752.64Z"/><path class="cls-3" d="M325.71,706.1c3.64-2.58,1.86-6.42,1.71-9.51a38.81,38.81,0,0,0-3.49-14.27,10.73,10.73,0,0,0-3.88-4.87,97.36,97.36,0,0,0,13.32-1.12,55.14,55.14,0,0,0,17.78-6.85c1-.58,1.69-.89,2.85-.26,7.61,4.08,15,17.93,12.4,26.79a13.9,13.9,0,0,1-2.14,4.63c-1.33,1.76-1.19,3,1.16,3.38a3.9,3.9,0,0,1,1.91,1c2.23,1.73,2.35,3-.16,4.81-3.78,2.65-7.34,5.62-10.9,8.56-1.28,1.06-2,.88-2.6-.54-2.69-6.11-8.33-6.79-13.92-7.48-1.35-.17-2.35.93-3.51,1.44-4.79,2.14-8.69.38-10.34-4.68Zm15.78-16.77c-.34-1.87-1.12-3.4-3.24-3.34-1.7,0-2.42,1.4-2.36,2.89A3.12,3.12,0,0,0,339,692C340.72,692.13,341.32,690.84,341.49,689.33Zm12.05-8.06c1.86.12,2.73-.64,2.65-2a3.77,3.77,0,0,0-3.49-3.88c-1.46-.15-2,1.08-2,2.33A3.34,3.34,0,0,0,353.54,681.27Zm3.59,12.41c0-.75-.79-1.28-1.8-1.39s-1.37.55-1.28,1.38c.12,1.12.67,2.06,2,2C356.93,695.66,357.12,694.89,357.13,693.68Z"/><path class="cls-5" d="M325.71,706.1c.06.33.13.66.19,1-.26.16-.72.3-.75.5-.49,3.76-.7,4-4.43,2.57-8-3-15.51-6.64-19.13-15.15-2.74-6.44-2.53-12.73,1.06-18.83.27-.46.48-1.1.89-1.31,4.87-2.53,6.24-7.54,8.87-11.77,3.39-5.44,9-8.23,15.27-9.3,10.43-1.79,19.88.32,27.78,7.72a7.18,7.18,0,0,1,2.42,3.36l-.46.38c-3.82-.84-7.13-3-10.8-4.19-4.68-1.58-9.33-3.3-14.39-3.21-1.51,0-2.82.2-2.93,2.16s1.45,2,2.61,2.18c4.34.71,8.7,1.3,12.68,3.37.56.3,1.36.38,1.37,1.15s-.78,1-1.34,1.23a52,52,0,0,1-26.72,3.94c-.85-.09-1.69-.29-2.55-.35a2.2,2.2,0,0,0-2.38,1.27,2.05,2.05,0,0,0,.55,2.36c6.52,7.38,8.93,16.2,9.52,25.79C323.16,702.81,323,705.38,325.71,706.1Z"/><path class="cls-2" d="M425.09,633.22a36.42,36.42,0,0,0,0,4.18c.32,2.75-.06,4.92-3,6.26-2.14,1-2.66,3.3-2.77,5.49a3.77,3.77,0,0,1-1.92,3.45c-1,.56-1.75,1.86-3.1,1.31s-.94-2-1.13-3.11c-.29-1.66-.38-3.49-2.45-4.13-1.34-.42-1.29-1.53-1.28-2.63,0-2.9.2-5.82-.06-8.7-.29-3.14.82-5,3.75-6.21,3.18-1.28,6.21-2.92,9.32-4.37,1.73-.81,2.63-.35,2.58,1.69-.06,2.25,0,4.51,0,6.77Z"/><path class="cls-3" d="M425.59,652.69c.42,1.56-2.56,2.14-1.15,4-.77.56-1.5,1.19-2.32,1.68s-1.88,1.64-2.75.28c-.69-1.09.22-2.07,1.07-2.75C422,654.63,423.56,653.25,425.59,652.69Z"/><path class="cls-3" d="M425.6,656.39a1.13,1.13,0,0,1,1.85-.19Z"/><path class="cls-5" d="M357.88,664.88c.35.25.71.67.31,1s-.6-.26-.77-.58Z"/><path class="cls-1" d="M341.49,689.33c-.17,1.51-.77,2.8-2.52,2.67a3.12,3.12,0,0,1-3.08-3.12c-.06-1.49.66-2.84,2.36-2.89C340.37,685.93,341.15,687.46,341.49,689.33Z"/><path class="cls-1" d="M353.54,681.27a3.34,3.34,0,0,1-2.87-3.55c0-1.25.57-2.48,2-2.33a3.77,3.77,0,0,1,3.49,3.88C356.27,680.63,355.4,681.39,353.54,681.27Z"/><path class="cls-1" d="M357.13,693.68c0,1.21-.2,2-1.12,2-1.29,0-1.84-.9-2-2-.09-.83.37-1.48,1.28-1.38S357.1,692.93,357.13,693.68Z"/><path class="cls-1" d="M419.35,716.07c-1.16-3.68-4.65-5-8-6.2s-6.71-2.54-10-4a2.06,2.06,0,0,0-2.73.71,2,2,0,0,0,.71,2.74c3.1,1.37,6.24,2.66,9.42,3.84a43.18,43.18,0,0,1,4.23,1.6,4.36,4.36,0,0,1,2.48,2.36C416.27,719.57,420.14,718.53,419.35,716.07Z"/><path class="cls-1" d="M357.7,752.05c-.66-2.49-4.52-1.43-3.86,1.06a32.2,32.2,0,0,1,.14,16.11c-.63,2.49,3.23,3.56,3.86,1.06A36.54,36.54,0,0,0,357.7,752.05Z"/><path class="cls-7" d="M244.12,206.81c-1.33-2.21-4.62-2.32-6.89-2.8l-8.37-1.8c-2.53-.54-5.46-1.62-8-.83-2.21.68-4.08,2.31-6.16,3.3a32.83,32.83,0,0,1-6.54,2.25,74.24,74.24,0,0,1-14,1.65c-5.63.25-11.26.34-16.9.33-11.35,0-22.7-.53-34-1.18-5.63-.32-11.31-.5-16.92-1-.78-.07-3-.36-3-1.31,0-.68,1.85-2,2.47-2.58,1.17-1.19,2.08-2.7,1.57-4.42-.72-2.45-3.35-3.07-5.53-3.62-.88-.22-1.79-.4-2.72-.54a1.93,1.93,0,0,0,0-.53,2,2,0,0,0-2.41-1.49,21.47,21.47,0,0,0-4.6,2.42,9.94,9.94,0,0,0-4,2.41,8.66,8.66,0,0,0-2.45,4.46,20.61,20.61,0,0,0-3,11.57,2.05,2.05,0,0,0,1.39,2c21.74,5.34,44,7.66,66.26,10,11,1.13,22,2.25,33.08,2.34a147.52,147.52,0,0,0,16.55-.77c5.13-.54,10.36-1.31,15-3.64a18.36,18.36,0,0,0,9.06-9.57C244.7,211.37,245.29,208.73,244.12,206.81Z"/><path class="cls-2" d="M115.34,145.39c-15.09-10.95-30.92-2.32-36,9.71-1.68,4-.57,6.19,3.08,6.58,2.44.25,3.18-1.54,3.92-3.14a16.81,16.81,0,0,1,6.85-7.89c7.54-4.3,13.84-2.72,19.83,4.8Z"/><path class="cls-2" d="M133.63,118.6a3,3,0,0,1-3.23,2,2.17,2.17,0,0,1-2-2.45c.23-1.55,1.1-2.57,2.86-2.2A2.7,2.7,0,0,1,133.63,118.6Z"/><path class="cls-2" d="M126.91,111.28c-.35,1.4-1.15,2.66-2.62,2.76s-2.17-1.29-2.19-2.61a2.13,2.13,0,0,1,2.44-2.29A2.26,2.26,0,0,1,126.91,111.28Z"/><path class="cls-2" d="M137.17,123c1.52.18,2.73.6,2.61,2.28a2.15,2.15,0,0,1-2.53,2.2,2.27,2.27,0,0,1-2.32-2.48A2.05,2.05,0,0,1,137.17,123Z"/><path class="cls-2" d="M118.25,119.36c-1.58-.11-2.47-.88-2.46-2.42a2,2,0,0,1,2.2-2.19,2.66,2.66,0,0,1,2.83,2.48C120.9,118.88,119.49,119.18,118.25,119.36Z"/><path class="cls-2" d="M127.34,123.92c-.37,1.49-1.16,2.55-2.88,2.31a2.12,2.12,0,0,1-1.84-2.56c.16-1.65,1.47-2,2.84-1.81C126.57,122,127.56,122.45,127.34,123.92Z"/><path class="cls-2" d="M133.9,130.34c-.24,1.13-.68,2.24-2.16,2.21s-2.41-.79-2.24-2.42c.14-1.32.85-2.31,2.23-2.16A2.15,2.15,0,0,1,133.9,130.34Z"/><path class="cls-2" d="M118.22,102.45c1.18.43,2.51,1,2.31,2.55a2.27,2.27,0,0,1-2.57,2,2.23,2.23,0,0,1-2.16-2.38C115.83,103.24,116.72,102.46,118.22,102.45Z"/><path class="cls-2" d="M110.11,110.18c.34-1.23,1.06-2.21,2.41-2.19a1.81,1.81,0,0,1,1.9,2.13c-.21,1.28-.92,2.54-2.54,2.4C110.6,112.4,110.17,111.39,110.11,110.18Z"/><path class="cls-1" d="M117.37,178.13c2.32-.32,4.64-.65,7-.75,2.06-.08,4.13,0,6.19.06a1.46,1.46,0,0,0,.11-2.91c-2.1-.09-4.21-.15-6.31-.05-2.56.12-5.1.46-7.64.82a1.48,1.48,0,0,0-1.09,1.75A1.49,1.49,0,0,0,117.37,178.13Z"/><path class="cls-1" d="M122.37,186.66l1.16-.92.48-.36.2-.14.14-.1a25.45,25.45,0,0,1,2.18-1.34c.73-.4,1.47-.8,2.22-1.16.36-.18.72-.35,1.1-.5l.34-.14.08,0,.78-.27a1.45,1.45,0,1,0-.67-2.83h0a31.92,31.92,0,0,0-10,5.66,1.45,1.45,0,0,0-.08,2.05A1.49,1.49,0,0,0,122.37,186.66Z"/><path class="cls-1" d="M183.78,177.33c-2.29-.5-4.57-1-6.91-1.28-2-.24-4.11-.35-6.17-.41a1.46,1.46,0,0,1,.11-2.91c2.1.06,4.21.17,6.3.42,2.54.32,5,.86,7.55,1.4a1.46,1.46,0,0,1,1,1.83A1.49,1.49,0,0,1,183.78,177.33Z"/><path class="cls-1" d="M178.15,185.45l-1.09-1-.46-.4s-.29-.24-.18-.16-.11-.09-.13-.1a25.62,25.62,0,0,0-2.08-1.51c-.69-.45-1.4-.91-2.12-1.33-.34-.2-.7-.39-1.06-.57l-.33-.17-.08,0-.75-.32a1.46,1.46,0,0,1,.88-2.78h0a31.87,31.87,0,0,1,9.53,6.4,1.46,1.46,0,0,1-.07,2.06A1.49,1.49,0,0,1,178.15,185.45Z"/><path class="cls-1" d="M242.65,204c-1.49-1.11-3.6-1.64-5.31-2.32L225.43,197c.07-.34.14-.68.22-1a28.57,28.57,0,0,0,.59-4.22,31.94,31.94,0,0,0-4.49-17.93,32.26,32.26,0,0,0-20.31-15.35,33,33,0,0,0-14.29-.25,33.52,33.52,0,0,0-10.07,4.05c-.77.46-.83.44-.85-.47a29.9,29.9,0,0,0-1.61-9.23,17.75,17.75,0,0,0-1.27-2.94c-1-1.92-2.15-2.41-4.31-2a29.23,29.23,0,0,0-10.3,4.22,1.69,1.69,0,0,1-1.46.22,24.21,24.21,0,0,0-10.74-.43,1.66,1.66,0,0,1-1.49-.37,26,26,0,0,0-7.16-4.12,18.25,18.25,0,0,0-4.11-1,2.66,2.66,0,0,0-2.41.95,16.62,16.62,0,0,0-2.88,5.27c-1.69,4.45-1.9,9.23-2.72,13.87a15,15,0,0,1-.81,1.94c-1.32,4.23-2,8.62-.59,12.91a26.37,26.37,0,0,0,3.25,6.5,28.23,28.23,0,0,1,4.28,5.8,16.1,16.1,0,0,0-4,1.2,1.7,1.7,0,0,0-1.57-.2c-1.28.42-2.43-.23-3.58-.78A12.63,12.63,0,0,0,118,192a9.67,9.67,0,0,0-7.22,3.2,25.07,25.07,0,0,0-4.67,7.06c-.82,1.73-1.62,3.47-2.43,5.21s-2,3.65-2.3,5.59c-.41,3.24,2.42,5.1,5.24,5.67,3.71.74,7.6,1,11.36,1.4q12.12,1.44,24.24,2.82c16,1.82,32,3.54,48.06,5,7.64.69,15.33,1.62,23,1.67,6.95.05,14.21-.89,20.25-4.58,5.7-3.49,10.29-9.11,11-15.92C244.68,207.19,244.31,205.25,242.65,204ZM169.1,153a.79.79,0,0,1,1,.59,27,27,0,0,1,1.13,7.95,30.56,30.56,0,0,0-7.45-6A12.76,12.76,0,0,1,169.1,153Zm-35.69-.54a1,1,0,0,1,1.41-.71,10.15,10.15,0,0,1,3.76,2c1,.77,1,.8-.12,1.42a30.11,30.11,0,0,0-6,4.32c-.19.19-.4.35-.75.65A27.7,27.7,0,0,1,133.41,152.48Zm-4.47,26.35c-1.22-5.62.34-10.56,4-14.84a22.37,22.37,0,0,1,15.34-7.78c8.3-.83,15.26,2,20.82,8.15a17.7,17.7,0,0,1,4.8,13.58c0,.64-.2,1.28-.28,1.92a2.48,2.48,0,0,0,1.33,2.69,2.33,2.33,0,0,0,2.69-.44,3.24,3.24,0,0,0,.83-2,22.55,22.55,0,0,0-1.06-11.54.86.86,0,0,1,.43-1.19c10-6.67,22.8-6.82,32.7,1a27.88,27.88,0,0,1,10.87,18.31,25.14,25.14,0,0,1,.28,4,20.94,20.94,0,0,1-.39,3.89c-.26,1.27-.6,2.51-.9,3.71a34.44,34.44,0,0,1-1,3.49c-8.13,9.53-26,6.85-34.33.17a11.25,11.25,0,0,1-1.74-3.7,12.1,12.1,0,0,1,.61-7.73,7.91,7.91,0,0,1,2.57-3.42,5,5,0,0,1,5.93-.49c1.74,1.1,2.47,3.16,2,5.53a7.15,7.15,0,0,0,1.59,6.44c2.63,1.25,5.51,4.36,8.62,1.47,1.08-2,.12-3-1.8-3a4.36,4.36,0,0,1-2-.6,3.09,3.09,0,0,1-1.79-3.44,13,13,0,0,0,.13-4.09,9.54,9.54,0,0,0-14.48-6.42,13.48,13.48,0,0,0-6.19,8.65,15.79,15.79,0,0,0,1,11.1,17.48,17.48,0,0,0,2.13,3.33c-.24-.39.72.64.72.64a42.13,42.13,0,0,0-6.39.11c-6.45-2-13.56-.7-20.12-.12-4.64.41-14.16,1.72-16.25-4.18-1.6-4.53,6.32-3,8.47-2.79,4,.37,8.84,1.1,12.58-.85l.11-3c-7.88-3.31-18,.31-25.24-6.27a20.73,20.73,0,0,1-2.95-2.9A17.56,17.56,0,0,1,128.94,178.83Zm5.36,19.74c-2.25,2.25-3.1,4.44-2.11,6.73-1.75,0-5.82,1.86-6.7-1.18C124.64,200.09,127.75,197.2,134.3,198.57ZM240.48,209c-.51,5.06-4.1,9.45-8.24,12.15-5.19,3.37-11.37,4.42-17.46,4.5-7,.09-14-.74-20.91-1.36-14.72-1.3-29.42-2.83-44.11-4.47q-10.89-1.22-21.78-2.49l-10.88-1.28-5.44-.65a34.16,34.16,0,0,1-4.51-.6c-1.17-.29-2.13-.54-1.65-1.85.63-1.75,1.57-3.42,2.35-5.11a45.83,45.83,0,0,1,4.59-8.5c1.33-1.75,3.41-3.69,5.8-3.27,1.77.31,3.29,1.3,4.88,1.92a15.07,15.07,0,0,0-2.56,3.93c-1.15,4,1.78,6.07,4.74,7.19,15.87,3.6,32,.21,48,1.66l3.89.16c10.1.48,20.14,1.5,30.23,1.95a20.89,20.89,0,0,0,9.5-1.47,11.74,11.74,0,0,0,2.92-1.88c2.48-2.21,3.76-5.37,4.63-8.61l9.11,3.58,4.81,1.89a5.9,5.9,0,0,1,1.78.77C240.72,207.63,240.55,208.37,240.48,209Z"/><path class="cls-4" d="M202.36,196.92c4.51-.64,5.5,3.68,5.59,7.25.22,8.09-16.1,2.58-19.34,1-.86-.42-4.11-2.2-4.07-3.35a11.17,11.17,0,0,1-1.73-3.69,12.15,12.15,0,0,1,.6-7.73A8.1,8.1,0,0,1,186,187a5,5,0,0,1,5.93-.49c1.74,1.1,2.47,3.16,2,5.53a7.14,7.14,0,0,0,1.58,6.44c2.64,1.25,5.56,3.36,9,1.6A2.92,2.92,0,0,0,202.36,196.92Z"/><path class="cls-4" d="M131.23,160a27.35,27.35,0,0,1,1.66-7.73,1,1,0,0,1,1.41-.71,10.15,10.15,0,0,1,3.76,2.05c1,.78,1,.81-.12,1.43a29.38,29.38,0,0,0-6,4.31C131.79,159.55,131.58,159.71,131.23,160Z"/><path class="cls-4" d="M163.29,155.35a12.76,12.76,0,0,1,5.29-2.53.8.8,0,0,1,1,.59,27,27,0,0,1,1.13,8A30.55,30.55,0,0,0,163.29,155.35Z"/><path class="cls-8" d="M180.84,140.82l.09.09-.11.05s0,0,0-.06S180.82,140.85,180.84,140.82Z"/><path class="cls-9" d="M211.92,180a2.14,2.14,0,0,1-1.47,2,2.18,2.18,0,0,1-2.4-.77c-.57-.76-1-1.62-1.57-2.36a20.46,20.46,0,0,0-9.06-6.59,2.28,2.28,0,0,1-1.5-1.24,2.08,2.08,0,0,1,2.15-2.93,7.89,7.89,0,0,1,3.23,1,24.81,24.81,0,0,1,10,9.13A3.14,3.14,0,0,1,211.92,180Z"/><path class="cls-1" d="M150.27,178.61a4.48,4.48,0,0,1-6.1.61,2.56,2.56,0,0,1-1.09-1.79,1.5,1.5,0,0,1,2.06-1.65c.24.08.46.18.69.27a1.31,1.31,0,0,0,1.94-1.21c0-.35,0-.7,0-1a1.49,1.49,0,0,1,1.25-1.4,6.5,6.5,0,0,1,2.67,0,1.57,1.57,0,0,1,1.31,1.58c0,.4,0,.8,0,1.2a1.33,1.33,0,0,0,1.76,1.19,5.27,5.27,0,0,0,.56-.19,1.45,1.45,0,0,1,1.82.43,1.65,1.65,0,0,1,.12,2,3.71,3.71,0,0,1-3.12,1.75A4.16,4.16,0,0,1,150.27,178.61Z"/><path class="cls-6" d="M164.07,182.87a3.76,3.76,0,0,1,.32-7.51,3.77,3.77,0,0,1,3.6,3.81A3.72,3.72,0,0,1,164.07,182.87Z"/><path class="cls-6" d="M136.4,181.81a3.75,3.75,0,0,1,.34-7.5,3.8,3.8,0,0,1,3.56,4A3.7,3.7,0,0,1,136.4,181.81Z"/><path class="cls-1" d="M143.43,170.82a2.76,2.76,0,0,1-2.83,2.6,2.77,2.77,0,0,1,.25-5.53A2.81,2.81,0,0,1,143.43,170.82Z"/><path class="cls-1" d="M157.91,171.23a2.69,2.69,0,0,1,2.83-2.57,2.75,2.75,0,0,1,2.61,2.89,2.89,2.89,0,0,1-2.92,2.61A2.66,2.66,0,0,1,157.91,171.23Z"/></svg>