<svg id="圖層_1" data-name="圖層 1" xmlns="http://www.w3.org/2000/svg" viewBox="0 0 500 600"><defs><style>.cls-1{fill:#0a4b75;}.cls-2{fill:#efefef;}.cls-3{fill:#67c5fa;}.cls-4{fill:#fbfcfc;}.cls-5{fill:#fbdaaa;}.cls-6{fill:#fad58f;}.cls-7{fill:#cecece;}.cls-8{fill:#9bcff9;}.cls-9{fill:#fdba62;}</style></defs><path class="cls-1" d="M405.32,411.36l-2,1.58c-12.87,11.76-25.78,23.46-38.59,35.29-6.06,5.61-12.84,8.71-21.28,7.4-7.39-1.15-14.81-2.17-22.22-3.22-10.63-1.51-21.28-3-31.9-4.52a7.29,7.29,0,0,0-7.43,2.92,30.67,30.67,0,0,0-6,12.43c-1,4.89-.42,9.74-.41,14.61,0,20.67-20.9,35.75-40.62,29.46A34.28,34.28,0,0,1,215,491.06c-3.9-11.15-3-21.7,4-31.47,3.45-3.61,7.13-7.28,12-8.51,4.67-1.17,6.57-4.05,8-8.07.8-2.18.27-3-1.84-3.27-7.62-1.1-15.26-2.09-22.83-3.43-5.17-.91-8.4,1.68-10.69,5.57a30.81,30.81,0,0,0-4.2,18.07c.71,9.95-1.5,18.83-9,26.06-15,14.4-40,9.22-49.13-7.71-.71-1.31-1.11-3.1-2.8-3.81-.37-3.11-.85-6.22-1.08-9.34-.38-5.2,1.16-10.06,3-14.83,2.11-2.44,3.66-5.34,6.28-7.38,3.4-2.66,6.74-5.25,11.23-6,3-.5,3.16-3.39,3.34-5.67s-2.19-1.61-3.41-1.82c-18.14-3.14-36.53-4.69-54.62-8.2a22.43,22.43,0,0,1-9.06-9.47c-1.69-5.25-1.25-10.42.19-15.69,3.93-14.31,7.79-28.64,11.45-43,1.27-5,3.29-9.83,3.18-15.1.92-1,.7-2.24.75-3.42a.65.65,0,0,0,.21-.92c.09-1.62.25-3.25.25-4.87q0-73.54,0-147.07a6.47,6.47,0,0,0-.41-3.2,14.08,14.08,0,0,0-1.19-5c-3.64-11.13-7.22-22.27-11-33.34-4.33-12.63-2.39-23.4,7.73-32.87,16-15,31.48-30.55,47.3-45.74,7.9-7.6,16-15,23.64-22.86,8.51-8.13,17.14-16.15,25.51-24.44,7.27-7.19,15.2-12.32,26-10.7,3.12.47,6.26.76,9.38,1.17q31.35,4.18,62.69,8.37C321.46,16,343,18.72,364.58,21.67c6.49.89,13,2,19.44,3,5.23.82,10.63.68,15.51,3,10.47,5.06,16.9,13.16,18.19,25,1.57,14.5.63,29,.65,43.54q.15,141.77.06,283.52a61.9,61.9,0,0,1-.59,7.34,33.54,33.54,0,0,1-1.54,8.67C414.29,402.18,409.68,406.65,405.32,411.36ZM264.14,437.9c-.45.1-.55.41-.52.81a120.93,120.93,0,0,0-9.36,25.59c-.45,1.92-1,2.7-2.93,1.59a13.48,13.48,0,0,0-6-1.35A14.68,14.68,0,0,0,231,473.32c-2.24,5.25-1.15,10.24,3.18,14.51a14.5,14.5,0,0,0,24.25-5.48,16,16,0,0,0,.74-2.45c.57-4.47,1-8.95,1.63-13.41,1.33-9.3,4.58-18,8.67-26.38,1.45-2,2.76-4.17,4.39-6,2.5-2.9,5.59-4.94,9.65-4.45,7.11.85,14.2,1.82,21.3,2.76q15.82,2.12,31.65,4.28c1.46.2,2.78.18,2.79-1.65,0-2.13,1.09-3.9,1.63-5.84,5.66-20.3,11.52-40.55,17-60.9,2.08-7.7,5.16-15.12,5.15-23.42q-.25-110.1,0-220.21c0-5.9-1.5-10.5-5.86-14.28-1.11-3.42-3.95-5.64-5.9-8.47-3.51-5.07-8.44-7.5-14.5-8.29-21-2.77-42-5.68-63-8.57-27-3.72-54-7.4-81-11.31-3.28-.48-3.94,0-3.92,3.29.12,17.94,0,35.88-.05,53.82a.68.68,0,0,0-.71.85c1.29,7.83-8.11,14.26-15,13-7.8-1.38-15.72-2.14-23.58-3.2q-15.34-2.07-30.69-4.22c-2.23-.31-3.33,0-2.31,2.57.65,1.65,1.06,3.4,1.58,5.1,3.83,9.93,6.8,20.14,10,30.26a16.07,16.07,0,0,1,.63,5.15c-.51,47.63-.2,95.26-.15,142.89v3.57c5.39-7.39,10.9-7.57,16.47-1l5.06,5.92A92.67,92.67,0,0,0,176,355.12c4.17,2.53,8.81,4.25,12.65,7.34A11.9,11.9,0,0,1,192.8,375a10.85,10.85,0,0,1-15.15,6.82c-6.56-3-12.28-7.34-18-11.67-6.25-4.74-11.41-10.65-17.14-15.94-4.28-6.17-9.34-11.73-13.51-18.8-.44,1.93-.7,3.06-1,4.18l-.19,1.18c-.18.7-.36,1.4-.53,2.1-.61,2.07-1.29,4.12-1.82,6.21-1.82,7.23-3.6,14.48-5.4,21.72q-4.08,15.66-8.17,31.32c-.92,2.42.21,3.13,2.5,3.44,16.33,2.23,32.73,4.11,48.93,7.09,6.79,1.26,10.17-1,13.07-6.4,2.25-4.15,6.21-6.24,10.7-7.1a9.68,9.68,0,0,1,9.93,4.8c1.83,3.47,1.19,6.32-2.06,9.95a37.66,37.66,0,0,0-6.7,10.3,102.82,102.82,0,0,0-8.69,22.69c-.48,1.78-.45,4.15-1.6,5.16s-3.29-.65-5-.87a20.69,20.69,0,0,0-2.58-.33c-5.9,0-10.92,1.85-14,7.2A11.73,11.73,0,0,0,157.3,472c3.48,4.56,8.09,7,13.75,5.92,5.51-1.05,9.9-4,11.6-9.86,1.35-3,1.22-6.28,1.63-9.4a92.38,92.38,0,0,1,9.51-31.58c1.11-1.59,2.19-3.2,3.36-4.75a10.5,10.5,0,0,1,10.53-4.39c11.16,1.57,22.39,2.79,33.46,4.87,5.65,1.06,9.84.58,12.72-4.8a10,10,0,0,1,2.42-2.61c3.42-2.92,7.24-4.28,11.75-2.93,6.45,1.94,8.37,8.52,3.86,13.51a43.8,43.8,0,0,0-7.75,11.93ZM232.21,21.67l-.16-.18-.19.14-2.79-.39c-2.38-.24-4.73-1.74-7.11.26-5.47,4.59-10.53,9.63-16,14.23-5,4.17-9.1,9.29-13.6,14l-5.82,5.4c.64,1.08,1.49.88,2.19,1q39.86,5.38,79.72,10.76,33.24,4.5,66.47,9.11c6.53.91,13.16,1.42,19.08,4.94,3,1.81,5.26,4.52,8.11,6.48,4.53,6.1,9,12.27,13.61,18.27,3.18,4.12,5.13,8.45,4.63,13.81-.36,3.89-.27,7.83-.27,11.74q0,62.81,0,125.61,0,43.88.11,87.75c0,4.76.62,9.51-.77,14.25-6.53,22.3-12.93,44.65-19.4,67-.22.78-.68,1.5,0,2.55,1-.88,1.89-1.63,2.75-2.43,10.8-10.05,21.45-20.26,32.44-30.08A15.56,15.56,0,0,0,400.89,383q-.28-131.15-.15-262.3,0-30.83.09-61.66c0-5.45-1.75-10-6.27-13.2a10.51,10.51,0,0,0-8-3.88c-9.05-.35-17.91-2-26.84-3.23Q319.4,33.36,279,27.92ZM118.94,120.11c17,2.28,32.93,4.35,48.83,6.6,2.85.4,3.46-.45,3.46-3.14,0-15.75.15-31.5.25-47.25,0-2.12,0-4.25,0-6.38l-.78-.53C153.65,86.1,136.6,102.8,118.94,120.11Z"/><path class="cls-2" d="M109,338c.11,5.27-1.91,10.12-3.18,15.1-3.66,14.38-7.52,28.71-11.45,43-1.44,5.27-1.88,10.44-.19,15.69C92.58,409.67,90.31,410,88,410c-4.64.07-9.28.06-13.91,0-2.64,0-2.22-.25-3.2-2.83-.51-1.34-1.87-2.6-2.45-4.16.26-.59.55-1.17.77-1.78,2-5.72-1-10-7-10-1.41,0-2.81.06-4.22.11-6.29.23-7.87,1.79-8.36,8.19-5.32-6.64-9.7-13.89-14.1-21.17-3.35-5.53-6.18-11.32-9.39-16.9a84.59,84.59,0,0,1-5.56-13.05c-2.54-6.85-5.2-13.7-7.15-20.73a200.41,200.41,0,0,1-5-25.43c-1.61-11.39-1.31-22.91-2.24-34.35-.31-3.79.55-7.8.22-11.66-.93-10.86.86-21.61.93-32.43,0-6.85,1.71-13.7,2.92-20.5,1.43-8,2.91-16,4.87-23.86,1-4.13,3-8,4.44-12.08,2.38-6.54,4.67-13.14,8.35-19.14,2.18-3.57,4.16-7.28,6.07-11C37.53,130.56,42.78,125.2,47,119c1.91-2.82,4.65-5.08,6.92-7.68A157,157,0,0,1,69.63,95.52a396.74,396.74,0,0,1,32.25-25.46c10.23-7.11,20.93-13.38,31.72-19.5,4.28-2.43,9.26-3.61,13.67-5.85,7-3.57,14.27-5.7,22.23-5.57,1.83,0,3.77-1,5.75-1.19.75-.08,1,.09,1,.73-7.66,7.85-15.74,15.26-23.64,22.86-15.82,15.19-31.29,30.75-47.3,45.74-10.12,9.47-12.06,20.24-7.73,32.87,3.8,11.07,7.38,22.21,11,33.34a14.08,14.08,0,0,1,1.19,5c-1.5.9-.79,2.37-.79,3.56Q109,260,109,338ZM65.29,372.78c0-4.74-2.73-7.33-7.87-7.34-4.65,0-8,3.08-8.15,7.45A7.58,7.58,0,0,0,57,380.7C62,380.73,65.24,377.61,65.29,372.78Z"/><path class="cls-2" d="M405.32,411.36c4.36-4.71,9-9.18,11-15.62a33.54,33.54,0,0,0,1.54-8.67c1.75-.7,1-2.23,1-3.38.11-9.5.12-19,.16-28.51.85-1,.54-2.29.54-3.45q0-95.85,0-191.68c0-1.28.36-2.63-.5-3.8q-.07-23.81-.15-47.62c0-8,0-16.08,0-24.57,4.18,1.88,6.69,5.19,9.68,7.84,4.77,4.25,9.51,8.53,14,13.09,8.15,8.32,15.34,17.45,22.43,26.7,3.6,4.71,6.21,9.91,8.85,15A197.68,197.68,0,0,1,484.49,171a147.41,147.41,0,0,1,7.05,28.3c1.89,13,3.88,25.86,4,39,.06,6.2,1.48,12.47,1,18.69-1.18,14.74-.89,29.58-3.55,44.25-1.91,10.54-3.67,21.07-6.78,31.33a146.75,146.75,0,0,1-8.56,21.46c-3.82,7.83-7.25,15.89-12.17,23.24-4.31,6.41-7.94,13.27-12.85,19.29-.61.74-.91,1.76-2,2-1.08-5.58-2.85-7.1-8.48-7.21-1.95,0-3.9,0-5.83.11-3.39.25-5.26,2.09-5.75,5.43a8.18,8.18,0,0,0,3.11,8c-1.95.91-4.35,1.13-4.8,4-.19,1.25-1.72,1-2.78,1-3.24,0-6.48.05-9.71,0C412.6,409.92,408.87,409.87,405.32,411.36Zm36.49-45.83c-4.69,0-7.86,2.87-7.9,7.14a7.46,7.46,0,0,0,7.6,7.9c5,.05,8.75-3.2,8.75-7.62S446.92,365.53,441.81,365.53Z"/><path class="cls-3" d="M215,491.06a34.28,34.28,0,0,0,19.84,16.25c19.72,6.29,40.65-8.79,40.62-29.46,0-4.87-.61-9.72.41-14.61a30.67,30.67,0,0,1,6-12.43,7.29,7.29,0,0,1,7.43-2.92c10.62,1.56,21.27,3,31.9,4.52,7.41,1,14.83,2.07,22.22,3.22,8.44,1.31,15.22-1.79,21.28-7.4,12.81-11.83,25.72-23.53,38.59-35.29.16,1.36,1.37,1.59,2.29,2.06,4.36,2.17,8.82,4.14,13.1,6.47,5.39,2.94,9.09,7.32,2.5,13.51C415.23,440.57,408.52,445.2,402,450c-9.31,6.89-18.39,14.19-28.85,19.36a76.46,76.46,0,0,1-30,8c-11.48.64-22.62-1.57-33.86-3.11-6.11-.83-12.21-1.82-18.31-2.74-2.65-.4-3,1.78-3.56,3.42-1.13,3.62-1.82,7.38-3,11C279.77,500.39,271,511.24,256,515.68c-16.57,4.9-35.87-2.71-40.7-20.07C214.92,494.14,214.08,492.64,215,491.06Z"/><path class="cls-3" d="M138.52,474.49c1.69.71,2.09,2.5,2.8,3.81,9.16,16.93,34.17,22.11,49.13,7.71,7.53-7.23,9.74-16.11,9-26.06a30.81,30.81,0,0,1,4.2-18.07c2.29-3.89,5.52-6.48,10.69-5.57,7.57,1.34,15.21,2.33,22.83,3.43,2.11.31,2.64,1.09,1.84,3.27-1.47,4-3.37,6.9-8,8.07-4.85,1.23-8.53,4.9-12,8.51-.94.19-1.63,1.22-2.7.89-3.89-1.18-4.71,1.19-5.53,4.27-2.28,8.62-5,17-10.5,24.35-14.28,19.19-45.41,18.82-57.53-.82C140.17,484.09,138.25,479.61,138.52,474.49Z"/><path class="cls-3" d="M103.27,421.25c18.09,3.51,36.48,5.06,54.62,8.2,1.22.21,3.61-.61,3.41,1.82s-.35,5.17-3.34,5.67c-4.49.75-7.83,3.34-11.23,6-2.62,2-4.17,4.94-6.28,7.38-5.35.22-10.53-1.16-15.76-1.86-8.68-1.18-17.41-2.14-25.91-4.43a12.87,12.87,0,0,1-5.35-3c-3.3-3-3.46-7.18-.32-10.28C96.41,427.51,99.88,424.42,103.27,421.25Z"/><path class="cls-1" d="M325.39,535.66c-2.93-1.4-5.12.68-7.55,1.26-1.71.41-3,.56-4-.93s-.41-3,.59-4.22c4.95-6.23,16.54-4.95,19.94,2.24,1.21,2.55,2.14,5.23,3.17,7.85.45,1.14.8,2.27,2.49,1.87a2.47,2.47,0,0,1,3.24,1.91,3.51,3.51,0,0,1-1.16,4.09c-2.08,1.66-4.48,2.5-7,1.7a4.44,4.44,0,0,0-4.47.89,19.28,19.28,0,0,1-3.6,2.2c-4.7,2.13-9.43.23-11.25-4.4a8.61,8.61,0,0,1,5.26-11.53C322.75,538,324.72,537.81,325.39,535.66Zm4.18,8.7c0-1.44-.89-1.6-1.79-1.4-1.79.4-4.13.19-4.46,2.71a1.76,1.76,0,0,0,2.06,1.94A5.25,5.25,0,0,0,329.57,544.36Z"/><path class="cls-1" d="M103.27,494.76c3,2.73,3.93-.91,5.57-2.61,5-5.19,15.15-3.14,17.68,3.63.61,1.64.56,3.26-1.17,4.28-1.51.89-3,1.16-4.38-.39a31.53,31.53,0,0,0-3.36-3.07c-1.19-1-2.26-.59-3,.6s.23,1.69,1.11,2.2,1.86,1.11,2.75,1.73c1.65,1.17,1.73,2.71.73,4.28s-2.37,2.66-4.35,1.5a18,18,0,0,1-2.91-2.06c-1-.91-1.92-1.08-2.74,0a1.66,1.66,0,0,0,.5,2.54c.7.51,1.36,1.08,2.1,1.53,1.55.95,2.59,1.95,1.31,3.91s-2.67,2.84-4.86,1.54a11.21,11.21,0,0,1-1.64-1.06c-1.56-1.37-2.65-1.05-3.49.79a20,20,0,0,1-3.1,5c-1.68,1.9-3.57,2.92-5.93,1.18s-2.12-3.77-.62-6c2.32-3.4,4.57-6.85,6.9-10.25,1-1.46,2.19-2.72,0-4.32-1.2-.88-.89-2.36-.35-3.61S101.55,494.64,103.27,494.76Z"/><path class="cls-1" d="M139.2,520c-.06,6.84-3.4,9-9.6,6.07-1.57-.73-3.11-1.55-4.72-2.18-.81-.32-1.91-1.26-2.59-.1-.51.86.15,1.86.79,2.64,2,2.45,4.91,3,7.81,3.47,1.16.19,2.13.51,2.35,1.82a3.07,3.07,0,0,1-1.4,3.39,7.51,7.51,0,0,1-2.73.94c-9.06,1.19-17.09-8.33-14.17-16.95,1.77-5.23,5.27-9,10.86-10.15C133.19,507.38,139.26,512.46,139.2,520Zm-8.75-.49c1.16,0,1.34-.39,1.33-1,0-2-3-3.75-4.85-2.83-.48.24-1.2.69-.66,1.11A48.26,48.26,0,0,0,130.45,519.51Z"/><path class="cls-1" d="M147,534.09c1.15,3.95,4.16,4.66,7.34,5.17,1.91.31,4.64-.26,4.44,2.91-.16,2.55-2.2,3.78-4.51,3.85-6.58.23-14.56-3.74-15-12.1-.41-7.79,6.25-15.65,13.42-15.59,8.1.06,13.15,7.71,10.17,15.29-1.14,2.9-3,3.82-5.87,2.66A28.44,28.44,0,0,0,147,534.09Zm9-6.15a3.31,3.31,0,0,0-3.15-2.88c-1.12-.11-2.66.45-2.49,1.5.37,2.34,2.92,1.61,4.43,2.42C155.6,529.44,155.93,529,156,527.94Z"/><path class="cls-1" d="M282.77,561.51c-7.51-4-10.3-10-8.11-17.43,1.44-4.9,5.55-8.09,11.09-8.63a11.65,11.65,0,0,1,11.51,6.42c4.13,7.94,1.59,15-7,19.6C287.77,561.61,285.28,562.76,282.77,561.51Zm-.24-15.09a4.64,4.64,0,0,0-.15,4.06c.58,1.8,1.11,3.82,3.69,3.79,3.49,0,5.1-1.71,4.9-5.2-.23-4.05-2.36-6.25-5.75-5.94C283.33,543.42,282.77,544.78,282.53,546.42Z"/><path class="cls-1" d="M419.08,498.65c4.25,1,6.54-2,8.89-4.81.88-1,1.63-2.06,3.2-1.29s2.49,1.84,2.12,3.6a10,10,0,0,1-1.14,3,14.82,14.82,0,0,1-14.43,6.91,14,14,0,0,1-11.48-11A11.58,11.58,0,0,1,419,480.58c3.33.36,6.18,1.84,7.51,5s-.45,5.58-2.64,7.78C422.22,495,420.72,496.81,419.08,498.65Zm-.15-9.77c-.17-1.47-1.27-1.51-2.2-1.45-2.6.18-2.93,2.17-3,4.19-.05.78.36,1.81,1.27,1.35C416.71,492.07,417.82,490.4,418.93,488.88Z"/><path class="cls-1" d="M396,497.45a8.83,8.83,0,0,1,8,3.84c2.58,3.33,4.9,6.84,8.21,9.6,2.16,1.8,1.13,3.91-.66,5.53-2.17,2-5,1.51-7-1-2.12-2.74-4.19-5.53-6.37-8.23-.89-1.09-2-2.09-3.59-1.87a2.94,2.94,0,0,0-2.19,4.33,62.9,62.9,0,0,0,6.86,9.88c1.66,2.06,1.79,3.9-.15,5.71a4.2,4.2,0,0,1-6.3-.52c-2.53-3.25-4.78-6.71-7.22-10a37.81,37.81,0,0,0-3.57-4.21c-1.14-1.15-2.05-2.28-1.5-4a3.81,3.81,0,0,1,3.67-2.77c2.23,0,3.46-1.07,4.69-2.75A7.73,7.73,0,0,1,396,497.45Z"/><path class="cls-1" d="M240.94,548.72c0,7.57-5.3,13.53-12.07,13.55A12.57,12.57,0,0,1,216,549.9c0-8.17,5.46-14,13.09-14C236,535.93,240.94,541.33,240.94,548.72Zm-16.83.46c0,3.56,1.63,5.77,4.27,5.71s4.41-2.26,4.49-5.67c.09-3.6-1.66-6.07-4.33-6.1S224.14,545.6,224.11,549.18Z"/><path class="cls-1" d="M384.38,525.31c0,6.56-6.26,12.48-13.3,12.55-6.58.07-12.54-6.55-12.61-13.7-.07-7.53,7.36-12.44,12.86-12.34A13.44,13.44,0,0,1,384.38,525.31ZM373.93,521c-1.36-1.67-3.07-2.71-5-1.29a4.73,4.73,0,0,0-1.52,6.53c1.38,3.51,3.16,4.8,5.54,4a4.77,4.77,0,0,0,3.3-5.89A4.72,4.72,0,0,0,373.93,521Z"/><path class="cls-1" d="M262.35,536.59A9.25,9.25,0,0,1,268,537.7c1.77,1.16,1.8,2.82,1.2,4.61s-2,1.72-3.47,1.48c-1.28-.21-2.56-.45-3.85-.56-.85-.07-1.86-.09-2,1.11-.13,1,.58,1.57,1.42,1.93,1.69.73,3.55.85,5.24,1.72,3.13,1.6,4.86,4,4.64,7.52a8,8,0,0,1-5.52,7.36,16.13,16.13,0,0,1-10.25.36,4.94,4.94,0,0,1-3.76-3.29c-.65-2.18,1-4,3.39-3.8,1.94.16,3.78,1,5.79.74.95-.13,1.75-.42,1.83-1.47.07-.9-.68-1.3-1.4-1.59-1.21-.48-2.45-.88-3.65-1.38-4.28-1.79-6.23-5-5.6-9.18.57-3.82,3.58-6.31,8.07-6.66C260.82,536.54,261.59,536.59,262.35,536.59Z"/><path class="cls-1" d="M204.72,532.74a13.9,13.9,0,0,1,6.88,1.7c2,1.13,2.22,2.82,1.52,4.76-.8,2.2-2.47,1.65-4.07,1.17a35.38,35.38,0,0,0-3.43-1c-.8-.15-1.86-.37-2.26.7s.43,1.68,1.13,2.14c1.35.9,2.83,1.59,4.21,2.45,3.26,2,4.78,5.24,4.09,8.53s-3.2,5.73-7,6.34a15.51,15.51,0,0,1-10.37-1.89c-2.12-1.21-3.67-2.9-2.07-5.57s3.44-1.52,5.32-.5a8.18,8.18,0,0,0,.84.51c1.5.55,3.53,1.72,4.46.11,1.21-2.11-1.63-2.21-2.62-3.25a4.73,4.73,0,0,0-1.12-.66c-4.2-2.48-5.91-5.88-4.87-9.63S199.83,532.68,204.72,532.74Z"/><path class="cls-1" d="M181,521.51c-1.33,4.36-2.51,8.76-4,13-1.13,3.21-1.71,6.59-3.21,9.7-.68,1.42.56,1.83,1.72,2,2.37.35,4,1.44,3.32,4.11-.66,2.5-2.67,3-4.92,2.45-3.06-.71-6.11-1.48-9.13-2.35-1.59-.47-3-1.23-3.11-3.28s.9-3,2.71-3.38c1.46-.31,1.65-1.6,2-2.71,2.16-6.71,4.24-13.44,6.46-20.13,1-3.16,3.88-4.19,6.38-2.52A3.68,3.68,0,0,1,181,521.51Z"/><path class="cls-1" d="M66.72,495.4c7.21,3.05,8.16-4,10.87-7.34a110.91,110.91,0,0,0,7.89-10.18c1.35-2.14,3.77-2.11,5.73-.56s2.08,3,.67,5.33c-3.12,5.09-6.89,9.68-10.39,14.48-1.71,2.35-3.78,4.32-3.8,7.7a2.89,2.89,0,0,1-4.53,2.58,35.16,35.16,0,0,1-8.69-6.77,3.2,3.2,0,0,1-.51-3.9A2.64,2.64,0,0,1,66.72,495.4Z"/><path class="cls-1" d="M350.31,547.46c-2.82,0-4.88-2.52-3.66-4.58,1.12-1.9.47-3.29-.23-4.84-2.63-5.81-5.31-11.62-8-17.41-1-2.17-2-4.31,1-5.75s5-.67,6.5,2.56q4,8.88,7.9,17.81c.84,1.94,1.57,3.53,4.24,2.21,1.53-.75,2.94-.05,3.66,1.67s.49,3.11-1,4A35.51,35.51,0,0,1,350.31,547.46Z"/><path class="cls-1" d="M433.64,404.94a8.18,8.18,0,0,1-3.11-8c.49-3.34,2.36-5.18,5.75-5.43,1.93-.15,3.88-.14,5.83-.11,5.63.11,7.4,1.63,8.48,7.21a.21.21,0,0,0,.32,0c-1,1-.92,2.43-1.4,3.63-2.56,3.29-6.16,3.49-9.88,3.35-1.18,0-2.36,0-3.54,0-.85-.11-1.6-.78-2.53-.47Z"/><path class="cls-1" d="M49.66,399.56c.49-6.4,2.07-8,8.36-8.19,1.41-.05,2.81-.11,4.22-.11,6.06,0,9.05,4.25,7,10-.22.61-.51,1.19-.77,1.78C62.75,408.05,52.51,406.17,49.66,399.56Z"/><path class="cls-4" d="M419.05,156.25c.86,1.17.5,2.52.5,3.8q0,95.83,0,191.68c0,1.16.31,2.41-.54,3.45Q419,255.72,419.05,156.25Z"/><path class="cls-1" d="M61.39,442.41a5.24,5.24,0,0,1,5.28,5.43,5.68,5.68,0,0,1-5.55,5.27,5.35,5.35,0,0,1-5.57-5.52C55.65,444.37,57.9,442.37,61.39,442.41Z"/><path class="cls-1" d="M438.92,453.13a5.29,5.29,0,0,1-5.32-5.41,5.15,5.15,0,0,1,5.33-5.35c3.46,0,6,2.35,5.93,5.49A5.72,5.72,0,0,1,438.92,453.13Z"/><path class="cls-1" d="M438.57,482.64a4.07,4.07,0,0,1,4.16,4.09,4.59,4.59,0,0,1-4.6,4.14,3.91,3.91,0,0,1-3.93-4A4.23,4.23,0,0,1,438.57,482.64Z"/><path class="cls-5" d="M282.77,561.51c2.51,1.25,5,.1,7.5,0A6,6,0,0,1,282.77,561.51Z"/><path class="cls-5" d="M449.51,402.18c.48-1.2.43-2.61,1.4-3.63C450.75,399.88,451.62,401.61,449.51,402.18Z"/><path class="cls-5" d="M433.56,405.06c.93-.31,1.68.36,2.53.47C435.1,406.16,434.1,406.85,433.56,405.06Z"/><path class="cls-5" d="M438.64,406.44a2,2,0,0,1-.53.22c-.06,0-.14-.26-.21-.4.09,0,.21-.14.27-.11A3.31,3.31,0,0,1,438.64,406.44Z"/><path class="cls-4" d="M127.32,342.85l.53-2.1c.63-.3.63-.7.19-1.18.26-1.12.52-2.25,1-4.18,4.17,7.07,9.23,12.63,13.51,18.8-.7,2.61,1.34,4.25,2.36,6.17,5.25,9.86,12.6,17.49,23.29,21.58,8.61,3.29,17.69,4.11,26.7,5.24,5.55.7,9.82-1.81,11.89-7a13.11,13.11,0,0,0-2.49-14.25,41,41,0,0,0-14.81-10.36c-11.26-4.86-19.73-13.16-28.08-21.64-2.13-2.16-4.34-4.21-6.62-6.2-.88-.76-2-1.59-3.24-1s-.7,1.91-.78,2.93a2.86,2.86,0,0,1-.68,2.09L145,325.79c-5.57-6.52-11.08-6.34-16.47,1v-3.57c-.05-47.63-.36-95.26.15-142.89a16.07,16.07,0,0,0-.63-5.15c-3.22-10.12-6.19-20.33-10-30.26-.06-2.25,1.18-2.72,3.14-2.41,3.21.52,6.43.93,9.65,1.43,14.87,2.27,29.74,4.62,44.63,6.83,7.88,1.17,13.89-2.82,14.44-9.46a31.77,31.77,0,0,0-1.13-10.53c0-17.94.17-35.88.05-53.82,0-3.28.64-3.77,3.92-3.29,27,3.91,54,7.59,81,11.31,21,2.89,42,5.8,63,8.57,6.06.79,11,3.22,14.5,8.29,1.95,2.83,4.79,5,5.9,8.47,0,3.26-.08,6.52-.09,9.78q0,96.51,0,193a9.92,9.92,0,0,1-1.76,5.4c-2,3.3-4.87,5.8-7.35,8.61a63.25,63.25,0,0,1-8,8c-1.93,1.53-4.71,3.38-4.56,6.72-3.23-.19-5.83,1.25-8.32,3.12-6.92,5.18-13.79,10.45-21.54,14.4.8-3.33-1.95-6.58-4.86-5.38-2.58,1.08-5.32,1.59-7.86,2.89-9.43,4.85-18.81,9.86-28.57,14a244.68,244.68,0,0,1-36.56,12.59c-8.94,2.18-17.81,4.47-27,5.24-5.23.43-10.59.17-15.68,2.36a133.38,133.38,0,0,1-17.44,6c-9,2.47-18.29,3.63-27.5,4.95s-18.71,2.8-28.07.09q4.09-15.66,8.17-31.32a2.87,2.87,0,0,0,2.46-2.26c1.43-5.17,3.1-10.29,4.26-15.52C127.55,349.71,128.65,346.3,127.32,342.85Zm178.13-38.56c-.18-3.93-.7-7.79-2.73-11.26-4.47-7.64-13.68-8.71-19-2.22s-4.59,18.1,1.63,23.85a11.27,11.27,0,0,0,14.09,1.1c3-1.91,4.16-4.89,5.36-7.92,1.92,1.71,1.48,4.35,2.54,6.45,2.9,5.73,11,8.79,16,5.75,6.23-3.77,8.63-10.91,5-17.54-2.4-4.33-5.77-7.36-11-7.45s-8.84,2.4-10.7,7.36A10.9,10.9,0,0,1,305.45,304.29Zm-138-8.86c.74.93,1.45,1.89,2.23,2.79,5.76,6.6,14.69,5.65,19-2,2.56-4.56,2.6-9.4,1.15-14.22-1.66-5.49-4.77-9.9-10.89-10.83-5.82-.89-9.28,2.67-12,7.22-4.72-4.4-12.49-4.68-16.14-.6a12.66,12.66,0,0,0,.5,17.11C154.91,298.5,162.3,300.44,167.4,295.43ZM334.76,145.85h0c0-5.55,0-11.09,0-16.63,0-4.19-1.85-6.5-5.94-7.36-3.18-.66-6.41-1.1-9.63-1.54-14.06-1.94-28.13-3.79-42.18-5.77-7.19-1-14.34-2.32-21.53-3.35-11.47-1.66-23-3.1-34.44-4.85-6.41-1-8.17.26-8.2,6.76,0,9,.07,18-.06,27.06-.15,10.77,1.43,11.75,10.47,12.31.22,0,.43.11.64.14,15.22,2.25,30.43,4.56,45.66,6.74,19.53,2.8,39.07,5.47,58.59,8.24,4.62.66,6.6-.85,6.65-5.45C334.8,156.71,334.76,151.28,334.76,145.85ZM331,228.55a5.3,5.3,0,0,0,5-4.66,6.24,6.24,0,0,0-5-6.95c-7-1-14-1.76-20.94-2.78-18.76-2.75-37.51-5.62-56.27-8.39-16.61-2.46-33.25-4.81-49.86-7.3q-24-3.58-47.88-7.4c-1.93-.3-3.57,0-4.67,1.51-2.11,2.93-1.61,9,3.25,10,4,.79,8,1,11.92,1.62,10.18,1.58,20.34,3.24,30.53,4.76,9,1.33,18,2.43,27,3.78,14.47,2.16,28.89,4.68,43.39,6.59,13.43,1.78,26.82,3.81,40.22,5.79Zm-.87,50.31c4.22,0,6.3-2.88,5.46-6.37a6.58,6.58,0,0,0-5.92-5.27c-4.5-.67-9-1.26-13.51-1.91-18-2.58-36.05-4.95-54-7.79-16.26-2.57-32.61-4.49-48.91-6.85-18.76-2.73-37.51-5.61-56.26-8.46-4.3-.65-6.25.52-6.8,4.29-.58,4,1.29,6.37,5.36,7l19.6,2.93c10.72,1.6,21.43,3.22,32.15,4.76,9,1.29,18,2.41,27,3.73,14.9,2.19,29.78,4.51,44.68,6.7,10.82,1.58,21.66,3,32.49,4.56C318,277.06,324.39,278,330.17,278.86ZM154.45,165.92c-2.32-.11-4,1.58-4.26,5.21s1.82,6.15,5.22,6.58c8.71,1.1,17.42,2.16,26.1,3.47,14.57,2.19,29.09,4.69,43.66,6.85,18.87,2.8,37.77,5.35,56.65,8.11C297.9,198.5,314,201,330,203.45a4.61,4.61,0,0,0,2.55-.14c2.17-.88,3.77-2.09,3.46-4.81a7,7,0,0,0-6-6.4c-9.66-1.37-19.32-2.68-29-4.12-17.26-2.56-34.51-5.2-51.77-7.81l-38.25-5.77-37.62-5.69C167.46,167.81,161.45,167,154.45,165.92Zm176,87.43a5,5,0,0,0,5.22-3.76c1.19-3.55-1.87-7.46-6.05-7.94-4.74-.54-9.48-1.08-14.2-1.78-10.3-1.52-20.57-3.18-30.87-4.69-13.4-2-26.83-3.79-40.24-5.71q-14.49-2.06-29-4.19c-11.8-1.75-23.58-3.57-35.38-5.32-8.25-1.23-16.51-2.46-24.78-3.57a4,4,0,0,0-4.52,2.91c-1.57,4.41.28,8,4.84,8.62,12.55,1.83,25.13,3.48,37.68,5.29,6.87,1,13.7,2.22,20.57,3.22,13.19,1.91,26.4,3.71,39.59,5.62,7.62,1.1,15.21,2.35,22.83,3.47,11.15,1.65,22.31,3.24,33.47,4.85C316.63,251.38,323.61,252.37,330.46,253.35Zm-87.41,88.31c5.42.26,8.85-1.85,10-5.46a9.3,9.3,0,0,0-4-10.48,15.51,15.51,0,0,0-5.87-1.77q-10.65-1.5-21.28-3c-5.65-.82-9.43,1.46-10.37,6.28a8.91,8.91,0,0,0,7.11,10.73C227.05,339.44,235.56,340.54,243.05,341.66Z"/><path class="cls-2" d="M111.93,402.1c9.36,2.71,18.78,1.23,28.07-.09s18.47-2.48,27.5-4.95a133.38,133.38,0,0,0,17.44-6c5.09-2.19,10.45-1.93,15.68-2.36,9.24-.77,18.11-3.06,27-5.24a244.68,244.68,0,0,0,36.56-12.59c9.76-4.11,19.14-9.12,28.57-14,2.54-1.3,5.28-1.81,7.86-2.89,2.91-1.2,5.66,2.05,4.86,5.38-6.79,4.4-14.44,6.92-21.79,10.12-4.39,1.92-7.6,4.92-8.35,9.92A10.54,10.54,0,0,0,279.65,390c4.15,3.15,8.49,2,12.7.32,18-7.2,33.61-18.12,47.56-31.42,6.75-6.44,4.49-14.36-4.53-17.07-.15-3.34,2.63-5.19,4.56-6.72a63.25,63.25,0,0,0,8-8c2.48-2.81,5.36-5.31,7.35-8.61a9.92,9.92,0,0,0,1.76-5.4q0-96.53,0-193c0-3.26.06-6.52.09-9.78,4.36,3.78,5.87,8.38,5.86,14.28q-.25,110.1,0,220.21c0,8.3-3.07,15.72-5.15,23.42-5.49,20.35-11.35,40.6-17,60.9-.54,1.94-1.62,3.71-1.63,5.84,0,1.83-1.33,1.85-2.79,1.65q-15.82-2.19-31.65-4.28c-7.1-.94-14.19-1.91-21.3-2.76-4.06-.49-7.15,1.55-9.65,4.45-1.63,1.87-2.94,4-4.39,6l-5.33-2.23A44.06,44.06,0,0,1,271.89,426c4.51-5,2.59-11.57-3.86-13.51-4.51-1.35-8.33,0-11.75,2.93a10,10,0,0,0-2.42,2.61c-2.88,5.38-7.07,5.86-12.72,4.8-11.07-2.08-22.3-3.3-33.46-4.87a10.5,10.5,0,0,0-10.53,4.39c-1.17,1.55-2.25,3.16-3.36,4.75l-5.5-2.87a37.93,37.93,0,0,1,6.71-10.3c3.25-3.63,3.89-6.48,2.06-9.95a9.68,9.68,0,0,0-9.93-4.8c-4.49.86-8.45,2.95-10.7,7.1-2.9,5.36-6.28,7.66-13.07,6.4-16.2-3-32.6-4.86-48.93-7.09C112.14,405.23,111,404.52,111.93,402.1Z"/><path class="cls-6" d="M394.56,45.82c4.52,3.25,6.29,7.75,6.27,13.2q-.1,30.82-.09,61.66,0,131.16.15,262.3a15.56,15.56,0,0,1-5.72,12.86c-11,9.82-21.64,20-32.44,30.08-.86.8-1.76,1.55-2.75,2.43-.63-1.05-.17-1.77,0-2.55,6.47-22.33,12.87-44.68,19.4-67,1.39-4.74.77-9.49.77-14.25q0-43.87-.11-87.75,0-62.81,0-125.61c0-3.91-.09-7.85.27-11.74.5-5.36-1.45-9.69-4.63-13.81-4.64-6-9.08-12.17-13.61-18.27.21-2.73,2.65-3.83,4.16-5.57,3.82-4.4,3.53-5.71-2-7.74a14.46,14.46,0,0,0-2.49-.72c-4.81-.84-9.61-1.76-14.44-2.41-14.07-1.91-28.17-3.64-42.24-5.56-17.82-2.44-35.63-5-53.46-7.51Q222,53.76,192.36,49.72c4.5-4.7,8.65-9.82,13.6-14,5.47-4.6,10.53-9.64,16-14.23,2.38-2,4.73-.5,7.11-.26-2.16,2.11-4.28,4.25-6.48,6.32-1,.94-2.8,1.59-2.37,3.14.36,1.31,2.16,1.13,3.4,1.31q17.87,2.58,35.73,5.09c11.16,1.57,22.31,3.14,33.48,4.63,14.5,1.93,29,3.77,43.51,5.67,8.91,1.17,17.83,2.27,26.71,3.64,6.3,1,12.82,1.35,18.49,4.69,2.3,1.35,3.48.73,5.13-1C389.37,51.8,391.27,48.19,394.56,45.82ZM198.18,45.4C203,46.22,207,47,211,47.57c9.43,1.28,18.9,2.37,28.33,3.66,11.49,1.58,23,3.33,34.45,4.9,15.24,2.07,30.53,3.78,45.72,6.16,9.07,1.42,18.22,2.16,27.28,3.65,8.1,1.33,16.48,1.52,23.81,5.92.81.49,1.47.7,2.24-.24,2.32-2.86,4.79-5.59,7.11-8.45,1.43-1.76,1.12-3.19-1.19-3.88a37.54,37.54,0,0,0-5.31-1.5c-7.08-1-14.19-1.91-21.28-2.87l-41.25-5.61c-18.48-2.5-37-4.91-55.45-7.47-14.93-2.07-29.84-4.28-44.76-6.44-.74-.11-1.63-.61-2.17.06C205.68,39,201.89,41.63,198.18,45.4Z"/><path class="cls-4" d="M394.56,45.82c-3.29,2.37-5.19,6-7.89,8.87-1.65,1.77-2.83,2.39-5.13,1C375.87,52.39,369.35,52,363.05,51c-8.88-1.37-17.8-2.47-26.71-3.64-14.5-1.9-29-3.74-43.51-5.67-11.17-1.49-22.32-3.06-33.48-4.63Q241.49,34.6,223.62,32c-1.24-.18-3,0-3.4-1.31-.43-1.55,1.38-2.2,2.37-3.14,2.2-2.07,4.32-4.21,6.48-6.32l2.79.39.16.16.19-.12L279,27.92q40.37,5.4,80.73,10.79c8.93,1.19,17.79,2.88,26.84,3.23A10.51,10.51,0,0,1,394.56,45.82Z"/><path class="cls-4" d="M192.36,49.72Q222,53.8,251.62,57.88c17.83,2.48,35.64,5.07,53.46,7.51C319.15,67.31,333.25,69,347.32,71c4.83.65,9.63,1.57,14.44,2.41a14.46,14.46,0,0,1,2.49.72c5.55,2,5.84,3.34,2,7.74-1.51,1.74-3.95,2.84-4.16,5.57-2.85-2-5.07-4.67-8.11-6.48-5.92-3.52-12.55-4-19.08-4.94q-33.23-4.65-66.47-9.11Q228.6,61.45,188.73,56.1c-.7-.1-1.55.1-2.19-1Z"/><path class="cls-7" d="M150.05,331.71a2.86,2.86,0,0,0,.68-2.09c.08-1-.46-2.34.78-2.93s2.36.25,3.24,1c2.28,2,4.49,4,6.62,6.2,8.35,8.48,16.82,16.78,28.08,21.64a41,41,0,0,1,14.81,10.36,13.11,13.11,0,0,1,2.49,14.25c-2.07,5.22-6.34,7.73-11.89,7-9-1.13-18.09-1.95-26.7-5.24-10.69-4.09-18-11.72-23.29-21.58-1-1.92-3.06-3.56-2.36-6.17,5.73,5.29,10.89,11.2,17.14,15.94,5.72,4.33,11.44,8.68,18,11.67A10.85,10.85,0,0,0,192.8,375a11.9,11.9,0,0,0-4.16-12.52c-3.84-3.09-8.48-4.81-12.65-7.34A92.67,92.67,0,0,1,150.05,331.71Z"/><path class="cls-8" d="M118.94,120.11c17.66-17.31,34.71-34,51.76-50.7l.78.53c0,2.13,0,4.26,0,6.38-.1,15.75-.25,31.5-.25,47.25,0,2.69-.61,3.54-3.46,3.14C151.87,124.46,135.94,122.39,118.94,120.11Zm48.63-45.27c-12.82,13.31-26.75,25.55-39.29,39.19a4.81,4.81,0,0,0,2.8,1c6.54.93,13.09,1.85,19.61,2.9,4.27.69,4.64.55,5.77-3.46Q162,94.65,167.57,74.84Z"/><path class="cls-8" d="M258.42,482.35a14.5,14.5,0,0,1-24.25,5.48c-.34-1.47-.8-2.92-1-4.41-.59-3.94-.64-7.82,2.51-10.89,6.78-6.59,14.87-5.74,20.41,1.6C258.07,476.78,257.37,479.71,258.42,482.35Z"/><path class="cls-8" d="M182.65,468c-1.7,5.84-6.09,8.81-11.6,9.86-5.66,1.08-10.27-1.36-13.75-5.91a1.42,1.42,0,0,0,.41-1.47c-.8-4.44-.66-8.24,3-12,5.19-5.27,13.4-5.72,18.5-.33C182,461.09,182,464.6,182.65,468Z"/><path class="cls-8" d="M188.75,130.83a31.77,31.77,0,0,1,1.13,10.53c-.55,6.64-6.56,10.63-14.44,9.46-14.89-2.21-29.76-4.56-44.63-6.83-3.22-.5-6.44-.91-9.65-1.43-2-.31-3.2.16-3.14,2.41-.52-1.7-.93-3.45-1.58-5.1-1-2.57.08-2.88,2.31-2.57q15.34,2.17,30.69,4.22c7.86,1.06,15.78,1.82,23.58,3.2,6.91,1.22,16.31-5.21,15-13A.68.68,0,0,1,188.75,130.83Z"/><path class="cls-4" d="M258.42,482.35c-1.05-2.64-.35-5.57-2.35-8.22-5.54-7.34-13.63-8.19-20.41-1.6-3.15,3.07-3.1,7-2.51,10.89.22,1.49.68,2.94,1,4.41-4.33-4.27-5.42-9.26-3.18-14.51a14.68,14.68,0,0,1,14.34-8.78,13.48,13.48,0,0,1,6,1.35c2,1.11,2.48.33,2.93-1.59a120.93,120.93,0,0,1,9.36-25.59.69.69,0,0,0,.52-.81v0l5.33,2.23c-4.09,8.4-7.34,17.08-8.67,26.38-.64,4.46-1.06,8.94-1.63,13.41A16,16,0,0,1,258.42,482.35Z"/><path class="cls-4" d="M182.65,468c-.66-3.43-.68-6.94-3.42-9.83-5.1-5.39-13.31-4.94-18.5.33-3.68,3.74-3.82,7.54-3,12a1.42,1.42,0,0,1-.41,1.47,11.75,11.75,0,0,1-.91-14c3.08-5.35,8.1-7.22,14-7.2a20.69,20.69,0,0,1,2.58.33c1.75.22,3.81,1.94,5,.87s1.12-3.38,1.6-5.16a103.29,103.29,0,0,1,8.68-22.69l5.5,2.87a92.38,92.38,0,0,0-9.51,31.58C183.87,461.75,184,465.05,182.65,468Z"/><path class="cls-4" d="M109,338q0-78,0-155.92c0-1.19-.71-2.66.79-3.56a6.47,6.47,0,0,1,.41,3.2q0,73.53,0,147.07c0,1.62-.16,3.25-.25,4.87l-.21.92C109.73,335.73,110,337,109,338Z"/><path class="cls-8" d="M127.32,342.85c1.33,3.45.23,6.86-.5,10.15-1.16,5.23-2.83,10.35-4.26,15.52a2.87,2.87,0,0,1-2.46,2.26c1.8-7.24,3.58-14.49,5.4-21.72C126,347,126.71,344.92,127.32,342.85Z"/><path class="cls-8" d="M128,339.57c.44.48.44.88-.19,1.18C127.91,340.36,128,340,128,339.57Z"/><path class="cls-8" d="M264.14,437.9a.69.69,0,0,1-.52.81C263.59,438.31,263.69,438,264.14,437.9Z"/><path class="cls-5" d="M109.78,334.55l.21-.92A.65.65,0,0,1,109.78,334.55Z"/><polygon class="cls-8" points="232.21 21.67 232.02 21.79 231.86 21.63 232.05 21.49 232.21 21.67"/><path class="cls-1" d="M65.29,372.78c-.05,4.83-3.29,8-8.25,7.92a7.58,7.58,0,0,1-7.77-7.81c.11-4.37,3.5-7.47,8.15-7.45C62.56,365.45,65.34,368,65.29,372.78Z"/><path class="cls-1" d="M441.81,365.53c5.11,0,8.45,2.93,8.45,7.42s-3.72,7.67-8.75,7.62a7.46,7.46,0,0,1-7.6-7.9C434,368.4,437.12,365.53,441.81,365.53Z"/><path class="cls-9" d="M329.57,544.36a5.25,5.25,0,0,1-4.19,3.25,1.76,1.76,0,0,1-2.06-1.94c.33-2.52,2.67-2.31,4.46-2.71C328.68,542.76,329.53,542.92,329.57,544.36Z"/><path class="cls-9" d="M130.45,519.51a48.26,48.26,0,0,1-4.18-2.74c-.54-.42.18-.87.66-1.11,1.82-.92,4.81.83,4.85,2.83C131.79,519.12,131.61,519.53,130.45,519.51Z"/><path class="cls-9" d="M156,527.94c0,1-.37,1.5-1.21,1-1.51-.81-4.06-.08-4.43-2.42-.17-1,1.37-1.61,2.49-1.5A3.31,3.31,0,0,1,156,527.94Z"/><path class="cls-9" d="M285.22,543.13c3.39-.31,5.52,1.89,5.75,5.94.2,3.49-1.41,5.17-4.9,5.2-2.58,0-3.11-2-3.69-3.79a4.64,4.64,0,0,1,.15-4.06C284.68,546.35,285.17,544.92,285.22,543.13Z"/><path class="cls-5" d="M285.22,543.13c-.05,1.79-.54,3.22-2.69,3.29C282.77,544.78,283.33,543.42,285.22,543.13Z"/><path class="cls-9" d="M418.93,488.88c-1.11,1.52-2.22,3.19-4,4.09-.91.46-1.32-.57-1.27-1.35.11-2,.44-4,3-4.19C417.66,487.37,418.76,487.41,418.93,488.88Z"/><path class="cls-9" d="M224.11,549.18c0-3.58,1.87-6.09,4.43-6.06s4.42,2.5,4.33,6.1c-.08,3.41-1.83,5.62-4.49,5.67S224.09,552.74,224.11,549.18Z"/><path class="cls-9" d="M373.93,521a4.72,4.72,0,0,1,2.31,3.37,4.77,4.77,0,0,1-3.3,5.89c-2.38.78-4.16-.51-5.54-4C367.55,521.05,368.62,520.19,373.93,521Z"/><path class="cls-5" d="M373.93,521c-5.31-.82-6.38,0-6.53,5.24a4.73,4.73,0,0,1,1.52-6.53C370.86,518.3,372.57,519.34,373.93,521Z"/><path class="cls-8" d="M334.76,145.85c0,5.43,0,10.86,0,16.3-.05,4.6-2,6.11-6.65,5.45-19.52-2.77-39.06-5.44-58.59-8.24-15.23-2.18-30.44-4.49-45.66-6.74-.21,0-.42-.13-.64-.14-9-.56-10.62-1.54-10.47-12.31.13-9,0-18,.06-27.06,0-6.5,1.79-7.74,8.2-6.76,11.46,1.75,23,3.19,34.44,4.85,7.19,1,14.34,2.33,21.53,3.35,14.05,2,28.12,3.83,42.18,5.77,3.22.44,6.45.88,9.63,1.54,4.09.86,5.9,3.17,5.94,7.36.05,5.54,0,11.08,0,16.63ZM242.63,117c-7.32,0-12.13,5-12.13,12.72s7,14.67,14.88,14.73c7.23.06,12.37-5,12.21-12.33S250.32,116.23,242.63,117Z"/><path class="cls-8" d="M331,228.55l-23.34-3.44c-13.4-2-26.79-4-40.22-5.79-14.5-1.91-28.92-4.43-43.39-6.59-9-1.35-18-2.45-27-3.78-10.19-1.52-20.35-3.18-30.53-4.76-4-.61-8-.83-11.92-1.62-4.86-1-5.36-7.06-3.25-10,1.1-1.52,2.74-1.81,4.67-1.51q23.92,3.78,47.88,7.4c16.61,2.49,33.25,4.84,49.86,7.3,18.76,2.77,37.51,5.64,56.27,8.39,7,1,14,1.8,20.94,2.78a6.24,6.24,0,0,1,5,6.95A5.3,5.3,0,0,1,331,228.55Z"/><path class="cls-8" d="M330.17,278.86c-5.78-.84-12.21-1.8-18.65-2.71-10.83-1.53-21.67-3-32.49-4.56-14.9-2.19-29.78-4.51-44.68-6.7-9-1.32-18-2.44-27-3.73-10.72-1.54-21.43-3.16-32.15-4.76l-19.6-2.93c-4.07-.6-5.94-3-5.36-7,.55-3.77,2.5-4.94,6.8-4.29,18.75,2.85,37.5,5.73,56.26,8.46,16.3,2.36,32.65,4.28,48.91,6.85,18,2.84,36,5.21,54,7.79,4.5.65,9,1.24,13.51,1.91a6.58,6.58,0,0,1,5.92,5.27C336.47,276,334.39,278.83,330.17,278.86Z"/><path class="cls-8" d="M154.45,165.92c7,1,13,1.89,19,2.79l37.62,5.69,38.25,5.77c17.26,2.61,34.51,5.25,51.77,7.81,9.65,1.44,19.31,2.75,29,4.12a7,7,0,0,1,6,6.4c.31,2.72-1.29,3.93-3.46,4.81a4.61,4.61,0,0,1-2.55.14C314,201,297.9,198.5,281.82,196.14c-18.88-2.76-37.78-5.31-56.65-8.11-14.57-2.16-29.09-4.66-43.66-6.85-8.68-1.31-17.39-2.37-26.1-3.47-3.4-.43-5.43-2.88-5.22-6.58S152.13,165.81,154.45,165.92Z"/><path class="cls-8" d="M330.46,253.35c-6.85-1-13.83-2-20.8-3-11.16-1.61-22.32-3.2-33.47-4.85-7.62-1.12-15.21-2.37-22.83-3.47-13.19-1.91-26.4-3.71-39.59-5.62-6.87-1-13.7-2.23-20.57-3.22-12.55-1.81-25.13-3.46-37.68-5.29-4.56-.66-6.41-4.21-4.84-8.62a4,4,0,0,1,4.52-2.91c8.27,1.11,16.53,2.34,24.78,3.57,11.8,1.75,23.58,3.57,35.38,5.32q14.46,2.15,29,4.19c13.41,1.92,26.84,3.76,40.24,5.71,10.3,1.51,20.57,3.17,30.87,4.69,4.72.7,9.46,1.24,14.2,1.78,4.18.48,7.24,4.39,6.05,7.94A5,5,0,0,1,330.46,253.35Z"/><path class="cls-7" d="M333.5,352.69c9,2.72,11.28,10.64,4.53,17.07-13.95,13.3-29.56,24.22-47.56,31.42-4.21,1.69-8.56,2.84-12.7-.31a10.55,10.55,0,0,1-4.27-10.61c.74-5,4-8,8.35-9.92,7.35-3.2,15-5.73,21.79-10.13,7.75-3.95,14.62-9.22,21.54-14.4C327.67,354,330.26,352.5,333.5,352.69Z"/><path class="cls-1" d="M335.38,341.87c9,2.71,11.28,10.63,4.53,17.07-14,13.3-29.56,24.22-47.56,31.42-4.21,1.69-8.55,2.83-12.7-.32a10.54,10.54,0,0,1-4.27-10.61c.75-5,4-8,8.35-9.92,7.35-3.2,15-5.72,21.79-10.12,7.75-3.95,14.62-9.22,21.54-14.4C329.55,343.12,332.15,341.68,335.38,341.87Z"/><path class="cls-1" d="M243.05,341.66c-7.49-1.12-16-2.22-24.44-3.72a8.91,8.91,0,0,1-7.11-10.73c.94-4.82,4.72-7.1,10.37-6.28q10.63,1.53,21.28,3a15.51,15.51,0,0,1,5.87,1.77,9.3,9.3,0,0,1,4,10.48C251.9,339.81,248.47,341.92,243.05,341.66Z"/><path class="cls-1" d="M166.91,278.37c2.69-4.55,6.15-8.11,12-7.22,6.12.93,9.23,5.34,10.89,10.83,1.45,4.82,1.41,9.66-1.15,14.22-4.3,7.67-13.23,8.62-19,2-.78-.9-1.49-1.86-2.23-2.79C164.73,289.82,164.92,284.12,166.91,278.37Z"/><path class="cls-1" d="M304.79,307.84c-1.2,3-2.4,6-5.36,7.92a11.27,11.27,0,0,1-14.09-1.1c-6.22-5.75-7-17.29-1.63-23.85s14.54-5.42,19,2.22c2,3.47,2.55,7.33,2.73,11.26A6,6,0,0,0,304.79,307.84Z"/><path class="cls-9" d="M304.79,307.84a6,6,0,0,1,.66-3.55,10.9,10.9,0,0,0,1.21-1.88c1.86-5,5.47-7.45,10.7-7.36s8.56,3.12,11,7.45c3.67,6.63,1.27,13.77-5,17.54-5,3-13.13,0-16-5.75C306.27,312.19,306.71,309.55,304.79,307.84Z"/><path class="cls-9" d="M166.91,278.37c-2,5.75-2.18,11.45.49,17.06-5.1,5-12.49,3.07-16.13-.55a12.66,12.66,0,0,1-.5-17.11C154.42,273.69,162.19,274,166.91,278.37Z"/><path class="cls-4" d="M198.18,45.4c3.71-3.77,7.5-6.37,10.35-9.94.54-.67,1.43-.17,2.17-.06,14.92,2.16,29.83,4.37,44.76,6.44,18.47,2.56,37,5,55.45,7.47l41.25,5.61c7.09,1,14.2,1.83,21.28,2.87a37.54,37.54,0,0,1,5.31,1.5c2.31.69,2.62,2.12,1.19,3.88-2.32,2.86-4.79,5.59-7.11,8.45-.77.94-1.43.73-2.24.24-7.33-4.4-15.71-4.59-23.81-5.92-9.06-1.49-18.21-2.23-27.28-3.65-15.19-2.38-30.48-4.09-45.72-6.16-11.49-1.57-23-3.32-34.45-4.9-9.43-1.29-18.9-2.38-28.33-3.66C207,47,203,46.22,198.18,45.4Z"/><path class="cls-4" d="M167.57,74.84Q162,94.66,156.46,114.45c-1.13,4-1.5,4.15-5.77,3.46-6.52-1-13.07-2-19.61-2.9a4.81,4.81,0,0,1-2.8-1C140.82,100.39,154.75,88.15,167.57,74.84Z"/><path class="cls-4" d="M242.63,117c7.69-.75,14.8,7.81,15,15.12s-5,12.39-12.21,12.33c-7.89-.06-14.88-7-14.88-14.73S235.31,117,242.63,117Z"/></svg>