<?xml version="1.0" encoding="utf-8"?>
<!-- Generator: Adobe Illustrator 25.0.0, SVG Export Plug-In . SVG Version: 6.00 Build 0)  -->
<svg version="1.1" id="圖層_1" xmlns="http://www.w3.org/2000/svg" xmlns:xlink="http://www.w3.org/1999/xlink" x="0px" y="0px"
	 viewBox="0 0 180 80" style="enable-background:new 0 0 180 80;" xml:space="preserve">
<style type="text/css">
	.st0{fill:#4672A9;}
	.st1{fill:#FFFFFF;}
	.st2{fill:#120A0B;}
	.st3{fill:#736566;}
	.st4{fill:#231815;}
</style>
<g>
	<path class="st0" d="M139.6,19.3c-6,0-11,4.4-12,10.2h24C150.6,23.7,145.6,19.3,139.6,19.3z"/>
	<g>
		<path class="st1" d="M35.6,65.5c-1.4-0.2-2.5-0.7-3.4-1.7c-1.9,0.3-3.9,0.3-5.1-0.3c-0.6,0.6-2.1,1.9-2.4,2.5
			c-0.4,0.6-0.4,1.5-0.2,2.2c0.3,0.6,0.9,1,1.7,1.1s1.4,0.1,2.1,0c1-0.2,2.1-0.4,3-0.8l0.3-0.1c0,0.1,0,0.1,0,0.2
			c-0.1,0.5,0,0.9,0.1,1.5c0.2,0.6,0.7,1,1.4,1.2c0.7,0.2,1.6,0.3,2.4,0.1c1.1-0.3,2.3-0.7,3.3-1.2c0.7-0.3,1.4-0.7,1.8-1.5
			c0.4-0.6,0.5-1.5,0.3-2.2c-0.1-0.4-0.3-0.8-0.5-1.2c-0.3,0.1-0.7,0.2-1,0.2C37.9,65.6,36.8,65.6,35.6,65.5"/>
		<path class="st2" d="M26.4,62.7c-0.5,0.5-1,0.9-1.6,1.5c-0.6,0.5-1.1,1.2-1.5,2.1c-0.4,1.1-0.1,2.4,0.8,3.2
			c0.9,0.7,2.2,1.1,3.4,0.9c1.4-0.2,2.6-0.5,3.9-0.9c0.5-0.2,0.8-0.7,0.7-1.2c-0.1-0.5-0.7-0.8-1.2-0.7c-1.1,0.5-2.3,0.8-3.4,0.9
			c-0.3,0-0.6,0-0.9,0c0.1,0-0.2,0-0.2,0s-0.4-0.1-0.2-0.1c-0.1-0.1-0.2-0.1-0.3-0.2c-0.1-0.1-0.1-0.1,0,0L25.8,68
			c-0.1-0.1-0.1-0.1,0,0c0-0.1-0.1-0.1-0.1-0.2c0-0.1-0.1-0.1,0,0c0-0.1,0-0.1-0.1-0.2c0-0.1,0-0.1,0,0c0-0.1,0-0.1,0-0.2s0-0.1,0,0
			c0-0.1,0-0.1,0-0.2c0-0.2,0.1-0.4,0.2-0.5c0-0.1,0.2-0.2,0,0c0,0,0.1-0.1,0.1-0.2c0.1-0.2,0.3-0.3,0.4-0.4
			c0.6-0.6,1.1-1.1,1.8-1.7c0.4-0.4,0.4-1,0-1.5C27.5,62.3,26.9,62.3,26.4,62.7L26.4,62.7z"/>
		<path class="st2" d="M32,65.8c-1.2,0.9-1.8,2.5-1.5,4.1c0.3,1.5,1.8,2.4,3.2,2.5c1.7,0.1,3.3-0.5,4.8-1.1c1.5-0.7,2.9-1.5,3.3-3.2
			c0.4-1.6-0.2-3.6-1.9-4.3c-0.5-0.1-1,0.2-1.2,0.7c-0.1,0.5,0.2,1,0.7,1.2c-0.2-0.1,0,0,0.1,0.1l0.1,0.2c0.1,0.2,0.2,0.4,0.2,0.6
			c0.1,0.5,0,1.1-0.3,1.6c-0.4,0.4-0.9,0.7-1.5,0.9c-0.7,0.3-1.4,0.6-2.1,0.9c-0.6,0.2-1.4,0.3-2,0.3c-0.4,0-0.9-0.2-1.2-0.5
			c-0.1-0.1-0.2-0.3-0.2-0.5c0-0.1,0-0.2,0-0.3c0,0,0-0.4,0-0.3c0.1-0.6,0.5-1.1,0.9-1.5c0.4-0.4,0.4-1,0-1.5
			C32.9,65.5,32.3,65.5,32,65.8L32,65.8z"/>
		<path class="st3" d="M35.2,44.7c-0.2,0-0.4,0-0.5,0c-2.9,0.1-5.8,0-8.8-0.2c0,0.1,0,0.2,0,0.2c0.1,4.6,0.5,14.9,0.7,18.5
			c1.2,0.9,3.5,0.8,5.6,0.5c2.1,2,4.4,1.9,6.9,1.7c0.6-0.1,1.2-0.2,1.8-0.5c0.1-5,0-16.1-0.3-21C38.7,44.4,37,44.6,35.2,44.7"/>
		<path class="st1" d="M27.9,21.8c-2.1,1.2-3.9,2.6-5.2,4.4c-1.4,1.9-2.3,4-2.9,6.2c-0.3,1.2-0.4,2.7,0.1,3.9
			c0.3,0.7,0.8,1.2,1.5,1.8c0.8,0.6,1.9,1.1,2.8,0.5c0.2,2.3,0.1,4,0.2,5.9c3.3,0.3,6.8,0.4,10.2,0.3c1.8-0.1,3.5-0.3,5.3-0.7
			c0.8-0.2,1.5-0.9,1.5-1.8v-6.9c2.4-2.1,3.2-5,2.3-7.6c-0.3-0.8-0.6-1.8-1.1-2.5c-0.4-0.5-0.8-1-1.4-1.5c-1-0.8-2.2-1.5-3.4-1.8
			L27.9,21.8z"/>
		<path class="st1" d="M41.1,15.9c1-3.1-0.1-6.6-2.7-8.5C34.9,4.8,29.9,5.1,27,8.5s-2.8,8.7,0,12c2.9,3.3,7.9,3.6,11.1,0.7
			c0.1-0.1,0.1-0.1,0.2-0.2"/>
		<path class="st1" d="M41.2,11.2c-0.5-1.6-1.5-2.9-2.8-3.9C34.9,4.8,29.9,5.1,27,8.5c-0.9,1.1-1.6,2.4-1.9,3.9
			c2.2,0.2,4.4,0,6.5-0.7c0.1,0,0.2,0,0.3,0c0.2,0.1,0,0.7-0.2,0.9c0.9,0.2,3-0.1,4.1-0.7c0.5,1.4,1,2.1,2.2,2.5l3.3,1.5
			C41.6,14.3,41.6,12.6,41.2,11.2"/>
		<path class="st2" d="M31.7,45.6c0,6.2,0,12.6,0.1,18.8c0,1.2,2.1,1.2,2,0c-0.1-6.2-0.1-12.6-0.1-18.8
			C33.7,44.3,31.7,44.3,31.7,45.6"/>
		<path class="st2" d="M24.8,44.7c0.1,3.2,0.2,6.6,0.3,9.8c0.1,1.8,0.1,3.4,0.2,5.2c0,0.7,0.1,1.5,0.1,2.1s0,1.2,0.2,1.9
			c0.4,0.9,2.1,1.2,3,1.4c1.2,0.1,2.5,0,3.7-0.2c0.5-0.1,0.8-0.7,0.7-1.2c-0.2-0.5-0.7-0.8-1.2-0.7c-1.5,0.2-3.4,0.5-4.8-0.4
			l0.5,0.8c-0.3-6.1-0.6-12.4-0.7-18.5C26.9,43.4,24.8,43.4,24.8,44.7L24.8,44.7z"/>
		<path class="st2" d="M33,65.7c1.1,0.5,2.4,0.8,3.6,0.9c1.1,0.1,2.3,0,3.4-0.3c0.5-0.1,0.9-0.3,1.4-0.5c0.4-0.4,0.4-0.9,0.4-1.5
			c0-0.8,0-1.7,0-2.4c0-4,0-7.9-0.1-11.9c0-1.9-0.1-3.9-0.2-5.7c-0.1-1.2-2.1-1.2-2,0c0.3,5.5,0.3,11.1,0.3,16.7c0,1.4,0,2.7,0,4.1
			l0.5-0.8c-0.8,0.5-1.9,0.5-2.8,0.5c-1.1,0.1-2.4-0.1-3.4-0.6C32.9,63.3,31.9,65.1,33,65.7L33,65.7z"/>
		<path class="st2" d="M37.4,22.9c2.2,0.5,4.1,2.2,5,4.3c1,2.1,0.7,4.6-0.6,6.4c-0.3,0.5-0.1,1.1,0.3,1.4c0.5,0.3,1,0.1,1.4-0.3
			c0.8-1.1,1.4-2.6,1.6-4.1c0.1-1.5-0.2-2.9-0.8-4.2c-1.1-2.6-3.4-4.6-6.2-5.3C36.7,20.6,36.1,22.6,37.4,22.9"/>
		<path class="st2" d="M27.4,20.9c-1.9,1-3.5,2.3-4.9,3.9c-1.4,1.7-2.5,3.6-3.1,5.7c-0.6,2-1.1,4.4-0.2,6.2c0.8,1.8,3.1,3.4,5.1,2.9
			c1.2-0.3,0.7-2.3-0.5-2c-0.7,0.2-1.5-0.3-1.9-0.8c-0.6-0.5-0.9-1.1-1-1.9c-0.2-1.7,0.3-3.5,1-5c0.6-1.6,1.6-3,2.7-4.4
			c1.1-1.1,2.5-2.2,4.1-3C29.5,22,28.5,20.2,27.4,20.9L27.4,20.9z"/>
		<path class="st2" d="M23.3,39.6c0.1,1.7,0,3.2,0.1,4.9c0,0.5,0.4,1,1,1c4.4,0.3,8.7,0.6,13.1,0.1c2-0.3,4.6-0.4,4.8-2.9
			c0.1-0.8,0.1-1.8,0-2.6V37c0-1.2-2-1.2-2,0c0,1.8,0,3.5,0,5.2c0,0.3-0.1,0.6-0.3,0.8c-0.4,0.2-0.7,0.3-1.1,0.3
			c-0.5,0.1-1,0.2-1.6,0.2c-2.2,0.3-4.4,0.4-6.6,0.3c-2.1,0-4.2-0.2-6.2-0.4l1,1c-0.1-1.6,0-3.2-0.1-4.9
			C25.3,38.3,23.3,38.2,23.3,39.6"/>
		<path class="st2" d="M42.2,16.1c1-3.4,0-7.1-2.8-9.4c-2.7-2.1-6.5-2.7-9.7-1.4s-5.5,4.4-5.8,7.9c-0.4,3.5,1,7.2,4,9.3
			c3.4,2.4,8.1,2.1,11.2-0.7c0.9-0.9-0.5-2.3-1.5-1.5c-2.2,1.9-5.2,2.3-7.8,1c-2.6-1.4-4.1-4.2-4-7.1c0-2.7,1.4-5.2,3.7-6.7
			c2.4-1.4,5.3-1.2,7.6,0.1c2.7,1.6,4.1,4.8,3,7.8C39.8,16.8,41.8,17.3,42.2,16.1L42.2,16.1z"/>
		<path class="st2" d="M40.3,17C40.5,17,40.2,16.9,40.3,17c0.1,0,0.2,0,0.2,0.1h0.1h-0.1c0,0,0.1,0.1,0.2,0.1l0.1,0.1v-0.1
			c0.1,0,0.1,0.1,0.2,0.1c0.1,0,0.1,0.1,0.1,0.2c-0.1-0.2,0,0,0,0c0,0.1,0.1,0.1,0.1,0.2c0-0.1-0.1-0.1,0,0v0.1c0,0.1,0,0.1,0,0.2
			c0-0.2,0,0,0,0c0,0.1,0,0.1,0,0.2c0,0.2,0-0.2,0,0c0,0.1,0,0.1-0.1,0.2c0,0-0.1,0.3-0.1,0.2c0.1-0.1-0.1,0.1-0.1,0.1
			c0,0.1-0.1,0.1-0.1,0.2c0,0-0.2,0.2-0.1,0.1c0.1-0.1-0.1,0.1-0.1,0.1c-0.1,0.1-0.1,0.1-0.2,0.2c0,0-0.2,0.2-0.1,0.1
			c0.1-0.1-0.1,0.1-0.1,0.1c-0.1,0-0.1,0.1-0.2,0.1c-0.1,0-0.1,0.1-0.2,0.1c0,0-0.3,0.1-0.2,0.1s-0.1,0-0.2,0.1
			c-0.1,0-0.2,0.1-0.2,0.1c-0.2,0-0.3,0.1-0.5,0.1c-0.1,0-0.1,0,0.1,0h-0.1c-0.1,0-0.2,0-0.3,0c-0.5,0-1,0.4-1,1c0,0.5,0.4,1,1,1
			c2,0,4-1.1,4.7-3.1c0.3-0.9,0.2-2-0.3-2.7c-0.5-0.8-1.5-1.4-2.5-1.5c-0.5,0-1,0.4-1,1C39.4,16.5,39.8,17,40.3,17L40.3,17z"/>
		<path class="st2" d="M30.1,15.7c0,0.4-0.2,0.7-0.5,0.9c-0.2,0.1-0.5,0.2-0.7,0.1c-0.3-0.1-0.6-0.3-0.8-0.6
			c-0.2-0.5-0.1-1.1,0.3-1.5c0.4-0.3,1-0.3,1.4,0.1C30,15,30.1,15.3,30.1,15.7"/>
		<path class="st2" d="M34.9,16.7c0,0.4-0.2,0.7-0.5,0.9c-0.2,0.1-0.5,0.2-0.7,0.1c-0.3-0.1-0.6-0.3-0.8-0.6
			c-0.2-0.5-0.1-1.1,0.3-1.5c0.4-0.3,1-0.3,1.4,0.1C34.9,16.1,35,16.4,34.9,16.7"/>
		<path class="st2" d="M34.7,12.2c0.1,0.4,0.3,0.7,0.5,1.1c0.2,0.3,0.4,0.6,0.6,0.8c0.4,0.4,0.9,0.8,1.5,1.1
			c0.2,0.1,0.5,0.2,0.7,0.1c0.2-0.1,0.5-0.2,0.6-0.4c0.1-0.2,0.2-0.5,0.1-0.7s-0.2-0.5-0.4-0.6c-0.3-0.1-0.5-0.3-0.7-0.4l0.2,0.2
			c-0.2-0.2-0.4-0.4-0.6-0.6l0.2,0.2c-0.3-0.4-0.5-0.8-0.7-1.2l0.1,0.2v-0.1c-0.1-0.2-0.2-0.4-0.4-0.6c-0.2-0.1-0.5-0.2-0.7-0.1
			s-0.5,0.2-0.6,0.4C34.7,11.6,34.7,11.9,34.7,12.2L34.7,12.2z"/>
		<path class="st2" d="M35.2,11c-0.5,0.2-1.1,0.4-1.8,0.5c-0.3,0.1-0.5,0.1-0.8,0.1c-0.2,0-0.4,0-0.6,0l0.6,1.5
			c0.3-0.6,0.7-1.5,0.1-2.1c-0.6-0.7-1.5-0.3-2.3-0.1c-1.6,0.4-3.2,0.6-4.8,0.4c-1.2-0.1-1.2,2,0,2c1.1,0.1,2.2,0,3.3-0.1
			c0.5-0.1,1-0.2,1.6-0.3c0.2-0.1,0.5-0.1,0.7-0.2c0.1,0,0.3-0.1,0.4-0.1c0.1,0,0.1,0,0.2-0.1c0.1,0,0.1,0-0.1,0l-0.4-0.2l0.1,0.1
			l-0.2-0.4c-0.1-0.3,0.1-0.3,0-0.2c-0.1,0.1-0.1,0.2-0.1,0.3c-0.3,0.5-0.1,1.1,0.4,1.4c0.1,0,0.1,0.1,0.2,0.1
			c0.8,0.1,1.7,0.1,2.5,0c0.8-0.1,1.7-0.4,2.4-0.7C37.4,12.1,36.3,10.3,35.2,11L35.2,11z"/>
		<path class="st1" d="M35.9,44.8l12.5-30.1c0.3-0.8-0.2-1.6-0.9-2.2c-1-0.8-2.4-1.4-3.6-1.6c-0.9-0.1-1.9,0-2.2,0.9L21.1,61
			C21,61.2,21,61.6,21,61.8V70c0,0.2,0.2,0.3,0.3,0.3s0.1,0,0.2-0.1c1.9-1.7,4-4,5.7-5.6c0.2-0.2,0.4-0.5,0.6-0.8L35.9,44.8z"/>
		<path class="st0" d="M42.8,11c-0.5,0.1-0.9,0.4-1.1,0.8L21.2,60.7l6.8,2.8l7.9-18.7l12.5-30.1c0.3-0.8-0.2-1.6-0.9-2.2
			c-1-0.8-2.4-1.4-3.6-1.6C43.5,10.9,43.1,10.9,42.8,11"/>
		<path class="st2" d="M21,69.4v-2.9l3.1,1.4c-0.8,0.8-1.8,1.8-2.6,2.5c-0.1,0.1-0.3,0.1-0.5,0c0-0.1-0.1-0.1-0.1-0.2L21,69.4z"/>
		<path class="st2" d="M24.3,66.8l-2.8-1.1c-0.3-0.1-0.5,0-0.7,0.1c-0.5,0.3-0.6,0.9-0.3,1.4l0.2,0.2c0.1,0.1,0.3,0.2,0.4,0.2
			l2.8,1.1c0.3,0.1,0.5,0,0.7-0.1c0.5-0.3,0.6-0.9,0.3-1.4l0,0L24.7,67C24.6,66.9,24.4,66.8,24.3,66.8L24.3,66.8z"/>
		<path class="st2" d="M36.9,45l4-9.6l6.6-15.9l1.8-4.4c1.5-3.4-4-5.8-6.7-5.3c-1.6,0.3-1.9,1.6-2.4,2.8L38.3,17l-6,14.6L25.4,48
			l-4.7,11.2c-0.4,0.7-0.6,1.7-0.7,2.5c-0.1,2.4,0,4.8,0,7.2c0,0.3,0,0.7,0,1c0,0.7,0.6,1.4,1.4,1.4c0.3,0,0.6-0.1,0.9-0.3
			c2-1.7,3.6-3.6,5.5-5.4c1.2-1.2,1.8-3.1,2.5-4.8l6.1-14.7L36.9,45c0.1-0.5-0.2-1-0.7-1.2c-0.5-0.1-1,0.2-1.2,0.7l-3.4,8.2
			l-4.4,10.4c-0.3,0.7-0.7,1-1.4,1.7c-0.8,0.8-1.7,1.7-2.5,2.5c-0.4,0.4-0.7,0.7-1.1,1.1c-0.2,0.2-0.4,0.4-0.6,0.6l-0.2,0.2
			c-0.1,0.1-0.1,0.1-0.2,0.2s-0.1,0.1,0,0h0.5l0,0l0.3,0.3c0.1,0.1,0,0.4,0,0.2c0-0.1,0-0.2,0-0.3v-1.2V65v-2.7c0-0.3,0-0.6,0.1-0.9
			c0.6-1.7,1.4-3.3,2.1-5l4.5-10.7l5.4-13l5-12l3.1-7.5l0.3-0.8c0-0.1,0-0.1,0.1-0.2l0,0c-0.1,0.1,0,0,0.1,0
			c0.6-0.3,1.6-0.1,2.2,0.1c0.7,0.2,1.5,0.5,2,1c0.3,0.3,0.7,0.6,0.5,1.1c0,0.1-0.1,0.1-0.1,0.2c-1.1,2.7-2.2,5.3-3.3,8l-5.3,12.8
			L35,44.1l-0.2,0.4c-0.1,0.5,0.2,1,0.7,1.2C36.2,45.8,36.8,45.5,36.9,45"/>
		<path class="st2" d="M21.6,61.9l6.2,2.6c0.5,0.1,1-0.2,1.2-0.7l0,0c0.1-0.5-0.2-1-0.7-1.2l-6.2-2.6c-0.5-0.1-1,0.2-1.2,0.7l0,0
			C20.7,61.2,21,61.8,21.6,61.9"/>
		<path class="st1" d="M43.2,35.9c1-0.7,1.6-1.9,1.7-3c0.2-1.4,0-3.1-2-3.6c-0.7-0.1-1.5,0-2.1,0.4c-1.4,0.7-2.1,2.3-1.9,3.7
			c0.1,1.6,1.7,3.1,3.2,2.8C42.6,36.3,42.9,36.2,43.2,35.9"/>
		<path class="st2" d="M43.7,36.8c1.6-1,2.2-2.8,2.3-4.6c0-1.6-0.6-3-2.1-3.6c-1.8-0.8-3.6-0.1-4.9,1.4c-1.1,1.5-1.5,3.3-0.6,5
			C39.4,37,41.8,37.9,43.7,36.8c1.1-0.6,0.1-2.4-1-1.8c-0.4,0.3-1,0.3-1.5,0.1c0.2,0.1,0,0-0.1,0C41,35.1,41,35,40.9,35
			c-0.1,0-0.1-0.1-0.2-0.1c0.1,0.1,0,0,0,0c-0.1-0.1-0.2-0.2-0.3-0.3c0,0-0.1-0.1,0,0c-0.1-0.1-0.1-0.2-0.2-0.2
			c-0.1-0.2-0.2-0.4-0.3-0.7c0-0.1,0-0.1,0-0.2c0,0.2,0,0,0-0.1c0-0.2,0-0.4,0-0.5c0-0.1,0-0.1,0-0.2c0,0.2,0,0,0-0.1
			s0.1-0.3,0.1-0.4c0-0.1,0-0.1,0.1-0.2c-0.1,0.2,0,0,0-0.1c0.1-0.1,0.2-0.3,0.2-0.4c0,0,0.1-0.1,0,0l0.1-0.1
			c0.1-0.1,0.2-0.2,0.3-0.3c0.2-0.2,0.4-0.3,0.7-0.5c0.2-0.1-0.2,0,0.1,0c0.1,0,0.1,0,0.2-0.1c0,0,0.3-0.1,0.2,0c-0.1,0,0.2,0,0.2,0
			c0.1,0,0.2,0,0.3,0c-0.2,0-0.1,0,0,0c0.1,0,0.2,0,0.3,0.1c0,0,0.2,0.1,0.1,0c0.1,0,0.1,0,0.2,0.1c0.1,0,0.1,0.1,0.1,0.1
			s0.2,0.2,0.1,0.1c-0.1-0.1,0.1,0.1,0.1,0.1l0.1,0.1c0.1,0.1,0,0,0,0c0,0.1,0.1,0.1,0.1,0.2s0.1,0.1,0.1,0.2c0,0.1,0.1,0.2,0,0
			c0,0.1,0.1,0.2,0.1,0.3s0.1,0.4,0,0.1c0,0.1,0,0.2,0,0.4c0,0.1,0,0.3,0,0.4c0,0.1-0.1,0.5,0,0.2c0,0.3-0.1,0.7-0.2,1
			c-0.2,0.6-0.5,1-1,1.5c-0.4,0.3-0.6,0.9-0.3,1.4C42.6,36.9,43.2,37.1,43.7,36.8"/>
		<path class="st1" d="M29.5,33.3c3.7-1.1,6,3.5,2.7,5.7c-0.9,0.6-2.8,0.7-3.6-0.2"/>
		<path class="st2" d="M29.7,34.3c0.1,0,0.2-0.1,0.3-0.1h0.1h0.1c0.1,0,0.1,0,0,0h-0.1h0.1h0.1c0.1,0,0.2,0,0.3,0c0,0,0.1,0,0.2,0
			c0.1,0-0.3,0-0.1,0c0.1,0,0.2,0,0.3,0.1c0.1,0,0.2,0,0.2,0.1h0.1c-0.2,0-0.1,0,0,0c0.1,0.1,0.3,0.2,0.4,0.3c0.1,0.1-0.2-0.2,0,0
			c0,0,0.1,0,0.1,0.1c0.1,0.1,0.1,0.1,0.2,0.2c0,0,0.1,0.1,0.2,0.2c0-0.1-0.1-0.2-0.1-0.1c0,0,0,0.1,0.1,0.1c0,0.1,0.1,0.1,0.1,0.2
			c0,0,0,0.1,0.1,0.1c0.1,0.2,0-0.1,0,0c0.1,0.2,0.1,0.3,0.1,0.5c0,0,0.1,0.2,0,0.2c0,0,0-0.3,0-0.1c0,0.1,0,0.1,0,0.2s0,0.2,0,0.2
			v0.1c0,0.1,0.1-0.3,0-0.1c0,0.2-0.1,0.4-0.1,0.5c0,0.1-0.1,0.1,0-0.1v0.1c0,0.1-0.1,0.2-0.1,0.3c-0.1,0.1-0.1,0.1-0.2,0.2
			c-0.1,0.1,0.2-0.2,0,0l-0.1,0.1c-0.1,0.1-0.1,0.1-0.2,0.2c0,0-0.3,0.3-0.1,0.1c-0.1,0.1-0.2,0.1-0.3,0.2c0,0-0.1,0-0.1,0.1h-0.1
			c-0.1,0-0.1,0,0,0c0,0.1-0.3,0.1-0.3,0.1c-0.1,0-0.3,0.1-0.4,0.1l0,0c-0.1,0-0.1,0,0,0c-0.1,0-0.1,0-0.2,0c-0.1,0-0.2,0-0.4,0
			c0,0-0.2,0-0.1,0c0.2,0-0.1,0-0.1,0c-0.1,0-0.1,0-0.2,0h-0.1c-0.1,0-0.1,0,0,0c-0.1,0-0.2-0.1-0.3-0.2c-0.2-0.1,0.1,0.1,0,0
			c-0.1-0.1-0.1-0.1-0.2-0.2c-0.4-0.4-1-0.4-1.5,0c-0.4,0.4-0.4,1,0,1.5c0.9,1,2.5,1.1,3.7,0.8c1.1-0.3,2.2-1.1,2.7-2.2
			c1-1.9,0.4-4.3-1.5-5.5c-1.1-0.6-2.4-0.8-3.6-0.4c-0.5,0.1-0.8,0.7-0.7,1.2C28.6,34.1,29.2,34.4,29.7,34.3L29.7,34.3z"/>
	</g>
	<path class="st4" d="M56.2,31.2l5.2,1.3c-1.7,6.2-3.5,12-5.4,17.1l-5.2-2C52.9,42.3,54.7,36.9,56.2,31.2z M65.8,23.6h5.4V50
		c0,2.3-0.4,4-1.1,5.1s-1.6,1.7-2.8,1.9c-1.1,0.2-3.7,0.3-7.7,0.3c-0.3-2-0.8-3.8-1.3-5.5c1.9,0.2,3.5,0.3,4.9,0.3
		c1.7,0,2.5-1,2.5-2.9L65.8,23.6L65.8,23.6z M79.3,31.2c2.2,5.1,4.4,10.5,6.4,16.1l-5.5,2.1c-1.9-6-3.9-11.6-5.8-16.6L79.3,31.2z"/>
	<path class="st4" d="M94.1,50.8l1.1-7.6h4.6v-1.8h-2.7c-0.9,0.4-1.8,0.8-2.8,1.2c-0.4-0.8-0.8-1.6-1.2-2.4c0,8-1.1,13.9-3.3,17.7
		c-1.2-1.2-2.4-2.2-3.5-3.2c1.8-3.4,2.7-8.8,2.6-16.2V25.7h13.7c-0.3-0.7-0.6-1.4-1.1-2.3l5.9-0.4c0.4,1,0.7,1.9,1,2.7h12.5v3.6
		H93.1V39c1.1-0.3,2.2-0.7,3.2-1.2c-0.8-0.6-1.7-1.2-2.4-1.8l2.3-2.1h-1.7v-3.1h11.7v3.6c-1.1,1.5-2.5,2.8-4.2,4.1h1.8V46h-5
		l-0.3,1.9h5.3c0,2.5-0.2,4.9-0.3,7.1c-0.1,1.6-1.4,2.5-3.7,2.7c-0.6,0.1-2.2,0.1-4.7,0.1c-0.2-0.7-0.5-1.8-0.8-3.4
		c1.5,0,2.6,0.1,3.1,0.1c1.2,0,1.8-0.4,2-1.2c0.1-0.7,0.1-1.5,0.2-2.5C99.6,50.8,94.1,50.8,94.1,50.8z M96.4,33.9
		c1.1,0.8,2.1,1.5,3.1,2.2c1-0.7,2-1.4,2.8-2.2H96.4z M117.5,42.9h2c-0.2,0.4-0.4,1.3-0.7,2.5h-3.1c-2,0-3-0.8-3-2.4v-1.6h-3.2
		c0,2-0.7,3.5-2.1,4.6h11v3c-0.9,1.3-1.9,2.5-3.1,3.6c1.5,0.7,3.1,1.5,4.6,2.2l-2.4,3.3c-1.8-1-3.6-2-5.4-3
		c-1.8,1.2-3.8,2.2-6.1,3.1c-0.6-1-1.4-2.1-2.3-3.4c1.8-0.5,3.4-1,4.8-1.7c-1.2-0.6-2.4-1.2-3.6-1.9l1.5-2.1H105V46h2.1
		c-0.9-0.7-1.8-1.5-2.9-2.3c0.7-0.3,1.2-0.9,1.5-1.6c0.1-0.7,0.2-2,0.2-3.8h6.5c-2.7-2-4.9-4.7-6.5-8.2l3.5-0.2
		c0.5,0.8,1,1.5,1.5,2.2c1.5-0.9,3-1.8,4.5-2.8l2.3,2.6c-1.7,1-3.2,1.8-4.6,2.5c0.4,0.3,0.8,0.6,1.2,0.9c1.5-0.8,3-1.7,4.4-2.7
		L121,35c-1.1,0.7-2.3,1.4-3.5,2.1c1.2,0.5,2.5,0.9,3.8,1.2c-0.9,1.3-1.5,2.4-2,3.2c-1.1-0.3-2.2-0.7-3.2-1.2v1.4
		C116.3,42.6,116.7,42.9,117.5,42.9z M113.8,49.2h-5.9c1.3,0.6,2.7,1.2,4,1.9C112.6,50.4,113.3,49.8,113.8,49.2z"/>
	<path class="st4" d="M122.7,28.8h33.8v4.7h-5.2c-1.8,5.3-4.3,9.7-7.6,13.4c3.6,2.5,8,4.4,13.3,5.7c-1.9,2.4-3.2,4.1-3.8,5.1
		c-5.3-1.8-9.8-4.1-13.5-7.1c-3.7,2.8-8.3,5.2-13.8,7.3c-1.3-2-2.4-3.7-3.5-5.1c5.2-1.6,9.6-3.6,13.1-6c-3.4-3.7-5.7-8.2-7.1-13.3
		h-5.6L122.7,28.8L122.7,28.8z M145.3,33.5h-11.6c1.2,3.8,3.1,7.1,5.8,9.9C142.2,40.6,144.1,37.3,145.3,33.5z"/>
	<g>
		<path class="st4" d="M46.9,70.3c24.3,5.7,49.6,6.6,74.3,2.8c18.5-2.9,38.4-8.1,54-18.9c1.4-0.9-1.1-2.4-2.2-1.6
			c-15,10.4-34.1,15.3-51.8,18.2c-24.4,4.1-49.7,3-73.8-2.6C45.6,67.8,45.1,69.9,46.9,70.3L46.9,70.3z"/>
	</g>
	<g>
		<path class="st4" d="M5,52.1c3.9,3,8.1,5.3,12.5,7.4c1.5,0.7,2.9-1.1,1.2-1.9c-4.2-2-8.2-4.2-11.9-7.1C5.6,49.7,3.5,51,5,52.1
			L5,52.1z"/>
	</g>
	<g>
		<g>
			<path class="st4" d="M59.3,11.4c0.6,0.4,1.2,0.7,1.9,0.7c0.4,0,0.7-0.1,1-0.3c0.3-0.1,0.3-0.3,0.3-0.6c0-0.1-0.1-0.4-0.3-0.6
				c-0.1-0.1-0.6-0.4-1.4-0.7c-1.1-0.4-1.7-1.2-1.7-2.1c0-0.7,0.3-1.2,0.8-1.5c0.6-0.4,1.2-0.6,2.1-0.6c0.7,0,1.2,0.1,1.8,0.3v1.5
				c-0.6-0.3-1.1-0.6-1.7-0.6c-0.4,0-0.7,0.1-1,0.3C61,7.5,61,7.6,61,7.9c0,0.1,0.1,0.4,0.3,0.6c0.1,0.1,0.6,0.4,1.1,0.7
				c0.7,0.3,1.2,0.7,1.5,1c0.3,0.3,0.4,0.7,0.4,1.2c0,0.7-0.3,1.2-0.7,1.7c-0.6,0.4-1.2,0.6-2.1,0.6s-1.5-0.1-2.1-0.4v-1.8H59.3z"/>
			<path class="st4" d="M64.9,9.7c0-1.1,0.3-2.1,1-2.8s1.5-1.1,2.6-1.1s1.9,0.3,2.5,1c0.7,0.7,1,1.5,1,2.6c0,1.1-0.3,2.1-1,2.8
				c-0.7,0.7-1.5,1.1-2.6,1.1c-1.1,0-1.9-0.3-2.5-1S64.9,10.8,64.9,9.7z M66.5,9.7c0,0.7,0.1,1.2,0.6,1.8c0.3,0.4,0.8,0.7,1.4,0.7
				s1.1-0.3,1.4-0.7c0.3-0.4,0.6-1,0.6-1.8c0-0.7-0.1-1.4-0.6-1.8c-0.3-0.4-0.8-0.7-1.4-0.7s-1.1,0.3-1.4,0.7
				C66.8,8.3,66.5,8.9,66.5,9.7z"/>
			<path class="st4" d="M72.9,11.4c0.6,0.4,1.2,0.7,1.9,0.7c0.4,0,0.7-0.1,1-0.3c0.3-0.1,0.3-0.3,0.3-0.6c0-0.1-0.1-0.4-0.3-0.6
				c-0.1-0.1-0.6-0.4-1.4-0.7c-1.1-0.4-1.7-1.2-1.7-2.1c0-0.7,0.3-1.2,0.8-1.5c0.6-0.4,1.2-0.6,2.1-0.6c0.7,0,1.2,0.1,1.8,0.3v1.5
				c-0.6-0.3-1.1-0.6-1.7-0.6c-0.4,0-0.7,0.1-1,0.3c-0.3,0.1-0.3,0.3-0.3,0.6c0,0.1,0.1,0.4,0.3,0.6c0.1,0.1,0.6,0.4,1.1,0.7
				c0.7,0.3,1.2,0.7,1.5,1s0.4,0.7,0.4,1.2c0,0.7-0.3,1.2-0.7,1.7c-0.6,0.4-1.2,0.6-2.1,0.6c-0.8,0-1.5-0.1-2.1-0.4v-1.8H72.9z"/>
			<path class="st4" d="M78.5,9.7c0-1.1,0.3-2.1,1-2.8s1.5-1.1,2.6-1.1c1,0,1.9,0.3,2.5,1c0.7,0.7,1,1.5,1,2.6c0,1.1-0.3,2.1-1,2.8
				c-0.7,0.7-1.5,1.1-2.6,1.1c-1.1,0-1.9-0.3-2.5-1C78.8,11.7,78.5,10.8,78.5,9.7z M80.2,9.7c0,0.7,0.1,1.2,0.6,1.8
				c0.3,0.4,0.8,0.7,1.4,0.7s1.1-0.3,1.4-0.7c0.3-0.4,0.6-1,0.6-1.8c0-0.7-0.1-1.4-0.6-1.8c-0.3-0.4-0.8-0.7-1.4-0.7
				S81,7.5,80.8,7.9C80.3,8.3,80.2,8.9,80.2,9.7z"/>
			<path class="st4" d="M93.3,13.3h-1.5l-3-4.7c-0.1-0.3-0.3-0.4-0.4-0.6l0,0c0,0.3,0,0.7,0,1.1v4.1h-1.5V6h1.7l2.9,4.6
				c0.1,0.3,0.3,0.6,0.4,0.6l0,0c0-0.1,0-0.6,0-1V6h1.5V13.3z"/>
			<path class="st4" d="M99.3,13.3H95V6h4.1v1.2h-2.6V9h2.4v1.2h-2.4v1.8h2.8V13.3z"/>
			<path class="st4" d="M110.1,6l-1.9,7.3h-1.7l-1.2-4.7c0-0.3-0.1-0.6-0.1-0.8l0,0c0,0.3-0.1,0.6-0.1,0.8l-1.2,4.7h-1.8L100,6h1.7
				l1.1,5c0,0.3,0.1,0.6,0.1,0.8l0,0c0-0.3,0-0.6,0.1-0.8l1.4-4.8h1.7l1.2,5c0,0.1,0.1,0.4,0.1,0.8l0,0c0-0.3,0-0.6,0.1-0.8l1.1-5
				h1.4V6z"/>
			<path class="st4" d="M110.6,11.4c0.6,0.4,1.2,0.7,1.9,0.7c0.4,0,0.7-0.1,1-0.3c0.3-0.1,0.3-0.3,0.3-0.6c0-0.1-0.1-0.4-0.3-0.6
				c-0.1-0.1-0.6-0.4-1.4-0.7c-1.1-0.4-1.7-1.2-1.7-2.1c0-0.7,0.3-1.2,0.8-1.5c0.6-0.4,1.2-0.6,2.1-0.6c0.7,0,1.2,0.1,1.8,0.3v1.5
				c-0.6-0.3-1.1-0.6-1.7-0.6c-0.4,0-0.7,0.1-1,0.3c-0.3,0.1-0.3,0.3-0.3,0.6c0,0.1,0.1,0.4,0.3,0.6c0.1,0.1,0.6,0.4,1.1,0.7
				c0.7,0.3,1.2,0.7,1.5,1s0.4,0.7,0.4,1.2c0,0.7-0.3,1.2-0.7,1.7c-0.6,0.4-1.2,0.6-2.1,0.6c-0.8,0-1.5-0.1-2.1-0.4v-1.8H110.6z"/>
		</g>
		<g>
			<path class="st4" d="M127.9,7.2h-2.1v5.9h-1.5V7.2h-2.1V6h5.7V7.2z"/>
			<path class="st4" d="M128.3,9.7c0-1.1,0.3-2.1,1-2.8s1.5-1.1,2.6-1.1c1.1,0,1.9,0.3,2.5,1c0.7,0.7,1,1.5,1,2.6
				c0,1.1-0.3,2.1-1,2.8s-1.5,1.1-2.6,1.1c-1.1,0-1.9-0.3-2.5-1C128.7,11.7,128.3,10.8,128.3,9.7z M130,9.7c0,0.7,0.1,1.2,0.6,1.8
				c0.3,0.4,0.8,0.7,1.4,0.7s1.1-0.3,1.4-0.7c0.3-0.4,0.6-1,0.6-1.8c0-0.7-0.1-1.4-0.6-1.8c-0.3-0.4-0.8-0.7-1.4-0.7
				s-1.1,0.3-1.4,0.7C130.1,8.3,130,8.9,130,9.7z"/>
			<path class="st4" d="M136.8,13.3V6h2.5c2.6,0,3.9,1.2,3.9,3.6c0,1.1-0.4,2.1-1.1,2.8c-0.7,0.7-1.7,1-2.8,1
				C139.3,13.3,136.8,13.3,136.8,13.3z M138.3,7.2v4.7h0.8c0.7,0,1.2-0.3,1.8-0.7c0.4-0.4,0.7-1,0.7-1.8c0-0.7-0.3-1.2-0.7-1.7
				c-0.4-0.4-1-0.6-1.7-0.6C139.3,7.2,138.3,7.2,138.3,7.2z"/>
			<path class="st4" d="M150.6,13.3h-1.7l-0.6-1.7h-2.6l-0.6,1.7h-1.7l2.6-7.3h1.8L150.6,13.3z M148,10.4l-0.8-2.5
				c0-0.1-0.1-0.4-0.1-0.7l0,0c0,0.3,0,0.4-0.1,0.6l-0.8,2.5h1.9V10.4z"/>
			<path class="st4" d="M157,6l-2.4,4.7v2.6h-1.5v-2.6L150.7,6h1.8l1.2,2.8c0,0,0.1,0.3,0.1,0.6l0,0c0-0.3,0.1-0.4,0.1-0.6l1.2-2.8
				C155.3,6,157,6,157,6z"/>
		</g>
		<g>
			<path class="st0" d="M117.3,14.8c0.8-0.3,1.4-0.8,1.8-1.5c-0.3-0.1-0.6-0.3-0.8-0.4c-0.3-0.3-0.4-0.7-0.3-1.2
				c0-0.3,0.1-0.4,0.3-0.6c0.4-0.4,1-0.4,1.5-0.3c0.4,0.1,0.7,0.3,0.8,0.7c0.3,0.4,0.3,0.8,0.1,1.2c-0.1,0.6-0.6,1.1-1.2,1.5
				c-0.7,0.6-1.4,0.8-2.2,1.1L117.3,14.8z"/>
		</g>
	</g>
	<path class="st4" d="M139.6,23.7c-3.2,0-5.9,2.3-6.4,5.4H146C145.5,26.1,142.8,23.7,139.6,23.7z"/>
</g>
</svg>
