<svg id="圖層_2" data-name="圖層 2" xmlns="http://www.w3.org/2000/svg" viewBox="0 0 250.23 130"><defs><style>.cls-1{fill:#838080;}.cls-2,.cls-8{fill:#201614;}.cls-3{fill:#3b88c3;}.cls-4{fill:#55acee;}.cls-5{fill:#3f85be;}.cls-6{fill:#fff;}.cls-7{fill:#269;}.cls-8{stroke:#201614;stroke-miterlimit:10;}</style></defs><path class="cls-1" d="M212.64,84.94a6.34,6.34,0,0,1-4.61-3.6,6.41,6.41,0,0,1,2-7.35,6,6,0,0,1,4.63-.89l.14,0a6.5,6.5,0,0,1,4.72,3.46,6.36,6.36,0,0,1-2.66,7.74A6.29,6.29,0,0,1,212.64,84.94Z"/><path class="cls-1" d="M217,65.11a5.92,5.92,0,0,1-3.74-2,5.33,5.33,0,0,1-.94-1.93c-.6-2.45.07-6.37,1.88-11,2.33-6,6.11-8.08,10.48-10.49,1-.56,2.08-1.14,3.14-1.79a8,8,0,0,0,3.94-5.75,7.56,7.56,0,0,0-1.89-6.17,9,9,0,0,0-5.16-3,8.82,8.82,0,0,0-5.85.8,18.71,18.71,0,0,0-6.47,5.8,4.77,4.77,0,0,1-2.78,1.78,6.85,6.85,0,0,1-2.63,0,6.65,6.65,0,0,1-2.63-1.13c-2-1.45-2.55-3.56-1.8-6.43a16.67,16.67,0,0,1,5.13-8.13c4.94-4.34,12.84-6.22,20.13-4.78a21.36,21.36,0,0,1,14,9.21,20.25,20.25,0,0,1,2.77,15.15A17.26,17.26,0,0,1,237,46.29c-2.46,1.54-4.37,2.56-6,3.46-1,.53-1.85,1-2.68,1.48a9.18,9.18,0,0,0-4.14,5.52l-.22.93a38.15,38.15,0,0,1-1.19,4.21,5.83,5.83,0,0,1-2,2.55,4.82,4.82,0,0,1-3.63.68Z"/><path class="cls-1" d="M217.48,63.09a3.68,3.68,0,0,1-3-2,3.23,3.23,0,0,1-.27-1.33,12.34,12.34,0,0,1,0-1.61,24.52,24.52,0,0,1,2.83-9.26A15.57,15.57,0,0,1,223,43c2.82-1.71,6.31-3,8.51-5.51a9.91,9.91,0,0,0,2-9.32,10.81,10.81,0,0,0-6.65-6.76,11.43,11.43,0,0,0-9.6.85A17.64,17.64,0,0,0,213,25.63a30.07,30.07,0,0,1-2.76,3.19c-1.81,1.41-5.23.14-5.79-1.92-.71-2.65,1.28-6,2.9-7.94,3.75-4.51,9.73-6.5,15.46-6.54a20.79,20.79,0,0,1,14.88,5.79,18.14,18.14,0,0,1,4.95,16.2,15.8,15.8,0,0,1-4.5,8.36c-2.17,2.08-5.07,3.47-7.7,4.88-3,1.62-5.89,3.16-7.51,6.34a14.27,14.27,0,0,0-1.08,3.23,14.85,14.85,0,0,1-1.4,4.52,2.82,2.82,0,0,1-3,1.35c-2.61-.43-3.56,3.61-.92,4,4,.66,7.08-1.64,8.33-5.34,1-2.83,1-6,3.42-8.1a22.82,22.82,0,0,1,4.28-2.5c1.43-.77,2.86-1.56,4.25-2.41A20.58,20.58,0,0,0,244.62,41a22.07,22.07,0,0,0,.16-19.93,23.21,23.21,0,0,0-15.39-12,27.38,27.38,0,0,0-19.2,2.34,20.24,20.24,0,0,0-7.63,7.18c-1.71,2.77-3.12,6.65-2,9.89a8.22,8.22,0,0,0,8.31,5,7,7,0,0,0,4.74-2.22c1.18-1.28,2.14-2.7,3.45-3.87,2.47-2.21,5.76-3.39,8.91-1.89a6.06,6.06,0,0,1,3.53,7.16c-1,3.29-4.93,4.6-7.63,6.14a22.13,22.13,0,0,0-7.46,6.43,27.23,27.23,0,0,0-4,10.45c-.58,3.11-.65,6.49,1.54,9a8.26,8.26,0,0,0,4.6,2.42c2.6.57,3.54-3.47.92-4Z"/><path class="cls-1" d="M213.11,82.92l-.6-.15s-.38-.12-.07,0a4.87,4.87,0,0,1-.89-.43l-.34-.2c.38.25-.12-.11-.16-.15a5.54,5.54,0,0,1-.69-.68c.3.36-.08-.14-.11-.18l-.2-.33s-.23-.55-.14-.28-.07-.28-.07-.26l-.09-.34s-.09-.55-.05-.24,0-.24,0-.24a4.1,4.1,0,0,1,0-.49c0-.14,0-.27,0-.41,0-.31-.09.46,0,0a6.6,6.6,0,0,1,.17-.77c0-.1.06-.19.09-.29-.14.46-.06.13,0,0s.23-.5.37-.74.14-.2.2-.31-.34.4,0,0c.15-.18.3-.36.47-.53l.2-.18c.31-.31-.32.15-.07,0a7,7,0,0,0,.77-.48c-.38.21-.07,0,0,0l.41-.13.34-.08c-.45.11.11,0,.18,0a7.85,7.85,0,0,1,.84,0c.09,0,.5,0,.15,0l.47.08a7.43,7.43,0,0,1,.9.23c.16,0,.4,0,0,0a1.69,1.69,0,0,1,.28.12,7.62,7.62,0,0,1,.9.46l.31.2c-.4-.28.09.1.14.14l.28.27c.44.4-.08-.18.11.11a6.91,6.91,0,0,1,.5.82c-.17-.36,0,.12.05.17s.08.31.13.46c.1.35,0,0,0,0,0,.15,0,.31,0,.47s0,.49,0,.73.08-.47,0,0c0,.11,0,.22,0,.32a4.21,4.21,0,0,1-.12.48c0,.11-.2.57,0,.11a7.49,7.49,0,0,1-.38.81l-.21.35c-.26.46.28-.32,0,.08a6.27,6.27,0,0,1-.6.66c-.1.09-.39.31,0,0l-.4.28a3.24,3.24,0,0,1-.35.21l-.24.13c.23-.1.23-.1,0,0s-.56.18-.86.25c.44-.1-.13,0-.19,0l-.56,0h-.37c.41,0-.34-.06-.42-.07a2.07,2.07,0,0,0-.92,4,8.14,8.14,0,0,0,8.87-4.1,8,8,0,0,0-1.27-9.48,9.37,9.37,0,0,0-8.63-2.17,8.22,8.22,0,0,0-4.33,12.22A8.75,8.75,0,0,0,212.18,87a2.07,2.07,0,1,0,.92-4Z"/><path class="cls-2" d="M210.09,60.05a3.69,3.69,0,0,1-3-2,3.17,3.17,0,0,1-.27-1.33,12.37,12.37,0,0,1,0-1.61,24.72,24.72,0,0,1,2.84-9.25,15.5,15.5,0,0,1,5.9-5.88c2.82-1.72,6.3-3,8.51-5.51a9.91,9.91,0,0,0,2-9.32,10.79,10.79,0,0,0-6.65-6.76,11.39,11.39,0,0,0-9.6.85,17.84,17.84,0,0,0-4.27,3.37,28.13,28.13,0,0,1-2.75,3.19c-1.81,1.42-5.24.15-5.79-1.92-.71-2.64,1.28-6,2.9-7.94,3.75-4.5,9.73-6.5,15.46-6.53a20.71,20.71,0,0,1,14.88,5.79,18.14,18.14,0,0,1,5,16.2,15.84,15.84,0,0,1-4.5,8.36c-2.17,2.08-5.07,3.47-7.7,4.88-3,1.62-5.89,3.16-7.51,6.34a14.19,14.19,0,0,0-1.08,3.22,14.68,14.68,0,0,1-1.4,4.52,2.83,2.83,0,0,1-3,1.36c-2.62-.43-3.56,3.61-.92,4,4,.66,7.07-1.64,8.32-5.34,1-2.84,1-6,3.43-8.1a22.86,22.86,0,0,1,4.28-2.51c1.43-.77,2.86-1.56,4.25-2.4A20.58,20.58,0,0,0,237.23,38,22.07,22.07,0,0,0,237.39,18,23.19,23.19,0,0,0,222,6a27.33,27.33,0,0,0-19.2,2.34,20,20,0,0,0-7.63,7.18c-1.71,2.77-3.12,6.65-2,9.88s4.85,5.28,8.31,5a7,7,0,0,0,4.74-2.21,50.83,50.83,0,0,1,3.45-3.88c2.47-2.21,5.76-3.38,8.91-1.88a6.06,6.06,0,0,1,3.53,7.15c-1,3.29-4.93,4.61-7.64,6.15a22,22,0,0,0-7.45,6.43,27.18,27.18,0,0,0-4,10.44c-.58,3.12-.65,6.49,1.54,9a8.21,8.21,0,0,0,4.6,2.43c2.6.57,3.53-3.47.92-4Z"/><path class="cls-2" d="M205.71,79.87l-.59-.14c-.05,0-.38-.13-.07,0a5.62,5.62,0,0,1-.89-.43,3.87,3.87,0,0,1-.34-.21c.38.25-.12-.11-.17-.14a7.27,7.27,0,0,1-.68-.68c.3.36-.08-.15-.11-.19l-.2-.33s-.23-.54-.14-.27-.07-.28-.07-.27l-.09-.33s-.09-.55-.05-.25,0-.23,0-.24,0-.32,0-.49,0-.27,0-.4c0-.31-.09.46,0,0,.05-.25.09-.51.16-.76s.07-.2.1-.3c-.14.46-.06.13,0,0s.23-.49.37-.73.14-.2.2-.31c.13-.27-.34.4,0,0,.15-.18.3-.36.46-.53l.21-.19c.31-.31-.32.16-.07.06s.52-.34.77-.48c-.38.21-.07,0,.05,0l.41-.13.34-.08c-.45.1.11,0,.18,0a5.89,5.89,0,0,1,.84,0c.09,0,.5,0,.15,0l.47.07c.3.06.6.15.9.23s.4,0,0,0a1.13,1.13,0,0,1,.28.12,7.62,7.62,0,0,1,.9.46,3.28,3.28,0,0,1,.31.2c-.41-.29.09.1.14.14l.28.27c.44.4-.09-.18.11.11a6.19,6.19,0,0,1,.5.82c-.17-.37,0,.11,0,.17s.08.3.13.46c.1.35,0,0,0,0,0,.16,0,.32.05.48s0,.48,0,.72.08-.46,0,0c0,.11,0,.21-.05.32s-.07.32-.12.47-.2.58,0,.12c-.12.28-.24.55-.38.81l-.21.35c-.26.46.28-.33-.05.08a7.45,7.45,0,0,1-.6.66c-.1.09-.39.3,0,0l-.4.28-.35.21-.24.12c.22-.09.22-.1,0,0a7.76,7.76,0,0,1-.86.24c.44-.1-.13,0-.19,0a5.25,5.25,0,0,1-.56,0h-.37c.41,0-.34-.06-.42-.08a2.07,2.07,0,0,0-.92,4,8.14,8.14,0,0,0,8.87-4.09,8,8,0,0,0-1.27-9.49,9.39,9.39,0,0,0-8.63-2.16,8.22,8.22,0,0,0-4.33,12.22,8.74,8.74,0,0,0,5.36,3.52,2.09,2.09,0,0,0,2.48-1.56,2.11,2.11,0,0,0-1.56-2.48Z"/><path class="cls-3" d="M178.49,117.89c-6.62,0-15.33-4.89-22.72-12.77-8-8.49-12.53-18.38-12.53-27.16,0-16,21.74-41.67,35.25-41.67a10.16,10.16,0,0,1,9.2,5.81c1.25,3,.42,6.3-2.29,9-5.06,5-10.55,23.5-10.55,26.85,0,6.6,5.22,20.65,10.55,26,3.62,3.62,3,6.88,2.36,8.51C186.43,115.65,182.62,117.89,178.49,117.89Z"/><path class="cls-2" d="M178.49,38.21c5.55,0,11.1,6,5.55,11.54S172.93,74.31,172.93,78c0,7.29,5.56,21.79,11.11,27.34S184,116,178.49,116c-12.42,0-33.33-19.78-33.33-38,0-14.59,20.91-39.75,33.33-39.75m0-3.84c-6.94,0-16,5.9-24.27,15.78-8.07,9.67-12.9,20.07-12.9,27.81,0,19.81,22.16,41.85,37.17,41.85,4.89,0,9.43-2.73,11-6.63,1.46-3.51.45-7.37-2.77-10.6-5-5-10-18.5-10-24.62,0-3.13,5.38-20.89,10-25.49,3.28-3.29,4.27-7.34,2.71-11.1a12,12,0,0,0-11-7Z"/><path class="cls-3" d="M134.05,122.58c-12,0-23.51-6-29.13-11.68l-1.64-1.63,1.91-1.31C111.33,103.77,126,94,129.4,94a2.29,2.29,0,0,1,2.14,1.28c.69,1.48-.39,3-1.57,4.38-1.91,2.3,2,7.5,4.81,11.29,3,4.07,5.23,7,4,9.53C137.71,122.58,135,122.58,134.05,122.58Zm14.19-46.34c-16.45,0-59-30.49-60.79-31.79l-.79-.58v-1c0-11.39,5.53-24.14,12.93-24.14,9.17,0,21.87,5,32.36,12.64,12.69,9.28,21.09,21.45,23.66,34.27.71,3.57.31,6.3-1.19,8.14C153.09,75.42,151,76.24,148.24,76.24Z"/><path class="cls-2" d="M99.59,20.67c16.66,0,48.58,17.59,54.13,45.36,1.2,6-1.12,8.29-5.48,8.29-16,0-59.67-31.43-59.67-31.43,0-11.11,5.46-22.22,11-22.22M129.4,95.92c.74,0,.59.73-.9,2.52-5.79,6.94,16.66,22.22,5.55,22.22s-22.22-5.56-27.77-11.11c0,0,19.91-13.63,23.12-13.63M99.59,16.83c-8.75,0-14.85,13.74-14.85,26.06v2L86.33,46c4.57,3.29,45.14,32.15,61.91,32.15,4.2,0,6.48-1.71,7.66-3.15,1.88-2.3,2.42-5.57,1.59-9.73-2.66-13.29-11.33-25.87-24.4-35.44-11-8-23.81-13-33.5-13ZM129.4,92.09c-1.09,0-4.4,0-25.29,14.29L100.29,109l3.27,3.27c5.9,5.89,18,12.24,30.49,12.24,3.21,0,5.37-1.06,6.42-3.16,1.79-3.56-1-7.25-4.16-11.52a42.53,42.53,0,0,1-4.35-6.61c-.6-1.29-.69-2.1-.51-2.31,1.08-1.3,3.1-3.72,1.83-6.42a4.2,4.2,0,0,0-3.88-2.39Z"/><path class="cls-4" d="M106.11,117c-17.24,0-39.84-7.21-46-18-.59-1-2-3.56-1.13-6a4.73,4.73,0,0,1,3-3l.17-.07.18,0a5,5,0,0,1,.86-.07,12.93,12.93,0,0,1,3.5.72c1.14.34,2.7.79,4.86,1.29.71.16,1.61.44,2.65.76a36.55,36.55,0,0,0,5.44,1.39c-2.78-2.51-10.54-7.37-15-10.18A96,96,0,0,1,55,77.51l-.63-.57v-.85c0-16.4,15.41-40.67,48.25-40.67,31.81,0,66.68,28.64,66.68,40.8,0,6.41-8,16.52-19.92,25.16C135.68,111.32,119.91,117,106.11,117Z"/><path class="cls-2" d="M102.62,37.34h0c30.67,0,64.75,27.78,64.75,38.88s-30.59,38.89-61.27,38.89c-17.78,0-38.88-7.49-44.35-17-1.13-1.83-2.18-5,.89-6.21a3,3,0,0,1,.52,0c1.38,0,3.13.85,7.93,2,2.1.48,6.68,2.26,9.33,2.26,1.14,0,1.92-.33,2-1.24.21-3-22.63-15.55-26.13-18.74,0-16.65,15.73-38.75,46.33-38.75m0-3.84h0c-18.85,0-30.7,7.74-37.31,14.23-8,7.88-12.83,18.47-12.86,28.35v1.7l1.25,1.15c1.45,1.31,4.54,3.27,9.88,6.61,1.76,1.1,4.07,2.55,6.37,4-1.1-.29-2-.55-2.74-.77a14.39,14.39,0,0,0-4-.8,6.56,6.56,0,0,0-1.18.1l-.37.06-.34.14a6.74,6.74,0,0,0-4.13,4.13c-1.07,3.17.53,6.35,1.32,7.63,6.75,11.66,30,18.87,47.64,18.87,19.43,0,36.15-10,44.39-16,9.56-6.94,20.72-18.09,20.72-26.72s-12.16-19.77-22.57-26.79c-15-10.12-31.79-15.93-46-15.93Z"/><path class="cls-5" d="M172.93,78c0-3.65,5.56-22.65,11.11-28.21s0-11.54-5.55-11.54c-12.42,0-33.33,25.16-33.33,39.75,0,18.23,20.91,38,33.33,38,5.55,0,11.11-5.12,5.55-10.67S172.93,85.25,172.93,78Z"/><path class="cls-5" d="M88.57,42.89c0-11.11,5.46-22.22,11-22.22,16.66,0,48.58,17.59,54.13,45.36S88.57,42.89,88.57,42.89Zm17.71,66.66c5.55,5.55,16.66,11.11,27.77,11.11s-11.34-15.28-5.55-22.22c7.95-9.54-22.22,11.11-22.22,11.11Z"/><path class="cls-2" d="M63.23,95.2c2.77-8.34.69-14.35-4.17-20.37s14.12-6.94,20.37,1.39,20.83,22.91,7.87,22.69A96.45,96.45,0,0,1,63.23,95.2Z"/><path class="cls-6" d="M56.29,76.09c3.5,3.19,26.34,15.72,26.13,18.74s-8.31-.33-11.32-1c-5.42-1.25-6.95-2.18-8.45-1.92-3.07,1.17-2,4.38-.89,6.21,5.47,9.52,26.57,17,44.35,17,30.68,0,61.27-27.77,61.27-38.89S133.3,37.34,102.63,37.34,56.33,59.44,56.29,76.09Z"/><path class="cls-2" d="M81.2,52.43A7.3,7.3,0,1,1,81.53,67h-.32a7.3,7.3,0,0,1,0-14.59Z"/><path class="cls-7" d="M110.67,99.77a3.64,3.64,0,0,1-3.23-5.34c5.78-11.06,8.09-21,.56-33.71A3.65,3.65,0,1,1,114.28,57h0c9.82,16.54,5.32,29.91-.37,40.81a3.67,3.67,0,0,1-3.24,2Z"/><path class="cls-7" d="M132.34,96.07a3.24,3.24,0,0,1-3.42-3,2.8,2.8,0,0,1,.39-1.43c5.43-9.23,7.6-17.54.53-28.11a2.85,2.85,0,0,1,1.2-4.17,3.66,3.66,0,0,1,4.69,1.06h0c9.22,13.79,5,24.95-.35,34a3.51,3.51,0,0,1-3,1.63Z"/><circle class="cls-5" cx="23.57" cy="55.93" r="15.53"/><path class="cls-8" d="M17.93,33.7A14.87,14.87,0,1,0,32.79,48.57,14.89,14.89,0,0,0,17.93,33.7Zm0,27.74A12.87,12.87,0,1,1,30.8,48.57,12.89,12.89,0,0,1,17.93,61.44Z"/><path class="cls-8" d="M17.93,39.25a1,1,0,1,0,0,2,7.34,7.34,0,0,1,7.32,7.33,1,1,0,0,0,2,0,9.33,9.33,0,0,0-9.32-9.32Z"/><path class="cls-8" d="M42.78,25.38A8.64,8.64,0,1,0,51.41,34,8.66,8.66,0,0,0,42.78,25.38Zm0,15.27A6.64,6.64,0,1,1,49.42,34,6.64,6.64,0,0,1,42.78,40.65Z"/><path class="cls-2" d="M43.27,37.11a3.58,3.58,0,0,1-3.58-3.58,1,1,0,0,0-2,0,5.59,5.59,0,0,0,5.58,5.58,1,1,0,0,0,0-2Z"/><path class="cls-8" d="M19.48,28.94A5.93,5.93,0,1,0,13.56,23a5.93,5.93,0,0,0,5.92,5.92Zm0-9.85A3.93,3.93,0,1,1,15.55,23a3.93,3.93,0,0,1,3.93-3.93Z"/></svg>