<svg id="圖層_2" data-name="圖層 2" xmlns="http://www.w3.org/2000/svg" viewBox="0 0 400 450"><defs><style>.cls-1{fill:#838080;}.cls-2{fill:#211715;}.cls-3{fill:#f8b8b4;}.cls-4{fill:#fff;}.cls-5{fill:#645d5c;}.cls-6{fill:#3f85be;}.cls-7{fill:#231815;}.cls-10,.cls-8,.cls-9{fill:none;stroke-linecap:round;stroke-miterlimit:10;}.cls-8,.cls-9{stroke:#3f85be;stroke-width:4px;}.cls-9{stroke-dasharray:9.97 9.97;}.cls-10{stroke:#211715;stroke-width:5px;}.cls-11{fill:#febe69;}.cls-12{fill:#cfcfcf;}</style></defs><rect class="cls-1" x="26.53" y="175.48" width="361.12" height="260.5" rx="5.67"/><path class="cls-2" d="M290,128.85c-1.13.35-3.72.13-3.94-2,0-2.81,3.16-3,4.63-2C291.89,125.59,292.38,127.87,290,128.85Z"/><path class="cls-2" d="M274.45,117.65c-.46,1.48-.17,4.9,2.63,5.18,3.7,0,3.91-4.16,2.67-6.1C278.73,115.15,275.73,114.49,274.45,117.65Z"/><path class="cls-2" d="M302.39,117.65c.45,1.48.17,4.9-2.64,5.18-3.7,0-3.91-4.16-2.67-6.1C298.1,115.15,301.1,114.49,302.39,117.65Z"/><path class="cls-2" d="M282.44,132.36a5.37,5.37,0,0,0,4,2.11,4.08,4.08,0,0,0,4-2.19h-2.91a4.05,4.05,0,0,0,3.9,2.19,5.31,5.31,0,0,0,3.93-2.15,1.68,1.68,0,0,0-.6-2.3,1.74,1.74,0,0,0-2.31.6c.21-.27-.11.08-.2.16.17-.15.09-.07-.05,0a1.88,1.88,0,0,0-.24.14c-.19.12.23-.07,0,0l-.27.08-.26.07c-.13,0-.36,0,0,0-.11,0-.44.08-.53,0s.32.08.08,0l-.25-.07c.15.06.13.05,0,0,.27.16,0,0-.07-.07s.07.15,0,0-.13-.22-.19-.33a1.69,1.69,0,0,0-2.32-.59,1.85,1.85,0,0,0-.59.59c0,.09-.09.18-.14.27-.18.29.07,0-.07.07s-.27.2-.12.11-.24.09.05,0l-.25.07c-.28.1.23,0,0,0a5.42,5.42,0,0,0-.57,0c-.21,0-.06,0,.06,0l-.26,0-.32-.1c-.05,0-.3-.14-.11,0l-.16-.09-.22-.14c.18.11.13.09,0,0s-.26-.3,0,0a1.73,1.73,0,0,0-2.3-.6,1.7,1.7,0,0,0-.61,2.3Z"/><path class="cls-2" d="M287.24,129.26v1.61a1.73,1.73,0,0,0,1.69,1.68l.45-.06a1.78,1.78,0,0,0,.74-.43l.26-.34a1.69,1.69,0,0,0,.23-.85v-1.61a1.72,1.72,0,0,0-1.68-1.68l-.45.06a1.54,1.54,0,0,0-.74.43l-.27.34A1.69,1.69,0,0,0,287.24,129.26Z"/><path class="cls-2" d="M249.23,131.09c2.66-.47,5.33-1,8-1.17,2.37-.19,4.77-.22,7.15-.21a1.68,1.68,0,0,0,0-3.36c-2.43,0-4.87,0-7.29.21-3,.25-5.88.76-8.8,1.29a1.7,1.7,0,0,0-1.18,2.07A1.73,1.73,0,0,0,249.23,131.09Z"/><path class="cls-2" d="M256.09,140.73c.43-.38.86-.75,1.31-1.11l.53-.44s.35-.27.23-.17l.15-.12c.79-.59,1.62-1.14,2.46-1.65s1.66-1,2.51-1.44c.41-.22.83-.43,1.25-.62l.4-.18s.25-.1.09,0l.88-.34a1.68,1.68,0,1,0-.89-3.25h0a37,37,0,0,0-11.3,7,1.68,1.68,0,0,0,0,2.38A1.72,1.72,0,0,0,256.09,140.73Z"/><path class="cls-2" d="M328.5,127.85c-2.92-.53-5.84-1-8.8-1.29-2.42-.2-4.86-.23-7.29-.21a1.68,1.68,0,0,0,0,3.36c2.38,0,4.78,0,7.15.21,2.71.22,5.37.7,8,1.17a1.72,1.72,0,0,0,2.07-1.17,1.69,1.69,0,0,0-1.17-2.07Z"/><path class="cls-2" d="M323.13,138.35a35.56,35.56,0,0,0-11.31-7,1.69,1.69,0,0,0-2.07,1.18,1.74,1.74,0,0,0,1.18,2.07,20,20,0,0,1,2.56,1.12c.88.46,1.72,1,2.57,1.5s1.62,1,2.4,1.6l.26.2s.35.27.23.17l.16.13.27.21c.47.38.92.78,1.36,1.18a1.69,1.69,0,0,0,2.39-2.38Z"/><path class="cls-2" d="M319,108.09c.74-5.33,1.53-12.28-2.93-16.33a11.16,11.16,0,0,0-8.54-2.58c-3.24.37-6,2-8.79,3.65a1.68,1.68,0,0,0,1.7,2.9c2.25-1.31,4.61-2.89,7.25-3.21a7.85,7.85,0,0,1,6.19,1.8c3.24,3.18,2.43,8.85,1.88,12.87a1.74,1.74,0,0,0,1.17,2.07,1.69,1.69,0,0,0,2.07-1.17Z"/><path class="cls-2" d="M315.78,109.11a27.75,27.75,0,0,1,2.9,14.77,22.86,22.86,0,0,1-3.48,9.59c-1.12,1.86,1.79,3.55,2.91,1.7a40.86,40.86,0,0,0,2.71-5.76,19,19,0,0,0,1.23-5.53,31,31,0,0,0-3.37-16.47,1.68,1.68,0,1,0-2.9,1.7Z"/><path class="cls-2" d="M258.15,107.41a31.19,31.19,0,0,0-3.37,16.47,19.43,19.43,0,0,0,1.22,5.53,41.4,41.4,0,0,0,2.72,5.75c1.12,1.86,4,.16,2.91-1.7a22.77,22.77,0,0,1-3.48-9.58,27.75,27.75,0,0,1,2.9-14.77,1.73,1.73,0,0,0-.6-2.31,1.71,1.71,0,0,0-2.31.61Z"/><path class="cls-3" d="M307.27,100.78c-.48-.5-.82-.83-1.27-1.34a1.43,1.43,0,0,1,.27-2,1.35,1.35,0,0,1,.48-.24,12,12,0,0,1,3.67-.6c1.95.22,2.51,2.14,2.67,2.79a7.59,7.59,0,0,1-.28,4.47,1.23,1.23,0,0,1-1.22.73,1.52,1.52,0,0,1-.69-.48,40.69,40.69,0,0,1-3.63-3.32"/><path class="cls-3" d="M269.56,100.78c.48-.5.82-.83,1.27-1.34a1.43,1.43,0,0,0-.27-2,1.35,1.35,0,0,0-.48-.24,12,12,0,0,0-3.66-.6c-2,.22-2.52,2.14-2.67,2.79a7.43,7.43,0,0,0,.28,4.47,1.22,1.22,0,0,0,1.22.73,1.54,1.54,0,0,0,.68-.48,42.24,42.24,0,0,0,3.64-3.32"/><path class="cls-2" d="M266.45,98.27a8.48,8.48,0,0,1,1.33.08l-.45-.06c.43.06.87.14,1.29.24a7,7,0,0,1,1.21.35l-.4-.17a1.22,1.22,0,0,1,.29.17l-.34-.27a2.23,2.23,0,0,1,.26.27l-.26-.34a2,2,0,0,1,.19.31l-.17-.4a1.91,1.91,0,0,1,.11.41l-.06-.45a2.29,2.29,0,0,1,0,.37l.06-.45a1.56,1.56,0,0,1-.1.37l.17-.4a6.07,6.07,0,0,1-.59.9c-.2.3-.39.59-.56.9a1.69,1.69,0,1,0,2.91,1.7,8.65,8.65,0,0,1,.47-.76c.19-.29.41-.56.59-.87a3.1,3.1,0,0,0,.29-2.49,3.29,3.29,0,0,0-.72-1.24,3.11,3.11,0,0,0-1.24-.81,10,10,0,0,0-1.84-.48,11.16,11.16,0,0,0-2.44-.24,1.75,1.75,0,0,0-1.2.49,1.68,1.68,0,0,0,1.2,2.87Z"/><path class="cls-2" d="M310.42,94.9a11.42,11.42,0,0,0-2.18.21,13.94,13.94,0,0,0-1.91.45,3.16,3.16,0,0,0-1.94,1.6,3.3,3.3,0,0,0-.35,1.41,3.2,3.2,0,0,0,.34,1.43,6.74,6.74,0,0,0,.59.91,10.4,10.4,0,0,1,.56.9,1.68,1.68,0,0,0,2.9-1.7c-.17-.31-.36-.61-.55-.9a6.74,6.74,0,0,1-.59-.91l.17.4a1.48,1.48,0,0,1-.1-.36l.06.44a1.15,1.15,0,0,1,0-.37l-.06.45a1.4,1.4,0,0,1,.11-.4l-.17.4a1.5,1.5,0,0,1,.19-.32l-.27.34a1.66,1.66,0,0,1,.27-.26l-.34.26a1.38,1.38,0,0,1,.29-.17l-.41.17a7.53,7.53,0,0,1,1.21-.34c.43-.1.86-.18,1.3-.25l-.45.06a8.41,8.41,0,0,1,1.33-.07,1.69,1.69,0,0,0,0-3.37Z"/><path class="cls-2" d="M277.67,96a42.87,42.87,0,0,1,11-1.09,44.07,44.07,0,0,1,10.54,1.28c2.1.53,3-2.72.89-3.25a47.87,47.87,0,0,0-11.43-1.39,45.88,45.88,0,0,0-11.86,1.21A1.68,1.68,0,0,0,277.67,96Z"/><path class="cls-2" d="M261.06,107.19c-.58-4.18-1.36-9.6,2.1-12.8a7.53,7.53,0,0,1,6.24-1.82c2.55.42,4.78,1.89,7,3.16a1.68,1.68,0,0,0,1.7-2.9c-2.62-1.53-5.29-3.16-8.34-3.59A11,11,0,0,0,261,91.82c-4.67,4.06-3.93,10.79-3.17,16.27a1.69,1.69,0,0,0,2.07,1.17A1.73,1.73,0,0,0,261.06,107.19Z"/><path class="cls-2" d="M258.18,281.94a5.67,5.67,0,0,0-3.65,6.77,5.37,5.37,0,0,0,2.69,3.3,10.21,10.21,0,0,0,4.71.82c3.47.14,7,.17,10.44.06,1.73-.05,3.47-.14,5.21-.26a9.93,9.93,0,0,0,4.67-1.3,5.47,5.47,0,0,0,2.44-4.11,5,5,0,0,0-2.43-4.36c-1.89-1.23-3.64,1.79-1.76,3a1.38,1.38,0,0,1,.48,1.9,1.71,1.71,0,0,1-.21.26c-.65.82-2,1-3,1.1-3.17.23-6.35.33-9.53.34-1.62,0-3.24,0-4.86-.08l-2.17-.07a5.92,5.92,0,0,1-2-.22,2,2,0,0,1-.08-3.79,1.79,1.79,0,0,0,1.22-2.14,1.76,1.76,0,0,0-2.15-1.22Z"/><path class="cls-2" d="M317.52,285.31a2,2,0,0,1,1.12,2.64,2.07,2.07,0,0,1-1.19,1.15,6,6,0,0,1-1.84.2l-2.35.09c-1.62.05-3.24.07-4.86.07-3.18,0-6.36-.11-9.52-.34a4.37,4.37,0,0,1-3-1.09,1.39,1.39,0,0,1,.27-2.17c1.88-1.21.13-4.24-1.76-3a4.94,4.94,0,0,0-1.63,6.8,4.72,4.72,0,0,0,.7.9c2.26,2.42,6.37,2.16,9.39,2.29,3.47.14,6.95.14,10.43,0,3.06-.1,6.69.08,8.4-3a5.64,5.64,0,0,0-3.21-7.9,1.76,1.76,0,0,0-2.15,1.22,1.79,1.79,0,0,0,1.22,2.14Z"/><path class="cls-2" d="M315.62,280.8a12.18,12.18,0,0,0,6.8-4.17,16.87,16.87,0,0,0,3.09-8.66c.93-7.57-.75-15.27-1.48-22.8-1.1-11.22-1.52-22.48-2.09-33.74q-.69-13.6-1.5-27.2c-.54-9.08-1.1-18.15-1.85-27.21-.24-3-.5-6-.88-9-.08-.6-.16-1.21-.25-1.81,0-.1,0-.19,0-.29,0,.16,0,.39,0,0s-.05-.75-.07-1.12a34.14,34.14,0,0,1,.44-7.21,16.53,16.53,0,0,1,1-3.66,1.73,1.73,0,0,0-.6-2.3,1.69,1.69,0,0,0-2.31.6,25.16,25.16,0,0,0-1.81,8.3,29.28,29.28,0,0,0,.05,5.92c.07.49.14,1,.22,1.48-.09-.62,0,.23.05.4s.07.63.11.94c.16,1.43.3,2.86.43,4.29.78,8.52,1.31,17,1.84,25.59q.87,14,1.59,28.07c.51,9.78.87,19.57,1.58,29.34.28,3.83.6,7.66,1,11.48s1,7.47,1.26,11.23a36.22,36.22,0,0,1-.52,11.09,9.29,9.29,0,0,1-3.62,5.73,10,10,0,0,1-3.35,1.41c-2.1.51-1.21,3.76.9,3.25Z"/><path class="cls-2" d="M262.1,277.55a8.76,8.76,0,0,1-5.66-3.87c-1.59-2.6-1.9-5.88-2-8.86a74.35,74.35,0,0,1,.76-11.15c.47-3.79.9-7.6,1.23-11.41.94-10.67,1.33-21.39,1.88-32.09q.71-13.68,1.52-27.37c.54-8.89,1.09-17.79,1.84-26.67.14-1.61.28-3.23.44-4.84.07-.68.14-1.35.22-2,0-.28.06-.56.1-.85,0-.13,0-.26.05-.39s.06-.44,0-.05a34.43,34.43,0,0,0-.32-11.85,18.85,18.85,0,0,0-1.23-3.86,1.7,1.7,0,0,0-2.3-.6,1.72,1.72,0,0,0-.6,2.3,21.91,21.91,0,0,1,1.41,7.53c.05,1.11.07,2.23,0,3.34,0,.36,0,.71-.06,1.07s-.05.34,0,0c0,.12,0,.24-.05.36-.42,2.71-.67,5.44-.91,8.16-.77,8.72-1.32,17.46-1.85,26.19q-.85,14-1.57,28c-.54,10.3-.91,20.62-1.74,30.91-.31,3.89-.68,7.77-1.14,11.65s-1,7.52-1.08,11.32c-.14,6,.63,13.24,6.25,16.74a13.52,13.52,0,0,0,3.88,1.57c2.1.51,3-2.74.89-3.25Z"/><path class="cls-2" d="M280.86,285.28a35.8,35.8,0,0,0,4.19-1,12.64,12.64,0,0,1,3.37-.94,12.57,12.57,0,0,1,3.36.94,35.8,35.8,0,0,0,4.19,1,1.81,1.81,0,0,0,2.15-1.22,1.76,1.76,0,0,0-1.22-2.15,34.42,34.42,0,0,1-4.49-1.05,8.65,8.65,0,0,0-8,0,34.42,34.42,0,0,1-4.49,1.05,1.77,1.77,0,0,0-1.22,2.15,1.8,1.8,0,0,0,2.15,1.22Z"/><path class="cls-4" d="M143.93,164.5c3.19-8,4.26-11.3,7-19.87A440.61,440.61,0,0,0,163,99.7a28.12,28.12,0,0,1-13.58,8.11,29.58,29.58,0,0,1-7.32.89,46.53,46.53,0,0,1-6.75-.88,24.82,24.82,0,0,1-13.18-7.06A443.38,443.38,0,0,0,134,144.63c2.79,8.57,3.85,11.91,7,19.87Z"/><path class="cls-5" d="M159.37,24.07l-.9-.51a43.79,43.79,0,0,0-17.54-3.36c-12.08,0-22.07,5.53-26.84,10.1-5.35,5.68-7.54,11.36-10,22.06-1.63,7-3.25,15.52-4.54,22.59-1.1,6.09-1.22,12.21,1.82,17.6,3.47,6.17,10,9.13,19.76,10.22l42,.53c9.27.4,16-3.27,19.8-9.62a20.49,20.49,0,0,0,2.69-14.12c-1.17-6.44-2.88-11.67-4.52-19.32C179.72,53.8,179,45.55,176.3,40c-1.83-3.72-5.4-9.24-10.77-12.49Z"/><path class="cls-4" d="M132.92,107.27a26.41,26.41,0,0,1-12.33-8.16,34.82,34.82,0,0,1-6.7-11.26,4.85,4.85,0,0,1-4.51-1,14,14,0,0,1-4.06-6.59c-.87-2.57-.92-6.72.37-9a4.28,4.28,0,0,1,3.82-2.12,4.69,4.69,0,0,1,3,.92l1.48-.45,3.69-1.12a127.82,127.82,0,0,0,16.88-6.22c9.78-4.39,14.12-7.71,20.18-14.11,3,4.45,9.31,12.15,12.25,18.66l1.51,3.4.05.13h2.91a4.6,4.6,0,0,1,3.32-1.21,4.23,4.23,0,0,1,3.81,2.12c1.3,2.25,1.25,6.4.38,9a13.92,13.92,0,0,1-4.07,6.59,4.84,4.84,0,0,1-4.58.94,35.1,35.1,0,0,1-6.7,11.22,28.19,28.19,0,0,1-14.19,8.76,29.58,29.58,0,0,1-7.32.89,46.38,46.38,0,0,1-6.74-.87A22.5,22.5,0,0,1,132.92,107.27Z"/><path class="cls-6" d="M151,144.63c4.07-12.53,7.87-26.31,10.77-39.19.84.54,1.83,1.21,2.88,2,12.6,5.09,24.27,10.65,33.47,17.2s20.82,17.77,22.46,28.27c.78,5,.14,9.62-2.08,13.21h-151c-2.23-3.59-2.86-8.2-2.08-13.21,1.63-10.5,13.36-21.79,22.46-28.27,8.65-6.17,19.5-11.45,31.26-16.3,1.47-1.14,2.91-2.14,4.07-2.88,2.9,12.88,6.69,26.66,10.77,39.19A8.85,8.85,0,0,0,151,144.63Z"/><path class="cls-4" d="M134,144.63c-2.75-8.45-5.37-17.47-7.68-26.4a35.22,35.22,0,0,0,16.19,3.33,35.17,35.17,0,0,0,16.19-3.33c-2.3,8.93-4.92,18-7.67,26.4A8.85,8.85,0,0,1,134,144.63Z"/><path class="cls-2" d="M184.74,161.31q.39-9.41.53-18.82c0-2.46-3.78-2.46-3.82,0q-.15,9.42-.54,18.82C180.81,163.78,184.63,163.77,184.74,161.31Z"/><path class="cls-2" d="M100.07,142.49q.15,9.42.53,18.82c.11,2.46,3.93,2.47,3.83,0q-.41-9.41-.54-18.82C103.85,140,100,140,100.07,142.49Z"/><path class="cls-2" d="M125.64,120a42.92,42.92,0,0,0,33.65,0,1.94,1.94,0,0,0,.69-2.62,2,2,0,0,0-2.62-.69,35,35,0,0,1-14.9,2.92,35.18,35.18,0,0,1-14.9-2.92,2,2,0,0,0-2.61.69,1.93,1.93,0,0,0,.68,2.62Z"/><path class="cls-2" d="M162.57,108.35c11.73,4.69,23.45,10,33.69,17.24a84.79,84.79,0,0,1,12.6,10.91c3.52,3.75,6.86,8,8.56,12.84,1.93,5.46,1.7,12-2,16.74a2,2,0,0,0,.76,2.73,2.22,2.22,0,0,0,2.88-.71c3.81-4.86,4.38-11.34,3.2-17.13-1.09-5.35-4.32-10.15-7.82-14.37-7.59-9.15-17.71-16.31-28.35-22a215.71,215.71,0,0,0-21.38-9.73,2.25,2.25,0,0,0-2.88.71,2,2,0,0,0,.76,2.73Z"/><path class="cls-2" d="M120.64,105.43c-12.17,4.88-24.26,10.41-34.76,18.13a83.57,83.57,0,0,0-13,11.66c-3.72,4.17-7.11,8.87-8.72,14.17-1.85,6.11-1.35,13.5,2.73,18.72a2.22,2.22,0,0,0,2.85.71,1.94,1.94,0,0,0,.75-2.71c-3.3-4.21-3.82-9.87-2.53-14.87,1.23-4.79,4.25-9.1,7.53-12.84,7.41-8.46,16.85-15,27-20.34a217.35,217.35,0,0,1,20.32-9.21,1.94,1.94,0,0,0,.74-2.71,2.2,2.2,0,0,0-2.85-.71Z"/><path class="cls-4" d="M14.64,421.89V165.12A2,2,0,0,1,16.4,163H372.88a2,2,0,0,1,1.76,2.15V421.89a2,2,0,0,1-1.76,2.15H16.4A2,2,0,0,1,14.64,421.89Z"/><path class="cls-2" d="M17,421.89V166.22c0-.13.1-1,0-1.05s-.91,0-.45.2a8.13,8.13,0,0,0,2.51,0H371.53a4.61,4.61,0,0,0,1.05,0c.8-.18-.71,0-.34-.24-.26.19,0,2.53,0,2.83v253c0,.11-.09.89,0,.95-.3-.23,1,0,.41-.22a10.36,10.36,0,0,0-2.61,0H17.77a6,6,0,0,0-1,0c-.73.15.26-.33.31.25-.29-3.05-5.09-3.08-4.8,0,.5,5.32,5.09,4.55,8.87,4.55H365.35c2.46,0,5,.14,7.43,0,5.33-.3,4.26-7,4.26-10.68V167.64a17.14,17.14,0,0,0-.13-3.65c-.59-2.57-2.75-3.42-5-3.42H18.66c-.72,0-1.46,0-2.19,0-3,.17-4.23,2.73-4.23,5.4V421.89C12.24,425,17,425,17,421.89Z"/><path class="cls-4" d="M71.66,167.56c-1.6-4.76-2.42-12.64,4.39-16.88,3.4-2.12,10.25-3.28,15.6-2.34s9.65,4.44,10.62,9.85a58.48,58.48,0,0,1,1,10.57c0,2.35-1.44,4.17-2.86,4.48a3.42,3.42,0,0,1-4.34-2.6,4.57,4.57,0,0,1-3.51,4.25,3.72,3.72,0,0,1-4.29-3.22l-.32-1.59-.14,1.09a3.66,3.66,0,0,1-3.33,3.31c-2.15.06-3.55-1.2-4-3.37l-.36-1.56-.16.91c-.37,2-1.23,2.95-2.62,3.36a3.32,3.32,0,0,1-3.53-1.48,29,29,0,0,1-2.09-4.78"/><path class="cls-2" d="M92.37,161.66c.6,3,1.15,6,1.75,9a5.4,5.4,0,0,0,10.12,1.72,10.23,10.23,0,0,0,.89-5.65,57.22,57.22,0,0,0-1.07-9.32c-1.32-6.47-7-10.32-13.3-11.11a28.87,28.87,0,0,0-10.23.63,16.38,16.38,0,0,0-8.07,4.17c-4.42,4.48-4.52,11.31-2.64,17,.77,2.33,4.46,1.33,3.69-1-1.23-3.71-1.74-8,.31-11.49,2.55-4.37,8.24-5.48,12.91-5.63,4.83-.15,10.16,1.08,12.65,5.65A17.71,17.71,0,0,1,101,162c.17,1.45.29,2.9.35,4.36s.32,3-.43,4.19a2.73,2.73,0,0,1-.77.78,1.93,1.93,0,0,1-1.09,0,1.1,1.1,0,0,1-.83-.5,4.14,4.14,0,0,1-.41-1.46c-.58-2.92-1.12-5.86-1.71-8.78a1.91,1.91,0,0,0-2.35-1.34,1.94,1.94,0,0,0-1.34,2.35Z"/><path class="cls-2" d="M94.22,170.13a9,9,0,0,1-.29,1.27c-.08.21-.08.22,0,0l-.15.3c-.07.14-.16.27-.24.41s-.12.17,0,0l-.2.22a3.26,3.26,0,0,1-.33.31c.34-.31-.05,0-.15.08s-.58.28-.13.1c-.14.06-.29.1-.43.15s-.72.08-.27.07h-.48c.48,0-.14-.06-.26-.1-.35-.09.21.17-.11-.06a2.61,2.61,0,0,1-.28-.17l.07.06c-.14-.13-.28-.27-.41-.41.26.29-.09-.15-.14-.23s-.28-.6-.15-.26a5.34,5.34,0,0,1-.16-.53c-.09-.39-.16-.78-.24-1.16-.16-.81-.33-1.61-.49-2.42-.4-2-.8-3.91-1.18-5.87a1.93,1.93,0,0,0-2.35-1.34,2,2,0,0,0-1.33,2.36c.34,1.8.7,3.61,1.07,5.41a41.28,41.28,0,0,0,.93,4.39,6,6,0,0,0,3.68,3.9,5.62,5.62,0,0,0,4.78-.7,6.83,6.83,0,0,0,2.89-4.77,2,2,0,0,0-1.33-2.35,1.92,1.92,0,0,0-2.35,1.33Z"/><path class="cls-2" d="M86,170.66a6,6,0,0,1-.12.61c0,.09-.06.19-.1.28.1-.22.11-.24,0-.05s-.14.26-.22.38-.1.16,0,0a2,2,0,0,1-.19.22l-.2.19q-.24.21.06,0c-.05.09-.26.17-.34.22l-.25.12c.25-.11.28-.12.08-.05,0,0-.33.13-.39.09.29,0,.33,0,.11,0h-.28l-.27,0c-.22,0-.18,0,.11,0l-.37-.08-.24-.08c-.19-.07-.15,0,.12.05l-.41-.23c-.31-.17.28.28,0,0l-.34-.34c-.25-.25.19.35,0-.06-.07-.13-.15-.25-.22-.39l-.12-.24c.11.25.12.28,0,.08a9,9,0,0,1-.25-.89c-.15-.64-.28-1.28-.42-1.92-.35-1.6-.68-3.2-1-4.79a1.93,1.93,0,0,0-2.35-1.33,2,2,0,0,0-1.34,2.35c.33,1.43.64,2.88,1,4.32a21.16,21.16,0,0,0,1,3.76,5.67,5.67,0,0,0,2.75,3,5.76,5.76,0,0,0,4.82.07,5.67,5.67,0,0,0,3.11-4.21,2,2,0,0,0-1.34-2.35A1.93,1.93,0,0,0,86,170.67Z"/><path class="cls-2" d="M78.06,170q-.09.44-.21.87c0,.07,0,.14-.08.22s0,.14.07-.15c-.06.09-.09.2-.14.29a2.2,2.2,0,0,1-.15.26c-.26.42.23-.23,0,0l-.19.2c-.16.16-.44.24,0,0-.17.09-.35.21-.51.31l.24-.1-.18.07-.28.08c-.49.12.35,0,0,0h-.31c-.35,0,.48.13,0,0l-.36-.1-.2-.07.25.1c-.05-.08-.3-.16-.39-.21l-.14-.1.17.13c0-.08-.22-.2-.29-.27-.31-.33.16.31,0,0l-.22-.36c-.17-.29-.33-.59-.48-.89s-.15-.32-.22-.49l-.06-.12c-.08-.19-.07-.16,0,.1a4.31,4.31,0,0,1-.33-.84c-.22-.61-.45-1.22-.69-1.82a2.12,2.12,0,0,0-.88-1.14,2,2,0,0,0-1.47-.19,1.93,1.93,0,0,0-1.33,2.35c.47,1.17.88,2.37,1.39,3.53a7.48,7.48,0,0,0,2.13,3.07,5.15,5.15,0,0,0,3.46,1.15,5.28,5.28,0,0,0,3.21-1.4A6.25,6.25,0,0,0,81.74,171a1.91,1.91,0,0,0-3.68-1Z"/><path class="cls-4" d="M214.28,167.56c1.61-4.76,2.43-12.64-4.38-16.88-3.4-2.12-10.25-3.28-15.6-2.34s-9.66,4.44-10.62,9.85a57.59,57.59,0,0,0-1,10.57c0,2.35,1.44,4.17,2.86,4.48a3.42,3.42,0,0,0,4.34-2.6,4.57,4.57,0,0,0,3.51,4.25,3.72,3.72,0,0,0,4.29-3.22l.32-1.59.14,1.09a3.66,3.66,0,0,0,3.33,3.31c2.15.06,3.55-1.2,4.05-3.37l.36-1.56.16.91c.37,2,1.23,2.95,2.62,3.36a3.34,3.34,0,0,0,3.53-1.48,29,29,0,0,0,2.09-4.78"/><path class="cls-2" d="M189.89,160.64c-.53,2.65-1,5.31-1.55,8-.17.86-.19,2.05-.89,2.6a2.14,2.14,0,0,1-1.57.16,2.94,2.94,0,0,1-1.28-2.44,35.71,35.71,0,0,1,.2-4.85,31.28,31.28,0,0,1,1.13-7c1.54-4.77,6.43-6.89,11.09-7.13,4.81-.24,10.85.5,14.22,4.34,3.08,3.53,2.56,8.68,1.2,12.76-.77,2.34,2.92,3.34,3.69,1,1.62-4.86,1.89-10.79-1.17-15.17-3.8-5.43-11.05-6.95-17.31-6.78s-12.65,2.94-15.14,9.19a31.36,31.36,0,0,0-1.54,8.77c-.28,3.43-.79,7.63,2.23,10.06a5.42,5.42,0,0,0,7.59-1,5.32,5.32,0,0,0,.79-1.44,35.92,35.92,0,0,0,1-4.7c.34-1.78.68-3.55,1-5.32a2,2,0,0,0-1.34-2.35,1.92,1.92,0,0,0-2.35,1.33Z"/><path class="cls-2" d="M188,171.15c.49,3.44,3.53,6.31,7.14,5.61A5.6,5.6,0,0,0,199,173.6a22.41,22.41,0,0,0,1.15-4.63c.41-2,.82-4,1.2-6.06a1.91,1.91,0,1,0-3.68-1c-.38,2-.77,3.91-1.17,5.87-.17.8-.33,1.61-.5,2.42-.07.35-.13.71-.21,1.06a6.32,6.32,0,0,1-.18.62c.12-.34-.11.19-.15.26s-.41.52-.15.24c-.11.12-.23.24-.35.35s-.16.14,0,0l-.27.17c-.33.24.27,0-.12.06-.12,0-.74.12-.26.09h-.48c.44,0-.07,0-.2-.06a4.66,4.66,0,0,1-.49-.16c.43.17,0,0-.08-.06s-.56-.44-.21-.13l-.33-.3-.2-.23c.14.19.15.19,0,0l-.25-.41c-.05-.1-.1-.2-.14-.3.08.2.08.19,0,0a11.07,11.07,0,0,1-.28-1.27,1.94,1.94,0,0,0-2.36-1.34,2,2,0,0,0-1.33,2.36Z"/><path class="cls-2" d="M196.3,171.68a5.55,5.55,0,0,0,10.41,1.7,15.15,15.15,0,0,0,1.09-3.74c.35-1.64.7-3.29,1.08-4.94a1.91,1.91,0,0,0-3.69-1c-.36,1.56-.69,3.14-1,4.71-.15.66-.29,1.33-.44,2-.07.3-.16.6-.25.89s-.06.18,0-.07l-.11.23c-.07.14-.15.26-.22.39-.23.41.21-.19,0,.06s-.22.23-.34.34c-.27.28.35-.2,0,0a3.38,3.38,0,0,0-.41.24q.4-.17.12-.06l-.24.08-.38.08c.3,0,.34,0,.12,0l-.27,0h-.28c-.18,0-.18,0,0,0s.16,0,0,0l-.25-.06c-.2-.07-.18-.06.08.05l-.24-.12c-.08,0-.3-.13-.35-.22q.3.24.06,0l-.2-.19-.19-.21c.16.19.17.21.05,0l-.22-.37c-.09-.2-.08-.18,0,0a1.52,1.52,0,0,1-.09-.28,4.13,4.13,0,0,1-.13-.61,1.91,1.91,0,0,0-2.35-1.33,2,2,0,0,0-1.33,2.35Z"/><path class="cls-2" d="M204.2,171a5.66,5.66,0,0,0,4.19,4.75,5.15,5.15,0,0,0,3.75-.71,6.77,6.77,0,0,0,2.4-3c.61-1.28,1.05-2.64,1.59-4a1.92,1.92,0,0,0-.19-1.48,2,2,0,0,0-1.14-.87,2,2,0,0,0-2.36,1.33c-.24.6-.46,1.21-.69,1.81a3.26,3.26,0,0,1-.33.85c.1-.24.12-.29.07-.16l-.08.18c-.08.16-.15.32-.23.49s-.28.55-.44.82-.17.28-.25.43c-.18.32.27-.27,0,0-.06.05-.31.24-.32.31l.21-.16-.19.12-.33.19c-.14.07-.07,0,.2-.08l-.2.08-.31.09c-.52.12.31,0,0,0h-.3c-.35,0,.48.13.07,0l-.33-.1c-.33-.11,0,0,.1.05a3.39,3.39,0,0,0-.56-.32c.48.24.2.16,0,0a1.8,1.8,0,0,0-.19-.2c-.23-.25.25.41,0,0,0-.11-.12-.2-.17-.31s-.08-.2-.14-.29c.12.29.14.34.07.15s-.05-.15-.08-.22q-.12-.42-.21-.87a1.91,1.91,0,0,0-2.35-1.33A2,2,0,0,0,204.2,171Z"/><path class="cls-2" d="M114.18,69.07A6.91,6.91,0,0,0,106.67,68a6.56,6.56,0,0,0-3.44,4.42,16.63,16.63,0,0,0,2.43,13.17c1.69,2.53,4.37,4.8,7.62,4.39A2,2,0,0,0,115.19,88a1.93,1.93,0,0,0-1.91-1.91c-2.37.31-3.93-1.64-5-3.54a13.52,13.52,0,0,1-1.66-5.18c-.16-1.8-.12-3.92.89-5.42-.29.43.49-.45.29-.29a2.33,2.33,0,0,1,1-.46,2.91,2.91,0,0,1,2.62.56c1.83,1.64,4.54-1.06,2.7-2.7Z"/><path class="cls-2" d="M136.48,96.31a12.47,12.47,0,0,0,6,1.39,9.85,9.85,0,0,0,6.1-1.83,1.91,1.91,0,0,0,0-2.71,2,2,0,0,0-2.7,0c.65-.51-.08,0-.29.14s-.61.21,0,0c-.17,0-.32.12-.49.18a12.91,12.91,0,0,1-1.37.31s.42,0,0,0l-.41,0c-.32,0-.65,0-1,0s-.59,0-.88,0l-.4,0-.23,0,.15,0a3.78,3.78,0,0,1-1.28-.29l-.53-.17c-.45-.16.37.18,0,0-.22-.1-.44-.21-.65-.33a1.92,1.92,0,1,0-1.93,3.31h0Z"/><path class="cls-2" d="M141.28,82.51a28.85,28.85,0,0,1,.64,2.9l-.07-.5a1.7,1.7,0,0,1,0,.39l.07-.5a1.21,1.21,0,0,1-.05.18l.2-.46a.75.75,0,0,1-.07.12l.3-.39-.09.09.38-.3a1.71,1.71,0,0,1-.23.13l.46-.2a1.76,1.76,0,0,1-.39.12L143,84a2.16,2.16,0,0,1-.36,0l.5.07-.41-.08a1.5,1.5,0,0,0-.76,0,1.39,1.39,0,0,0-.71.23,1.91,1.91,0,0,0-.69,2.61h0a1.78,1.78,0,0,0,1.14.88c.35,0,.69.13,1,.15a3.52,3.52,0,0,0,1.6-.38,2.42,2.42,0,0,0,1.29-1.57,3.74,3.74,0,0,0,0-1.63c-.16-.94-.38-1.87-.62-2.78a1.91,1.91,0,0,0-2.35-1.34h0a1.94,1.94,0,0,0-1.14.88,2,2,0,0,0-.2,1.47Z"/><path class="cls-2" d="M126.26,74.17c-.49,1.57-.17,5.2,2.82,5.51,3.95,0,4.16-4.41,2.83-6.47C130.82,71.52,127.62,70.82,126.26,74.17Z"/><path class="cls-2" d="M158,74.17c.49,1.58.17,5.2-2.81,5.51-3.95,0-4.16-4.41-2.83-6.47C153.44,71.52,156.64,70.82,158,74.17Z"/><path class="cls-2" d="M172.79,71.78a2.86,2.86,0,0,1,2.48-.6,2.42,2.42,0,0,1,1.15.49c-.21-.16.57.72.29.29,1,1.5,1,3.62.9,5.42a13.54,13.54,0,0,1-1.67,5.18c-1,1.9-2.59,3.85-5,3.54A1.93,1.93,0,0,0,169.07,88,2,2,0,0,0,171,89.93c5.31.68,8.55-5.06,9.88-9.35,1.19-3.82,1.16-9.81-2.59-12.26a6.87,6.87,0,0,0-8.18.75c-1.84,1.65.87,4.34,2.71,2.71Z"/><path class="cls-2" d="M111.17,85.76c3.19,10.29,10.4,20.15,21.13,23.32a41.28,41.28,0,0,0,8.82,1.48,27,27,0,0,0,9.38-1.08,30.92,30.92,0,0,0,13.28-7.84A38.52,38.52,0,0,0,173,85.76c.73-2.36-3-3.37-3.69-1-2.81,9.08-8.93,17.24-18.11,20.49a26.37,26.37,0,0,1-7.7,1.51,34.26,34.26,0,0,1-8.26-.87,23.94,23.94,0,0,1-12.38-7.1,34.79,34.79,0,0,1-8-14c-.72-2.34-4.42-1.34-3.69,1Z"/><path class="cls-2" d="M160.34,22.42a34.53,34.53,0,0,0-12-3.61,47.06,47.06,0,0,0-16.48.46,43.73,43.73,0,0,0-13,5.09A29.73,29.73,0,0,0,110.18,32c-5.43,7.11-7.26,16.31-9.09,24.86-1.16,5.42-2.2,10.86-3.19,16.31s-1.62,10.8,0,16.08a19.44,19.44,0,0,0,8.51,11.16c4.42,2.71,9.64,3.73,14.72,4.31a1.93,1.93,0,0,0,1.91-1.92,2,2,0,0,0-1.91-1.91,32.94,32.94,0,0,1-11.73-3.17,15.63,15.63,0,0,1-7-7.36c-2.08-4.5-1.87-9.74-1-14.52q1.33-7.62,2.91-15.19c1-4.84,2-9.68,3.42-14.42a39.15,39.15,0,0,1,4.29-10.05,24.43,24.43,0,0,1,6.57-7,39.41,39.41,0,0,1,11-5.31,42.15,42.15,0,0,1,16.45-1.52,39.28,39.28,0,0,1,7.29,1.4,25.65,25.65,0,0,1,5.21,2C160.55,26.94,162.48,23.63,160.34,22.42Z"/><path class="cls-2" d="M164.57,29.13A27.92,27.92,0,0,1,175,41.58c2.52,5.71,2.91,12.23,4.12,18.28,1.29,6.42,3.24,12.68,4.5,19.1a19,19,0,0,1-4.29,16.47c-4.15,4.6-10.12,6.19-16.15,6-2.46-.09-2.46,3.74,0,3.83,6.19.24,12.37-1.3,17.13-5.4a22.51,22.51,0,0,0,7.56-17.62,49.43,49.43,0,0,0-1.8-9.77c-.82-3.37-1.72-6.73-2.5-10.11-1.55-6.71-2-13.77-4.31-20.29a31.72,31.72,0,0,0-12.71-16.2c-2.1-1.29-4,2-1.93,3.31Z"/><path class="cls-2" d="M153.37,46.88A55,55,0,0,1,139.68,57.7,114.12,114.12,0,0,1,119.63,66c-2,.64-4.11,1.26-6.17,1.89-2.35.72-1.35,4.41,1,3.69,5.14-1.57,10.3-3.11,15.3-5.11,6.45-2.56,13-5.46,18.53-9.71a67.14,67.14,0,0,0,7.76-7.13c1.7-1.78-1-4.49-2.7-2.7Z"/><path class="cls-2" d="M153.07,49.19c2.86,4.21,6,8.18,8.79,12.47a69.17,69.17,0,0,1,5,9.6,1.91,1.91,0,0,0,3.3-1.93,68.61,68.61,0,0,0-5-9.6c-2.75-4.29-5.93-8.26-8.79-12.47C155,45.24,151.68,47.15,153.07,49.19Z"/><path class="cls-7" d="M65.17,246.15a8.29,8.29,0,0,0,5.45,2,4.62,4.62,0,0,0,2.61-.6,1.81,1.81,0,0,0,.88-1.53,2.2,2.2,0,0,0-.7-1.53,12.9,12.9,0,0,0-3.66-1.95q-4.66-2-4.66-5.76a5,5,0,0,1,2.11-4.31,9.35,9.35,0,0,1,5.6-1.53,13.65,13.65,0,0,1,4.89.76v4A8.14,8.14,0,0,0,73,234.31a4.75,4.75,0,0,0-2.5.57,1.72,1.72,0,0,0-.94,1.53,2,2,0,0,0,.64,1.42,12,12,0,0,0,3.17,1.76,10.31,10.31,0,0,1,4.08,2.68,5.28,5.28,0,0,1,1.11,3.37,5.08,5.08,0,0,1-2,4.36,9.54,9.54,0,0,1-5.76,1.51,12.32,12.32,0,0,1-5.6-1.11Z"/><path class="cls-7" d="M80.66,241.47a10.7,10.7,0,0,1,2.73-7.61,9.38,9.38,0,0,1,7.21-2.93,8.86,8.86,0,0,1,6.86,2.84,10.33,10.33,0,0,1,2.6,7.29,10.63,10.63,0,0,1-2.7,7.55,10,10,0,0,1-14,.09A10.06,10.06,0,0,1,80.66,241.47Zm4.45-.23a7.66,7.66,0,0,0,1.4,4.75,4.57,4.57,0,0,0,3.84,1.84,4.67,4.67,0,0,0,3.88-1.76,7.46,7.46,0,0,0,1.39-4.75,8,8,0,0,0-1.35-4.91,4.46,4.46,0,0,0-3.8-1.81,4.69,4.69,0,0,0-3.92,1.85A7.57,7.57,0,0,0,85.11,241.24Z"/><path class="cls-7" d="M102.52,246.15a8.29,8.29,0,0,0,5.45,2,4.62,4.62,0,0,0,2.61-.6,1.81,1.81,0,0,0,.88-1.53,2.2,2.2,0,0,0-.7-1.53,12.9,12.9,0,0,0-3.66-1.95q-4.66-2-4.66-5.76a5,5,0,0,1,2.11-4.31,9.34,9.34,0,0,1,5.59-1.53,13.67,13.67,0,0,1,4.9.76v4a8.14,8.14,0,0,0-4.69-1.36,4.77,4.77,0,0,0-2.5.57,1.72,1.72,0,0,0-.94,1.53,2,2,0,0,0,.64,1.42,12,12,0,0,0,3.17,1.76,10.31,10.31,0,0,1,4.08,2.68,5.28,5.28,0,0,1,1.11,3.37,5.08,5.08,0,0,1-2,4.36,9.55,9.55,0,0,1-5.77,1.51,12.3,12.3,0,0,1-5.59-1.11Z"/><path class="cls-7" d="M118,241.47a10.74,10.74,0,0,1,2.73-7.61,9.38,9.38,0,0,1,7.21-2.93,8.86,8.86,0,0,1,6.86,2.84,10.33,10.33,0,0,1,2.6,7.29,10.63,10.63,0,0,1-2.7,7.55,10,10,0,0,1-14,.09A10.06,10.06,0,0,1,118,241.47Zm4.45-.23a7.66,7.66,0,0,0,1.4,4.75,4.57,4.57,0,0,0,3.84,1.84,4.68,4.68,0,0,0,3.88-1.76,7.46,7.46,0,0,0,1.39-4.75,8,8,0,0,0-1.35-4.91,4.46,4.46,0,0,0-3.8-1.81,4.69,4.69,0,0,0-3.92,1.85A7.57,7.57,0,0,0,122.46,241.24Z"/><path class="cls-7" d="M158.47,251.16h-4.35l-8.42-12.87a13.72,13.72,0,0,1-.95-1.62h-.07a30.16,30.16,0,0,1,.12,3.17v11.32h-4v-19.9h4.62l8.12,12.51c.54.83.87,1.36,1,1.58h.06a19.64,19.64,0,0,1-.13-2.75V231.26h4Z"/><path class="cls-7" d="M174.87,251.16H163.09v-19.9h11.32v3.47h-7.08v4.69h6.57v3.45h-6.57v4.82h7.54Z"/><path class="cls-7" d="M204.41,231.26l-5.31,19.9h-4.71l-3.39-13a10.61,10.61,0,0,1-.32-2.2h-.05a15,15,0,0,1-.36,2.2l-3.47,13h-4.9l-5.3-19.9h4.65l2.95,13.49a14.29,14.29,0,0,1,.27,2.23h.09a12.41,12.41,0,0,1,.4-2.29l3.7-13.43h4.51l3.37,13.59a14,14,0,0,1,.31,2.11h.07a12.27,12.27,0,0,1,.29-2.19l2.9-13.51Z"/><path class="cls-7" d="M206.05,246.15a8.3,8.3,0,0,0,5.46,2,4.62,4.62,0,0,0,2.61-.6A1.8,1.8,0,0,0,215,246a2.19,2.19,0,0,0-.69-1.53,12.9,12.9,0,0,0-3.66-1.95q-4.66-2-4.67-5.76a5,5,0,0,1,2.12-4.31,9.32,9.32,0,0,1,5.59-1.53,13.65,13.65,0,0,1,4.89.76v4a8.08,8.08,0,0,0-4.68-1.36,4.81,4.81,0,0,0-2.51.57,1.74,1.74,0,0,0-.94,1.53,2,2,0,0,0,.65,1.42,11.61,11.61,0,0,0,3.17,1.76,10.31,10.31,0,0,1,4.08,2.68,5.28,5.28,0,0,1,1.11,3.37,5.1,5.1,0,0,1-2,4.36,9.57,9.57,0,0,1-5.77,1.51,12.35,12.35,0,0,1-5.6-1.11Z"/><path class="cls-7" d="M253.07,234.73h-5.68v16.43h-4.25V234.73h-5.66v-3.47h15.59Z"/><path class="cls-7" d="M254.55,241.47a10.74,10.74,0,0,1,2.73-7.61,9.4,9.4,0,0,1,7.21-2.93,8.9,8.9,0,0,1,6.87,2.84,10.38,10.38,0,0,1,2.6,7.29,10.64,10.64,0,0,1-2.71,7.55,10,10,0,0,1-14,.09A10.06,10.06,0,0,1,254.55,241.47Zm4.45-.23a7.6,7.6,0,0,0,1.41,4.75,4.54,4.54,0,0,0,3.83,1.84,4.65,4.65,0,0,0,3.88-1.76,7.46,7.46,0,0,0,1.39-4.75,8,8,0,0,0-1.35-4.91,4.44,4.44,0,0,0-3.8-1.81,4.69,4.69,0,0,0-3.92,1.85A7.57,7.57,0,0,0,259,241.24Z"/><path class="cls-7" d="M277.32,251.16v-19.9h6.87q10.6,0,10.6,9.7a9.68,9.68,0,0,1-3,7.4,10.69,10.69,0,0,1-7.65,2.8Zm4.24-16.43v13h2.31a6.25,6.25,0,0,0,4.74-1.8,6.74,6.74,0,0,0,1.72-4.87,6,6,0,0,0-1.8-4.63,6.62,6.62,0,0,0-4.67-1.66Z"/><path class="cls-7" d="M315.4,251.16h-4.62l-1.49-4.56h-7.23l-1.47,4.56H296l7.28-19.9h5Zm-7.11-7.84L306,236.43a7.5,7.5,0,0,1-.31-1.74h-.11a7.71,7.71,0,0,1-.35,1.68L303,243.32Z"/><path class="cls-7" d="M332.71,231.26l-6.5,12.8v7.1H322v-7l-6.31-12.87h4.84l3.34,7.61a15.34,15.34,0,0,1,.47,1.56h.05a7.24,7.24,0,0,1,.43-1.53l3.43-7.64Z"/><path class="cls-6" d="M223.9,255.34a10.1,10.1,0,0,0,5.08-4.12,4.21,4.21,0,0,1-2.12-1.31,3.3,3.3,0,0,1-.6-3.23,3.47,3.47,0,0,1,.91-1.47,3.9,3.9,0,0,1,4.06-.84,4,4,0,0,1,2.32,1.76,3.73,3.73,0,0,1,.39,3.3,9.08,9.08,0,0,1-3.35,4.34,15.91,15.91,0,0,1-6,2.86Z"/><line class="cls-8" x1="105.73" y1="281.98" x2="110.73" y2="281.98"/><line class="cls-9" x1="120.7" y1="281.98" x2="275.28" y2="281.98"/><line class="cls-8" x1="280.26" y1="281.98" x2="285.26" y2="281.98"/><path class="cls-4" d="M313.67,159.51s-3.64,12.24-9.29,14.24-11.06.35-11.88-3.53S299.79,151,299.79,151"/><path class="cls-2" d="M296.37,154a26,26,0,0,0-4.43,7.53c-1.15,3.18-1.94,7.27-.33,10.41a9.36,9.36,0,0,0,8.8,4.64,9.83,9.83,0,0,0,5.28-1.81,12.14,12.14,0,0,0,3.18-3.87c1.45-2.52,2.94-5.2,5.13-7.17,1.67-1.52-.8-4-2.48-2.48a27.32,27.32,0,0,0-4.49,5.82c-1.27,2.05-2.16,4.54-4.55,5.52a6.5,6.5,0,0,1-7.15-1.38c-1.85-2.09-1.07-5.44-.32-7.86a21.85,21.85,0,0,1,3.83-6.88,1.8,1.8,0,0,0,0-2.48,1.77,1.77,0,0,0-2.47,0Z"/><path class="cls-2" d="M299.48,169.9a5,5,0,0,0-1.14,2,5.77,5.77,0,0,0-.21,1,5.35,5.35,0,0,0-.07,1.06,1.82,1.82,0,0,0,.51,1.23,1.75,1.75,0,0,0,3-1.23,3.82,3.82,0,0,1,0-.83l-.06.46a4.62,4.62,0,0,1,.29-1.09l-.18.42a3.19,3.19,0,0,1,.41-.72l-.27.35.17-.19a1.87,1.87,0,0,0,.51-1.24,1.78,1.78,0,0,0-.51-1.24,1.76,1.76,0,0,0-1.24-.51,1.8,1.8,0,0,0-1.24.51Z"/><path class="cls-2" d="M295.07,167.94a5.34,5.34,0,0,0-1.13,2.11,7.68,7.68,0,0,0-.19.83,3.89,3.89,0,0,0-.09,1.73,1.75,1.75,0,0,0,2.15,1.22h0a1.76,1.76,0,0,0,1.05-.8,1.81,1.81,0,0,0,.17-1.35v0l.06.46a1.41,1.41,0,0,1,0-.2l-.06.47a7.39,7.39,0,0,1,.47-1.92l-.18.41a3.07,3.07,0,0,1,.39-.68l-.27.36.1-.13a1.78,1.78,0,0,0,.51-1.24,1.75,1.75,0,0,0-3-1.24Z"/><path class="cls-4" d="M263.5,159.75S267.14,172,272.79,174s11.06.35,11.88-3.53-7.29-19.17-7.29-19.17"/><path class="cls-2" d="M278.12,156.86a21.08,21.08,0,0,1,3.32,5.9c.74,2.21,1.59,5.39.47,7.59s-3.76,3.05-6,2.76a5.94,5.94,0,0,1-3.25-1.39,12.37,12.37,0,0,1-2.11-3.06c-1.58-2.8-3.09-5.95-5.73-7.9a1.76,1.76,0,0,0-2.39.62,1.8,1.8,0,0,0,.63,2.4,11.53,11.53,0,0,1,2.6,3.4c.88,1.44,1.65,2.94,2.52,4.38a10.59,10.59,0,0,0,3.1,3.49,10,10,0,0,0,4.78,1.57,9.53,9.53,0,0,0,8.43-3.77c2-2.8,1.54-6.72.69-9.87a23.84,23.84,0,0,0-4.57-8.59,1.75,1.75,0,0,0-2.47,0,1.79,1.79,0,0,0,0,2.47Z"/><path class="cls-2" d="M274.62,172.46l.15.17-.28-.35a2.8,2.8,0,0,1,.39.67l-.18-.42a4.17,4.17,0,0,1,.3,1.1l-.06-.47a4,4,0,0,1,0,.92,1.75,1.75,0,0,0,1.75,1.75,1.7,1.7,0,0,0,1.24-.51l.28-.35a1.85,1.85,0,0,0,.24-.89,4.5,4.5,0,0,0,0-.82,7.56,7.56,0,0,0-.23-1.26,5,5,0,0,0-1.13-2,1.75,1.75,0,0,0-3,1.24A1.87,1.87,0,0,0,274.62,172.46Z"/><path class="cls-2" d="M279.07,170.57a.39.39,0,0,0,.08.1l-.28-.35a2.73,2.73,0,0,1,.37.64l-.17-.41a7,7,0,0,1,.43,1.8l-.06-.47a1.35,1.35,0,0,1,0,.4l.06-.47v.05a1.82,1.82,0,0,0,.18,1.35,1.76,1.76,0,0,0,2.39.63h0a1.83,1.83,0,0,0,.8-1.05,4,4,0,0,0-.06-1.69,8.6,8.6,0,0,0-.19-.88,8,8,0,0,0-.43-1.15,4.65,4.65,0,0,0-.67-1,1.75,1.75,0,0,0-2.48,0,1.72,1.72,0,0,0-.51,1.24l.06.46a1.8,1.8,0,0,0,.45.78Z"/><path class="cls-10" d="M123,106.35s10.12,37.18,11.29,39.77a8.82,8.82,0,0,0,8,5.17c4,0,7.3-1.88,8.47-4.7s11-41.15,11-41.15"/><path class="cls-11" d="M233.54,80.26a.51.51,0,0,1-1,0A16.7,16.7,0,0,0,229.82,74a10.6,10.6,0,0,0-6.06-3.12.51.51,0,0,1,0-1,11.34,11.34,0,0,0,6-2.93c1.48-1.6,2.32-4.82,2.79-7a.51.51,0,0,1,1,0c.52,2.19,1.45,5.42,2.93,7a11.07,11.07,0,0,0,5.84,2.91.51.51,0,0,1,0,1c-2.2.44-4.61,1.2-6.22,3.06-1.31,1.53-2.06,4.14-2.57,6.31Z"/><path class="cls-2" d="M232.24,79.9v-.07l.48-.49a1.1,1.1,0,0,1,.85.11l.34.6c-.47-1.16-.7-2.43-1.18-3.6a12.16,12.16,0,0,0-2-3.46,9.29,9.29,0,0,0-3.12-2.26,15.14,15.14,0,0,0-1.84-.7,15.53,15.53,0,0,1-1.56-.42l.49.48a1.38,1.38,0,0,1,0,.64l-.49.49a12.48,12.48,0,0,1,1.72-.46,15.76,15.76,0,0,0,2-.77,8.87,8.87,0,0,0,3.32-2.59,12.16,12.16,0,0,0,1.74-3.54c.21-.6.39-1.21.55-1.83l.24-1c0-.12.05-.24.08-.36s.14-.38.08-.29l-.49.48a1.06,1.06,0,0,1-.83-.11l-.35-.59c.44,1.14.63,2.4,1,3.56A13.22,13.22,0,0,0,235,67.26a8.85,8.85,0,0,0,3.15,2.61,14.06,14.06,0,0,0,2,.85,12.86,12.86,0,0,1,1.71.49l-.48-.49a1.26,1.26,0,0,1,0-.64l.49-.48c.09-.08-.06,0-.14,0s-.34.08-.51.12l-.81.2a13.89,13.89,0,0,0-1.87.67,9.24,9.24,0,0,0-3.27,2.21c-1.76,1.92-2.49,4.6-3.07,7.07-.4,1.69,2.2,2.41,2.6.72.48-2.05,1-4.49,2.53-6a7.26,7.26,0,0,1,2.68-1.67c.53-.19,1.08-.35,1.63-.49a5.16,5.16,0,0,0,1.59-.49,1.87,1.87,0,0,0-.43-3.28,26.5,26.5,0,0,1-3.23-1.06,6.55,6.55,0,0,1-2.45-1.91,11.52,11.52,0,0,1-1.37-2.85c-.36-1-.59-2.09-.9-3.13a1.88,1.88,0,0,0-3-1c-.83.71-.87,2.15-1.15,3.15a15.52,15.52,0,0,1-1.12,3c-1,2-3,2.92-5.07,3.49a7,7,0,0,0-1.62.46,1.88,1.88,0,0,0-.91,1.68c0,1.55,1.53,1.72,2.7,2.06A9,9,0,0,1,228,74.11a7.82,7.82,0,0,1,2.15,3.07,16.06,16.06,0,0,1,.66,1.84,14.06,14.06,0,0,0,.59,1.91A1.84,1.84,0,0,0,233.12,82a1.91,1.91,0,0,0,1.72-1.37A1.35,1.35,0,0,0,233.9,79a1.37,1.37,0,0,0-1.66.94Z"/><path class="cls-11" d="M253.09,56.11a.37.37,0,0,1-.72,0,12,12,0,0,0-2-4.53,7.76,7.76,0,0,0-4.4-2.27.36.36,0,0,1,0-.71,8.23,8.23,0,0,0,4.37-2.13c1.08-1.16,1.68-3.5,2-5.08a.37.37,0,0,1,.72,0c.38,1.59,1.06,3.93,2.13,5.09a7.92,7.92,0,0,0,4.24,2.11.37.37,0,0,1,0,.72A7.7,7.7,0,0,0,255,51.54a11.28,11.28,0,0,0-1.86,4.57Z"/><path class="cls-2" d="M251.92,55.43l.05,0,.59-.34h.34l.59.35c.15.23.17.22.07,0l-.09-.31c-.07-.25-.15-.5-.23-.75-.16-.47-.34-.93-.53-1.38a8.29,8.29,0,0,0-1.52-2.43,7.23,7.23,0,0,0-2.37-1.65c-.84-.37-1.76-.51-2.6-.85l.59.35.19.29v.71l-.18.29-.6.35c.43-.17.91-.23,1.35-.37a11.93,11.93,0,0,0,1.54-.59,6.69,6.69,0,0,0,2.53-2A8.82,8.82,0,0,0,253,44.36c.31-.88.41-1.87.76-2.73l-.35.6-.29.18h-.72c-.46-.6-.63-.7-.49-.31l.09.37.16.58c.14.47.29.94.47,1.4A9.45,9.45,0,0,0,254,47a6.8,6.8,0,0,0,2.38,1.91,11.52,11.52,0,0,0,1.54.62c.45.15.93.21,1.36.39l-.59-.35-.19-.28V48.6l.18-.29.6-.35c-.87.34-1.8.45-2.67.83a6.86,6.86,0,0,0-2.41,1.63,11.52,11.52,0,0,0-2.37,5.33c-.4,1.69,2.21,2.41,2.61.72s.77-3.54,2.14-4.59A5.8,5.8,0,0,1,258.4,51c.89-.28,2-.28,2.5-1.21a1.75,1.75,0,0,0-1.08-2.47,13.46,13.46,0,0,1-2.32-.78,5.53,5.53,0,0,1-2.57-3.58,11.64,11.64,0,0,0-.72-2.35,1.74,1.74,0,0,0-2.73-.26,5.29,5.29,0,0,0-.76,2.22,10.15,10.15,0,0,1-.9,2.37,5.52,5.52,0,0,1-3.79,2.3c-1,.25-1.89.94-1.63,2.11s1.1,1.25,2,1.49a5.47,5.47,0,0,1,3.88,3.24,13.24,13.24,0,0,1,.48,1.38,6.61,6.61,0,0,0,.5,1.5,1.72,1.72,0,0,0,3-.14,1.4,1.4,0,0,0-.48-1.85,1.36,1.36,0,0,0-1.85.49Z"/><path class="cls-11" d="M66.86,78.07a.45.45,0,0,1-.88,0,15.24,15.24,0,0,0-2.47-5.63A9.65,9.65,0,0,0,58,69.64a.46.46,0,0,1,0-.89,10.28,10.28,0,0,0,5.44-2.64c1.33-1.45,2.09-4.35,2.51-6.32a.46.46,0,0,1,.9,0c.47,2,1.31,4.89,2.65,6.34a9.93,9.93,0,0,0,5.26,2.62.46.46,0,0,1,0,.9,9.63,9.63,0,0,0-5.6,2.76c-1.19,1.38-1.87,3.73-2.33,5.68Z"/><path class="cls-2" d="M65.69,77.75v-.07l.44-.43a.93.93,0,0,1,.76.1l.31.54c-.43-1-.63-2.19-1.07-3.25a10.76,10.76,0,0,0-1.83-3.12,8.4,8.4,0,0,0-2.82-2,16.54,16.54,0,0,0-1.65-.64,12,12,0,0,1-1.41-.37l.44.43a1.14,1.14,0,0,1,0,.58l-.44.44A12.39,12.39,0,0,1,60,69.51a16.84,16.84,0,0,0,1.78-.7,8.12,8.12,0,0,0,3-2.33,11.45,11.45,0,0,0,1.58-3.19c.18-.55.34-1.1.49-1.65l.21-.88c0-.11,0-.22.08-.33s.12-.34.07-.26l-.44.44a1,1,0,0,1-.75-.1L65.66,60c.4,1,.57,2.17,1,3.22a12,12,0,0,0,1.57,3.16A8.12,8.12,0,0,0,71,68.71a13.56,13.56,0,0,0,1.85.76,11.64,11.64,0,0,1,1.54.44L74,69.47a1.26,1.26,0,0,1,0-.58l.44-.43c.09-.07,0,0-.12,0s-.31.07-.46.1l-.74.19a13.63,13.63,0,0,0-1.69.6,8.31,8.31,0,0,0-2.94,2c-1.59,1.73-2.25,4.14-2.77,6.37-.36,1.52,2,2.17,2.35.65.43-1.85.9-4.05,2.28-5.45a6.53,6.53,0,0,1,2.42-1.5c.48-.18,1-.32,1.46-.45a4.46,4.46,0,0,0,1.44-.44,1.68,1.68,0,0,0-.39-3,26.77,26.77,0,0,1-2.91-1,5.86,5.86,0,0,1-2.21-1.73,10.1,10.1,0,0,1-1.24-2.56c-.32-.93-.53-1.89-.81-2.83a1.69,1.69,0,0,0-2.7-.93c-.75.64-.79,1.94-1,2.84a13.19,13.19,0,0,1-1,2.73,6.78,6.78,0,0,1-4.57,3.15,5.9,5.9,0,0,0-1.45.42,1.68,1.68,0,0,0-.83,1.51c0,1.41,1.38,1.56,2.44,1.86a8.27,8.27,0,0,1,2.94,1.42,7,7,0,0,1,1.93,2.76A16.5,16.5,0,0,1,64.39,77a12.36,12.36,0,0,0,.52,1.73,1.69,1.69,0,0,0,1.57,1A1.73,1.73,0,0,0,68,78.4a1.23,1.23,0,0,0-.85-1.5,1.24,1.24,0,0,0-1.5.85Z"/><path class="cls-11" d="M348.39,113.15a.45.45,0,0,1-.87,0,14.76,14.76,0,0,0-2.43-5.54,9.48,9.48,0,0,0-5.38-2.77.45.45,0,0,1,0-.88,9.94,9.94,0,0,0,5.35-2.59c1.31-1.42,2.06-4.28,2.47-6.22a.45.45,0,0,1,.88,0c.46,1.94,1.29,4.81,2.61,6.23a9.72,9.72,0,0,0,5.17,2.58.45.45,0,0,1,0,.88,9.42,9.42,0,0,0-5.52,2.72c-1.16,1.35-1.83,3.67-2.28,5.59Z"/><path class="cls-2" d="M347.11,114.43v-.08l.5-.51a1.16,1.16,0,0,1,.89.12l.36.63c-.5-1.22-.73-2.55-1.24-3.78a12.44,12.44,0,0,0-2.13-3.64,9.93,9.93,0,0,0-3.29-2.37,14.37,14.37,0,0,0-1.92-.74,14.1,14.1,0,0,1-1.64-.44l.51.51a1.27,1.27,0,0,1,0,.67l-.51.51a13.29,13.29,0,0,1,1.8-.48,16.76,16.76,0,0,0,2.07-.81A9.48,9.48,0,0,0,346,101.3a12.77,12.77,0,0,0,1.83-3.72c.22-.63.41-1.27.58-1.92.08-.33.17-.68.25-1,0-.12,0-.25.08-.38s.15-.4.08-.3l-.51.51a1.16,1.16,0,0,1-.87-.12l-.37-.63c.47,1.21.67,2.53,1.11,3.75a14.1,14.1,0,0,0,1.82,3.69,9.55,9.55,0,0,0,3.31,2.74,15.09,15.09,0,0,0,2.16.89,13.68,13.68,0,0,1,1.79.51l-.5-.51a1.42,1.42,0,0,1,0-.68l.51-.5c.1-.08-.06,0-.15,0s-.35.07-.53.11l-.85.22a15.38,15.38,0,0,0-2,.7,9.72,9.72,0,0,0-3.43,2.33c-1.85,2-2.61,4.83-3.22,7.42-.42,1.77,2.31,2.53,2.73.75.5-2.14,1.05-4.71,2.65-6.34a7.65,7.65,0,0,1,2.82-1.75,16.85,16.85,0,0,1,1.71-.52,5.16,5.16,0,0,0,1.67-.52,2,2,0,0,0-.45-3.43,29.39,29.39,0,0,1-3.4-1.12,6.81,6.81,0,0,1-2.56-2,12.16,12.16,0,0,1-1.45-3c-.37-1.08-.61-2.19-.94-3.29a2,2,0,0,0-3.15-1.08c-.87.75-.92,2.25-1.21,3.31a16.43,16.43,0,0,1-1.18,3.18c-1.09,2.07-3.14,3.07-5.33,3.67a6.54,6.54,0,0,0-1.69.48,2,2,0,0,0-1,1.76c.05,1.64,1.61,1.81,2.83,2.17a9.49,9.49,0,0,1,3.43,1.65,8.13,8.13,0,0,1,2.26,3.22c.27.63.49,1.28.7,1.93a13.73,13.73,0,0,0,.61,2,2,2,0,0,0,1.83,1.12,2,2,0,0,0,1.81-1.45,1.42,1.42,0,0,0-2.73-.75Z"/><path class="cls-11" d="M44,128.61a.45.45,0,0,1-.87,0,14.68,14.68,0,0,0-2.43-5.54,9.37,9.37,0,0,0-5.38-2.76.45.45,0,0,1,0-.88,10,10,0,0,0,5.34-2.6c1.32-1.42,2.06-4.28,2.48-6.22a.45.45,0,0,1,.88,0c.46,1.94,1.28,4.81,2.6,6.23a9.75,9.75,0,0,0,5.18,2.58.45.45,0,0,1,0,.88A9.42,9.42,0,0,0,46.29,123c-1.17,1.36-1.84,3.67-2.29,5.59Z"/><path class="cls-2" d="M42.72,129.89v-.08l.51-.51a1.14,1.14,0,0,1,.88.12l.37.63c-.5-1.22-.74-2.55-1.25-3.78a12.44,12.44,0,0,0-2.13-3.64,10,10,0,0,0-3.28-2.37,15,15,0,0,0-1.93-.74,14.1,14.1,0,0,1-1.64-.44l.51.51a1.27,1.27,0,0,1,0,.67l-.5.51a12.71,12.71,0,0,1,1.79-.48,17.55,17.55,0,0,0,2.08-.81,9.26,9.26,0,0,0,3.48-2.72,13.13,13.13,0,0,0,1.84-3.71c.21-.64.4-1.28.57-1.93.09-.33.17-.67.25-1l.09-.39c0-.1.15-.4.08-.3l-.51.51a1.14,1.14,0,0,1-.88-.12l-.36-.62c.46,1.2.66,2.52,1.1,3.74a13.94,13.94,0,0,0,1.82,3.69,9.55,9.55,0,0,0,3.31,2.74,15.7,15.7,0,0,0,2.17.89,14.66,14.66,0,0,1,1.79.51l-.51-.51a1.38,1.38,0,0,1,0-.67l.51-.51c.1-.08-.06,0-.14,0l-.53.11-.86.22a15.94,15.94,0,0,0-2,.7,9.9,9.9,0,0,0-3.43,2.33c-1.84,2-2.61,4.83-3.22,7.42-.42,1.77,2.31,2.53,2.73.75.51-2.14,1.06-4.7,2.66-6.33a7.51,7.51,0,0,1,2.81-1.76c.56-.2,1.13-.37,1.71-.52a5.31,5.31,0,0,0,1.67-.51,2,2,0,0,0-.45-3.44A27.44,27.44,0,0,1,50.46,117a6.67,6.67,0,0,1-2.57-2,11.79,11.79,0,0,1-1.44-3c-.38-1.08-.62-2.19-1-3.29a2,2,0,0,0-3.15-1.08c-.87.75-.91,2.25-1.21,3.31A15.58,15.58,0,0,1,40,114.08c-1.09,2.07-3.14,3.07-5.32,3.67a7.06,7.06,0,0,0-1.7.49A2,2,0,0,0,32,120c.05,1.64,1.61,1.81,2.84,2.17a9.44,9.44,0,0,1,3.42,1.65A8.13,8.13,0,0,1,40.5,127c.27.63.49,1.28.7,1.93a14.63,14.63,0,0,0,.61,2,2,2,0,0,0,1.83,1.12,2,2,0,0,0,1.81-1.45,1.42,1.42,0,1,0-2.73-.75Z"/><path class="cls-12" d="M110.17,329.27H277.35c3.09,0,3.1-4.8,0-4.8H110.17C107.08,324.47,107.08,329.27,110.17,329.27Z"/><path class="cls-12" d="M110.17,310.79H277.35c3.09,0,3.1-4.8,0-4.8H110.17C107.08,306,107.08,310.79,110.17,310.79Z"/><path class="cls-12" d="M110.17,347.76H277.35c3.09,0,3.1-4.8,0-4.8H110.17C107.08,343,107.08,347.76,110.17,347.76Z"/><path class="cls-12" d="M110.17,366.25H259.94c3.09,0,3.09-4.8,0-4.8H110.17C107.08,361.45,107.08,366.25,110.17,366.25Z"/><path class="cls-4" d="M291.54,376.11l1-11.22a5.26,5.26,0,0,1,.17-.88l14.8,8.55a4.17,4.17,0,0,1-.67.59L292.2,383.37a.79.79,0,0,1-1.1-.2.77.77,0,0,1-.13-.51Z"/><path class="cls-6" d="M319.07,320.88a3.88,3.88,0,0,0-2.7,1.9l-23.31,40.37a4.41,4.41,0,0,0-.38.86l14.8,8.54a4.07,4.07,0,0,0,.56-.75l19.37-33.56,3.94-6.81a3.94,3.94,0,0,0-1.44-5.37l-8.17-4.72A4,4,0,0,0,319.07,320.88Z"/><path class="cls-2" d="M291.18,380.24l.46-5.32,6.92,4-6.36,4.45a.78.78,0,0,1-1.23-.71Z"/><path class="cls-2" d="M299.14,376.49l-5.6-3.23a2.49,2.49,0,0,0-1.85-.25A2.41,2.41,0,0,0,290,376a2.38,2.38,0,0,0,1.1,1.44l5.6,3.23a2.49,2.49,0,0,0,1.85.24,2.39,2.39,0,0,0,.57-4.38Z"/><path class="cls-2" d="M329.49,339.46c1.24-2.14,2.49-4.27,3.71-6.42a6.59,6.59,0,0,0-2.1-9.07,5.39,5.39,0,0,0-.52-.3c-2.43-1.4-4.85-2.82-7.29-4.2a6.5,6.5,0,0,0-9,2c0,.06-.07.12-.11.17-2,3.25-3.81,6.6-5.71,9.9l-9.91,17.17L291.54,361a9.85,9.85,0,0,0-1.45,4.21c-.24,2.52-.44,5.05-.66,7.57l-.76,8.67a4.28,4.28,0,0,0,.4,3c2.25,3.54,6.23-.31,8.4-1.83l8.53-6c1.57-1.1,3.18-2.06,4.19-3.74.73-1.23,1.43-2.48,2.14-3.71l16.76-29,.4-.7c1.55-2.68-2.6-5.1-4.15-2.43l-8.44,14.63-10.52,18.23c-.13.22-.25.44-.38.65-.68,1-2,1.68-3,2.38l-6.09,4.26-3,2.13a20,20,0,0,1-3.13,2.11l1.21-.33H292l1.06.62,0,.05.33,1.21a14.15,14.15,0,0,1,.17-2.68l.49-5.64.53-6c.1-1.17.1-2.4.31-3.55a11.16,11.16,0,0,1,1.65-3.15l4.53-7.85L313.25,333l4.21-7.3c.73-1.26,1.4-3.08,3.16-2.22,1.4.7,2.74,1.59,4.1,2.37s2.69,1.43,3.93,2.27.8,1.82.18,2.88l-2.83,4.9-.66,1.15C323.8,339.72,327.94,342.14,329.49,339.46Z"/><path class="cls-2" d="M292.54,366.7,305.21,374a2.4,2.4,0,0,0,2.42-4.15L295,362.56a2.4,2.4,0,1,0-2.42,4.14Z"/></svg>