<?xml version="1.0" encoding="utf-8"?>
<!-- Generator: Adobe Illustrator 25.0.0, SVG Export Plug-In . SVG Version: 6.00 Build 0)  -->
<svg version="1.1" id="圖層_1" xmlns="http://www.w3.org/2000/svg" xmlns:xlink="http://www.w3.org/1999/xlink" x="0px" y="0px"
	 viewBox="0 0 800 400" style="enable-background:new 0 0 800 400;" xml:space="preserve">
<style type="text/css">
	.st0{fill:#0A4B75;}
	.st1{fill:#FAD58F;}
	.st2{fill:#F5FAFA;}
	.st3{fill:#67C5FA;}
	.st4{clip-path:url(#SVGID_2_);}
	.st5{fill:#59B7FB;}
	.st6{fill:#F8FBFB;}
	.st7{fill:#0D4066;}
	.st8{fill:#FAFDFC;}
	.st9{fill:#0A4B75;stroke:#0A4B75;stroke-width:3.0198;stroke-miterlimit:10;}
	.st10{fill:#0A4B75;stroke:#0A4B75;stroke-width:2.4146;stroke-miterlimit:10;}
</style>
<g>
	<defs>
		<rect id="SVGID_1_" x="1.5" y="1.4" width="799.2" height="400"/>
	</defs>
	<clipPath id="SVGID_2_">
		<use xlink:href="#SVGID_1_"  style="overflow:visible;"/>
	</clipPath>
	<g class="st4">
		<path class="st5" d="M473,366.4c1.4-10.2,6.4-18.6,13.7-25.3c17.8-16.5,44.3-17.5,63.3-2.6c7.8,6.2,13.1,14.2,15.2,24.1
			c0.6,2.6,0.5,4-2.6,3.5c-0.8-0.1-1.7,0.2-2.5,0.5c-1.3,0.5-1.3,1.6-1.2,2.7c0.3,1.5,1.5,1.6,2.8,1.7c2.1,0.1,4.7-0.7,4.9,3.1
			c0.1,2.7-0.5,3.9-3.3,3.5c-0.8-0.1-1.7,0-2.5,0.2c-1.2,0.3-1.8,1.2-1.7,2.4c0,1.1,0.7,1.8,1.8,2c1.1,0.2,2.2,0.2,3.3,0.2
			c1.4,0.1,3.2-0.3,3.1,2c-0.1,1.6,1.5,4.2-2,4.3c-1.3,0-1.6,0.9-1.7,1.9c-0.1,1.2,0.2,2.3,1.5,2.5c2.3,0.3,2.5,1.9,2.4,3.7
			c0,0.7,0,1.5,0,2.2c-0.2,3,1.3,7-0.8,8.7c-3,2.4-7.3,3.3-11.3,3.3c-14.9,0-29.8-0.1-44.7-0.2c-4.4,0-8.8-0.4-13.1,0
			c-8.2,0.8-15.8-0.9-23.5-3.5c-1.5-0.5-2.2-1.2-2.2-2.8c0.1-2.3,0.1-4.6,0-6.9c-0.2-2.7,0.1-4.9,3.7-4.7c1.3,0.1,2-0.9,1.9-2.1
			c0-1.4-0.8-2.3-2.3-2.2c-2.3,0.2-3.4-0.5-3.4-3.2c0.1-3.1,1.9-2.8,3.8-2.8c1,0,1.9-0.2,2.8-0.5c1.2-0.4,1.6-1.3,1.6-2.5
			c-0.1-1.2-1-1.6-1.9-1.8c-1-0.1-1.9-0.1-2.9-0.2c-1.3-0.1-3.3,0.9-3.1-1.7c0.2-1.7-0.5-3.9,2.5-4.4c1.9-0.4,5.5,0.8,5.3-2.8
			c-0.3-3.5-3.6-1.7-5.6-2.2C473.8,366.6,473.5,366.5,473,366.4z M505.4,375.7c0,7.6,6.2,14.4,13.7,14c9.5-0.6,14.4-4.2,15.2-13.8
			c0.6-7.1-6.8-13.9-14.3-14.1C511.5,361.8,505.4,367.6,505.4,375.7z M498.6,356.7c-2.6,0.4-4.3,1.8-4.5,4.4
			c-0.1,2.3,2.5,4.8,4.6,4.8c2.2-0.1,4.6-2.7,4.4-4.9C502.8,358.3,501.1,357,498.6,356.7z M544.8,360.9c0-2.8-1.8-4.1-4.1-4.2
			c-2.7-0.1-4.3,1.6-4.6,4.2c-0.3,2.3,2.3,4.7,4.6,4.5C543.5,365.2,544.6,363.3,544.8,360.9z"/>
		<path class="st6" d="M504.9,375.9c0-8.4,6.3-14.4,15-14.2c7.8,0.1,15.4,7.2,14.8,14.5c-0.8,9.8-5.9,13.5-15.7,14.2
			C511.3,390.8,504.9,383.7,504.9,375.9z M515.3,374.8c-1.6-0.1-1.6-4.3-3.6-1.6c-1.4,1.8,0,4.4,1.6,6c1.6,1.6,3.1,1.1,4.4-0.5
			c1-1.2,1.8-1.4,3.1-0.3c1,0.9,2.1,2.5,3.8,1.2c1.7-1.3,3.2-2.8,2.9-5.3c-0.2-2.1-1.2-2.8-3.2-2c-0.8,0.3-1.7,1.5-2.5,0.2
			c-0.9-1.5,0.7-2,1.4-2.6c2.4-2.1,2.2-4-0.8-5.2c-2.3-0.9-4.7-0.9-6.8,0.6c-1.4,1-3,3.1-0.8,4.2C518.9,371.5,516.1,373,515.3,374.8
			z"/>
		<path class="st7" d="M498.4,356.3c2.9,0.4,4.8,1.9,5.1,4.9c0.3,2.5-2.5,5.5-5,5.5c-2.4,0.1-5.3-2.8-5.2-5.4
			C493.5,358.3,495.5,356.8,498.4,356.3z"/>
		<path class="st7" d="M545.5,361.1c-0.3,2.8-1.5,4.9-4.6,5.2c-2.7,0.2-5.6-2.5-5.3-5.1c0.3-2.9,2.2-4.9,5.2-4.7
			C543.5,356.4,545.5,357.8,545.5,361.1z"/>
		<path class="st7" d="M515.3,374.8c0.8-1.8,3.6-3.4-0.5-5.3c-2.2-1-0.6-3.2,0.8-4.2c2-1.5,4.5-1.5,6.8-0.6c3,1.2,3.1,3.1,0.8,5.2
			c-0.7,0.6-2.3,1.1-1.4,2.6c0.8,1.3,1.7,0.1,2.5-0.2c2.1-0.8,3-0.1,3.2,2c0.3,2.5-1.2,4-2.9,5.3c-1.7,1.3-2.8-0.3-3.8-1.2
			c-1.3-1.2-2.1-0.9-3.1,0.3c-1.3,1.6-2.8,2.1-4.4,0.5c-1.7-1.7-3-4.2-1.6-6C513.7,370.5,513.7,374.7,515.3,374.8z"/>
		<path class="st3" d="M458.9,171.8c-5.7,1.1-6.9,3.1-4.5,8.5c0.9,1.9,0.9,3.8,1,5.8c0.8,20.9,0.2,41.7,0.6,62.6
			c0,1.5-1,3.6,1.3,4.6c-3,2-3.9-0.7-4.8-2.5c-3.6-7-8.6-12.8-14.7-17.5c-19.3-14.8-40.5-18.4-63.8-10.9c-6,1.9-11,5.3-16.4,8.3
			c-0.1-0.2-0.3-0.5-0.4-0.7c0.7-1.8,0.4-3.7,0.4-5.5c0.1-13.4,0.1-26.8,0.2-40.2c0-3.7,0.1-7.4,1.9-10.9c1.5-2.8,0.5-5.6-1.8-6.5
			c-2.7-1-5.3,0.1-6.4,3.2c-0.8,2.4-1.4,4.9-2.1,7.4c-0.4,1-0.7,2-1.1,2.9c-0.6-0.2-1-0.7-1-1.3c-0.1-7-2.5-13.7-2.8-20.7
			c-0.5-11.7-4.6-22-11.8-31.2c-0.2-0.2-0.2-0.7-0.2-1c-3-22.9-8.1-45.5-12.1-68.2c-0.3-1.9-0.3-2.7,1.9-2.8c4.5-0.2,8.8-1.4,12.9-3
			c2-0.8,2.6-0.3,2.9,1.8c2.4,14.6,5.1,29.2,7.4,43.9c0.4,2.6-0.4,5.3-0.6,8c-1.2,21.6,4.4,40.6,20.1,56.1c3.7,3.7,7.8,6.7,12.5,8.9
			c2.5,1.2,3,2.7,2.9,5.2c-0.5,11.6,4.3,20.7,14.9,25.6c18.4,8.5,38.9-3.6,38.2-23.4c-0.1-4.1,0.9-6.5,4.6-8.5
			c8.8-4.8,15.5-11.9,20.7-20.5c0.6-1,1.4-1.9,2.1-2.8c0.9,2.6-1.1,4.6-1.3,7.1C459.1,159.5,458,165.6,458.9,171.8z"/>
		<path class="st2" d="M635.3,136c0.2-0.2,0.3-0.4,0.5-0.6c1.8-0.1,3.2-1.2,4.4-2.3c2.6-2.4,3.2-5.2,1.6-7c-1.9-2.3-4.1-2.3-7.3,0.1
			c-10.4,7.6-18.8,7.6-29.3-0.3c-2.1-1.6-4.2-2.3-6.2-0.1c-2,2.2-1.3,4.4,0.4,6.3c2.9,3.1,6.2,5.7,10.3,6.9c0,0,0.2,0.1,0.2,0.1
			c2,1.6,4.4,1.7,6.7,2c-2.8,1.5-5.7,3.1-8.5,4.6c-1.4,0.7-2.7,0.4-4-0.2c-3.7-1.4-7.3-3.2-10.7-5.2c-1.8-1.1-2.8-0.9-2.4,1.6
			c0.3,1.7,0.4,3.5,0.3,5.2c-0.1,2.7,0.5,4.8,3.3,5.9c2,0.8,2.3,2.1,0.4,3.6c-0.9,0.7-1.8,1.5-2.4,2.5c-1.8,3.1-3,2.1-4.5-0.3
			c-0.8-1.3-1.1-2.5-1.2-4c-0.6-19.3-5.6-37.1-17.9-52.3c-0.1-0.2-0.2-0.4-0.3-0.6c1.9-0.3,2.9,1.3,4.1,2.3c0.5,0.4,0.9,1.2,1.7,0.8
			c1-0.5,0.7-1.4,0.5-2.1c-0.3-1-0.4-2.2-1-2.9c-1-1.2-1.1-2.2-0.3-3.4c1.6-2.3-0.1-2.5-1.7-2.6c1.6-1.4,2.1-3.3,2.2-5.4
			c1.5-32.6,38-48.8,65.7-36.5c1.7,0.7,3.2,1.8,4.8,2.7c0.5,1.5-0.9,2.2-1.4,3.3c0,0-0.2,0.1-0.2,0.1c-0.2,0.1-0.3,0.3-0.5,0.4
			c-0.1,0.1-0.2,0.2-0.3,0.2c-0.5,0.1-0.9,0.3-1,0.8c-3.6-1.2-7.2-2.7-11-3.5c-25.3-5.1-45.5,7.2-54.3,31.8c-1.4,4-1.1,8.3-0.3,12.5
			c0.4,2,1.2,3.7,3.6,3.5c2.2-0.3,3.2-1.8,3.2-3.9c0-3,0-6.1-0.1-9.1c-0.1-2.5,0.4-3.1,3.1-2.3c17.1,5.4,33.4,3.9,48.7-5.9
			c3.1-2,5.7-4.7,8.9-7.4c0.4,1.8,0.8,3.5,1.2,5.1c3.1,12.5,10.1,22.5,20.4,30.1c2.3,1.7,2.7,3.2,1.8,5.8
			c-2.5,7.3-5.5,14.4-9.7,20.9c-0.8,1.2-1.5,2.1-3,1.8c-4.7-1.8-9.7-1.8-14.6-2.1C637.9,136.6,636.4,137.3,635.3,136z M597.3,106.4
			c-2.9,0-5.1,2.4-5.1,5.4c0,2.9,2.2,5.1,5,5.1c3,0,5.3-2.4,5.4-5.3C602.6,108.5,600.4,106.3,597.3,106.4z M646.9,111.6
			c0-3-2.2-5.3-5.2-5.3c-2.9,0-5.1,2.3-5,5.5c0,2.8,2.3,5,5.2,5C644.5,116.8,646.9,114.4,646.9,111.6z M619.6,123.4
			c2.7-0.1,5-2.6,5-5.3c0-2.9-2.5-5.2-5.4-5.1c-2.9,0.1-4.8,2.3-4.7,5.4C614.6,121.2,616.9,123.5,619.6,123.4z"/>
		<path class="st0" d="M237,286c-0.9,2.2-1.6,4.4-3,6.3c-1.4,2.1-3.2,3.6-5.9,2.5c-2.8-1.1-3.3-3.5-2.6-6.1
			c1.5-5.3,3.8-10.3,6.2-15.2c5-10.7,11.4-20.6,18.5-30.1c1-1.3,1.9-2.7,2.6-4.1c1.8-3.6,1.2-7.2-1.5-9.1c-2.9-2.1-6.8-1.8-9.6,1
			c-1.7,1.7-3.2,3.7-5.8,4.3c-1.4,0.3-2.9,1.6-4.2,0.1c-1.3-1.5-1-3.4-0.2-5c3.3-7.1,8.6-12,16.6-12.9c8.2-1,15.5,1.5,21.7,6.9
			c3.3,2.8,5.9,6.4,5,11c-0.8,4.1,1.2,3.5,3.9,2.8c-1.5-4.6-1-9,2.2-12.7c4.5-5.1,10.5-7.3,17-8.1c14.3-1.8,23.5,12.7,24.8,21.9
			c0.1,0.6,0.3,1.1-0.3,1.6c-1.5,1.2-8,0-9-1.7c-1.3-2.2-2.4-4.6-3.7-6.8c-2.3-3.6-6.1-4.8-9.3-3.1c-3,1.7-4,5.3-2.1,9.2
			c1.2,2.5,2.8,4.8,4.3,7.2c0.7,1.1,1.1,1.9,0,3c-2.8,2.6-4.4,6-6.3,9.2c-3.1-1.3-5.4-3.7-7.1-6.5c-2.1-3.4-4.2-4.9-8.4-3.6
			c-2.2,0.7-2.8,1.4-2.7,3.5c0.1,5.1,0.1,10.3,0.1,15.4c0,1.3,0.1,2.6-0.9,3.6c-1.3,1.3-2.7,2.3-4.7,1.8c-2.2-0.6-3.3-2.3-3.3-4.4
			c-0.1-5.5-0.1-11-0.1-16.5c0-1.4,0.5-3.1-1.9-3.4c-1.9-0.2-3.5-1.5-5.1,1.1c-1.7,2.9-3.9,6-7.1,7c-3.5,1.1-5.1,3.4-6.7,6.1
			c-1.3,2.1-2.5,4.2-3.6,6.4C242.3,274.3,239.2,279.9,237,286z"/>
		<path class="st3" d="M237,286c2.2-6,5.2-11.7,8.1-17.4c1.1-2.2,2.4-4.3,3.6-6.4c1.6-2.6,3.2-5,6.7-6.1c3.2-1,5.4-4.1,7.1-7
			c1.5-2.6,3.2-1.3,5.1-1.1c2.4,0.3,1.9,1.9,1.9,3.4c0,5.5,0,11,0.1,16.5c0,2.2,1.1,3.8,3.3,4.4c2,0.5,3.4-0.5,4.7-1.8
			c1-1,0.9-2.4,0.9-3.6c0-5.1,0-10.3-0.1-15.4c0-2.1,0.6-2.8,2.7-3.5c4.2-1.3,6.3,0.2,8.4,3.6c1.7,2.7,4,5.2,7.1,6.5
			c-3.5,10,0.2,19,3.9,27.9c1.3,3.2,2.7,6.4,4.1,9.6c0.7,1.6,0.9,3.2-0.6,4.5c-1.6,1.4-2.9,0.3-4.1-0.6c-8.9-6.5-22.7-4.7-28.5,2.1
			c-1,0.3-1.9,0.5-2.9,0.8c0,0-0.1-0.1-0.1-0.1c-0.5-2.1-2.3-2.8-4.1-3.4c-0.2-0.1-0.4-0.2-0.6-0.2c-4.3-4.2-9.5-3.7-14.7-2.7
			c-3.1-0.2-5.6,1.5-8,3c-2.6,1.6-3.1,0.3-3.2-1.7c-0.2-2.7-0.1-5.4-0.2-8C237.7,288.1,238.1,286.9,237,286z"/>
		<path class="st3" d="M101.3,210.6c1.1-1.8,0-3.4-0.7-5c-9.5-23.1-16.6-47.1-24.9-70.7c-0.9-2.5-1-3.8,2.4-4.2
			c4.4-0.5,8.6-2.3,12.2-5c2.2-1.6,2.8-0.8,3.7,1.2c4.4,10.5,8.8,20.9,13.2,31.3c2.8,6.6,5.6,13.1,8.4,19.6c1.1,2.4,2.3,4.9,5.6,4
			c3.2-0.9,4-3.4,3.5-6.4c-0.4-2.2-1-4.5-1.6-7.3c3.7,2.7,6.6,5.5,10.6,6.2c1,0.2,1,1.2,1.2,2c1.4,4.8,4.2,8.8,7.3,12.6
			c-6.6,0.8-12.9,2.5-18.6,5.8c-1.6,0.9-1.4,2.2-1.1,3.6c-3.4-0.5-6,1.4-8.7,2.8c-4.7,2.4-8.5,5.9-12,9.9
			C101.7,211.1,101.5,210.9,101.3,210.6z"/>
		<path class="st0" d="M759.2,165.6c-3.2,0-6-2.7-6.5-6.2c-0.6-4-1-8-4.6-10.9c-2.5-2-5.1-3.2-8.3-3.5c-4.4-0.3-6.8-2.6-7-6.1
			c-0.1-3.5,2.3-5.9,6.5-6.6c9.6-1.6,12-4,13.4-13.7c0.6-4.3,2.8-6.6,6.5-6.7c3.4-0.1,5.9,2.4,6.5,6.6c1.4,8.9,5.1,12.5,14.3,14.3
			c3.4,0.6,6.3,3.6,6.1,6.4c-0.1,2.8-3.2,5.5-6.5,5.9c-8.7,0.8-12.5,4.4-13.8,13C765.2,162.8,762.8,165.5,759.2,165.6z M770.2,138.2
			c-5.4-2.1-9.1-5-11-10.8c-2.2,5.5-5.6,8.9-10.6,11.3c4.4,2.5,8.5,4.7,9.2,9.9c0.1,0.6,1.3,1.7,1.8,0.1
			C761,143.5,765.2,141,770.2,138.2z"/>
		<path class="st1" d="M577.5,272.5c-5.3-11.1-13.7-13.8-26.5-8.7c-1.5,0.1-2.4-0.5-3.3-1.9c-2.8-4.6-5.8-9.1-8.8-13.5
			c-1.5-2.3-1.1-4.7-0.5-7c0.6-2.3,2.9-1.4,4.5-1.5c3.3-0.1,6.5,0,9.8,0c0,0,0.3,0,0.3,0l0.3,0c0,0,0,0,0,0
			c2.2,4.2,4.3,8.5,6.8,12.5c1.1,1.8,3,3.6,5.5,2.2c2.1-1.1,3.9-2.9,2.8-5.3c-2.3-5-4.5-10.1-8-14.5c0-0.2-0.1-0.5-0.2-0.6
			c-0.3-1.4-1.6-2-2.7-2.5c-4.5-1.8-4.5-5.5-4.2-9.4c0.1-2.1,0.7-2.9,2.9-2.5c3,0.6,5.7,1.8,8.4,3.2c0,0,0,0,0,0
			c4.8,4.6,7.1,10.1,6.9,16.8c-0.1,4.2-1,8.4-0.2,12.6c0.5,2.5,1.5,4.5,3.4,5.9c1.9,1.4,3.5-0.1,5.1-1c0.1,1,0.2,1.9,0.3,2.9
			c0,1.2,0,2.3-0.1,3.5C579.8,266.8,578.7,269.6,577.5,272.5z"/>
		<path class="st0" d="M756.9,353.9c-0.1,3.5-2.2,5.6-6.4,5.8c-3.9,0.2-7.1,1.3-8.9,5c-1,2-0.7,4.2-0.8,6.3
			c-0.1,2.1-0.6,3.9-2.5,5.1c-3.3,2.1-7.3,0.4-7.9-3.5c-0.3-1.6-0.3-3.2-0.5-4.8c-0.5-4.7-3.3-7.4-8-7.8c-1.2-0.1-2.5-0.1-3.7-0.3
			c-3-0.6-4.7-2.6-4.6-5.5c0.1-3,1.6-5.2,5-5.6c1.4-0.1,2.8-0.1,4.1-0.3c4-0.6,6.7-3.5,7.1-7.5c0.2-1.7,0.2-3.5,0.5-5.2
			c0.5-3.1,3.1-5.2,6.1-4.8c3,0.4,4.7,2.2,4.6,5.3c0,1,0,2,0.1,3c0.4,6.4,2.9,8.9,9.3,9.3C754.9,348.5,757,350.3,756.9,353.9z
			 M735.5,357.8c0.4-2.1,5.4-2.4,1.8-6.1c-1.7-1.7-2.4-1.2-3.8,0C729.3,355.4,735.1,355.6,735.5,357.8z"/>
		<path class="st2" d="M458,252.9c1.2-1.2,2.3-2.8,3.7-3.6c3.4-2,3.6-4.9,3.5-8.3c-0.3-7.7,0.5-15.2,4.4-22
			c6.1-10.7,18.6-15.6,30-11.8c0.5,0.2,1.3,0.2,1.2,0.9c-0.1,1-0.5,1.9-1.4,2.2c-1.1,0.4-2.3,0.4-3.4,0.6
			c-15.6,1.8-24.8,12.2-24.7,27.8c0,0.5,0,0.9,0,1.4c0.6,3.9,0,7-4.7,8c-3,0.6-3.6,4-5.7,5.7c-0.2-0.8-0.5-1.4-1.3-0.7
			C458.9,253.7,458.4,253.7,458,252.9z"/>
		<path class="st0" d="M101.7,100.1c-2.3-1.3-3.8-3.2-3.5-5.9c0.9-9.5,4.1-17.9,11.3-24.5c2.6-2.4,5.6-3.5,8.9-1.1
			c0.1,1.2,0.3,2.3,0.4,3.5c-0.2,0.4-0.4,0.9-0.6,1.3c-1.1,1-2.1,2.1-2.6,3.6c-4.1,4.1-5.8,9.3-7.1,14.8c-0.7,0.8-0.5,1.7-0.6,2.6
			C107.6,98,105.5,100,101.7,100.1z"/>
		<path class="st2" d="M560.6,205.6c6-0.5,11.1,2.1,16.2,4.8c0.9,0.5,1.4,1.1,1.5,2.2c0.3,6,2.5,11.6,4.1,17.3
			c-1.2,1-0.8,2.3-0.8,3.6c0.2,6.2-0.4,12.5,0.3,18.7c0.1,1.3,0.6,3.6-1.6,4.4c0.8-7.3,0.5-14.6,0.3-21.9c-0.1-5.3-2-10.2-5.7-14.2
			c0,0-0.1-0.1-0.1-0.1c-3.4-5-8.4-7.4-14.1-8.8c-1.9-0.5-3.9-0.8-5.8-1.1c-1.2-0.2-2-0.9-2.1-2c-0.2-1.5,1.2-1.1,2-1.3
			C556.8,206.7,558.7,206.2,560.6,205.6z"/>
		<path class="st3" d="M174.7,194.2c1.7,0.1,2.4-1.3,3.3-2.3c3.1-3.8,5.4-8.1,7.3-12.7c0.6-1.6,0.5-4.4,3.1-3.8c2.2,0.5,1,3,1.1,4.6
			c0.6,7.8,0.7,15.6,0.4,23.4c-2,0-2.9-1.8-4.2-2.8C182.2,198,178.4,196.2,174.7,194.2z"/>
		<path class="st3" d="M174.7,213.1c10.7,7.1,16.6,17.2,18.3,30c-6.2-8.4-12.4-16.8-21.1-22.8C174.8,218.6,174.5,215.8,174.7,213.1z
			"/>
		<path class="st3" d="M101.7,100.1c3.8-0.2,5.9-2.1,6.3-5.8c0.1-0.9-0.1-1.9,0.6-2.6c0.8,1.5-1.3,4.8,2.8,4.1
			c0.1,4.7,1.1,9.5-1,14.2c-0.5,1.2-0.2,2.8-0.2,4.2c-0.5,0-0.9,0-1.4,0.1c-1.4-2-2.9-3.6-5.6-3.6
			C104.2,106.9,103.1,103.5,101.7,100.1z"/>
		<path class="st2" d="M560.6,93.1c-3.7-2.5-6-5.5-6.4-10.3c-0.5-6.3-3.1-12.3-4.9-18.4c1.8,0.2,2.2,1.8,2.4,3
			c0.8,4.6,2.4,8.9,3.4,13.4c0.8,3.3,0.2,7.8,4.5,9.8C560.6,91,560.6,92.1,560.6,93.1z"/>
		<path class="st2" d="M567.6,71.4c-1.1,4.5-2.2,8.9-2.4,13.6c-0.1,3.4,0.5,6.4,3,8.9c-2.5,0.1-3.4-0.5-3.6-3.5
			c-0.5-6.2,0-12.1,1.7-18C566.5,71.6,567,71.5,567.6,71.4z"/>
		<path class="st2" d="M688.3,280.5c0.4,1.3,0.8,2.6,1.1,4c0.3,2.4-0.8,4.1-2.8,6c-0.3-3.9-0.6-7.2-0.8-10.6
			C687.8,281.4,687.8,281.4,688.3,280.5z"/>
		<path class="st2" d="M227.8,105c-1,3.1-3.8,5.2-4.9,8.4c-0.4-2.1-1.5-4,0.9-5.9c1.6-1.3,0.9-3.4,0.7-5.3
			C225.5,103.2,226.6,104.1,227.8,105z"/>
		<path class="st2" d="M538.1,53.1c-5.7-2.1-11.3-1.5-16.8,0.9C524.5,50,535.5,48.6,538.1,53.1z"/>
		<path class="st2" d="M583.2,50.4c-2.9,3-5.7,6-8.6,9C574.8,55.4,579.4,50.6,583.2,50.4z"/>
		<path class="st2" d="M249.1,296c5.3-0.9,10.4-1.4,14.7,2.7C258.9,297.6,254.3,295.1,249.1,296z"/>
		<path class="st3" d="M235.7,111.8c0.1-0.4,0.2-0.9,0.4-1.3c0.5-1.4,0.7-3.5,1.7-4c2-1.2,0.9,2.7,2.8,2.3
			C239.1,110.1,237.3,110.9,235.7,111.8z"/>
		<path class="st2" d="M219.5,97.9c-1.4-0.5-1.1-1.5-0.9-2.6c0.9-5,0.5-9.9-0.2-14.8c1.6,0.5,1.1,1.9,1.1,2.9
			C219.6,88.2,219.5,93.1,219.5,97.9z"/>
		<path class="st3" d="M130.1,69.2c2.8,0.5,4.4-1.5,6.3-2.8c0.1,0.8,0.4,1.4,1,1.8c-1.8,1.3-3.7,2.3-6,2.6
			C131,70.2,130.5,69.7,130.1,69.2z"/>
		<path class="st2" d="M548,61.5c-1.6-1.9-3.3-3.7-4.9-5.6C547.4,56.1,547.9,56.6,548,61.5z"/>
		<path class="st2" d="M571,64.3c-1.2,2.3-2.3,4.7-3.5,7C567.6,68.5,567.1,65.3,571,64.3z"/>
		<path class="st2" d="M566.2,98.8c-1.9-1.4-3.5-3.1-4.8-5C563.9,94.5,565.7,96,566.2,98.8z"/>
		<path class="st2" d="M223.8,101.3c-1.3-1.1-2.5-2.1-3.8-3.2C222.6,97.7,224,98.6,223.8,101.3z"/>
		<path class="st2" d="M264.4,298.9c1.8,0.6,3.6,1.3,4.1,3.4C266.6,301.9,265.2,300.7,264.4,298.9z"/>
		<path class="st2" d="M580.2,263.6c0-1.2,0-2.3,0.1-3.5c1,0.2,2.3,0.4,2.2,1.5C582.5,262.6,581.5,263.5,580.2,263.6z"/>
		<path class="st2" d="M115.6,76.9c0.5-1.4,1.5-2.5,2.6-3.6c1.1,0.6,1,1.9,1.4,2.9c0,0,0,0,0,0c-1.7-1.6-2.5,0.6-3.8,0.8L115.6,76.9
			z"/>
		<path class="st2" d="M118.8,72.1c-0.1-1.2-0.3-2.3-0.4-3.5C120.4,69.5,121.4,70.6,118.8,72.1z"/>
		<path class="st2" d="M568.3,93.9c0.9,0,1.9,0.1,2.8,0.1C570,96.3,569.1,95.8,568.3,93.9z"/>
		<path class="st2" d="M268.6,302.4c1-0.3,1.9-0.5,2.9-0.8C270.9,303.1,270.2,304.6,268.6,302.4z"/>
		<path class="st2" d="M573.9,60.2c-0.5,1.1-1.1,2.2-2.1,2.9C571.7,61.5,571.6,60,573.9,60.2z"/>
		<path class="st2" d="M611.1,227.9c0.9-1,1.8-1.9,2.8-2.9C614.1,227.1,612.8,227.6,611.1,227.9z"/>
		<path class="st2" d="M218.2,79c-0.8-1-0.9-2.2-1.2-3.4C218.9,76.2,217.9,77.8,218.2,79z"/>
		<path class="st2" d="M128.9,71.3c-1.1,0.5-2.3,0.9-3.4,1.4C126,70.6,127.7,71.7,128.9,71.3z"/>
		<path class="st2" d="M521.4,54c-1,0.6-2,1.3-3,1.9C518.8,54.2,520,54,521.4,54z"/>
		<path class="st2" d="M540.9,54.4c-1-0.2-2-0.6-2.8-1.3C539.2,53.3,540.6,52.7,540.9,54.4z"/>
		<path class="st2" d="M568.2,101c-0.7-0.7-1.4-1.5-2-2.2C567.8,98.6,568.5,99.3,568.2,101z"/>
		<path class="st2" d="M125.1,72.9c-0.7,0.7-1.4,1.2-2.4,1.3C122.9,72.6,124,72.8,125.1,72.9z"/>
		<path class="st2" d="M549.2,64c-0.4-0.8-0.8-1.7-1.3-2.5C549.6,61.8,549.3,63,549.2,64z"/>
		<path class="st3" d="M131,70.9c-0.3,0.4-0.6,0.5-1.1,0.3C130.2,70.8,130.5,70.6,131,70.9z"/>
		<path class="st2" d="M122.7,74.2c-0.3,0.6-0.8,0.9-1.5,1.1C121.4,74.5,122,74.2,122.7,74.2z"/>
		<polygon class="st2" points="685.5,278 685.3,278 685.4,277.9 		"/>
		<polygon class="st0" points="357.1,230.9 357.2,230.9 357.3,230.9 		"/>
		<path class="st2" d="M542.3,55.4c-0.4-0.2-0.7-0.5-1.1-0.7C541.6,54.9,542,55.1,542.3,55.4z"/>
		<path class="st2" d="M574.5,59.4c-0.2,0.2-0.4,0.5-0.6,0.7C574.1,59.9,574.3,59.7,574.5,59.4z"/>
		<path class="st2" d="M571.5,63.7c0.1,0.4-0.1,0.6-0.5,0.6C571.2,64.1,571.4,63.9,571.5,63.7z"/>
		<path class="st2" d="M224.4,102.3c-0.2-0.3-0.3-0.5-0.5-0.8C224.1,101.8,224.2,102,224.4,102.3z"/>
		<path class="st2" d="M568.9,101.7c-0.2-0.3-0.5-0.5-0.7-0.8C568.4,101.2,568.6,101.5,568.9,101.7z"/>
		<polygon class="st3" points="194.8,349.8 194.7,349.6 194.9,349.4 195,349.6 		"/>
		<path class="st2" d="M561.3,93.7c-0.2-0.2-0.4-0.4-0.7-0.6C560.8,93.3,561.1,93.5,561.3,93.7z"/>
		<path class="st3" d="M354.8,382.4c0.5-5.9-2.6-10.7-4.9-15.7c-10-22-18.4-44.7-27.4-67.2c-1.5-3.7-2.8-7.4-4.4-11.1
			c-0.7-1.8-0.2-2.6,1.6-3c3.9-1,7.6-2.3,11.1-4.3c1.9-1,2.3-0.4,2.6,1.4c1.5,8.7,2.7,17.6,4.7,26.2c3.5,14.7,10.2,27.7,21.9,37.9
			c6,5.2,12.6,8.9,19.9,11.5c2,0.7,3.4,1.8,4.7,3.3c7.2,8.1,17.5,6.3,22.9-1.2c1-1.4,2.5-2,3.9-2.7c1.6-0.7,3.3-1.2,4.9-1.7
			c9.8-3.5,16.4-10.8,22.2-18.8c6.4-8.8,10-18.9,13.1-29.3c0.4-1.4,0.4-3,1.8-4.1c2.4-1.3,3.3-3.7,4.4-6c2.9-6.2,5.7-12.4,8.6-18.6
			c3.7,1.5,6.6,4.4,10.3,5.8c1.8,0.7,0.4,2.1,0,2.9c-3.3,7.2-6.5,14.5-10,21.6c-7.2,14.8-14.1,29.7-20.7,44.8
			c-1.9,4.3-3.8,8.8-6.5,12.6c-5.2,7.5-5,15.8-4.3,24.2c1,11,1.1,11-9.9,11.1c-22.1,0.1-44.2,0.2-66.2,0.3c-0.4,0-0.9-0.2-1.3-0.3
			c0.8-0.7,0.7-1.6,0.7-2.6c0-4.6-0.1-9.2,0-13.9C358.6,382.9,357.5,381.8,354.8,382.4z"/>
		<path class="st1" d="M143.4,334c0.1,6.5,0.2,13.1,0.2,19.6c0.1,4.3,1.5,6.3,4.5,6.1c3-0.1,4.8-2.6,4.5-6.7
			c-0.3-5.5-0.4-11-0.2-16.4c1.2,2.1,2.4,0.7,3.2-0.2c4.1-4.7,7.9-9.6,12-14.3c4.3-4.9,8.3-10,14.8-12.1c0.1,2.7,0.3,5.4,0.4,8
			c1.1,26.5,2.5,52.9,1.8,79.4c-0.1,4.6,0,4.6-4.5,4.6c-21.4,0-42.8,0-64.2,0.1c-2.4,0-3.2-0.6-3.2-3.1c0-28.5-0.1-57-0.1-85.5
			c0-0.8,0.3-1.6,0.4-2.4c4.8,1.6,7.6,5.9,11.4,8.8c5.7,4.4,11,9.1,15.7,14.5C141.3,335.7,142.7,336.4,143.4,334z"/>
		<path class="st2" d="M108.7,114.2c0.5,0,0.9,0,1.4-0.1c1.8,2.1,4.1,2.3,6.7,1.7c8.7-1.9,12.7-7.2,12.2-16
			c-0.1-2.2-0.4-4.4-0.2-6.6c0.6-6.8,6.2-12,13-12.7c2.3-0.2,3.4,0.7,4.2,2.7c6.3,17.5,20.2,25,37.3,28.1c0.7,0.1,1.4,0,2.1-0.1
			c0.8,0.4,1.6,0.5,2.4,0.3c0.8,0.1,1.5,0.2,2.3,0.2c0,0,0.3,0.1,0.3,0.1l0.3-0.1c1.9,0.3,3.8,0.3,5.7,0c1.6,0.2,3.3,0.1,4.8-0.5
			c2.3,0.4,4.5-0.2,6.5-0.8c2.5-0.7,3.1,0.3,3.6,2.3c2.5,10.3,0.5,19.9-4.1,29.2c-5,10.3-13,17.8-22.9,23.3
			c-6.1,2.3-12.3,4.3-18.8,4.8c-11.8,0.8-23-1.8-32.8-8c-8.7-5.5-15.5-13.3-19.8-22.9c-1.5-4.8-3.5-9.4-3.8-14.5
			c0,0,0.1-0.2,0.1-0.2l-0.2-0.2C109,120.9,108.9,117.6,108.7,114.2z M161.5,156.3c6,0,12.7-5.1,13.9-10.5c0.5-2.5,0.5-5.1-2.4-6.2
			c-2.8-1.1-4.3,0.5-5.4,2.9c-1.2,2.5-2.9,4.6-6.1,4.5c-3.1-0.1-4.9-1.9-6.1-4.5c-1.1-2.5-2.8-3.9-5.5-2.8c-2.8,1.2-3,3.7-2.3,6.2
			C149.1,151.8,155.3,156.4,161.5,156.3z M133.3,125.7c-3,0.1-5.1,2.3-5.1,5.4c0,3,2.1,5.2,4.9,5.2c2.8,0,5.3-2.8,5.2-5.9
			C138.3,127.8,136,125.6,133.3,125.7z M194.4,130.8c0-2.8-2.3-5.1-5.1-5.1c-3,0-5.1,2.2-5,5.5c0.1,2.9,2.3,5.2,5,5.2
			C191.9,136.4,194.4,133.6,194.4,130.8z"/>
		<path class="st2" d="M477.7,156.9c0.7,2.2,1.3,4.4,3,5.9c1.1,1,2.3,1.5,3.8,1c1.4-0.5,1.7-1.7,1.9-3c1-6.7,1-6.7,7.8-6.7
			c8.2,0,16.4-0.1,24.2-2.9c8.9-3.2,15.8-8.8,20.2-17.3c0.5-0.9,1.2-1.4,2-2.2c5.6,10.4,13.7,17.9,25.1,21.2
			c1.8,0.5,2.4,1.4,2.4,3.2c-0.1,1.9,0,3.7,0,5.6c0,1.7,0.6,3,2.3,3.5c1.8,0.5,3.2-0.1,4.3-1.6c1.2-1.6,1.8-3.5,2.2-5.9
			c3.5,3.8,4.2,8,3,12.5c-1.1,4-3.9,6.6-8.2,7.1c-1.7,0.2-2.5,1.1-3.1,2.7c-3.6,9.4-9.9,16.3-19.5,19.7c-2,0.7-3.4,0.7-5-0.8
			c-3.4-3.3-7.3-5.8-12.3-5.9c-1.1,0-1.7-0.6-2.3-1.4c-0.9-1.2-2.5-1.7-3.4-0.9c-3.9,3.1-9.8,2-13.1,5.9c-3.8,4.5-7.6,3.3-11.9,1
			c-7.4-3.9-12.1-10-15-17.8c-0.4-1.2-0.6-2.3-2.3-2.7c-8.3-1.8-11.7-8.7-8.5-16.7C475.9,159.3,476.4,158,477.7,156.9z M527,188.2
			c3.4-0.4,6.6-1.5,9-4.4c1.6-2,2.2-4.2,0.2-6.3c-1.8-1.9-3.9-1.3-5.7,0.1c-2.4,1.9-4.6,2.3-7.2,0.1c-1.6-1.4-3.7-1.7-5.4,0.1
			c-1.8,1.9-1.7,4-0.3,6C519.9,186.9,523.2,187.8,527,188.2z M507.2,156.6c-5.5,0-9.1,2.1-10.6,5.7c-0.7,1.7-1,3.4,0.7,4.7
			c1.8,1.5,3.3,0.6,4.6-0.7c2.6-2.8,5.1-3.4,7.9-0.2c1.2,1.3,2.8,1.8,4.3,0.4c1.7-1.4,1.9-3.1,0.7-5
			C512.9,158.2,510,156.6,507.2,156.6z M538.7,163.9c0,1.6,0.5,2.5,1.6,3.2c1.5,0.8,2.6,0.1,3.8-0.7c4.2-3.2,4.2-3.2,8.5,0.1
			c0.2,0.1,0.4,0.3,0.5,0.4c1.2,0.9,2.5,1.3,3.8,0.3c1.4-1,1.8-2.4,1.4-4c-0.8-3.4-5.2-6.3-9.5-6.4c-4.6-0.1-8.8,2.4-9.9,5.8
			C538.8,163,538.8,163.6,538.7,163.9z"/>
		<path class="st2" d="M605.7,322.5c-13.3-12.1-14.9-27.7-13.1-44.1c1-9.6,4.5-18.3,11.5-25.4c0.4-0.4,0.8-0.8,1.3-1.2
			c0.6-0.5,1.4-1.3,2.1-0.7c1.2,0.9-0.2,1.6-0.6,2.3c-0.4,0.8-1,1.5-1.6,2.3c-1.9,2.4-3.5,4.8-4.4,7.8c0,0,0,0,0,0
			c-4,8-5.5,16.4-4.1,25.2c0,0,0,0.2,0,0.2c3.2,2.9,6.9,1.5,10.5,1.5c0,0,0,0,0,0c0.6,1.4-0.7,2.6-0.7,4c0.1,3.3,1.7,5.5,4.5,5.6
			c2.5,0.1,5-2.3,5.1-5.2c0-0.8-0.1-1.7-0.5-2.3c-1.3-2-0.4-2.6,1.6-2.9c0.5-0.1,1.1-0.4,1.6-0.7l0.2,0.1c0,0,0.2-0.2,0.2-0.2
			c2.6-0.3,4.9-1.2,7.1-2.5c8.3-2.8,14.4-8.4,19.6-15.2c1.9-2.5,3.6-5,5.8-8c0.8,3.8,1.7,6.9,3.2,9.7c3.9,7.1,10.4,10.6,17.9,12.2
			c3.3,0.7,4.2,2.2,4.3,5.4c0.3,10.7-2.5,20.3-9.6,28.4c-1.8,2.1-4.1,3.4-6.2,5c-3.7,1.3-7.5,1.5-11.4,1.5
			c-13.1-0.1-26.1-0.1-39.2-0.2l-0.2-0.1c0,0-0.2,0.1-0.2,0.1c-0.6-1-1.6-0.5-2.4-0.8c-0.2-0.2-0.4-0.4-0.7-0.6
			c-0.2-0.9-1.1-0.6-1.6-1C606,322.7,605.9,322.6,605.7,322.5C605.7,322.6,605.7,322.5,605.7,322.5z M635.2,319.5
			c5.9-0.1,12-5,12.6-10.2c0.2-2-0.2-3.9-2.2-4.7c-2-0.8-3.6,0-4.8,1.8c-0.4,0.7-0.9,1.4-1.4,2c-2.1,2.8-5.1,2.9-7.3,0.3
			c-0.5-0.6-1-1.3-1.4-2c-1.2-1.8-2.8-3-5-1.9c-2.2,1.1-2.7,3-2.2,5.3C624.6,315.2,630,319.5,635.2,319.5z M663.8,295.2
			c0.2-2.8-1.8-5-4.5-5.1c-2.8-0.1-4.9,1.8-5.1,4.6c-0.2,2.7,1.8,5.2,4.3,5.4C661.1,300.3,663.6,298,663.8,295.2z"/>
		<path class="st2" d="M582.9,306.8c2,2.6,3.8,5.3,5.1,8.3c1.8,4,4.2,7.5,7.1,10.7c5.9,6.7,13.2,10.3,22.3,9.4
			c2.2-0.2,3.3,0.3,3.8,2.7c0.7,3,2.1,5.6,4.1,8c5.9,7,13.8,6.7,19.1-0.8c1.6-2.3,2.9-4.8,3.4-7.6c0.3-1.8,1.2-2.3,2.9-2.2
			c13.6,1.1,22.5-6.1,29.1-17c2.7-4.5,5-9.2,7.5-13.8c7.4,5.8,7.8,9.7,1.9,16.9c-6.6,8-13.2,16.1-20,23.9
			c-4.5,5.1-8.5,10.2-6.4,17.7c-1.8,1-3.7,1.6-5.9,1.6c-12.6-0.1-25.1-0.1-37.7-0.1c-1.4,0-2.8,0-3.5-1.6c0.1-2.7-1.3-4.3-3.9-4.4
			c-2.8-0.2-4.3,1.7-4.6,4.3c-0.6,5.7-0.9,11.4-1.3,17c-1.6,7.2-2.8,14.5-3.4,21.9c-0.1,0.1-0.1,0.2,0,0.4c-1.4,0.1-2.9,0.1-4.3,0.2
			l-0.2-0.1c0,0-0.2,0.1-0.2,0.1c-0.3-1.2-0.1-2.3,0.1-3.4c1-8.2,2-16.3,3.1-24.5c0.2-1.2,0.3-2.4,0.5-3.6c0.7-3.2,1.2-6.4,1.1-9.7
			c0,0,0,0,0,0c0.5-2.9,1.8-5.7,0-8.6c0,0,0,0,0,0c-5.1-8.5-11.4-16.1-18.3-23.2c0,0,0,0,0,0c-2.3-2.9-4.6-5.8-6.8-8.8
			c-4.9-6.6-4.9-9.6-0.4-16.4l0.2-0.1c0,0,0-0.2,0-0.2c0.2-0.4,0.5-0.7,0.7-1.1c0.2,0.1,0.4,0.1,0.5-0.1
			C580.2,304.2,581.5,305.5,582.9,306.8z"/>
		<path class="st3" d="M615.9,363.1c0.7,1.6,2.1,1.6,3.5,1.6c12.6,0,25.1,0,37.7,0.1c2.2,0,4-0.6,5.9-1.6c2,8,2.2,16.3,3.6,24.5
			c0.6,3.7,0.9,7.4,1.7,11c0.7,2.8-0.3,3.5-2.9,3.3c-1-0.1-2.1,0.1-3.1,0.2c-0.2-0.1-0.3-0.1-0.5,0c-15.2-0.1-30.5-0.1-45.7-0.2
			c-4.4,0-8.8,0-13.2-0.1c0.5-7.4,1.8-14.7,3.4-21.9c0.2,0.1,0.4,0.2,0.7,0.3c0.9,2.2,2.6,3.4,4.9,2.9c2.5-0.5,2.9-2.6,3-4.9
			c0.1-5,0.4-10,0.6-15C615.5,363.2,615.7,363.2,615.9,363.1z"/>
		<path class="st1" d="M549.1,291.9h-2.7c-2.3-3.2-3.8-6.9-4.2-11.1c-0.2-2.8-3.2-4.4-3.9-7.2c-0.1-0.2-0.2-0.4-0.3-0.6
			c-3.4-5.7-6.8-11.3-10.5-17.3c-4.5,7.4-8,15.1-11.9,22.6c-0.5,1-1,2.1-1.6,3.1c-1.9,3.1-4.4,4.2-6.6,2.8c-2.8-1.9-2.5-4.5-1.3-7.2
			c1.4-3.1,3-6.1,4.5-9.1c2.9-5.7,5.9-11.4,8.9-17c1-1.8,1.4-3.3-0.5-4.9c-1.6-1.4-2.4-3.4-2.4-5.6c-1.6-0.4-3.4-0.4-4.6-1.2
			c-1.7-1.2-2.3-0.6-3.3,0.8c-2.8,4-5.7,8-8.6,12c-1,1.4-1.2,2.5-0.4,4.1c2.5,5.2,3,11,1.7,16.4c-1.8,7.4-6,14-9.3,20.9
			c0,0.1-0.1,0.2-0.1,0.3c-3.7,6.6-13.7,29.2-13.7,29.2s15.2,2.8,16.9,4.1s13.4-9.2,25.4-7.6s24.9,7.8,24.9,7.8l19.6-4.1
			L549.1,291.9z"/>
		<path class="st1" d="M694.3,89.5c2.8,1.1,5.6,2.3,8.5,3.1c2.5,0.7,2.7,1.8,2,4c-2.8,9-5.4,18.1-8.2,27.1
			c-3.8,12.3-6.7,24.8-10.1,37.6c-2.6-2.9-4.9-5.6-7.5-8.1c-3.2-3.2-6.8-6.1-10.9-8.1c-2.5-1.2-2.5-2.4-1.3-4.5
			c5.6-10.4,9.7-21.5,13.6-32.6c0.6-1.7,1.1-3.3,1.1-5.1c0.3,0.5,0.5,1,1,1.8c0.1-4.7,2.5-8.1,4.2-11.9c1.3-3,1.7-6,5.9-3.3
			C693,89.7,693.7,89.5,694.3,89.5z"/>
		<path class="st2" d="M458.9,171.8c-0.9-6.2,0.2-12.3,0.6-18.4c0.2-2.5,2.2-4.5,1.3-7.1c2.2-7,4.5-13.8,6-21
			c2.7-5.1,4.4-10.6,7.5-15.4c3.9,1.4,6-1,8.1-3.7c14-17.5,37.1-23.7,57.2-15.2c5.8,2.4,11.4,5.5,14.4,11.4c0.5,0.9,1.7,2.2,0.5,3.1
			c-1.1,0.9-2.3,0.1-3-1.2c-0.7-1.2-2.1-1.7-3.3-2.2c-4.3-3.1-9.1-5-14.2-6c-14.6-2.8-28.1-0.7-39.9,9c-7.9,5.8-13.6,13.4-17.4,22.3
			c-4.1,9.6-7.5,19.6-10.3,29.7c-2.4,8.5-1.5,16.9,3.3,24.5c1.5,2.4,0.9,4.5,0.1,6.8c-1.2,3.3-2.5,6.5-4.2,9.9
			C467.2,188.4,464,179.9,458.9,171.8z"/>
		<path class="st2" d="M221.9,161.7c-0.4-24.9,19.7-46.8,50.5-48.1c30.3-1.3,53.9,21.4,55.6,44c-9.3-22.3-28.2-33.6-51.6-36.6
			c-17.4-2.2-32.3,5.7-43.7,19.2c-4.2,5-6.9,10.6-8.9,16.7C223.2,158.5,222.5,160.1,221.9,161.7z"/>
		<path class="st2" d="M440.5,272.4c-5.5-9.5-12.9-17.1-22.4-22.7c-17.9-10.6-43.8-8.3-57.6,11.3c-1.4,1.9-2.2,4.7-5.5,4.8
			c-2.3,0.1-3.3-0.1-2.2-2.8c3.9-9.5,10.1-17.1,19.2-22c20.3-10.8,43.5-7.1,59.4,9.5c5.8,6,8.9,13.5,10.5,21.6
			C441.4,272.2,441,272.3,440.5,272.4z"/>
		<path class="st3" d="M474.3,109.9c-3.1,4.9-4.8,10.4-7.5,15.4c1.2-14.6,3.3-29.1,5.5-43.5c0.9,0.6,1.8,0.6,2.3-0.5
			c1.2-3,2.6-5.8,3.1-9.1c1.1-6.1,1.3-12.4,3.4-18.4c4.2,0.3,8.1,2.3,12.4,2.3c2.1,0,1.2,2,1,3c-0.9,6.5-2.3,12.9-2.9,19.4
			c-0.5,5.6-2.4,9.6-7.4,12.7c-4.4,2.7-7.5,6.9-10.3,11.3C472.3,105.2,472.1,107.6,474.3,109.9z"/>
		<path class="st3" d="M192,331.5c0-10.5,0.4-20.9-0.2-31.4c-0.3-5.4,0.6-9.9,3.3-14.5c2.8-5,4.8-10.4,5.4-16.2
			c0.2-2.3,1-2.8,3.1-1.8c2.9,1.3,5.8,2.5,8.8,3.3c2.5,0.7,3.1,1.4,2.1,4c-4.1,10.1-7.9,20.2-11.8,30.3c-3.4,8.8-6.8,17.5-10.1,26.3
			C192.4,331.5,192.2,331.5,192,331.5z"/>
		<path class="st3" d="M102.9,329.3c-5.7-13.7-11.1-26.9-16.6-40c-2.1-5.2-4.3-10.3-6.4-15.5c-0.7-1.7-0.7-2.8,1.5-3.3
			c3.5-0.8,6.9-2,10.1-3.9c1.5-0.9,1.7-0.1,1.9,1.1c1.7,7.7,4,15.1,8.5,21.7c0.9,1.4,1.1,3.1,1.1,4.7
			C102.9,305.6,102.9,317.2,102.9,329.3z"/>
		<path class="st2" d="M545.6,268.9c-3.6-6.3-7.1-12.7-10.7-19c-0.9-1.6-1-2.9,0.4-4.4c2.8-3.1,2.8-5.2-0.2-8
			c-1.8-1.8-3-3.8-3.7-6.1c-0.1-1-0.2-1.9-0.3-2.9c0.1-8.4,0.1-16.8,0.2-25.1c0.3,0,0.4-0.1,0.5-0.4c0.4,0.1,0.9,0.2,1.3,0.3
			c0,0,0,0,0,0c0.6,0.4,1.1,0.8,1.7,1.1c0,0,0.1,0.1,0.1,0.1c0.2,0.5,0.6,0.8,1.2,0.8c0.2,0.5,0.7,0.8,1.2,0.9
			c2.1,2.2,4.1,4.4,6.2,6.7c0,0,0.1,0.2,0.1,0.2c1.3,4.7,0.4,9.5,0.7,14.3c0.2,2.5,0.2,4.9,2.1,6.8c0,0,0,0,0,0
			c0.8,3.4,4.1,3.9,6.4,5.6c-3.3,0-6.5-0.1-9.8,0c-1.6,0-3.9-0.8-4.5,1.5c-0.6,2.3-1.1,4.7,0.5,7c3,4.5,6,8.9,8.8,13.5
			c0.9,1.4,1.8,2,3.3,1.9C549.3,265.5,547.5,267.2,545.6,268.9z"/>
		<path class="st3" d="M700.9,173.6c4.4,1.8,7.8,5.5,12.5,6.9c1.4,0.4,0.1,2.3-0.3,3.3c-3.9,9.9-7.8,19.7-11.7,29.6
			c-3.9,9.9-7.9,19.7-11.8,29.6c-0.2,0.4-0.5,0.7-0.7,1.2c-2.8-3.6-2.6-5-0.2-8.7c6-9.1,8.9-19.2,9.5-30c0.4-7.4-0.1-14.7-1.9-21.9
			C698.1,180.3,699.6,177,700.9,173.6z"/>
		<path class="st2" d="M137.4,68.2c-0.6-0.4-1-1.1-1-1.8c3.3-5.1,8.2-8.3,13.7-10.2c15.9-5.5,30.7-3.2,44.2,6.9
			c-0.3,1.5-1.5,1.1-2.4,1.3c-2.7,0.7-5.2,1.8-6.8,4.3c-4.7-1.6-9.1-3.8-14.1-4.7C159.3,61.7,148.2,63.2,137.4,68.2z"/>
		<path class="st2" d="M407.5,194.3c-9.2,0-16.3-6.4-17.3-15.5c-0.2-2.2,0-3.4,2.7-2.7c9.5,2.3,19,2.3,28.5,0.1
			c2.3-0.5,2.5,0.3,2.5,2.2C423.8,187.9,417.2,194.3,407.5,194.3z"/>
		<path class="st2" d="M712.3,71.6c-0.1,1.5-0.3,3-0.8,4.4c-2.6,6.5-4.7,7.5-11.1,5c-0.8-0.3-1.5-0.6-2.3-0.9
			c-5.9-2.5-6.8-3.9-5.5-8.6c1.9-6.7,6.3-10.4,11.4-9.6C708.7,62.6,712.3,66.9,712.3,71.6z"/>
		<path class="st3" d="M643.3,57.9c0.6-1,1.9-1.8,1.4-3.3c5.1,1.7,8.3,5.9,11.5,9.7c8.3,9.9,12,21.6,12.4,35.4
			c-6.1-4.5-10-9.7-12.6-15.8c-2.2-5-2.8-10.3-3-15.7C653,62.3,648.9,58.2,643.3,57.9z"/>
		<path class="st2" d="M87.5,108.8c0.6,2.9,1.2,5.8-1.4,8.2c-1.7,0.9-3.4,2-5.2,2.8c-6.6,2.9-10.6,0.9-12.5-6.2
			c-1.2-4.5,1.7-10.3,6-11.9c4.7-1.8,9.2,0,11.6,4.8C86.5,107.2,87.1,108,87.5,108.8z"/>
		<path class="st2" d="M498.5,36.5c-0.1,1.4-0.3,3.1-1,4.7c-1.7,3.8-4.1,5-8.1,4c-1.2-0.3-2.4-0.8-3.6-1.2
			c-5.8-2.1-7.5-4.9-6.3-10.2c1.2-5.2,5.5-8.5,10.3-7.9C494.8,26.6,498.6,30.9,498.5,36.5z"/>
		<path class="st2" d="M335.2,36.2c0,4.9-5.8,9.2-12.4,9.1c-3.4-0.1-6.9-5.2-6.9-10.2c0-5.2,4.2-9.4,9.3-9.4
			C330.8,25.7,335.2,30.3,335.2,36.2z"/>
		<path class="st2" d="M254.6,87.6c0,5-3.9,10-7.6,9.9c-5-0.2-11.4-5.5-11.4-9.6c0-5.9,4.3-10.8,9.4-10.6
			C250,77.5,254.6,82.4,254.6,87.6z"/>
		<path class="st2" d="M222.9,251.6c0.1,4.9-3.5,9.7-7.3,9.7c-4.8,0.1-11.7-4.4-11.8-7.6c-0.1-6.3,4.3-12,9.4-12
			C218,241.9,222.8,246.8,222.9,251.6z"/>
		<path class="st2" d="M712.3,149.7c6.4-0.1,11,5.9,9.4,12.2c-0.2,0.9-0.6,1.8-1,2.6c-2.7,6.1-4.3,6.6-10,3.3
			c-1.1-0.6-2.2-1.3-3.3-2c-4-2.6-5.2-5-4.1-8.7C704.5,152.8,708.1,149.8,712.3,149.7z"/>
		<path class="st2" d="M697.8,301c-2.9-2.1-4.5-4.1-1.8-7.7c2.7-3.7,3.4-8,2.6-12.6c-0.9-5.4,1.9-9.2,6.3-9.3
			c4.3-0.2,7.9,3.9,7.9,8.9c0,4.2-2.5,8.1-6.3,9.1c-2.2,0.6-3.3,1.8-4.2,3.6C700.8,295.6,699.8,298.5,697.8,301z"/>
		<path class="st2" d="M543.5,82c-6.1-2.7-12.2-4.2-18.5-4.6c-1.7-0.1-2.4-1.1-2.9-2.5c-1.7-4.7,0-9.2,4.4-11.6
			c4-2.2,8.9-0.8,11.9,3.5C540.5,69.6,542.7,76,543.5,82z"/>
		<path class="st2" d="M80.3,241.9c5,0,9.4,5.3,9.3,11.1c0,3.6-6.5,8.1-11.7,8.2c-3.1,0-7-5.9-6.9-10.6
			C71.2,246.1,75.6,241.9,80.3,241.9z"/>
		<path class="st2" d="M182.5,310c-6.5,2.1-10.6,7.3-14.8,12.1c-4.1,4.7-8,9.6-12,14.3c-0.8,0.9-2,2.3-3.2,0.2
			c-0.8-5.5,0.1-10,5.7-12.9c2.6-1.3,4.7-4,6-6.7c2-4.3,5.2-6.8,9.4-8.7c3.2-1.5,6-3.8,9.5-6.6C182.7,305,182.6,307.5,182.5,310z"/>
		<path class="st2" d="M320.9,257c3.7,0,7.8,3.5,8.7,7.5c0.8,3.4-0.7,6.3-4.4,8.2c-1.2,0.7-2.6,1.1-3.8,1.7
			c-4.7,2.2-6.6,1.7-8.9-4.2C310.1,264,314.8,257,320.9,257z"/>
		<path class="st2" d="M485.9,266.8c-0.3,0.9-0.6,2.5-1.2,4c-1.8,4.1-3.2,4.6-7.3,2.7c-2.3-1.1-4.5-2.5-6.5-4.1
			c-2.7-2.1-4.1-4.3-2.3-7.8c2-3.9,5.2-6.1,8.8-5.6C482,256.6,486,261.4,485.9,266.8z"/>
		<path class="st2" d="M143.4,334c-0.7,2.4-2,1.7-3.1,0.5c-4.7-5.4-10.1-10.2-15.7-14.5c-3.8-2.9-6.6-7.2-11.4-8.8
			c-0.2-0.6-0.4-1.1-0.6-1.7c0.3-0.5,0.3-1-0.1-1.5c0-1.2,0-2.3,0-3.5c0.2-0.5,0.4-0.9,0.6-1.4c0.2,0.1,0.4,0.2,0.6,0.3
			c6.7,4.4,13.8,8.3,17.8,15.9c1.5,2.8,4.5,5,7.4,6.2C142.9,327.2,144.1,330,143.4,334z"/>
		<path class="st2" d="M291.3,328.7c-1.4,1.5-2.3-0.3-3.4-0.6c-12.6-2.7-25.1-3.2-37.5,1c-1.3,0.4-2.6,1.7-4.1,0.4
			c12.9-11.5,28.4-12.9,41.8-3.9C289.2,326.5,290.6,327.2,291.3,328.7z"/>
		<path class="st1" d="M487.6,242.7c-3.1,1.1-4.4,0.4-4.1-2.8c0.5-7,4.7-15,13.9-16.8c0.9-0.2,1.9-0.1,2.1-1.3c0.8,4.2,1,7.9-4,9.9
			c-3.2,1.3-4.5,4.8-6.1,7.7C488.9,240.5,488.2,241.6,487.6,242.7z"/>
		<path class="st3" d="M185.1,68.6c1.6-2.5,4-3.6,6.8-4.3c0.9-0.2,2.2,0.1,2.4-1.3c5.6,3.9,9.7,8.9,11.9,15.4l0,0
			C198.6,76.5,191.5,73.3,185.1,68.6z"/>
		<path class="st2" d="M481.1,53.8c-2.1,5.9-2.4,12.2-3.4,18.4c-0.6,3.3-1.9,6.1-3.1,9.1c-0.5,1.2-1.3,1.1-2.3,0.5
			c1.2-9.1,2.4-18.1,3.5-27.2c0.3-2.6,1-3.7,3.5-1.8C479.9,53.2,480.5,53.5,481.1,53.8z"/>
		<path class="st2" d="M466.5,279c-2.9,6.2-5.7,12.5-8.6,18.6c-1.1,2.3-2,4.7-4.4,6c1.7-9.2,5-17.9,8.7-26.5c0.5-1.1,1-1.6,2-0.6
			C464.9,277.3,465.7,278.2,466.5,279z"/>
		<path class="st2" d="M673.8,364.6c-1.8-6.9-1.8-6.9,6.6-17.8C684.8,351.9,681.9,359.9,673.8,364.6z"/>
		<path class="st2" d="M354.8,382.4c2.7-0.7,3.8,0.4,3.8,3.2c-0.1,4.6,0,9.2,0,13.9c0,0.9,0.1,1.9-0.7,2.6c-0.5,0-1.1,0-1.6,0
			c-0.2-0.2-0.4-0.1-0.5,0c-0.3-0.1-0.5-0.1-0.8-0.2c-0.1-0.2-0.2-0.5-0.3-0.7c0-3.1,0.1-6.2,0.1-9.3c0.6-2.5,0.5-4.9,0-7.4
			C354.7,383.8,354.7,383.1,354.8,382.4z"/>
		<path class="st2" d="M694.3,89.5c-0.6,0-1.3,0.3-1.7,0c-4.2-2.8-4.6,0.3-5.9,3.3c-1.7,3.8-4.1,7.2-4.2,11.9
			c-0.5-0.9-0.7-1.3-1-1.8c-1.6-1.3-2.1-2.7-1-4.8c1.8-3.7,3.3-7.5,4.9-11.2c0.8-1.9,1.8-2.2,2.9-0.5c0.9,1.4,2.6,1,3.6,2
			c0.2,0.5,0.6,0.7,1.1,0.6C693.3,89,693.8,89.2,694.3,89.5z"/>
		<path class="st2" d="M111.3,95.9c-4,0.7-1.9-2.7-2.8-4.1c1.3-5.4,3-10.7,7.1-14.8c0,0,0.2,0.2,0.2,0.2c-0.2,1.2,0.1,2,1.4,2.1
			C114.6,84.5,111.9,89.8,111.3,95.9z"/>
		<path class="st2" d="M247.2,371.2c3.3,1.4,2,4,0.8,5.6c-4.3,5.6-6.9,6.6-12.7,0.5c0.6,0,1.2-0.1,1.7-0.1c0.8,0.4,1.5,0.4,2.1-0.2
			C242.7,376.2,246.3,375.6,247.2,371.2z"/>
		<path class="st1" d="M256.7,313c-0.3,0.6-0.8,0.9-1.4,1c-3.5,0.7-6.5,2.6-9.3,4.6c-1.8,1.3-2.4,0.4-2.3-1.3
			c0.2-3.1,2.3-4.7,4.8-5.9c2.6-1.2,5.2-0.8,7.7,0.6C256.5,312.3,256.6,312.8,256.7,313z"/>
		<path class="st1" d="M287.2,310.6c3.9,0.3,6.4,2.1,8.2,5.1c0.7,1.1,0.7,2.4-0.3,3.2c-1,0.9-1.7-0.3-2.4-0.8
			c-2.5-1.7-5.1-3.3-8.1-4c-0.8-0.2-1.9,0-2-1c-0.1-1,0.9-1.6,1.8-1.9C285.4,310.9,286.4,310.7,287.2,310.6z"/>
		<path class="st2" d="M634.7,335.5c1.3,1,4.2-1.3,4.2,1.5c0,2.1-1.5,4.5-4.3,4.9c-1.3,0.2-5-4-4.5-5.2
			C631.1,334.3,633.1,336,634.7,335.5z"/>
		<path class="st2" d="M140.1,314.5c4.9,0.3,9.1,0.4,13.5,0.1C149.8,321,145.6,321.1,140.1,314.5z"/>
		<path class="st2" d="M700.9,173.6c-1.3,3.4-2.8,6.8-4.7,9.9c-1.9-4.6-1.6-9,1.9-12.9C699.4,171,699.9,172.5,700.9,173.6z"/>
		<path class="st3" d="M440.5,272.4c0.5-0.1,0.9-0.2,1.4-0.2c1.1,1.5,0.7,3.3,0.5,5.1C441.8,275.6,441.1,274,440.5,272.4z"/>
		<path class="st8" d="M117.2,79.1c-1.3-0.1-1.6-0.9-1.4-2.1c1.3-0.3,2.1-2.4,3.8-0.8C118.8,77.3,118.4,78.5,117.2,79.1z"/>
		<path class="st3" d="M354.7,384.5c0.5,2.5,0.5,4.9,0,7.4C354.2,389.4,354.2,386.9,354.7,384.5z"/>
		<path class="st3" d="M641.4,59.5c0.2-0.5,0.5-0.8,1-0.8C642.2,59.1,642.2,59.8,641.4,59.5z"/>
		<path class="st3" d="M239.2,377c-0.7,0.6-1.4,0.6-2.1,0.2C237.7,376.7,238.4,376.7,239.2,377z"/>
		<path class="st3" d="M122.3,167.9c0.2-0.1,0.4-0.2,0.5-0.2c0.1,0,0.2,0.3,0.3,0.4c-0.2,0.1-0.3,0.2-0.5,0.2
			C122.6,168.2,122.5,168,122.3,167.9z"/>
		<path class="st3" d="M112.4,307.9c0.5,0.5,0.5,1,0.1,1.5C112.2,308.9,112.2,308.4,112.4,307.9z"/>
		<path class="st3" d="M101.9,211.3c-0.3,0.5-0.8,1.1-1.2,0.8c-0.7-0.7,0.1-1,0.6-1.4C101.5,210.9,101.7,211.1,101.9,211.3z"/>
		<path class="st3" d="M113,303c-0.2,0.5-0.4,0.9-0.6,1.4C112.2,303.7,111.9,303,113,303z"/>
		<polygon class="st3" points="109.1,124.2 109.3,124.4 109.1,124.6 108.9,124.4 		"/>
		<path class="st3" d="M642.6,58.4c0.2-0.1,0.3-0.3,0.5-0.4C643,58.1,642.8,58.3,642.6,58.4z"/>
		<path class="st8" d="M701.5,142.2c0,0.2,0.1,0.3,0.1,0.5c-0.1,0-0.2,0-0.3,0C701.4,142.5,701.5,142.4,701.5,142.2
			C701.6,142.2,701.5,142.2,701.5,142.2z"/>
		<path class="st3" d="M206.2,78.4c0.1,0.1,0.1,0.1,0.2,0.2C206.3,78.5,206.3,78.4,206.2,78.4C206.2,78.4,206.2,78.4,206.2,78.4z"/>
		<path class="st1" d="M692.9,88.8c-0.5,0.1-0.9-0.1-1.1-0.6C692.3,88.2,692.7,88.3,692.9,88.8z"/>
		<path class="st0" d="M357.2,230c-3-0.2-3.5,2.2-4.4,4.1c-3,0.6-2.8-1.5-2.8-3.4c0-16.4,0-32.9,0-49.3c0-1.3,0.5-2.8-0.6-4
			c0.7-2.5,1.2-5,2.1-7.4c1.1-3,3.6-4.2,6.4-3.2c2.4,0.9,3.3,3.7,1.8,6.5c-1.8,3.5-1.9,7.2-1.9,10.9c-0.1,13.4-0.1,26.8-0.2,40.2
			C357.6,226.3,357.9,228.2,357.2,230z"/>
		<path class="st3" d="M770.2,138.2c-5.1,2.8-9.2,5.3-10.6,10.5c-0.4,1.6-1.7,0.5-1.8-0.1c-0.7-5.2-4.8-7.4-9.2-9.9
			c5-2.4,8.4-5.7,10.6-11.3C761.2,133.2,764.8,136.2,770.2,138.2z"/>
		<path class="st2" d="M44.1,57.1c-0.4-2.2-6.2-2.4-2.1-6c1.4-1.2,2.2-1.7,3.8,0C49.5,54.7,44.4,55,44.1,57.1z"/>
		<path class="st2" d="M280.6,194.9c-0.3,3.8-2.9,6.9-5.8,7c-2.8,0.1-5.7-3.5-6.1-7.1c-0.2-1.6,0.4-2.1,1.9-2.1
			c2.7,0.1,5.4,0.1,8,0.1C280.4,192.7,281,193.4,280.6,194.9z"/>
		<path class="st0" d="M254.7,348.8c2-1.9,4.2-2.7,7-1.7c2.1,0.7,3.4-0.1,3.5-2.4c0.1-0.9,0.4-1.8,0.5-2.7c0.3-1.9,1.4-2.8,3.3-3.1
			c1.9-0.3,3.5,0.4,4.4,2.2c0.4,0.9,0.8,2,0.9,3c0.2,2.6,1.3,3.6,3.8,2.9c2.4-0.7,4.9-0.6,6.2,1.7c1.3,2.2,0.8,4.3-1.2,6.2
			c-1.3,1.2-0.9,3.3-1.2,5c-0.7,4.8-2.1,9.1-6.3,12.2c-4.9,3.5-10.5,2.9-14.4-1.9c-2.2-2.8-3.5-6-3.9-9.6c-0.3-3-0.8-5.9-3.5-7.8
			C253.6,351.3,254,350,254.7,348.8z M274.2,357.9c0-1.2-3.3-4.7-4.4-4.7c-1.3,0-4.5,3.4-4.5,4.8c-0.1,3.3,2.3,7.3,4.3,7.2
			C271.9,365.2,274.2,361.6,274.2,357.9z"/>
		<path class="st1" d="M254.7,348.8c-0.7,1.2-1,2.4-0.8,3.8c-1.3,3.3-3.8,4.4-7,3.4c-2.7-0.8-3.9-2.9-3.6-5.9c0.2-2.5,2-3.8,3.7-4.7
			c1.5-0.8,3.7-0.8,5.2,0.8C253,347.1,254.4,347.4,254.7,348.8z"/>
		<path class="st1" d="M295.4,350.8c-0.1,2.7-3.1,5.5-5.8,5.3c-1.8-0.1-4.2-3.8-4.1-6.2c0.1-2.6,2.7-4.7,5.7-4.7
			C293.2,345.2,295.5,348.2,295.4,350.8z"/>
		<path class="st0" d="M251.9,337.8c-0.1-2.5,1.1-4.2,4-4.3c2.6-0.1,4.8,2,4.9,4.5c0.1,2.4-2.2,4.8-4.5,4.9
			C253.6,342.8,251.8,340.9,251.9,337.8z"/>
		<path class="st0" d="M287.3,337.9c0,2.7-2.1,5-4.4,4.9c-2.5-0.1-4.5-2.2-4.4-4.8c0.1-2.7,1.3-4.5,4.1-4.6
			C285.3,333.3,287.3,335.3,287.3,337.9z"/>
		<path class="st0" d="M606.8,380.4c2.6-3.9,1.5-8.3,1.4-12.4c0-2.5,1-4.4,1.9-6.5c0.5-1.2,1.3-0.8,2.3-0.3c1.1,0.7,1.7,1.9,3.1,2.1
			c-0.2,5-0.5,10-0.6,15c-0.1,2.3-0.5,4.4-3,4.9C609.4,383.8,607.7,382.6,606.8,380.4z"/>
		<path class="st2" d="M569,325.4c-1.9,0.2-2.8-0.3-1.4-2.2C568.5,323.6,568.6,324.6,569,325.4z"/>
		<path class="st2" d="M274.2,357.9c0,3.7-2.3,7.3-4.6,7.3c-2,0-4.4-4-4.3-7.2c0-1.5,3.2-4.8,4.5-4.8
			C270.9,353.2,274.2,356.8,274.2,357.9z"/>
		<path class="st2" d="M395.7,317.2c0.7,0,1-0.1,1.4,0c1.5,0.5,3.7-1.2,4.6,0.9c0.9,2-1.9,7.5-4.1,8.3c-2.4,0.9-4.4,0-5.7-2.1
			c-1.3-2-2.7-4.5-1.6-6.5C391.2,315.9,394,317.7,395.7,317.2z"/>
		<path class="st9" d="M470.9,376.3c-1.1-0.1-2.4,0.1-3.5,0.3c-1.3,0.3-2,1.1-1.8,2.5c0.1,1.3,0.9,1.9,2.1,2c0.8,0.1,1.7-0.1,2.6,0
			c1.2,0.1,3.1-1.5,3.2,1.4c0.1,2.3-0.3,3.7-3,3.3c-0.6-0.1-1.3-0.1-1.9,0.1c-1.2,0.4-2.8,0.5-2.5,2.3c0.2,1.6,1.3,2.4,3,2.2
			c0.5-0.1,1.1,0.1,1.6,0c2.2-0.4,3.1,0.4,2.8,2.7c-0.2,2.1,0.5,4.6,0.3,6.6c1.3,1.1,2.6,2.1,4,3.1c5.6,3.7,12.5,4.3,19,4.4
			c7.4,0.1,14.9-0.5,22.3-0.2c5.5,0.2,10.8,1.2,16.2,2c5.3,0.8,10.7,1.6,16.1,1.8c4.3,0.1,9.2,0.2,12.9-2.4c2.2-1.6,3.9-3.7,5.6-6
			c-1.3-0.2-1.8-0.9-1.6-2.8c0.4-4-1.2-8.5,3.4-11.3c-0.1-1.5-0.3-2.8-2.3-3.1c-2-0.3-1-2.2-1.2-3.4c-0.1-1.5,1.3-1,2.1-1.1
			c1.9-0.4,4.6,1.4,5.7-1.7c-0.6-2.6-2.6-2.7-4.7-2.7c-1.3,0-2.9,0.4-3.5-1.4c-0.8-2.5,0-3.6,2.7-3.7c2.1,0,5.3,0.9,5.3-2.3
			c0-2.8-3.2-2.2-5.2-2.2c-2.4,0-3.2-0.8-3.9-3.2c-1.4-4.9-1.4-9.2,1.3-13.7c2-3.4,2.7-7.5,3.1-11.5c0.6-5.4-1-8-6.2-9.9
			c-6.2-0.3-11.8,1.9-17.2,4.3c-1.4,0.6-2.4,0.9-3.9,0.1c-15.3-7.4-30.7-7-45.9,0.3c-1.1,0.6-1.9,0.4-2.9-0.1
			c-4.1-1.8-8.3-3.4-12.8-4.1c-8.9-1.5-13.3,2.8-11.6,11.5c0.6,3.1,1.5,6.1,2.3,9.2c1.1,2.2,2.2,4.3,3.4,6.4c0.4,0.8,0.2,1.4,0,2.1
			c-0.5,1.7-1.2,3.4-1.3,5.2c-0.2,2.9-1.7,3.8-4.4,3.4c-0.4-0.1-0.9,0-1.3,0c-1.7,0.1-3.4,0.5-3.4,2.5c0,2.2,1.9,1.9,3.3,2
			c0.6,0.1,1.3-0.1,1.9,0c1.1,0.2,3-1.1,2.9,1.6C473.6,374.8,473.7,376.6,470.9,376.3z M552.3,335.8c3.2-1.5,6.7-2.4,10.2-2.6
			c2.4-0.2,3.7,1.4,3.6,3.8c-0.3,4.1-1.4,8-3.7,11.5c-0.1,0.1-0.2,0.2-0.3,0.4c-0.1-0.2-0.3-0.3-0.4-0.5c-0.1-0.2-0.3-0.4-0.4-0.7
			c-2.9-3.2-5.7-6.3-8.6-9.5C550.9,337.7,550.2,336.8,552.3,335.8z M547.7,341.5c6.9,5.4,11.6,12.4,13.5,21.1
			c0.5,2.2,0.5,3.5-2.3,3.1c-0.7-0.1-1.5,0.2-2.2,0.4c-1.1,0.4-1.2,1.4-1,2.4c0.2,1.3,1.3,1.4,2.5,1.5c1.9,0.1,4.2-0.6,4.3,2.7
			c0.1,2.4-0.4,3.4-2.9,3c-0.7-0.1-1.5,0-2.2,0.1c-1.1,0.2-1.6,1-1.5,2.1c0,1,0.6,1.6,1.6,1.7c0.9,0.2,1.9,0.1,2.9,0.2
			c1.2,0.1,2.8-0.3,2.7,1.7c-0.1,1.4,1.3,3.7-1.8,3.7c-1.1,0-1.4,0.8-1.5,1.7c-0.1,1,0.1,2,1.3,2.2c2.1,0.3,2.2,1.7,2.1,3.2
			c0,0.6,0,1.3,0,1.9c-0.2,2.6,1.2,6.1-0.7,7.6c-2.6,2.1-6.4,2.9-10,2.9c-13.2,0-26.4-0.1-39.6-0.2c-3.9,0-7.8-0.3-11.6,0
			c-7.2,0.7-14-0.7-20.8-3.1c-1.3-0.4-2-1-1.9-2.4c0.1-2,0.1-4,0-6c-0.1-2.4,0.1-4.2,3.2-4.1c1.2,0.1,1.7-0.8,1.7-1.9
			c0-1.2-0.7-2-2-1.9c-2.1,0.1-3-0.4-3-2.8c0-2.7,1.7-2.4,3.4-2.4c0.8,0,1.7-0.2,2.5-0.4c1.1-0.3,1.4-1.2,1.4-2.2
			c-0.1-1.1-0.8-1.4-1.7-1.6c-0.8-0.1-1.7-0.1-2.6-0.2c-1.1-0.1-2.9,0.8-2.7-1.4c0.1-1.5-0.4-3.4,2.2-3.9c1.7-0.3,4.9,0.7,4.6-2.4
			c-0.2-3-3.2-1.5-5-1.9c-0.3-0.1-0.6-0.1-1.1-0.2c1.2-8.9,5.7-16.2,12.2-22.1C507.3,329.4,530.8,328.5,547.7,341.5z M475.3,336.3
			c0.1-1.8,1.2-2.6,3-2.7c3.9-0.2,7.6,0.9,11.2,2.3c1.8,0.7,1.4,1.6,0,2.3c-3,3.2-6,6.4-9,9.7c-0.3,0.8-0.6,1.6-1,2.9
			C476.8,346,475.1,341.4,475.3,336.3z"/>
		<path class="st0" d="M382.3,328.2C382.3,328.2,382.3,328.2,382.3,328.2C382.3,328.2,382.3,328.2,382.3,328.2
			C382.3,328.2,382.3,328.2,382.3,328.2z"/>
		<path class="st0" d="M407.1,153.6c5.5,0,10.4-3.3,11.6-7.2c0.6-2.1,0.4-4-1.5-5.3c-1.9-1.4-3.5-0.4-5,0.9c-3.6,3-5,3.1-8.5,0.2
			c-1.8-1.4-3.6-2.4-5.6-0.7c-2.1,1.8-2.1,4.1-0.9,6.3C399.4,151.9,403.2,153.4,407.1,153.6z"/>
		<path class="st0" d="M264.6,171.1c0.4-2.1-0.8-3.6-2.2-4.9c-3-2.9-6.6-3.2-10.4-1.8c-4.3,1.7-6.8,5.7-6.9,11.4
			c0.1,0.4,0.1,1.5,0.4,2.5c0.5,2.3,1.8,3.8,4.4,3.5c2.4-0.3,3.2-2,3.2-4.2c0-1,0.1-2.1,0.1-3.1c0.1-1.4,0.5-2.5,1.9-3
			c1.5-0.6,2.4,0.3,3.2,1.4c0.9,1.2,2,2,3.6,1.4C263.3,173.5,264.4,172.5,264.6,171.1z"/>
		<path class="st0" d="M291.6,172.3c2-2.1,4.1-1.5,4.8,1.4c0.4,1.7,0.5,3.5,0.7,5.2c0.3,1.9,1.4,2.9,3.3,3c1.8,0.1,3.3-0.6,3.8-2.4
			c0.3-1.1,0.4-2.3,0.4-2.5c0.1-3.6-0.6-6.1-1.9-8.3c-3.7-6.2-12.9-6.7-16.4-0.9c-1.2,1.9-1.7,4,0.3,5.7
			C288.6,175.1,290,173.9,291.6,172.3z"/>
		<path class="st0" d="M349.8,177.5c-0.4,1-0.7,2-1.1,2.9c-0.2,19.2-1.6,38.3,0.8,57.6c0.4-0.2,0.8-0.3,1-0.5c1-1,1.9-2,2.9-3.1
			c1.6-0.8,3.1-1.9,4.1-3.4c0,0,0,0,0,0c0.2,0,0.3-0.1,0.4-0.2c-0.1-0.2-0.3-0.5-0.4-0.7c-3-0.2-3.5,2.2-4.4,4.1l0,0
			c-3,0.6-2.8-1.5-2.8-3.4c0-16.4,0-32.9,0-49.3C350.4,180.2,350.9,178.7,349.8,177.5z"/>
		<path class="st0" d="M777.2,59.7c-3.8-0.1-6.5,2.6-6.5,6.5c0,3.8,2.5,6.6,6,6.6c3.7,0,6.9-3.1,6.9-6.8
			C783.6,62.6,780.7,59.8,777.2,59.7z"/>
		<path class="st0" d="M242.3,31.3c-3.3-0.1-5.9,2.2-6,5.5c-0.2,3.4,2.1,6.1,5.2,6.3c3.4,0.2,6.2-2.5,6.2-6.1
			C247.8,33.8,245.5,31.4,242.3,31.3z"/>
		<g>
			<path class="st0" d="M51.5,156.5c0.3,2.4-0.9,4.4-2.2,6.2c-3.9,5.5-8.8,10.1-13.9,14.6c-2.2,1.9-4.9,2.5-7.1,0.5
				c-5.2-4.8-10.7-9.4-14.4-15.5c0.2-1.4,0-2.7-0.4-4c-1.5-4.6,0.8-8.3,3.7-11.3c3.2-3.4,7.7-3,11.7-1.6c2.4,0.8,4.3,1,6.6-0.2
				c1.4-0.7,2.7-2.3,4.7-1.8c3.8,0.9,9.3,7.4,9.9,11.5C50.2,155.6,50.5,156.3,51.5,156.5z M26.5,152.8c-2.9-0.3-4.5,1.5-3.9,3.9
				c0.1,0.5,0.3,1,0.6,1.4c2.6,2.9,5,7.2,8.5,8c3.1,0.6,5.2-3.9,7.7-6.4c1.6-1.6,2.7-3.5,1-5.6c-1.7-2.3-3.8-1.9-5.9-0.4
				c-1.8,1.3-3.5,1.6-5.5,0.2C28.1,153.2,27,153,26.5,152.8z"/>
			<path class="st1" d="M26.5,152.8c0.6,0.2,1.6,0.4,2.4,1c1.9,1.4,3.7,1.2,5.5-0.2c2.1-1.5,4.1-1.8,5.9,0.4c1.7,2.2,0.6,4-1,5.6
				c-2.4,2.4-4.6,7-7.7,6.4c-3.5-0.7-5.8-5-8.5-8c-0.3-0.3-0.5-0.9-0.6-1.4C22,154.2,23.6,152.5,26.5,152.8z"/>
			<path class="st0" d="M34,143.8c-1.6,0.7-2.7,0.4-4.2-0.2c-5.2-2.4-11.1-1-14.6,3.1c-3.2,3.6-4.5,11.9-0.9,15.6
				c0.2-1.4,0-2.7-0.4-4c-1.5-4.6,0.8-8.3,3.7-11.3c3.2-3.4,7.7-3,11.7-1.6c2.4,0.8,4.3,1,6.6-0.2c1.4-0.7,2.7-2.3,4.7-1.8
				c3.8,0.9,9.3,7.4,9.9,11.5c0.1,1,0.4,1.7,1.4,1.8C52.2,146,43.5,139.7,34,143.8z"/>
		</g>
		<path class="st0" d="M385.6,130.7c-0.1-2.9-2.4-5-5.2-4.9c-3.1,0.2-5,2.3-4.8,5.6c0.1,3,2.4,5.2,5.1,5.1
			C383.3,136.3,385.6,133.6,385.6,130.7z"/>
		<path class="st0" d="M439.7,130.9c-0.1-2.9-2.3-5.2-5-5.2c-2.9,0-5.2,2.4-5.2,5.4c0,3.2,2.2,5.4,5.2,5.3
			C437.7,136.4,439.7,134.1,439.7,130.9z"/>
		<g>
			<path class="st0" d="M288.3,186.4C288.3,186.4,288.3,186.4,288.3,186.4C288.3,186.4,288.3,186.4,288.3,186.4L288.3,186.4z"/>
			<path class="st0" d="M288.3,186.7c0-0.1,0-0.2,0-0.2c0,0-0.1,0-0.1,0c-1.1-1.8-3-1.7-4.8-1.7c-5.5-0.1-11-0.1-16.4,0
				c-6.1,0.1-7.9,2.6-6.5,8.8c-0.1,0-0.2,0.1-0.3,0.1c0.1,0.5,0.1,0.9,0.2,1.4c2.7,3,3.1,7,4,10.7c3.5,4.6,8.2,6.1,13.6,4.6
				c5.8-1.6,9.1-5.7,10.4-11.6c0-0.1,0-0.1,0-0.2C289.6,194.5,290.8,190.6,288.3,186.7z M280.6,194.9c-0.3,3.8-2.9,6.9-5.8,7
				c-2.8,0.1-5.7-3.5-6.1-7.1c-0.2-1.6,0.4-2.1,1.9-2.1c2.7,0.1,5.4,0.1,8,0.1C280.4,192.7,281,193.4,280.6,194.9z"/>
		</g>
		<path class="st0" d="M264.7,205.7c-0.9-3.7-1.3-7.6-4-10.7C261.1,198.9,261.8,202.7,264.7,205.7z"/>
		<path class="st0" d="M188.1,111.7c-0.8-0.1-1.6-0.2-2.4-0.3C186.5,111.8,187.3,112,188.1,111.7z"/>
		<path class="st0" d="M597.5,117c3,0,5.3-2.4,5.4-5.3c0-3.1-2.2-5.3-5.3-5.2c-2.9,0-5.1,2.4-5.1,5.4
			C592.5,114.8,594.7,117,597.5,117z"/>
		<path class="st0" d="M647.3,111.7c0-3-2.2-5.3-5.2-5.3c-2.9,0-5.1,2.3-5,5.5c0,2.8,2.3,5,5.2,5
			C644.9,116.9,647.2,114.5,647.3,111.7z"/>
		<path class="st0" d="M625,118.3c0-2.9-2.5-5.2-5.4-5.1c-2.9,0.1-4.8,2.3-4.7,5.4c0.1,2.8,2.4,5.1,5.1,5
			C622.6,123.5,625,121,625,118.3z"/>
		<path class="st0" d="M161.8,156.4c6,0,12.7-5.1,13.9-10.5c0.5-2.5,0.5-5.1-2.4-6.2c-2.8-1.1-4.3,0.5-5.4,2.9
			c-1.2,2.5-2.9,4.6-6.1,4.5c-3.1-0.1-4.9-1.9-6.1-4.5c-1.1-2.5-2.8-3.9-5.5-2.8c-2.8,1.2-3,3.7-2.3,6.2
			C149.5,151.9,155.7,156.5,161.8,156.4z"/>
		<path class="st0" d="M138.7,130.6c-0.1-2.7-2.4-4.8-5-4.8c-3,0.1-5.1,2.3-5.1,5.4c0,3,2.1,5.2,4.9,5.2
			C136.4,136.4,138.9,133.6,138.7,130.6z"/>
		<path class="st0" d="M189.6,136.5c2.7,0,5.2-2.7,5.1-5.6c0-2.8-2.3-5.1-5.1-5.1c-3,0-5.1,2.2-5,5.5
			C184.7,134.2,186.9,136.5,189.6,136.5z"/>
		<path class="st0" d="M406.6,309.3c-1.8,0-3.6,0-5.4,0c-3.6-0.3-7.2-0.2-10.8,0.1c-1.6,0-3.2,0-4.8,0.1c-2.6,0-4.3,1.6-4.4,4.1
			c0,1.2,0,2.3,0,3.4c0,1.1-0.3,2.3,0.1,3.4c0.4,1.2,1,2.4,1.3,3.6c0.2,0.8,0.4,1.6,0.7,2.3c0.3,0.8,0.8,1.3,1.3,1.9
			c1.1,1.2,2.2,2.3,3,3.7c2,3.5,6.8,4,10.4,3.4c1.7-0.2,3.3-0.8,4.7-1.7c1.6-1,3-2.4,4-3.9c3.4-4.9,4.2-10.5,4.1-16.2
			C411.1,311,409.4,309.3,406.6,309.3z M397.7,326.9c-2.7,1-4.9,0-6.4-2.3c-1.4-2.2-3-5-1.8-7.2c1.1-2.2,4.3-0.2,6.1-0.7
			c0.7,0,1.1-0.1,1.5,0c1.7,0.5,4.1-1.4,5.2,1C403.3,319.9,400.2,326,397.7,326.9z"/>
		<path class="st0" d="M371.7,300.7c2-1.9,3.8-2.4,5.9-0.1c1.2,1.2,2.7,1.3,4.1,0.2c1.4-1.1,1.5-2.7,0.8-4.1
			c-1.4-3.2-4.1-4.6-7.3-4.8c-3.7,0.1-6.5,1.4-8.2,4.6c-0.8,1.6-0.9,3.2,0.6,4.4C369,302.1,370.5,301.9,371.7,300.7z"/>
		<path class="st0" d="M411.3,301.1c1.3,0.7,2.6,0.7,3.6-0.3c2.1-2.3,4-2.1,6.2,0c1.2,1.2,2.8,1.3,4.1,0.1c1.4-1.3,1.4-2.9,0.6-4.5
			c-1.5-3.2-5.6-4.9-9.5-4c-3.7,0.9-6.3,3.4-6.3,6.1C410,299.6,410.2,300.6,411.3,301.1z"/>
		<path class="st0" d="M530.8,177.7c-2.4,1.9-4.6,2.3-7.2,0.1c-1.6-1.4-3.7-1.7-5.4,0.1c-1.8,1.9-1.7,4-0.3,6
			c2.2,3.2,5.5,4.1,9.3,4.5c3.4-0.4,6.6-1.5,9-4.4c1.6-2,2.2-4.2,0.2-6.3C534.7,175.8,532.6,176.3,530.8,177.7z"/>
		<path class="st0" d="M507.5,156.7c-5.5,0-9.1,2.1-10.6,5.7c-0.7,1.7-1,3.4,0.7,4.7c1.8,1.5,3.3,0.6,4.6-0.7
			c2.6-2.8,5.1-3.4,7.9-0.2c1.2,1.3,2.8,1.8,4.3,0.4c1.7-1.4,1.9-3.1,0.7-5C513.3,158.3,510.4,156.7,507.5,156.7z"/>
		<path class="st0" d="M549.2,156.8c-4.6-0.1-8.8,2.4-9.9,5.8c-0.2,0.5-0.2,1.1-0.3,1.4c0,1.6,0.5,2.5,1.6,3.2
			c1.5,0.8,2.6,0.1,3.8-0.7c4.2-3.2,4.2-3.2,8.5,0.1c0.2,0.1,0.4,0.3,0.5,0.4c1.2,0.9,2.5,1.3,3.8,0.3c1.4-1,1.8-2.4,1.4-4
			C557.9,159.8,553.5,156.9,549.2,156.8z"/>
		<path class="st0" d="M147.9,274.5c-3-0.2-5.5,2.2-5.5,5.5c0,2.9,2.1,5.2,4.9,5.3c2.8,0.1,5.3-2.4,5.4-5.3
			C152.8,277,150.8,274.7,147.9,274.5z"/>
		<path class="st0" d="M171,267.7c-2.9,0-4.9,2.1-5,5.1c-0.1,3.1,1.9,5.2,4.8,5.2c2.8,0,5.1-2.2,5.2-5
			C176.1,269.9,173.9,267.6,171,267.7z"/>
		<path class="st0" d="M127.2,269c-2.1-1.8-4.5-1.8-6.7,0c-2.1,1.7-2.2,4.6-0.4,7.1c-0.1,0.2-0.1,0.3-0.2,0.5l0.1,0.2
			c0,0,0.2,0,0.2,0c0.2-0.1,0.4-0.1,0.6-0.1c2.7,1.7,4.8,1.5,6.7-0.7C129.2,273.9,129.1,270.7,127.2,269z"/>
		<path class="st0" d="M635.5,319.6c5.9-0.1,12-5,12.6-10.2c0.2-2-0.2-3.9-2.2-4.7c-2-0.8-3.6,0-4.8,1.8c-0.4,0.7-0.9,1.4-1.4,2
			c-2.1,2.8-5.1,2.9-7.3,0.3c-0.5-0.6-1-1.3-1.4-2c-1.2-1.8-2.8-3-5-1.9c-2.2,1.1-2.7,3-2.2,5.3C625,315.3,630.4,319.6,635.5,319.6z
			"/>
		<path class="st0" d="M658.8,300.3c2.6,0.2,5.2-2.1,5.3-4.9c0.2-2.8-1.8-5-4.5-5.1c-2.8-0.1-4.9,1.8-5.1,4.6
			C654.2,297.6,656.2,300.1,658.8,300.3z"/>
		<path class="st0" d="M608.5,368.1c0-2.5,1-4.4,1.9-6.5c0.5-1.2,1.3-0.8,2.3-0.3c1.1,0.7,1.7,1.9,3.1,2.1c0.2-0.1,0.4-0.2,0.5-0.2
			c0.1-2.7-1.3-4.3-3.9-4.4c-2.8-0.2-4.3,1.7-4.6,4.3c-0.6,5.7-0.9,11.4-1.3,17.1c0.2,0.1,0.4,0.2,0.7,0.3
			C609.7,376.6,608.6,372.2,608.5,368.1z"/>
		<path class="st0" d="M706.9,140.4c-1.7,0.5-3,2.1-4.9,1.9c0.2-0.8,0.4-1.6,0.6-2.3c6.4-20.9,12.2-41.9,19.3-62.6
			c3.4-9.9-0.6-19.4-9.3-23.8c-8.8-4.5-19-1.9-25.2,6.3c-2.8,3.7-4.1,8.1-5.7,12.3c-1.4,3.6-2.8,7.2-4.5,11.4
			c-5.9-28-28.3-46.1-56.1-45.9c-13.9,0.1-26.3,4.5-37.4,12.8c-2.9,3-5.7,6-8.6,9l0,0.1c-0.2,0.2-0.4,0.5-0.6,0.7
			c-0.5,1.1-1.1,2.2-2.1,2.9c-0.1,0.2-0.2,0.4-0.3,0.6c0.1,0.4-0.1,0.6-0.5,0.6c0,0,0,0,0,0c-1.2,2.3-2.3,4.7-3.5,7
			c-1.1,4.5-2.2,8.9-2.4,13.6c-0.1,3.4,0.5,6.4,3,8.9c0,0,0.1,0.1,0.1,0.1c0.9,0,1.9,0.1,2.8,0.1c0.4-0.1,0.7-0.2,1.1-0.3
			c1.6-1.4,2.1-3.3,2.2-5.4c1.5-32.6,38-48.8,65.7-36.5c1.7,0.7,3.2,1.8,4.8,2.7c5.1,1.7,8.3,5.9,11.5,9.7
			c8.3,9.9,12,21.6,12.4,35.4c-6.1-4.5-10-9.7-12.6-15.8c-2.2-5-2.8-10.3-3-15.7c-0.2-5.9-4.2-9.9-9.8-10.3l-0.2,0.1
			c-0.2,0.1-0.3,0.3-0.5,0.4c-0.1,0.1-0.2,0.2-0.3,0.2c-0.2,0.5-0.2,1.1-1,0.8c-3.6-1.2-7.2-2.7-11-3.5
			c-25.3-5.1-45.5,7.2-54.3,31.8c-1.4,4-1.1,8.3-0.3,12.5c0.4,2,1.2,3.7,3.6,3.5c2.2-0.3,3.2-1.8,3.2-3.9c0-3,0-6.1-0.1-9.1
			c-0.1-2.5,0.4-3.1,3.1-2.3c17.1,5.4,33.4,3.9,48.7-5.9c3.1-2,5.7-4.7,8.9-7.4c0.4,1.8,0.8,3.5,1.2,5.1
			c3.1,12.5,10.1,22.5,20.4,30.1c2.3,1.7,2.7,3.2,1.8,5.8c-2.5,7.3-5.5,14.4-9.7,20.9c-0.8,1.2-1.5,2.1-3,1.8c-5.5,0-11,0-16.5,0
			c5.5,0,11,0,16.5,0c-4.7-1.8-9.7-1.8-14.6-2.1c-1.3-0.1-2.8,0.6-3.9-0.7c0.2-0.2,0.3-0.4,0.5-0.6c1.8-0.1,3.2-1.2,4.4-2.3
			c2.6-2.4,3.2-5.2,1.6-7c-1.9-2.3-4.1-2.3-7.3,0.1c-10.4,7.6-18.8,7.6-29.3-0.3c-2.1-1.6-4.2-2.3-6.2-0.1c-2,2.2-1.3,4.4,0.4,6.3
			c2.9,3.1,6.2,5.7,10.3,6.9c0,0,0.2,0.1,0.2,0.1c2,1.6,4.4,1.7,6.7,2c-2.8,1.5-5.7,3.1-8.5,4.6c-1.4,0.7-2.7,0.4-4-0.2
			c-3.7-1.4-7.3-3.2-10.7-5.2c-1.8-1.1-2.8-0.9-2.4,1.6c0.3,1.7,0.4,3.5,0.3,5.2c-0.1,2.7,0.5,4.8,3.3,5.9c2,0.8,2.3,2.1,0.4,3.6
			c-0.9,0.7-1.8,1.5-2.4,2.5c-1.8,3.1-3,2.1-4.5-0.3c-0.8-1.3-1.1-2.5-1.2-4c-0.6-19.3-5.6-37.1-17.9-52.3c-0.1-0.2-0.2-0.4-0.3-0.6
			c0,0,0.1,0.1,0.1,0.1c-0.2-0.3-0.5-0.5-0.7-0.8c0,0,0,0,0,0c-0.7-0.7-1.4-1.5-2-2.2c-1.9-1.4-3.5-3.1-4.8-5c0,0-0.1-0.1-0.1-0.1
			c-0.2-0.2-0.4-0.4-0.7-0.6l0,0c-3.7-2.5-6-5.5-6.4-10.3c-0.5-6.3-3.1-12.3-4.9-18.4l-0.2-0.1l0-0.2c-0.4-0.8-0.8-1.7-1.3-2.5l0,0
			c-1.6-1.9-3.3-3.7-4.9-5.6c-0.2-0.2-0.5-0.4-0.7-0.6c-0.4-0.2-0.7-0.5-1.1-0.7c0,0-0.2,0-0.2,0l-0.1-0.2c-1-0.2-2-0.6-2.8-1.3
			c-5.7-2.1-11.3-1.5-16.8,0.9c0,0,0.1-0.1,0.1-0.1c-1,0.6-2,1.3-3,1.9c-5.8,5.3-8.4,11.7-6.4,19.5c0.5,2,0.2,3-2.1,3.3
			c-2.1,0.3-4.2,0.8-6.1,1.5c-2.6,1-2.7-0.1-2.4-2.2c1.1-6.2,2.1-12.4,3.2-18.7c1.3-7.7,3.2-15.4,3.9-23.1
			c1-10.4-7.2-19.7-17.6-20.9c-10.2-1.2-19.9,6.1-21.5,16.4c-1.6,9.9-3,19.9-4.5,29.8c-0.9,6.3-1.9,12.7-2.9,19.7
			c-6.4-11.5-14-20.7-25.1-26.6c-0.5-0.3-0.9-0.8-1.4-1c-19.1-9.6-38.3-9.3-57.4-0.2c-3.8,1.8-7.6,4.2-10.5,7.5
			c-1.6,1.9-3.2,3.9-0.9,6.4c0.2,1,0.8,1.6,1.8,1.7c2.9,2.6,4.3-0.1,6-1.7c-0.3,0-0.5,0.1-0.8,0.1c0.3-0.1,0.5-0.1,0.8-0.1
			c0.2-0.2,0.4-0.4,0.6-0.6c0.4-0.3,0.7-0.5,1.1-0.8c9.9-6.6,20.9-9.8,32.8-9.2c11.6,0.6,21.9,4.3,30.1,13c0.4,0.5,1.8,0.8,0.8,1.8
			c-0.9,1-1.4-0.3-1.9-0.6c-3.8-2.3-7.7-4.2-11.8-5.8c-19.1-7.5-40.9-2.8-54.5,11.9c-7.6,8.2-11.6,18.2-14.2,28.9
			c-1.3,5.3-0.4,6.7,5,5.7c17.3-3.3,31-12,39.9-27.5c0.4-0.7,0.4-1.9,1.8-2.2c3.1,6.6,6.9,12.7,12.5,17.4
			c10.3,8.6,22.3,13.1,35.4,14.6c2.9,0.3,3.6,1.4,3.6,4.1c0.3,14.8-4.5,27.4-15.6,37.4c-19.6,17.7-52.6,16-70.5-3.4
			c-9.8-10.7-13.9-23.7-14.9-37.7c-1-13.4,1.1-26.1,9.7-37.1c0.4-0.5,0.6-1,0.9-1.5c1.1-2.1,0.9-4.2-0.9-5.7c-1.8-1.5-3.9-1-5.5,0.2
			c-1.4,1.1-2.6,2.7-3.8,4.1c-1,1.3-1.9,2.7-3.1,4.5c-0.6-3.8-1.2-7.1-1.7-10.3c-2-12.7-3.8-25.4-6.2-38.1
			c-1.8-9.5-9.5-15.4-19-15.4c-9.7,0-17.2,6.1-19.4,15.6c-1.3,5.5,0.8,10.6,1.8,15.9c4.2,22.2,8.4,44.3,12.7,66.5
			c0.2,1.2,0.1,2.7,1.4,3.5c4.2,2.5,6.9,6.7,10.6,9.7c-3-22.9-8.1-45.5-12.1-68.2c-0.3-1.9-0.3-2.7,1.9-2.8c4.5-0.2,8.8-1.4,12.9-3
			c2-0.8,2.6-0.3,2.9,1.8c2.4,14.6,5.1,29.2,7.4,43.9c0.4,2.6-0.4,5.3-0.6,8c-1.2,21.6,4.4,40.6,20.1,56.1c3.7,3.7,7.8,6.7,12.5,8.9
			c2.5,1.2,3,2.7,2.9,5.2c-0.5,11.6,4.3,20.7,14.9,25.6c18.4,8.5,38.9-3.6,38.2-23.4c-0.1-4.1,0.9-6.5,4.6-8.5
			c8.8-4.8,15.5-11.9,20.7-20.5c0.6-1,1.4-1.9,2.1-2.8c2.2-6.9,4.5-13.8,6-21c1.2-14.6,3.3-29.1,5.5-43.5c1.2-9.1,2.4-18.1,3.5-27.2
			c0.3-2.6,1-3.7,3.5-1.8c0.5,0.4,1.2,0.7,1.8,1c4.2,0.3,8.1,2.3,12.4,2.3c2.1,0,1.2,2,1,3c-0.9,6.5-2.3,12.9-2.9,19.4
			c-0.5,5.6-2.4,9.6-7.4,12.7c-4.4,2.7-7.5,6.9-10.3,11.3c-1.7,2.7-1.9,5,0.4,7.4c3.9,1.4,6-1,8.1-3.7c14-17.5,37.1-23.7,57.2-15.2
			c5.8,2.4,11.4,5.5,14.4,11.4c0.5,0.9,1.7,2.2,0.5,3.1c-1.1,0.9-2.3,0.1-3-1.2c-0.7-1.2-2.1-1.7-3.3-2.2c-4.3-3.1-9.1-5-14.2-6
			c-14.6-2.8-28.1-0.7-39.9,9c-7.9,5.8-13.6,13.4-17.4,22.3c-4.1,9.6-7.5,19.6-10.3,29.7c-2.4,8.5-1.5,16.9,3.3,24.5
			c1.5,2.4,0.9,4.5,0.1,6.8c-1.2,3.3-2.5,6.5-4.2,9.9c1.8-9.9-1.5-18.4-6.6-26.5c-5.7,1.1-6.9,3.1-4.5,8.5c0.9,1.9,0.9,3.8,1,5.8
			c0.8,20.9,0.2,41.7,0.6,62.6c0,1.5-1,3.6,1.3,4.6c0.2-0.1,0.5-0.2,0.7-0.4c1.2-1.2,2.3-2.8,3.7-3.6c3.4-2,3.6-4.9,3.5-8.3
			c-0.3-7.7,0.5-15.2,4.4-22c6.1-10.7,18.6-15.6,30-11.8c0.5,0.2,1.3,0.2,1.2,0.9c-0.1,1-0.5,1.9-1.4,2.2c-1.1,0.4-2.3,0.4-3.4,0.6
			c-15.6,1.8-24.8,12.2-24.7,27.8c0,0.5,0,0.9,0,1.4c0.6,3.9,0,7-4.7,8c-3,0.6-3.6,4-5.7,5.7c-0.7,0.9-1.1,2-1.4,3.1
			c-1.9,5.6-2.8,11.6-6.2,16.8c-6.7-28.8-23.9-46.5-53.8-48.2c-29.1-1.6-49.2,12.1-58.6,40.5c-1-3-1.7-5.8-3-8.5
			c-4.7-10-16.9-13.8-26.4-8.1c-8.7,5.3-11.9,14.3-8.7,25c3.7,12.3,8.1,24.4,13,36.2c9.3,22.4,17.1,45.5,27.9,67.3
			c0.5,0.9,0.8,2,0.8,3c0.1,6.2,0,12.4,0.1,18.6c0,1.6-0.3,2.8-2.2,2.9c-0.6-0.3-1.2-0.3-1.8-0.1l-0.2,0.1c0,0-0.2-0.1-0.2-0.1
			c-1-0.4-2-0.4-3-0.1c-5.1,0.5-10.1,0.6-15.2,0c-0.6,0-1.1,0-1.7,0c-4.7-0.3-4.7-0.3-4.8-5.3c0-1.6,0-3.3-0.1-4.9
			c-0.6-13.2,0.5-26.4-2.5-39.5c-0.3-1.4,0.5-2.2,1.2-3.1c2.6-3.6,5.4-7.1,7.8-10.8c2-3,1.4-6.1-1.2-7.6c-3-1.7-4.8,0.2-6.5,2.3
			c-1.6,2-2.3,4.5-4.5,6.4c-1.4-4.6-3.6-8.6-6.2-12.3c-1.2-1.8-1.1-2.9-0.2-4.7c2.4-4.4,2.1-8.7-1.1-12.7c-1.2-2.7-3.5-4.3-6-5.7
			c-9.1-5-16.7-3.2-22.6,5.3c-0.5,0.8-1,1-1.9,1.1c-3.4,0.3-5.9-0.4-8.1-3.5c-4.5-6.3-13.4-7.2-20.8-2.7c-7.8,4.8-10,11.3-6.5,19
			c0.4,1,1.1,1.7,0.2,2.8c-3.4,4.3-5.3,9.5-7.9,14.8c-2.2-3-4.2-5.6-6.2-8.3c-1.7-2.3-3.9-3.5-6.7-1.9c-2.5,1.4-2.9,4-1.2,7
			c0.5,0.9,1,1.8,2,2.4c0.2,0.2,0.3,0.4,0.5,0.6c1.8,3.6,4.9,6.1,7.6,9c1.3,1.3,1.6,2.6,1.3,4.4c-2.3,15.6-1,31.2-1,46.9
			c0,0-0.3,0-0.3,0c0.2,0.4,0.1,0.7-0.4,0.7c-0.3,0-0.6,0.1-1,0.1c-8.7,0.4-17.4,0.4-26.2,0.1c-0.8-0.1-1.6-0.1-2.4-0.2
			c-0.7-6.3-0.3-12.5-0.3-18.8c0-11.1,0.1-22.1,0.2-33.2l-0.2-0.2c0,0,0.2-0.2,0.2-0.2c0.4-4.1,3.5-6.9,5.1-10.4
			c6.3-14.3,11.4-29.1,17.2-43.7c4.9-12.5,10.1-24.9,14.8-37.5c3-8.1,0.5-16.2-6.4-22c-5.8-5-13.9-5.8-20.9-1.8
			c-2.2,1.3-2.7,0.9-3.4-1.4c-8-26.4-34.9-41.2-60.3-38.5c-3.4,0.4-6.7,0.9-9.8,2.4c-2.8,1.3-3.3,3.6-2.7,6.2
			c0.6,2.5,2.9,2.8,5.1,2.6c1.5-0.2,3-0.7,4.5-0.9c13.4-2.1,25.8,0.5,36.7,8.8c10.7,7.1,16.6,17.2,18.3,30
			c-6.2-8.4-12.4-16.8-21.1-22.8c-1.2-0.7-2.4-1.5-3.6-2.2c-10.2-6-21.1-8.7-32.9-7.6c-17.2,1.7-28.5,14.2-30.2,32.7
			c-0.1,1.6,0.2,3.4-1.1,4.7c-2.6,2.6-2.9,5.8-2.6,9.2c-3.2-8.3-3.9-16.6-0.6-25.1c3.9-10,10.3-17.8,19.3-23.7
			c4.4-2.9,4.8-4.9,2.3-9.6c-3.4-0.5-6,1.4-8.7,2.8c-4.7,2.4-8.5,5.9-12,9.9c-0.3,0.5-0.8,1.1-1.2,0.8c-0.7-0.7,0.1-1,0.6-1.4
			c1.1-1.8,0-3.4-0.7-5c-9.5-23.1-16.6-47.1-24.9-70.7c-0.9-2.5-1-3.8,2.4-4.2c4.4-0.5,8.6-2.3,12.2-5c2.2-1.6,2.8-0.8,3.7,1.2
			c4.4,10.5,8.8,20.9,13.2,31.3c2.8,6.6,5.6,13.1,8.4,19.6c1.1,2.4,2.3,4.9,5.6,4c3.2-0.9,4-3.4,3.5-6.4c-0.4-2.2-1-4.5-1.6-7.3
			c3.7,2.7,6.6,5.5,10.6,6.2c1,0.2,1,1.2,1.2,2c1.4,4.8,4.2,8.8,7.3,12.6c4.8-0.1,9.6-0.3,15.2,0.7c-4.4-3.4-8-6.4-10.8-11.2
			c9.4,1.8,18.3,1.9,27.9,0.4c-2.4,4.8-5.4,8.2-8.9,11.6c3.1,1.3,6,2.5,8.8,3.6c1.7,0.1,2.4-1.3,3.3-2.3c3.1-3.8,5.4-8.1,7.3-12.7
			c0.6-1.6,0.5-4.4,3.1-3.8c2.2,0.5,1,3,1.1,4.6c0.6,7.8,0.7,15.6,0.4,23.4c3.8,5.2,8.9,9.4,11.9,16c1.3-3,1.6-5.3,1.5-7.7
			c-0.3-3.5-1.3-6.9-2.4-10.2c-2.5-7.2-2.4-14.5-0.3-21.7c0.7-2.5,1.2-5,1.3-7.6c0.3-7,5.5-11.3,9-16.6c0.5,15.1,0.6,15.1-4.1,26.1
			c-2.5,5.9-3.1,11.8-1.2,17.8c2.8,8.5,4.5,16.9,0.6,25.6c-1,2.1,0.2,2.3,2,1.8c3.3-1,7-1.9,10-0.4c5.1,2.6,7.3,0.4,9.9-3.7
			c3.8-6.1,9.9-9.7,16.3-12.7c-0.4-1.2-1.3-1.6-1.9-2.2c-4.9-4.5-9.1-9.5-11-15.9c-0.8-2.7-2.1-3.8-4.9-4.4
			c-6.6-1.2-9.6-11.2-5.1-16.2c1-1.1,1.7-1.5,2.6,0.1c1,1.9,2.8,3,5,2.4c2.3-0.7,2-2.8,2.1-4.7c0.2-5.6,0.2-5.8,5.6-7.2
			c14.8-3.9,27.4-11.2,37.3-22.9c1.6-1.9,2.3-1.5,3.6,0.3c8.1,12,19.9,18.9,33.3,23.2c5,1.6,9.1,3.2,8,9.5c0,0.1,0,0.2,0.1,0.3
			c0.7,3.2,3.2,4.1,5.6,1.8c1.1-1.1,2-2.5,2.9-3.8c2.8,3.1,3.7,7,2.4,10.7c-1.3,3.7-3.6,6.2-7.7,6.8c-1.3,0.2-2.5,0.3-3,1.9
			c-2.2,7.2-6.2,13.3-11.8,18.4c-1.1,1-1.5,1.7,0.3,2.4c12.8,5.3,19.6,15.4,22.5,28.5c0.8,3.8,4,3.9,6.7,4.7
			c2.4,0.7,3.4-1.5,4.5-3.2c0.6-1,1.1-2.1,1.5-3.1c2.6-6.3,2-12.6-0.1-18.9c-1.6-4.9-2.1-9.7,0-14.7c1-2.2,1.3-4.7,1.8-7.1
			c1.2-6.9-1-13.2-3.7-19.3c-1.7-3.9-2.9-7.8-2.3-12.2c0.6-4.2,0-8.4-0.9-12.5c-7.8-36.2-48.1-60.2-88-44.3
			c-6,2.4-11.6,5.8-17.4,9.5c0.2-3,1.7-4.7,3.5-6.3c0.1-0.4,0.2-0.9,0.4-1.3c0.5-1.4,0.7-3.5,1.7-4c2-1.2,0.9,2.7,2.8,2.3
			c4.5-2.7,8.9-6.2,14.2-6.5c5.7-0.4,7.7-3.8,9.1-8.4c0.3-1.1,0.7-2.2,1-3.4c2.2-10-5.5-21.3-15.9-23.3c-10.7-2-20.4,4.7-22.3,15.6
			c-0.6,3.2-1.1,6.4-1.8,9.6c-0.3,1.4-0.2,2.3,1.2,3.2c5.3,3.2,5.3,3.3,2.2,8.5c-0.2,0.3-0.3,0.6-0.4,1c-1,3.1-3.8,5.2-4.9,8.4
			c-0.4-2.1-1.5-4,0.9-5.9c1.6-1.3,0.9-3.4,0.7-5.3c0,0,0,0,0,0c-0.2-0.3-0.3-0.5-0.5-0.8c0,0-0.1-0.2-0.1-0.2
			c-1.3-1.1-2.5-2.1-3.8-3.2c-0.2,0.1-0.4,0-0.5-0.2c-1.4-0.5-1.1-1.5-0.9-2.6c0.9-5,0.5-9.9-0.2-14.8c-0.1-0.5-0.2-1-0.3-1.5
			c-0.8-1-0.9-2.2-1.2-3.4c-1.8-3.5-3.3-7.2-5.7-10.4c-14.7-19.7-41.1-27.5-64.2-18.8c-7.2,2.7-13.6,6.8-17.9,13.4
			c-2.8,4.3-2.5,6.7,0.8,9.4c2.8,0.5,4.4-1.5,6.3-2.8c3.3-5.1,8.2-8.3,13.7-10.2c15.9-5.5,30.7-3.2,44.2,6.9
			c5.5,3.9,9.7,8.8,11.9,15.3c-7.6-1.9-14.7-5.1-21.1-9.7c-4.7-1.6-9.1-3.8-14.1-4.7c-11.7-2.2-22.8-0.7-33.6,4.3
			c-1.8,1.3-3.7,2.3-6,2.6c-0.1,0.1-0.3,0.1-0.4,0.2c-0.3,0.4-0.6,0.5-1.1,0.3c-0.3,0-0.7,0.1-1,0.1c-1.1,0.5-2.3,0.9-3.4,1.4
			c-0.1,0.2-0.2,0.3-0.4,0.2c-0.7,0.7-1.4,1.2-2.4,1.3c-0.3,0.6-0.8,0.9-1.4,1.1c-0.5,0.3-1.1,0.7-1.7,1c-0.8,1-1.2,2.3-2.4,2.9
			c-2.6,5.4-5.3,10.7-5.9,16.7c0.1,4.7,1.1,9.5-1,14.2c-0.5,1.2-0.2,2.8-0.2,4.2c1.8,2.1,4.1,2.3,6.7,1.7c8.7-1.9,12.7-7.2,12.2-16
			c-0.1-2.2-0.4-4.4-0.2-6.6c0.6-6.8,6.2-12,13-12.7c2.3-0.2,3.4,0.7,4.2,2.7c6.3,17.5,20.2,25,37.3,28.1c0.7,0.1,1.4,0,2.1-0.1
			c0.8,0.1,1.6,0.2,2.4,0.3c0.8,0.1,1.5,0.2,2.3,0.2l0.3,0.1l0.3-0.1c1.9,0.3,3.8,0.3,5.7,0c1.6,0.2,3.3,0.1,4.8-0.5
			c2.3,0.4,4.5-0.2,6.5-0.8c2.5-0.7,3.1,0.3,3.6,2.3c2.5,10.3,0.5,19.9-4.1,29.2c-5,10.3-13,17.8-22.9,23.3c-0.2,0.6-0.5,1-0.9,1.4
			c0.4-0.4,0.7-0.9,0.9-1.4c-6.1,2.3-12.3,4.3-18.8,4.8c-11.8,0.8-23-1.8-32.8-8c-8.7-5.5-15.5-13.3-19.8-22.9
			c-1.5-4.8-3.5-9.4-3.8-14.5l-0.2-0.2l0.2-0.2c-0.1-3.3-0.3-6.6-0.4-10c-1.4-2-2.9-3.6-5.6-3.6c-0.5,0.1-1,0-1.3,0.3
			c-2.1,1.8-2.9,0.9-3.5-1.4c-0.8-2.8-1.7-5.6-3-8.2c-2.6-5.2-6.4-9.2-12.4-10.4c-16.2-3.2-28.8,11.3-23.6,26.9
			c4.3,13,8.6,25.9,13.1,38.8c5.9,16.7,11,33.8,17.9,50.1c0.9,2.2,2,4.2,3.7,5.9c2.2,2.3,4.3,0.2,6.6-0.3c-2.1,3.3-4.2,6.1-5.7,9.2
			c-1.6,3.1-2.9,6.4-4,9.7c-0.7,2.1-1.3,2.3-3.3,1.5c-8.1-3.3-16.5-1-22.1,5.7c-5.9,7.1-5.4,14.6-2,22.6c6.8,15.9,13.3,31.9,20,47.8
			c4.5,10.7,8.9,21.4,14.1,31.8c0.7,1.5,1.1,3.1,2,4.4c3.1,4.3,3.5,9.1,3.5,14.2c-0.1,13.7,0,27.3,0.1,41c0,0.3,0,0.6,0,0.8
			l-0.1,0.2c0,0,0.1,0.2,0.1,0.2c-0.4,0.2-0.9,0.5-1.3,0.7c-7.4-0.8-14.8-0.5-22.2-0.3c-2.7,0.1-4.5,1.7-4.5,4.7c0,0.5,0,0.9,0,1.4
			c-0.1,2.1,0.8,3.5,2.8,4.3c0,0,0.3,0,0.3,0c1.1,0.9,2.5,0.5,3.7,0.5c80.1,0,160.1,0,240.2,0c47.5,0,95,0,142.4,0
			c0.1-0.6,0.1-1.1-0.1-1.8c-0.1-0.3-0.2-0.6-0.3-1c-0.7-1.8-1.9-3.4-3-5c-0.7-1-1.2-2.1-1.7-3.2c-3.8,0-7.6,0.1-11.3,0.2
			c-1.9,0-2.6-0.6-2.4-2.4c0-0.5,0-0.9-0.1-1.4c-2.4-13.6,1.1-25.7,8.1-37.3c4.5-7.3,6.6-15.9,10.5-23.5c10.1-19.8,19-40,28.6-60
			c2.7-5.6,4.3-11.3,2.4-17.6c-1.9-6.3-5.7-10.7-11.7-13.1c-2.5-1-3.4-2.2-3.2-4.9c0.2-3.1-0.1-6.3,0.6-9.4
			c1.6-7.1,10.1-13.3,17.4-12.8c1.3,0.1,2.1,0.4,1.5,1.9c0.8,4.2,1,7.9-4,9.9c-3.2,1.3-4.5,4.8-6.1,7.7c-0.6,1.1-1.2,2.2-1.9,3.3
			c0,3.5,3.1,4.3,5.1,6.1c0.8,0.8,1.3-0.5,1.7-1.1c1.4-2,2.7-4.1,4.1-6.1c1-1.5,2.2-2.6,3.9-3.3c4.2-1.7,6.4-4.9,6.6-9.4
			c0.1-3.5,0.2-7,0-10.5c-0.2-3.7,1.2-6.6,3.9-8.9c2.8-2.3,5.2-5,8.8-6.1c0,6.1-0.1,12.3,0.2,18.4c0.3,6.9-0.5,13.4-5.5,18.7
			c0,2.2,0.7,4.3,2.4,5.6c1.9,1.6,1.5,3.1,0.5,4.9c-3,5.7-6,11.3-8.9,17c-1.6,3-3.1,6-4.5,9.1c-1.2,2.6-1.5,5.3,1.3,7.2
			c2.2,1.4,4.7,0.3,6.6-2.8c0.6-1,1.1-2.1,1.6-3.1c3.9-7.5,7.5-15.2,11.9-22.6c3.6,6,7,11.6,10.5,17.3c0.1,0.2,0.2,0.4,0.3,0.6
			c0.6,2.8,3.6,4.4,3.9,7.2c0.5,5.7,3,10.3,6.9,14.3c2.3,2.4,6.1,1.8,8.4,4.3c1.5,1.7,2.1,3.9,2.8,6c0.7,1.8,1.6,3.6,2.6,5.4
			c0.9,1.6,2.1,3.2,2.8,4.9c0.5,1.2,0.6,2.5,0.8,3.8c0.5,2.8,2.1,5,3.7,7.3c1.2,1.7,2.5,3.3,4.1,4.6c1.6,1.3,2.9,3.5,4.5,4.8
			c1.6,1.2,3,2.7,4,4.4c1.4,2.4,2.5,3.7,3.9,6c0.8,1.2,1.6,2.2,2.3,3.5c0.8,1.4,1.4,2.8,1.9,4.3c1,3.3,2.5,6.1,2.3,9.6
			c-0.1,1.3-0.3,2.6-0.4,3.9c-0.1,1.9,0,3.8-0.2,5.7c-0.2,2-0.5,4.1-0.9,6.1c-0.1,0.6-0.3,1.3-0.4,1.9c-0.9,6-1.7,12-2.4,18.1
			c-0.2,1.8-0.8,2.4-2.3,2.5c0.2,1.6,0.2,3.2,0.2,4.8c0,1.4-0.1,2.8-0.2,4.2c-0.1,0.7-0.1,1.3-0.2,2c24.3,0,48.7,0,73,0
			c14.8,0,29.7,0,44.5,0c2.5,0,4.7-0.4,6-2.8c2.2-4.1-0.4-8.3-5.4-8.3c-7.2-0.1-14.5-0.2-21.7,0.2c-3.6,0.2-4.5-1.1-4.9-4.3
			c-0.9-7.3-1.7-14.6-3.5-21.7c0.1-0.1,0.2-0.2,0.1-0.3c0.5-0.5,1.1-0.9,1.6-1.4c13.9-5.6,19.5-20.2,13.1-34.2
			c-1-2.1-0.8-3.2,0.7-4.8c2.7-2.9,5.1-6.1,7.7-9.1c3-3.5,5.2-7.1,4.7-12c-0.1-1,0.4-2.1,0.8-3c1.6-3.4,3.3-6.7,4.8-10.1
			c0.9-2.1,2.3-3.3,4.4-4.1c6.6-2.7,11-10.3,10.8-17.8c-0.3-8.1-4.8-14.6-11.7-17.1c-5.9-2.5-11.3-1.6-16.4,2.2
			c-5.3,4-6.9,9.7-6.7,16c0.4,1.3,0.8,2.6,1.1,4c0.3,2.4-0.8,4.1-2.8,6c-0.3-3.9-0.6-7.2-0.8-10.6l-0.3-1.8l-0.2,0
			c0,0,0.1-0.1,0.1-0.1c-1-1.7-0.9-3.7-1.4-5.6c-3.4-13.2-9.7-24.4-20.9-32.5c-0.3-0.5-0.7-1-1.4-0.7c-0.1-0.1-0.3-0.1-0.5-0.1
			c-0.2-0.4-0.3-1-0.7-1.2c-14-8.3-28.6-9.3-43.8-3.8c-9.3,2.9-16.8,8.3-22.4,16.2c-7.1,8.3-10.1,18.2-11.2,28.9
			c-0.4,3.6-0.5,7.3-0.8,11.5c-3.3-2.7-5.6-5-4.5-9.2c0.8-3,0.6-6-0.2-9c-5.3-11.1-13.7-13.8-26.5-8.7c-1.8,1.7-3.6,3.4-5.4,5.2
			c-3.6-6.3-7.1-12.7-10.7-19c-0.9-1.6-1-2.9,0.4-4.4c2.8-3.1,2.8-5.2-0.2-8c-1.8-1.8-3-3.8-3.7-6.1c-0.1-1-0.2-1.9-0.3-2.9
			c0.1-8.4,0.1-16.8,0.2-25.1c-0.2,0-0.3,0-0.5,0c0.1,0,0.3,0,0.5,0c0.3,0,0.4-0.1,0.5-0.4c0.4,0.1,0.9,0.2,1.3,0.3
			c0.6,0.4,1.1,0.8,1.7,1.1c0,0,0.1,0.1,0.1,0.1c0.2,0.5,0.6,0.8,1.2,0.8c0.2,0.5,0.7,0.8,1.2,0.9c0.2,0,0.3,0,0.5,0.1
			c-0.2,0-0.3-0.1-0.5-0.1c2.1,2.2,4.1,4.4,6.2,6.7l0.1,0.2c1.3,4.7,0.4,9.5,0.7,14.3c0.2,2.5,0.2,4.9,2.1,6.8
			c0.8,3.4,4.1,3.9,6.4,5.6l0.3,0c0,0,0.3,0,0.3,0c2.2,4.2,4.3,8.5,6.7,12.5c1.1,1.8,3,3.6,5.5,2.2c2.1-1.1,3.9-2.9,2.8-5.3
			c-2.3-5-4.5-10.1-8-14.5c0-0.2-0.1-0.5-0.2-0.6c-0.3-1.4-1.6-2-2.7-2.5c-4.5-1.8-4.5-5.5-4.2-9.4c0.1-2.1,0.7-2.9,2.9-2.5
			c3,0.6,5.7,1.8,8.4,3.2c4.8,4.6,7.1,10.1,6.9,16.8c-0.1,4.2-1,8.4-0.2,12.6c0.5,2.5,1.5,4.5,3.4,5.9c1.9,1.4,3.5-0.1,5.1-1
			c0.1-0.2,0.2-0.4,0.4-0.6c0.8-7.3,0.5-14.6,0.3-21.9c-0.1-5.3-2-10.2-5.7-14.2c0,0-0.1-0.1-0.1-0.1c-3.4-5-8.4-7.4-14.1-8.8
			c-1.9-0.5-3.9-0.8-5.8-1.1c-1.2-0.2-2-0.9-2.1-2c-0.2-1.5,1.2-1.1,2-1.3c1.9-0.6,3.8-1.1,5.6-1.6c6-0.5,11.1,2.1,16.2,4.8
			c0.9,0.5,1.4,1.1,1.5,2.2c0.3,6,2.5,11.6,4.1,17.3c1.4,3,3.2,5.8,3.6,9.2c-0.6,4.5-0.2,8.9,0.3,13.5c2.3-4.2,5.2-8,8.2-11.7
			c2.1-2.6,2.2-4.6-0.1-6.8c-1-2.2-1.9-4.4-2.9-6.5c-1.8-6.1-3.5-12.1-4-18.4c-0.2-1.9-0.3-3.8-0.3-5.7c0.2-0.8,0.2-1.9,0.2-2.7
			c0.1-2,0.3-4,2.2-5.4c7.6-5.5,11.3-13.3,13.9-21.7c0.3-0.8,0.6-1.6,1-2.7c1.2,2.1,2.2,4,3.4,5.7c0.5,0.8,1.3,1.5,2.1,2.2
			c3.6,3.3,8.4,6.1,12.7,4.1c3.6-1.6,0.6-6.6,1-10c0.2,0.1,0.7,0.2,0.8,0.4c4.6,9.6,12.7,9.6,20.6,7.7c5-1.3,9.7-3.3,14.3-5.4
			c3.4-1.6,5.7-1.3,7.9,2c4.8,7,10.8,13,18.7,16.9c2.9,1.4,1.7,3.9,2.2,5.9c0.3,1.4-0.6,3.5,0.2,4.6c-0.7,11.2-4.4,22.1-11.8,30
			c-1.1,1.2-2.3,2.4-0.9,4.2c4.5,5.9,8.4,12,11.4,18.8c1.3,3,4.8,3,6.8,0.3c0.7-0.9,1.1-2.1,1.5-3.1c5-12.4,10-24.7,14.9-37.1
			c6.9-17.5,13.9-35,20.8-52.5c3.1-7.8,1.3-14.8-4.4-20.6C721.3,139.4,714.5,138.1,706.9,140.4z M367.1,66.3c0-0.5,0-0.9,0.1-1.4
			C367.1,65.4,367.1,65.8,367.1,66.3z M369.1,69c1.9,0.1,3.4-1.1,5.1-1.5C372.5,67.9,371,69.1,369.1,69z M323.1,45.4
			c-3.4-0.1-6.9-5.2-6.9-10.2c0-5.2,4.2-9.4,9.3-9.4c5.6,0,9.9,4.6,9.9,10.5C335.5,41.2,329.7,45.5,323.1,45.4z M407.9,194.4
			c-9.2,0-16.3-6.4-17.3-15.5c-0.2-2.2,0-3.4,2.7-2.7c9.5,2.3,19,2.3,28.5,0.1c2.3-0.5,2.5,0.3,2.5,2.2
			C424.1,188.1,417.6,194.4,407.9,194.4z M497.8,41.3c-1.7,3.8-4.1,5-8.1,4c-1.2-0.3-2.4-0.8-3.6-1.2c-5.8-2.1-7.5-4.9-6.3-10.2
			c1.2-5.2,5.5-8.5,10.3-7.9c5.1,0.6,8.8,5,8.7,10.5C498.8,38,498.5,39.7,497.8,41.3z M525.4,77.4c-1.7-0.1-2.4-1.1-2.9-2.5
			c-1.7-4.7,0-9.2,4.4-11.6c4-2.2,8.9-0.8,11.9,3.5c2.1,3,4.3,9.4,5.1,15.3C537.8,79.4,531.7,77.9,525.4,77.4z M245.4,77.5
			c5,0.1,9.6,5,9.6,10.3c0,5-3.9,10-7.6,9.9c-5-0.2-11.4-5.5-11.4-9.6C236,82.2,240.3,77.4,245.4,77.5z M272.7,113.7
			c30.3-1.3,53.9,21.4,55.6,44c-9.3-22.3-28.2-33.6-51.6-36.6c-17.4-2.2-32.3,5.7-43.7,19.2c-4.2,5-6.9,10.6-8.9,16.7
			c-0.5,1.6-1.2,3.2-1.8,4.7C221.8,136.8,242,115,272.7,113.7z M123.2,167.8c0.1,0,0.2,0.3,0.3,0.4c-0.2,0.1-0.3,0.2-0.5,0.2
			c-0.1,0-0.2-0.2-0.4-0.4C122.9,167.9,123.1,167.8,123.2,167.8z M68.8,113.7c-1.2-4.5,1.7-10.3,6-11.9c4.7-1.8,9.2,0,11.6,4.8
			c0.4,0.8,0.9,1.6,1.4,2.4c0.6,2.9,1.2,5.8-1.4,8.2c-1.7,0.9-3.4,2-5.2,2.8C74.7,122.7,70.7,120.7,68.8,113.7z M213.5,242
			c4.8,0,9.6,4.9,9.7,9.8c0.1,4.9-3.5,9.7-7.3,9.7c-4.8,0.1-11.7-4.4-11.8-7.6C204,247.6,208.5,241.9,213.5,242z M71.4,250.8
			c0.1-4.6,4.6-8.8,9.2-8.8c5,0,9.4,5.3,9.3,11.1c0,3.6-6.5,8.1-11.7,8.2C75.2,261.4,71.3,255.4,71.4,250.8z M103.2,329.4
			c-5.7-13.7-11.1-26.9-16.6-40c-2.1-5.2-4.3-10.3-6.4-15.5c-0.7-1.7-0.7-2.8,1.5-3.3c3.5-0.8,6.9-2,10.1-3.9
			c1.5-0.9,1.7-0.1,1.9,1.1c1.7,7.7,4,15.1,8.5,21.7c0.9,1.4,1.1,3.1,1.1,4.7C103.2,305.8,103.2,317.3,103.2,329.4z M185.1,397.5
			c-0.1,4.6,0,4.6-4.5,4.6c-21.4,0-42.8,0-64.2,0.1c-2.4,0-3.2-0.6-3.2-3.1c0-28.5-0.1-57-0.1-85.5c0-0.8,0.3-1.6,0.4-2.4
			c-0.2-0.6-0.4-1.1-0.6-1.7c-0.4-0.5-0.4-1-0.1-1.5c0-1.2,0-2.3,0-3.5c-0.2-0.6-0.5-1.3,0.6-1.4c0.2,0.1,0.4,0.2,0.6,0.3
			c6.7,4.4,13.8,8.3,17.8,15.9c1.5,2.8,4.5,5,7.4,6.2c4.1,1.7,5.2,4.5,4.5,8.5c0.1,6.5,0.2,13.1,0.2,19.6c0.1,4.3,1.5,6.3,4.5,6.1
			c3-0.1,4.8-2.6,4.5-6.7c-0.3-5.5-0.4-11-0.2-16.4c-0.8-5.5,0.1-10,5.7-12.9c2.6-1.3,4.7-4,6-6.7c2-4.3,5.2-6.8,9.4-8.7
			c3.2-1.5,6-3.8,9.5-6.6c-0.2,3.4-0.3,5.9-0.5,8.3c0.1,2.7,0.3,5.4,0.4,8C184.3,344.6,185.7,371,185.1,397.5z M140.5,314.6
			c4.9,0.3,9.1,0.4,13.5,0.1C150.1,321.2,146,321.2,140.5,314.6z M191.8,264.3c-0.4,4.3-1.9,8.4-2.9,12.6c0,0,0,0,0,0
			c-0.5,0.9-1,1.8-1.5,2.7c-8.1,16.2-21.1,25.2-39.4,25.5c-16.3,0.3-28.5-7.3-37.6-20.4c-4.5-8.5-7.2-17.6-8.4-27.1
			c1.2,1.8,1.7,3.9,4.9,1.5c7-5.4,13.3-11.2,16.7-20.2c2.8,3.6,5.2,6.8,7.7,9.9c1.2,1.4,2.4,2.9,3.8,4c4.2,3.5,8.7,2.5,10.6-2.6
			c1-2.7,2.4-1.9,4-1.2c5.5,2.5,11,5.1,17,6.5c5,1.1,7.7,0,10.4-4.4c3.3,4.7,7.7,8,13.1,9.8C192.2,261.6,191.9,262.9,191.8,264.3z
			 M192.4,331.6c0-10.5,0.4-20.9-0.2-31.4c-0.3-5.4,0.6-9.9,3.3-14.5c2.8-5,4.8-10.4,5.4-16.2c0.2-2.3,1-2.8,3.1-1.8
			c2.9,1.3,5.8,2.5,8.8,3.3c2.5,0.7,3.1,1.4,2.1,4c-4.1,10.1-7.9,20.2-11.8,30.3c-3.4,8.8-6.8,17.5-10.1,26.3
			C192.8,331.6,192.6,331.6,192.4,331.6z M284.8,311.4c1-0.3,2-0.5,2.8-0.7c3.9,0.3,6.4,2.1,8.2,5.1c0.7,1.1,0.7,2.4-0.3,3.2
			c-1,0.9-1.7-0.3-2.4-0.8c-2.5-1.7-5.1-3.3-8.1-4c-0.8-0.2-1.9,0-2-1C282.8,312.2,283.9,311.7,284.8,311.4z M248.9,311.7
			c2.6-1.2,5.2-0.8,7.7,0.6c0.3,0.1,0.3,0.6,0.5,0.8c-0.3,0.6-0.8,0.9-1.4,1c-3.5,0.7-6.5,2.6-9.3,4.6c-1.8,1.3-2.4,0.4-2.3-1.3
			C244.2,314.5,246.4,312.9,248.9,311.7z M304,402.1c-1-0.1-2.1-0.1-3.2,0c-2.3,0.1-4,0-4-3.2c0-2.4-1.7-4.2-4.3-4.3
			c-2.6-0.1-4.2,1.7-4.2,4.2c-0.1,2.9-1.5,3.3-4,3.3c-8.9-0.1-17.8-0.1-26.6,0.1c-2.2,0-3.2-0.7-3.3-2.8c-0.2-2.6-1.6-4.3-4.4-4.5
			c-2.9-0.3-4.2,1.7-4.5,3.9c-0.3,3.3-2.2,3.4-4.7,3.4c-6.2-0.1-6.2,0-6.2-6.4c0-5.5,0-11,0.1-16.5c0-0.7-0.7-2,1-1.9
			c0.6,0,1.2-0.1,1.7-0.1c0.7-0.4,1.4-0.5,2.1-0.2c3.5-0.7,7.1-1.4,8-5.8c-2-4-3.4-4.6-8.2-3.5c-4.8,1.2-5.1,1.1-4.7-3.8
			c0.8-10.4,1.6-20.9,8.1-29.8c1.2-1.6,2.5-3,3.7-4.5c12.9-11.5,28.4-12.9,41.8-3.9c1.2,0.8,2.6,1.6,3.3,3
			c5.1,3.7,8.3,8.8,10.3,14.6c2.4,7.1,3.3,14.5,3.7,22c0.1,2.6-0.8,3.4-3.2,2.9c-1.7-0.3-3.4-0.8-5.2-0.9c-2.7-0.3-5.3-0.1-5.9,3.3
			c-0.5,2.7,1.2,5.3,4.3,5.8c2.4,0.5,4.9,0.6,7.3,0.6c2,0,3,0.6,3.1,2.8c0.1,6.5,0.2,13.1,0.4,19.6
			C306.5,401.4,305.8,402.2,304,402.1z M353.1,263.2c3.9-9.5,10.1-17.1,19.2-22c20.3-10.8,43.5-7.1,59.4,9.5
			c5.8,6,8.9,13.5,10.5,21.6c1.1,1.5,0.7,3.3,0.5,5.1c-0.6-1.6-1.3-3.2-1.9-4.9c-5.5-9.5-12.9-17.1-22.4-22.7
			c-17.9-10.6-43.8-8.3-57.6,11.3c-1.4,1.9-2.2,4.7-5.5,4.8C353.1,266,352.1,265.8,353.1,263.2z M349.6,298.9
			c11.5-6.9,19.3-17.1,24.6-29.3c0.2-0.4,0.5-0.7,0.9-1.4c2.6,4.5,5.4,8.5,8.9,11.9c2.9,2.9,6.3,5.2,10.2,6.6
			c4.3,1.5,6.9,0.6,8.9-3.6c0.8-1.7,1.4-1.6,2.8-0.7c7.6,4.7,16.1,7.5,24.8,9.2c5.1,1,7.4,5.5,10.6,8.6c2.2,2.1,0.7,5,0.1,7.3
			c-3.4,13.3-9.1,25.2-20.3,33.8c-4.4,3.4-9.5,5.5-14.8,7c-2.1,0.6-3.4,1.6-4.2,3.8c-0.9,2.7-2.8,4.6-5.8,4.8
			c-3.2,0.2-4.9-1.9-6.2-4.4c-1-1.9-1.9-3.5-4.3-4.1c-16.3-4.1-26.8-14.9-33.5-29.9c-2.1-4.6-3.8-9.3-4.6-14.3
			C347.4,302.4,347.3,300.3,349.6,298.9z M312.8,270.3c-2.4-6.1,2.3-13.2,8.5-13.2c3.7,0,7.8,3.5,8.7,7.5c0.8,3.4-0.7,6.3-4.4,8.2
			c-1.2,0.7-2.6,1.1-3.8,1.7C317.1,276.7,315.1,276.2,312.8,270.3z M477.2,287.8c-3.3,7.2-6.5,14.5-10,21.6
			c-7.2,14.8-14.1,29.7-20.7,44.8c-1.9,4.3-3.8,8.8-6.5,12.6c-5.2,7.5-5,15.8-4.3,24.2c1,11,1.1,11-9.9,11.1
			c-22.1,0.1-44.2,0.2-66.2,0.3c-0.4,0-0.9-0.2-1.3-0.3c-0.5,0-1.1,0-1.6,0c-0.2,0-0.4,0-0.5,0c-0.3-0.1-0.5-0.1-0.8-0.2
			c-0.5-0.1-0.6-0.3-0.3-0.7c0-3.1,0.1-6.2,0.1-9.3c-0.4-2.5-0.5-4.9,0-7.4c0-0.7,0.1-1.3,0.1-2c0.5-5.9-2.6-10.7-4.9-15.7
			c-10-22-18.4-44.7-27.4-67.2c-1.5-3.7-2.8-7.4-4.4-11.1c-0.7-1.8-0.2-2.6,1.6-3c3.9-1,7.6-2.3,11.1-4.3c1.9-1,2.3-0.4,2.6,1.4
			c1.5,8.7,2.7,17.6,4.7,26.2c3.5,14.7,10.2,27.7,21.9,37.9c6,5.2,12.6,8.9,19.9,11.5c2,0.7,3.4,1.8,4.7,3.3
			c7.2,8.1,17.5,6.3,22.9-1.2c1-1.4,2.5-2,3.9-2.7c1.6-0.7,3.3-1.2,4.9-1.7c9.8-3.5,16.4-10.8,22.2-18.8c6.4-8.8,10-18.9,13.1-29.3
			c0.4-1.4,0.4-3,1.8-4.1c1.7-9.2,5-17.9,8.7-26.5c0.5-1.1,1-1.6,2-0.6c0.8,0.8,1.6,1.6,2.3,2.4c3.7,1.5,6.6,4.4,10.3,5.8
			C479,285.6,477.5,287,477.2,287.8z M486.2,267c-0.3,0.9-0.6,2.5-1.2,4c-1.8,4.1-3.2,4.6-7.3,2.7c-2.3-1.1-4.5-2.5-6.5-4.1
			c-2.7-2.1-4.1-4.3-2.3-7.8c2-3.9,5.2-6.1,8.8-5.6C482.3,256.8,486.4,261.5,486.2,267z M674.1,364.7c-1.8-6.9-1.8-6.9,6.6-17.8
			C685.1,352,682.2,360,674.1,364.7z M696.3,293.4c2.7-3.7,3.4-8,2.6-12.6c-0.9-5.4,1.9-9.2,6.3-9.3c4.3-0.2,7.9,3.9,7.9,8.9
			c0,4.2-2.5,8.1-6.3,9.1c-2.2,0.6-3.3,1.8-4.2,3.6c-1.3,2.7-2.3,5.6-4.3,8C695.3,299,693.7,296.9,696.3,293.4z M593,278.5
			c1-9.6,4.5-18.3,11.5-25.4c0.4-0.4,0.8-0.8,1.3-1.2c0.6-0.5,1.4-1.3,2.1-0.7c1.2,0.9-0.2,1.6-0.6,2.3c-0.4,0.8-1,1.5-1.6,2.3
			c0,0.2,0,0.5,0,0.7c0-0.2,0-0.4,0-0.7c-1.9,2.4-3.5,4.8-4.4,7.8l0,0c0,0,0,0,0,0c-4,8-5.5,16.4-4.1,25.2l0,0.2c1.3,0,2.7,0,4,0
			c-1.3,0-2.7,0-4,0c3.2,2.9,6.9,1.5,10.5,1.5c0.5,1.4-0.7,2.6-0.7,4c0.1,3.3,1.7,5.5,4.5,5.6c2.5,0.1,5-2.3,5.1-5.2
			c0-0.8-0.1-1.7-0.5-2.3c-1.3-2-0.4-2.6,1.6-2.9c0.5-0.1,1.1-0.4,1.6-0.7l0.2,0.1l0.2-0.2c2.6-0.3,4.9-1.2,7.1-2.5
			c8.3-2.8,14.4-8.4,19.6-15.2c1.9-2.5,3.6-5,5.8-8c0.8,3.8,1.7,6.9,3.2,9.7c3.9,7.1,10.4,10.6,17.9,12.2c3.3,0.7,4.2,2.2,4.3,5.4
			c0.3,10.7-2.5,20.3-9.6,28.4c-1.8,2.1-4.1,3.4-6.2,5c0,0.3,0.1,0.5,0,0.7c0-0.2,0-0.5,0-0.7c-3.7,1.3-7.5,1.5-11.4,1.5
			c-13.1-0.1-26.1-0.1-39.2-0.2l-0.2-0.1l-0.2,0.1c-0.3,0-0.7,0.1-1,0.1c0.3,0,0.7-0.1,1-0.1c-0.6-1-1.6-0.5-2.4-0.8
			c-0.2-0.2-0.4-0.4-0.7-0.6c-0.2-0.9-1.1-0.6-1.6-1c0-0.2-0.1-0.3-0.3-0.3c0,0,0,0,0,0c0,0,0,0,0,0
			C592.8,310.6,591.2,295,593,278.5z M607.9,290.5L607.9,290.5c0-0.6-0.2-0.9-0.4-1.2C607.7,289.6,607.8,289.9,607.9,290.5z
			 M606.1,289c-0.1,0-0.2,0-0.4,0C605.9,289,606,289,606.1,289z M639.3,337.1c0,2.1-1.5,4.5-4.3,4.9c-1.3,0.2-5-4-4.5-5.2
			c0.9-2.2,3-0.6,4.6-1.1C636.4,336.6,639.3,334.3,639.3,337.1z M582.3,304.1c-0.2-0.3-0.5-0.6-0.8-0.8
			C581.8,303.5,582.1,303.8,582.3,304.1z M577.7,304.5l0.2-0.1l0-0.2c0,0,0,0,0,0c0.2-0.4,0.5-0.7,0.7-1.1c-0.2,0.1-0.3,0.2-0.4,0.3
			c0.1-0.1,0.3-0.2,0.4-0.3c0.2,0.1,0.4,0.1,0.5-0.1c1.4,1.3,2.7,2.6,4.1,3.9c2,2.6,3.8,5.3,5.1,8.3c1.8,4,4.2,7.5,7.1,10.7
			c5.9,6.7,13.2,10.3,22.3,9.4c2.2-0.2,3.3,0.3,3.8,2.7c0.7,3,2.1,5.6,4.1,8c5.9,7,13.8,6.7,19.1-0.8c1.6-2.3,2.9-4.8,3.4-7.6
			c0.3-1.8,1.2-2.3,2.9-2.2c13.6,1.1,22.5-6.1,29.1-17c2.7-4.5,5-9.2,7.5-13.8c7.4,5.8,7.8,9.7,1.9,16.9c-6.6,8-13.2,16.1-20,23.9
			c-4.5,5.1-8.5,10.2-6.4,17.7c2,8,2.2,16.3,3.6,24.5c0.6,3.7,0.9,7.4,1.7,11c0.7,2.8-0.3,3.5-2.9,3.3c-1-0.1-2.1,0.1-3.1,0.2l0,0
			c-0.2-0.1-0.3-0.1-0.5,0c-15.2-0.1-30.5-0.1-45.7-0.2c-4.4,0-8.8,0-13.2-0.1c-0.1,0.1-0.1,0.2,0,0.4c-1.4,0.1-2.8,0.1-4.3,0.2
			l-0.2-0.1l-0.2,0.1c-0.3-1.2-0.1-2.3,0.1-3.4c1-8.2,2-16.3,3.1-24.5l0.5-3.6c0.7-3.2,1.2-6.4,1.1-9.7c0,0,0,0,0,0
			c0.5-2.8,1.8-5.7,0.1-8.5c0,0,0,0,0,0c-5.1-8.5-11.4-16.1-18.2-23.2c-2.3-2.9-4.6-5.8-6.8-8.8
			C573.2,314.2,573.2,311.2,577.7,304.5z M601.9,361.9c0.2-0.3,0.6-0.5,1.2-0.5v0C602.5,361.4,602.1,361.6,601.9,361.9z M568,307.9
			c0.1-0.7,0.4-1.3,1.3-1.3c0,0,0,0,0,0C568.4,306.7,568,307.2,568,307.9z M571,319.4c0.1-0.2,0.2-0.4,0.2-0.6c0,0,0,0,0,0
			C571.2,319,571.1,319.2,571,319.4z M572.1,292.8c0-2.2-0.3-4.2-2.9-5C571.8,288.6,572.1,290.7,572.1,292.8z M569.4,285.6
			c-0.1,0.7-0.1,1.4-0.3,2.2h0C569.3,287.1,569.4,286.4,569.4,285.6z M555.5,273.8c0.9-0.2,1.5-0.8,2-1.5c0.3-0.1,0.6-0.3,0.9-0.4
			l0,0c0,0,0,0,0,0c0,0,0,0,0,0l0,0c0,0,0,0,0,0c2.3-0.6,4.5-0.3,6.7,0.4c0,0,0,0,0,0c3.2,2.3,4,5.4,3.5,9.2c-0.3,2.1-1,4.4,0.6,6.4
			c0,0,0,0,0,0c0,0,0,0,0,0c0.5,2.3,1.6,4.2,3,6c0.3,1,0.6,2,0.9,3c-3.9,4.8-3.9,4.8-7.2-0.5c-0.5-0.8-1-1.6-1.4-2.4
			c-1-2.5-2.3-4.4-5.4-4.6c-1.8-0.1-3.1-1.6-4.1-3.1C551.9,281.9,553,277.8,555.5,273.8z M553,274.1c-0.2,0.2-0.4,0.5-0.4,0.9
			C552.6,274.6,552.8,274.3,553,274.1z M538.2,261.5C538.2,261.5,538.2,261.5,538.2,261.5c-0.1-0.1-0.3-0.2-0.4-0.2
			C537.9,261.3,538,261.4,538.2,261.5z M558.7,239.8c-1.3,0.9-3,1-4.9,0.2C555.7,240.9,557.5,240.7,558.7,239.8z M556.1,236.8
			c-0.5,1.2-2.2,1.8-2.3,3.2h0C553.9,238.5,555.6,238,556.1,236.8z M573.8,228.2c0.1,0.1,0.3,0.2,0.4,0.2
			C574.1,228.4,574,228.2,573.8,228.2C573.8,228.2,573.8,228.2,573.8,228.2z M545.5,207.5c0-0.2,0.1-0.5,0.2-0.7
			C545.6,207,545.5,207.2,545.5,207.5z M546.8,234.3c0.3,0.2,0.7,0.3,1.1,0.5C547.6,234.6,547.2,234.5,546.8,234.3z M580.4,170.4
			c-1.1,4-3.9,6.6-8.2,7.1c-1.7,0.2-2.5,1.1-3.1,2.7c-3.6,9.4-9.9,16.3-19.5,19.7c-2,0.7-3.4,0.7-5-0.8c-3.4-3.3-7.3-5.8-12.3-5.9
			c-1.1,0-1.7-0.6-2.3-1.4c-0.9-1.2-2.5-1.7-3.4-0.9c-3.9,3.1-9.8,2-13.1,5.9c-3.8,4.5-7.6,3.3-11.9,1c-7.4-3.9-12.1-10-15-17.8
			c-0.4-1.2-0.6-2.3-2.3-2.7c-8.3-1.8-11.7-8.7-8.5-16.7c0.5-1.2,1-2.6,2.3-3.6c0.7,2.2,1.3,4.4,3,5.9c1.1,1,2.3,1.5,3.8,1
			c1.4-0.5,1.7-1.7,1.9-3c1-6.7,1-6.7,7.8-6.7c8.2,0,16.4-0.1,24.2-2.9c8.9-3.2,15.8-8.8,20.2-17.3c0.5-0.9,1.2-1.4,2-2.2
			c5.6,10.4,13.7,17.9,25.1,21.2c1.8,0.5,2.4,1.4,2.4,3.2c-0.1,1.9,0,3.7,0,5.6c0,1.7,0.6,3,2.3,3.5c1.8,0.5,3.2-0.1,4.3-1.6
			c1.2-1.6,1.8-3.5,2.2-5.9C580.8,161.8,581.6,166,580.4,170.4z M701.9,142.8c-0.1,0-0.2,0-0.3,0c0.1-0.1,0.1-0.2,0.2-0.4
			C701.9,142.5,701.9,142.6,701.9,142.8z M692.9,71.6c1.9-6.7,6.3-10.4,11.4-9.6c4.7,0.7,8.4,5,8.3,9.8c-0.1,1.5-0.3,3-0.8,4.4
			c-2.6,6.5-4.7,7.5-11.1,5c-0.8-0.3-1.5-0.6-2.3-0.9C692.4,77.7,691.5,76.3,692.9,71.6z M686.8,161.4c-2.6-2.9-4.9-5.6-7.5-8.1
			c-3.2-3.2-6.8-6.1-10.9-8.1c-2.5-1.2-2.5-2.4-1.3-4.5c5.6-10.4,9.7-21.5,13.6-32.6c0.6-1.7,1.1-3.3,1.1-5.1
			c-1.6-1.3-2.1-2.7-1-4.8c1.8-3.7,3.3-7.5,4.9-11.2c0.8-1.9,1.8-2.2,2.9-0.5c0.9,1.4,2.6,1,3.6,2c0.5-0.1,0.9,0.1,1.2,0.6l1.4,0.6
			c2.8,1.1,5.6,2.3,8.5,3.1c2.5,0.7,2.7,1.8,2,4c-2.8,9-5.4,18.1-8.2,27.1C693.1,136.1,690.3,148.7,686.8,161.4z M713.4,183.9
			c-3.9,9.9-7.8,19.7-11.7,29.6c-3.9,9.9-7.9,19.7-11.8,29.6c-0.2,0.4-0.5,0.7-0.7,1.2c-2.8-3.6-2.6-5-0.2-8.7
			c6-9.1,8.9-19.2,9.5-30c0.4-7.4-0.1-14.7-1.9-21.9c-1.9-4.6-1.6-9,1.9-12.9c1.3,0.4,1.9,2,2.8,3c4.4,1.8,7.8,5.5,12.5,6.9
			C715.1,181,713.9,182.8,713.4,183.9z M722,162c-0.2,0.9-0.6,1.8-1,2.6c-2.7,6.1-4.3,6.6-10,3.3c-1.1-0.6-2.2-1.3-3.3-2
			c-4-2.6-5.2-5-4.1-8.7c1.2-4.4,4.8-7.4,9-7.4C719.1,149.8,723.7,155.8,722,162z"/>
		<path class="st10" d="M614.4,216.4c4.5,6.9,12.9,9.7,21.5,10.3c13.4,0,25.4-6,26.7-12.5c0.3-1.6,0.6-3.3-2.5-4
			c-3.4-0.7-3.3,1.3-4.1,2.5c-4.1,6.7-14.3,10.1-24.1,7.9c-6-1.3-9.5-4.3-11.7-8.2c-0.7-1.3-1.7-2.7-4.3-2.1
			c-2.1,0.5-3.2,1.7-2.8,3.2C613.4,214.6,613.8,215.5,614.4,216.4z"/>
		<path class="st0" d="M618.4,189.9c-3-0.2-5,1.6-5.1,4.6c-0.1,2.8,1.9,5,5.2,5.1c2.4-0.3,4.2-1.8,4.5-4.6
			C623.4,192.4,621.2,190.1,618.4,189.9z"/>
		<path class="st0" d="M658.1,199.7c2.9-0.2,4.4-2.2,4.7-4.9c0.3-2.5-2.4-5-5-4.9c-3.1,0.1-4.3,2.1-4.6,4.3
			C653.2,197.4,655.6,199.9,658.1,199.7z"/>
		<path class="st0" d="M633.7,207.3c0,0,0,1.2,0.4,1.7c1.6,2.3,3.8,2.8,6.2,1.7c1.8-0.9,3.6-2.2,1.2-4.5c-0.5-0.4-0.2-1.7-0.2-2.5
			c-0.1-1.9-1.1-2.6-3.5-2.6c0.1,0-0.4,0-0.9,0.1C633.7,202,637.2,206.5,633.7,207.3z"/>
		<path class="st0" d="M725.5,251.8c2.5,1.6,5,1.1,6.3-0.7c2.4-3.8,4.4-6.8,6.3-9.8c1.6-2.5,1.6-5-1-6.9c-2.2-1.6-5.4-1-7.2,1.6
			c-2.1,3-4,6-5.8,9.1C722.5,247.6,722.9,250.1,725.5,251.8z"/>
		<path class="st0" d="M748.7,269.1c2.1,2.1,4.5,2,6.7,0c1.6-1.5,3.1-3.2,4.6-4.9c0.8-0.8,1.6-1.6,2.3-2.4c2.6-2.8,2.7-5.8,0.4-7.9
			c-2-1.8-5.2-1.3-7.6,1.4c-2.2,2.4-4.3,4.8-6.5,7.2C746.5,264.8,746.7,267.1,748.7,269.1z"/>
		<path class="st0" d="M759.2,300.6c2.3-2.6,1.8-6.8-0.9-9c-2.8-2.3-6.6-1.7-8.9,1.2c-2.2,2.8-2,6.6,0.7,8.7
			C752.6,303.7,756.9,303.2,759.2,300.6z"/>
		<path class="st0" d="M53.3,284.2c-4.6-3.1-10-4.3-15-6.3c-2.4-0.1-3.9,1.2-4.7,3.1c-0.8,2-0.7,4.2,1.3,5.3c4.5,2.6,9.4,4.6,14.4,6
			c2.5,0.7,3.9-1,4.9-3.1C55,287.4,55.1,285.5,53.3,284.2z"/>
		<path class="st0" d="M45.7,297.9c-3.7,1.1-7.2,2.7-10.8,4c-2.7,1-3.5,3.1-2.8,5.7c0.8,2.7,2.9,4.2,5.7,3.3
			c3.8-1.1,7.5-2.5,11.2-3.9c2-0.8,3-2.5,3.1-4.7C52.2,298.8,49.5,296.8,45.7,297.9z"/>
	</g>
</g>
</svg>
