<svg id="圖層_1" data-name="圖層 1" xmlns="http://www.w3.org/2000/svg" xmlns:xlink="http://www.w3.org/1999/xlink" viewBox="0 0 500 435"><defs><style>.cls-1{fill:none;}.cls-2{clip-path:url(#clip-path);}.cls-3{fill:#efefef;}.cls-4{fill:#0a4b75;}.cls-5{fill:#67c5fa;}.cls-6{fill:#fff;}.cls-7{fill:#fad58f;}</style><clipPath id="clip-path"><rect class="cls-1" width="500" height="435"/></clipPath></defs><g class="cls-2"><path class="cls-3" d="M84,82.22c1-.37,1.11-1.78,2.24-1.92-3,11-1.37,22.25-1.4,33.37-.18,65.68.11,131.36-.22,197-.11,23.64,18.46,40.62,40.23,40.49,19.09-.12,38.19-.08,57.28,0,1.28,0,3.55-1.23,3.79,1.37.27,2.94-2.29,6.74-4.31,6.77-3,.05-6,.14-9-.07-14.07-1-23.27,8.93-26.67,19.19-2.57,7.74-5.34,15.41-8.14,23.06-.77,2.1.35,6-2.32,4.71-.92-.45-3.65-2.32-4.52-2.71a14.3,14.3,0,0,1-2.73-2.34c-1.87-1.62-3.81-3.15-5.77-4.66-3.92-3-7.94-5.9-11.72-9.09-27.38-23-48-51-60.84-84.39-19.62-51-19.72-102.36-2.4-153.94,7.95-23.66,20.24-45,35.22-64.86C83.18,83.61,83.54,82.9,84,82.22Z"/><rect class="cls-4" x="12.87" y="421.93" width="474.26" height="29.24" rx="12"/><path class="cls-3" d="M115,51.52a4.78,4.78,0,0,0-3.42,1.06c-1,.76-1.86,1.58-2.76,2.41l3.15-.12C112.48,53.19,114.18,52.71,115,51.52Z"/><path class="cls-4" d="M475.78,424.84c-.29.1-.59.21-.89.3-5.12,1.52-10.48,1.08-15.73.86-13.68-.56-27.34.63-41,.37-6.33-.12-12.42-.67-18.74-.09-5.1.46-10.17.79-15.22-.34-3.28-.74-6.3-3.21-9.65-3.05a7.13,7.13,0,0,1-4-.5c-1.29-.76-1.87-2.29-2.36-3.7-2.41-7.53-5.32-14.89-7.86-22.35-2.27-6.65-4.78-13.22-7.19-19.82-3.38-9.26-9.73-15.38-19.58-16.88-4.95-.75-10.1-.21-15.16-.28-2.4,0-5.7-5.41-4.63-7.56.55-1.08,1.64-.62,2.47-.62,8.05,0,16.1,0,24.15,0,12,0,23.94.36,35.88-.14,15.76-.66,27.9-7.79,35.05-22.18a34.34,34.34,0,0,0,3.85-15.46q-.06-110.92-.05-221.85A37.35,37.35,0,0,0,413.21,80c-.64-1.35-1.2-2.74-1.95-4-2.08-3.53-5.19-6.29-7.64-9.42-4-5.14-9.54-7.79-14.43-11.48,0,.35.59,1.22-.07,1-4.5-1.73-9.25-1.08-13.86-1.69l-138,.06q-55.21,0-110.43,0c-4.9,0-9.8.4-14.87.62a2.09,2.09,0,0,1,.08-.23l-3.15.12a54.69,54.69,0,0,1-5.77,5A55.13,55.13,0,0,0,87.87,76.5c-.39.64-.45,1.61-1.22,1.94l-.47,1.86h0c-3,11-1.37,22.25-1.4,33.37-.18,65.68.11,131.36-.22,197-.11,23.64,18.46,40.62,40.23,40.49,19.09-.12,38.19-.08,57.28,0,1.28,0,3.55-1.23,3.79,1.37.27,2.94-2.29,6.74-4.31,6.77-3,.05-6,.14-9-.07-14.07-1-23.27,8.93-26.67,19.19-1.52,4.57-3.11,9.12-4.73,13.66-3.12,8.7-5.64,17.49-9.18,26.07a11.46,11.46,0,0,1-1.66,3.08c-1.33,1.57-3.29,1.63-5.21,1.63q-36.75,0-73.49,0a18.21,18.21,0,0,0-6.45.84c-2.2.82-4.11,2.62-3.68,5.14a4.14,4.14,0,0,0,4.81,3.78c4.47-.3,9,.11,13.45-.14,3.44-.19,5.06.64,4.81,4.51-.17,2.66.68,5.16,4.39,5.25,32,.74,64-.62,96,1,29.25,1.5,58.65.65,88,.23s58.45.81,87.72-1c24.52-1.5,49.21-.31,73.82-.31q22.08,0,44.16,0c4.74,0,6.73-2.77,5.27-7.27-.6-1.84.28-2.33,1.8-2.36,2.3,0,4.61-.18,6.9,0,3,.24,4.43-1.44,4.49-4A4.92,4.92,0,0,0,475.78,424.84ZM126.66,333.15a40.5,40.5,0,0,1-9.94-.73c-8.63-2.14-16.15-11.18-17.56-20.72,0-.68,0-1.37.08-2.05,0-3.21,0-6.42,0-9.62a17.58,17.58,0,0,1,0-5.56V278.65c0-.25,0-.51,0-.76V244.81c-.07-1.14-.2-2.28-.2-3.43q0-72.34,0-144.7c0-3-.2-6,1.07-8.79a1.47,1.47,0,0,1,.2-.6,15.73,15.73,0,0,1,4-7.67c5.8-7.65,13.86-10.21,23-10.21q35.55,0,71.1,0,87.51,0,175,0c10.6,0,18.52,4.49,24,13.44a19.06,19.06,0,0,1,2.71,8.81,46,46,0,0,1-.06,14.25c0,.28-.11.57-.16.86.81,7.9.3,15.83.31,23.75q.12,87.57.1,175.16c0,7.07-1,13.68-5.77,19.32-4.25,5-9.5,8-16.09,8.06-14.94.09-29.88,0-44.82-.06-6.78.06-13.56.16-20.34.16Q220,333.17,126.66,333.15Zm167,26.15-82.74,0c-3.24,0-6.45.8-9.75.17-1.47-.28-2.13-.53-1.64-2.07a1.87,1.87,0,0,0,.08-.34c1.53-9.86,1.92-10.22,11.73-10.24,12.05,0,24.11,0,36.16,0a15.47,15.47,0,0,1,2.68-.45q21.9,0,43.8,0a16.11,16.11,0,0,1,2.37.34c2.47,1.24,2.23,3.84,2.72,5.92C300.66,359.31,300.56,359.3,293.64,359.3Zm57.68,60.43c-3.91.06-7.82,0-11.73,0l-179,.05c-3.79,0-7.59,0-11.37.2-2.89.17-3.59-.83-2.32-3.32.52-1,.21-2.32,1.14-3.19,3.3-11.45,6.44-22.94,10-34.32,1.6-5.16,5.76-7.64,11.09-7.7q21-.24,42.07-.23,58.11-.06,116.23-.05c9.9,0,13.46,2.88,16.08,12.54,2.17,8,4.51,15.9,6.93,23.8.51,1.68.52,3.37.86,5,1.89,1.51,1.77,3.86,2.24,5.87C353.88,420.07,352.22,419.72,351.32,419.73Z"/><path class="cls-3" d="M434.52,335.61a52.41,52.41,0,0,1-4.23,6.43c-7.91,10.52-15.93,21-25,30.51A190.44,190.44,0,0,1,391,386a145.1,145.1,0,0,1-12.83,10.25,132.27,132.27,0,0,1-14.43,8.4c.09,0-2.48-5.77-2.63-6.2-.88-2.42-1.77-4.84-2.64-7.27q-2.64-7.32-5.31-14.63c-3.38-9.26-9.73-15.38-19.58-16.88-4.95-.75-10.1-.21-15.16-.28-2.4,0-5.7-5.41-4.63-7.56.55-1.08,1.64-.62,2.47-.62,8.05,0,16.1,0,24.15,0,12,0,23.94.36,35.88-.14,15.76-.66,27.9-7.79,35.05-22.18a34.34,34.34,0,0,0,3.85-15.46q-.06-110.92-.05-221.85A37.35,37.35,0,0,0,413.21,80a186,186,0,0,1,18.54,26.06,229.28,229.28,0,0,1,30,80.9,222.9,222.9,0,0,1,2,58.72c-3,30.42-11.11,57.91-26.06,84.47C437.44,330.78,435.71,333.55,434.52,335.61Z"/><path class="cls-3" d="M375.26,54.39l-138,.06q-55.21,0-110.43,0c-4.9,0-9.8.4-14.87.62.39-1.89,2.22-2.34,3.11-3.58,10.49-7,21-14.07,32.23-19.9C181.3,14,217.39,4.88,255.8,6.11q66.34,2.11,120.92,40.21c-.31,2.57,1.46,2.33,3.09,2.28a.79.79,0,0,1,.46.24l.52.41,0,0c-.21,1.48.83,1.86,1.91,2.38.73.36,1.8.92,1.43,2-.32.92-1.37.58-2.12.6C379.79,54.34,377.52,54.35,375.26,54.39Z"/><path class="cls-3" d="M375.26,54.39c2.26,0,4.53,0,6.79-.13.75,0,1.8.32,2.12-.6.37-1.08-.7-1.64-1.43-2-1.08-.52-2.12-.9-1.91-2.38l8.36,5.84c0,.35.59,1.22-.07,1C384.62,54.35,379.86,55,375.26,54.39Z"/><path class="cls-3" d="M379.81,48.6c-1.63,0-3.4.29-3.09-2.28A7.08,7.08,0,0,1,379.81,48.6Z"/><path class="cls-5" d="M380.79,49.25l-.52-.41Z"/><path class="cls-6" d="M400.09,105.89c0,.28-.11.57-.16.86-1.25,1-1.58,2.49-2.13,3.84-3.33,8-6.76,16-10.83,23.74-.07-6.54-.12-13.09-.23-19.64-.31-17.58-11.62-28.77-29.19-28.78q-43.83,0-87.65,0-63.51,0-127-.07c-5.62,0-11.05.62-15.91,3.52-9.26,5.52-13.72,13.77-13.71,24.58q.07,52.11,0,104.22c0,12.89,0,25.77.15,38.65a22,22,0,0,0,5.12,13.63c6.56,8.29,15.38,10.9,25.61,10.88q108.2-.15,216.38-.06l2.74.4c-2.17,6.81-6.12,12.57-9.47,18.64a3.46,3.46,0,0,1-2.29,1.89c-5.27-.19-8.48,2-8.45,6.06,0,3.06,1,5.81,3.76,7.58A142.2,142.2,0,0,1,333.66,333c-6.78.06-13.56.16-20.34.16q-93.33,0-186.66,0a40.5,40.5,0,0,1-9.94-.73c-8.63-2.14-16.15-11.18-17.56-20.72a1.33,1.33,0,0,0,.08-2.05c0-3.21,0-6.42,0-9.62a7.67,7.67,0,0,0,0-5.56V278.65c.08-.07.24-.17.23-.22a3.7,3.7,0,0,0-.24-.54V244.81a4.35,4.35,0,0,0,.46-2.67c.12-10.23.32-20.47.34-30.7q.09-61.77.09-123.55a1.47,1.47,0,0,1,.2-.6c1.37-2.53,4.32-4.26,4-7.67,5.8-7.65,13.86-10.21,23-10.21q35.55,0,71.1,0,87.51,0,175,0c10.6,0,18.52,4.49,24,13.44a19.06,19.06,0,0,1,2.71,8.8ZM235.94,306.26a13.84,13.84,0,0,0,14,13.66c7.33-.07,13.94-6.72,13.88-13.95a13.55,13.55,0,0,0-13.88-13.28C242,292.87,235.89,298.75,235.94,306.26Zm73.67-4.19a6.72,6.72,0,0,0-6.71,7.15,6.56,6.56,0,0,0,6.5,6.61,7,7,0,0,0,6.93-7.05A6.51,6.51,0,0,0,309.61,302.07Zm20.27,0c-4.09,0-6.89,2.61-6.9,6.51s3.08,7.16,6.53,7.1a7.13,7.13,0,0,0,6.76-6.95A6.38,6.38,0,0,0,329.88,302.07Z"/><path class="cls-6" d="M148,413.5c3.3-11.45,6.44-22.94,10-34.32,1.6-5.16,5.76-7.64,11.09-7.7q21-.24,42.07-.23,58.11-.06,116.23-.05c9.9,0,13.46,2.88,16.08,12.54,2.17,8,4.51,15.9,6.93,23.8.51,1.68.52,3.37.86,5a6.84,6.84,0,0,1-4,.83q-73.44,0-146.88-.06C183,413.36,165.49,413.45,148,413.5ZM306.5,377.92c-4.16-.1-7.18,2.67-7.19,6.6a6.25,6.25,0,0,0,6.22,6.43c4.67.18,7.93-2.54,8-6.65C313.52,380.48,310.83,378,306.5,377.92Zm-45.92,13c4.87,0,7.95-2.48,8.09-6.55.12-3.73-2.93-6.48-7.24-6.53a6.68,6.68,0,0,0-7,6.77A6,6,0,0,0,260.58,390.94Zm-82.07,12.13c0-4-2.75-6.46-7.21-6.49-4.09,0-6.7,2.52-6.72,6.55,0,3.87,2.73,6.57,6.76,6.65A6.88,6.88,0,0,0,178.51,403.07Zm-7.06-25.2c-4.13.05-6.81,2.63-6.81,6.57,0,3.75,2.6,6.7,5.87,6.64,5.07-.1,8.13-2.75,8-7C178.45,380.2,175.74,377.82,171.45,377.87ZM328.63,409.8c4.05,0,7.25-2.81,7.32-6.52.07-3.95-2.8-6.64-7.08-6.64-4.06,0-6.93,2.65-6.93,6.43A6.65,6.65,0,0,0,328.63,409.8Zm0-31.9c-4.08-.12-6.75,2.37-6.89,6.41s2.33,6.62,6.19,6.7c4.45.09,7.6-2.52,7.81-6.49C336,380.72,333.09,378,328.66,377.9ZM238.19,391c4.83-.06,7.94-2.74,7.89-6.8,0-3.87-3.07-6.43-7.45-6.31A6.59,6.59,0,0,0,232,384.7C232,388.53,234.47,391,238.19,391Zm46.27-13.06c-4.21-.17-7.24,2.39-7.43,6.27s2.18,6.66,6,6.82c4.74.2,7.92-2.35,8.06-6.46C291.24,380.66,288.66,378.08,284.46,377.92ZM215.66,391c4.71,0,7.89-2.8,7.86-6.83,0-3.82-2.79-6.28-7.08-6.32s-7,2.71-6.93,6.8C209.55,388.54,212,391,215.66,391Zm90.62,18.77c4.06-.06,7.44-3.36,7.27-7.1s-3.28-6.12-7.43-6a6.46,6.46,0,0,0-6.62,6.44A6.69,6.69,0,0,0,306.28,409.78Zm-22.22,0a6.82,6.82,0,0,0,7-6.94c-.08-3.76-3-6.26-7.18-6.2-4,.05-6.85,2.81-6.78,6.62A6.6,6.6,0,0,0,284.06,409.79Zm-89.87-31.91c-4.31-.07-6.95,2.44-7,6.66-.07,3.93,2.22,6.48,5.88,6.55,4.54.09,8-2.78,8-6.69C201.13,380.68,198.23,377.94,194.19,377.88Zm67.6,18.77c-4.09-.15-7,2.39-7.13,6.2-.14,4.34,2.21,6.82,6.55,6.92a7.1,7.1,0,0,0,7.44-6.58C268.84,399.53,266,396.8,261.79,396.65Zm-67.53,0c-4.23-.14-7,2.25-7.07,6.15-.11,4.24,2.38,6.91,6.53,7a7.1,7.1,0,0,0,7.33-6.63C201.15,399.41,198.42,396.77,194.26,396.63Zm29.16,6.3c0-3.76-2.69-6.22-7-6.3-3.9-.07-7,2.46-6.85,6,.24,5.05,2,6.91,6.74,7.07A6.91,6.91,0,0,0,223.42,402.93Zm22.6.45c.07-4.13-2.49-6.62-6.9-6.73-4.16-.11-6.94,2.4-7,6.31a6.43,6.43,0,0,0,6.59,6.83C242.64,409.85,246,406.92,246,403.38Z"/><path class="cls-3" d="M351.54,302.2a3.46,3.46,0,0,0,2.29-1.89c3.35-6.07,7.3-11.83,9.47-18.64l-2.74-.4c1.8-.28,3.63-.45,5.4-.85,12.55-2.84,20.83-13.45,20.84-26.87q0-51.53,0-103c0-5.39.13-10.78.2-16.18,4.07-7.7,7.5-15.7,10.83-23.74.55-1.35.88-2.86,2.13-3.84.81,7.9.3,15.83.31,23.75q.12,87.57.1,175.16c0,7.07-1,13.68-5.77,19.32-4.25,5-9.5,8-16.09,8.06-14.94.09-29.88,0-44.82-.06a142.2,142.2,0,0,0,13.19-17.14c.69,0,1.38,0,2.07,0,4.08-.16,7-2.48,7.62-6.1C357.14,306.29,355.56,303.9,351.54,302.2ZM363.39,309c0,4,2.42,6.72,6.12,6.79a7.13,7.13,0,0,0,7.5-6.88,6.6,6.6,0,0,0-6.91-6.9C366,302,363.44,304.69,363.39,309Z"/><path class="cls-7" d="M148,413.5c17.46-.05,34.92-.14,52.38-.15q73.44,0,146.88.06a6.84,6.84,0,0,0,4-.83c1.89,1.51,1.77,3.86,2.24,5.87.38,1.62-1.28,1.27-2.18,1.28-3.91.06-7.82,0-11.73,0l-179,.05c-3.79,0-7.59,0-11.37.2-2.89.17-3.59-.83-2.32-3.32C147.41,415.67,147.1,414.37,148,413.5Z"/><path class="cls-7" d="M296.33,346.65c2.47,1.24,2.23,3.84,2.72,5.92,1.61,6.74,1.51,6.73-5.41,6.73l-82.74,0c-3.24,0-6.45.8-9.75.17-1.47-.28-2.13-.53-1.64-2.07a1.87,1.87,0,0,0,.08-.34c1.53-9.86,1.92-10.22,11.73-10.24,12.05,0,24.11,0,36.16,0Z"/><path class="cls-3" d="M100.12,87.89q0,61.79-.09,123.55c0,10.23-.22,20.47-.34,30.7a4.35,4.35,0,0,1-.46,2.67c-.07-1.14-.2-2.28-.2-3.43q0-72.34,0-144.7C99.05,93.72,98.85,90.71,100.12,87.89Z"/><path class="cls-4" d="M296.33,346.65l-48.85.11a15.47,15.47,0,0,1,2.68-.45q21.9,0,43.8,0A16.11,16.11,0,0,1,296.33,346.65Z"/><path class="cls-3" d="M104.31,79.62c.33,3.41-2.62,5.14-4,7.67A15.73,15.73,0,0,1,104.31,79.62Z"/><path class="cls-5" d="M400.09,105.89l.06-14.26A46.08,46.08,0,0,1,400.09,105.89Z"/><path class="cls-3" d="M99.24,294.47a7.67,7.67,0,0,1,0,5.56A17.58,17.58,0,0,1,99.24,294.47Z"/><path class="cls-3" d="M99.24,309.65a1.33,1.33,0,0,1-.08,2.05C99.19,311,99.21,310.33,99.24,309.65Z"/><path class="cls-3" d="M99.23,277.89a3.7,3.7,0,0,1,.24.54c0,.05-.15.15-.23.22Z"/><path class="cls-4" d="M374.36,399.22l-.88.71A.74.74,0,0,1,374.36,399.22Z"/><path class="cls-4" d="M387,134.33c-.07,5.4-.2,10.79-.2,16.18q0,51.53,0,103c0,13.42-8.29,24-20.84,26.87-1.77.4-3.6.57-5.4.85q-108.18,0-216.38.06c-10.23,0-19.05-2.59-25.61-10.88a22,22,0,0,1-5.12-13.63c-.13-12.88-.14-25.76-.15-38.65q0-52.11,0-104.22c0-10.81,4.45-19.06,13.71-24.58,4.86-2.9,10.29-3.53,15.91-3.52q63.49.12,127,.07,43.83,0,87.65,0c17.57,0,28.88,11.2,29.19,28.78C386.85,121.24,386.9,127.79,387,134.33ZM342,268.13c7.12,0,14.23.18,21.34.07,6.39-.1,11.64-4.89,11.71-11.13.17-14.45,0-28.9,0-43.35.11-1.6.32-3.2.32-4.8,0-32,0-63.94,0-95.91A15.14,15.14,0,0,0,360,97.63c-73.36.19-146.73.11-220.09.14-10.78,0-15.3,4.7-15.29,15.55q0,30.18,0,60.37,0,40.71-.06,81.41c0,7.69,4.22,12.81,11.25,13,7.46.25,14.94,0,22.41-.06l47,0,89.71,0Z"/><path class="cls-4" d="M235.94,306.26c-.05-7.51,6-13.39,14-13.57A13.55,13.55,0,0,1,263.8,306c.06,7.23-6.55,13.88-13.88,13.95A13.84,13.84,0,0,1,235.94,306.26Z"/><path class="cls-4" d="M351.54,302.2c4,1.7,5.6,4.09,5,7.51-.65,3.62-3.54,5.94-7.62,6.1-.69,0-1.38,0-2.07,0-2.77-1.77-3.74-4.52-3.76-7.58C343.06,304.23,346.27,302,351.54,302.2Zm-8.74,6.27-.12.19.39,0a.44.44,0,0,0-.08-.21S342.87,308.47,342.8,308.47Z"/><path class="cls-4" d="M309.61,302.07a6.51,6.51,0,0,1,6.72,6.71,7,7,0,0,1-6.93,7.05,6.56,6.56,0,0,1-6.5-6.61A6.72,6.72,0,0,1,309.61,302.07Z"/><path class="cls-7" d="M329.88,302.07a6.38,6.38,0,0,1,6.39,6.66,7.13,7.13,0,0,1-6.76,6.95c-3.45.06-6.54-3.3-6.53-7.1S325.79,302,329.88,302.07Z"/><path class="cls-4" d="M306.5,377.92c4.33.11,7,2.56,7,6.38,0,4.11-3.29,6.83-8,6.65a6.25,6.25,0,0,1-6.22-6.43C299.32,380.59,302.34,377.82,306.5,377.92Z"/><path class="cls-4" d="M260.58,390.94a6,6,0,0,1-6.19-6.31,6.68,6.68,0,0,1,7-6.77c4.31.05,7.36,2.8,7.24,6.53C268.53,388.46,265.45,391,260.58,390.94Z"/><path class="cls-4" d="M178.51,403.07a6.88,6.88,0,0,1-7.17,6.71c-4-.08-6.78-2.78-6.76-6.65,0-4,2.63-6.57,6.72-6.55C175.76,396.61,178.53,399.1,178.51,403.07Z"/><path class="cls-4" d="M171.45,377.87c4.29-.05,7,2.33,7.09,6.23.1,4.23-3,6.88-8,7-3.27.06-5.88-2.89-5.87-6.64C164.64,380.5,167.32,377.92,171.45,377.87Z"/><path class="cls-4" d="M328.63,409.8a6.65,6.65,0,0,1-6.69-6.73c0-3.78,2.87-6.43,6.93-6.43,4.28,0,7.15,2.69,7.08,6.64C335.88,407,332.68,409.83,328.63,409.8Z"/><path class="cls-4" d="M328.66,377.9c4.43.13,7.32,2.82,7.11,6.62-.21,4-3.36,6.58-7.81,6.49-3.86-.08-6.32-2.74-6.19-6.7S324.58,377.78,328.66,377.9Z"/><path class="cls-4" d="M238.19,391c-3.72,0-6.2-2.45-6.23-6.28a6.59,6.59,0,0,1,6.67-6.83c4.38-.12,7.41,2.44,7.45,6.31C246.13,388.24,243,390.92,238.19,391Z"/><path class="cls-4" d="M284.46,377.92c4.2.16,6.78,2.74,6.64,6.63-.14,4.11-3.32,6.66-8.06,6.46-3.83-.16-6.2-2.84-6-6.82S280.25,377.75,284.46,377.92Z"/><path class="cls-4" d="M215.66,391c-3.7,0-6.11-2.47-6.15-6.35,0-4.09,2.75-6.83,6.93-6.8s7.05,2.5,7.08,6.32C223.55,388.21,220.37,391,215.66,391Z"/><path class="cls-4" d="M306.28,409.78a6.69,6.69,0,0,1-6.78-6.69,6.46,6.46,0,0,1,6.62-6.44c4.15-.09,7.27,2.44,7.43,6S310.34,409.72,306.28,409.78Z"/><path class="cls-4" d="M284.06,409.79a6.6,6.6,0,0,1-7-6.52c-.07-3.81,2.74-6.57,6.78-6.62,4.21-.06,7.1,2.44,7.18,6.2A6.82,6.82,0,0,1,284.06,409.79Z"/><path class="cls-4" d="M194.19,377.88c4,.06,6.94,2.8,6.89,6.52-.05,3.91-3.49,6.78-8,6.69-3.66-.07-6-2.62-5.88-6.55C187.24,380.32,189.88,377.81,194.19,377.88Z"/><path class="cls-4" d="M261.79,396.65c4.18.15,7,2.88,6.86,6.54a7.1,7.1,0,0,1-7.44,6.58c-4.34-.1-6.69-2.58-6.55-6.92C254.78,399,257.7,396.5,261.79,396.65Z"/><path class="cls-4" d="M194.26,396.63c4.16.14,6.89,2.78,6.79,6.55a7.1,7.1,0,0,1-7.33,6.63c-4.15-.12-6.64-2.79-6.53-7C187.28,398.88,190,396.49,194.26,396.63Z"/><path class="cls-4" d="M223.42,402.93a6.91,6.91,0,0,1-7.12,6.81c-4.73-.16-6.5-2-6.74-7.07-.17-3.58,2.95-6.11,6.85-6C220.73,396.71,223.46,399.17,223.42,402.93Z"/><path class="cls-4" d="M246,403.38c-.05,3.54-3.38,6.47-7.29,6.41a6.43,6.43,0,0,1-6.59-6.83c0-3.91,2.82-6.42,7-6.31C243.53,396.76,246.09,399.25,246,403.38Z"/><path class="cls-4" d="M363.39,309c.05-4.33,2.62-7,6.71-7a6.6,6.6,0,0,1,6.91,6.9,7.13,7.13,0,0,1-7.5,6.88C365.81,315.74,363.35,313,363.39,309Z"/><path class="cls-6" d="M295,268.14l-89.71,0V191.62c-1.88,1.75-3.11,2.91-4.82,3.44-4.75,1.49-7.47.17-11.24-5.58,0-.34.13-.68.15-1,.42-7.36,3.11-9.62,10.6-8.57,1.95.27,2.37-1,3-2.12,7.69-13,.37-29.53-14.74-32.81-9-2-16.87.48-22.76,7.91-5.76,7.27-6.5,15.22-2.87,23.62.63,1.45,1.09,3.15,3.56,3,5.64-.33,7.77,1.58,8.86,7.28-.75,6.1-2.52,8.3-7.31,8.75-3.51.34-6.21-1.26-8.32-4l-.65-1-.42,1.06,0,.1a3.53,3.53,0,0,0-.17,3.25l0,5.81a15.85,15.85,0,0,0-.34,2.35q0,27.88,0,55.77a15.85,15.85,0,0,0,.34,2.35c0,1.73,0,3.45,0,5.17l-.09.16.09.15.14,1.41c-7.47,0-14.95.31-22.41.06-7-.24-11.25-5.36-11.25-13q0-40.71.06-81.41,0-30.18,0-60.37c0-10.85,4.51-15.54,15.29-15.55,73.36,0,146.73,0,220.09-.14A15.14,15.14,0,0,1,375.37,113c-.05,32,0,63.94,0,95.91,0,1.6-.21,3.2-.32,4.8-.31.13-.81.19-.9.42-3.72,9.58-9.45,18.06-14.67,26.83S348,257.85,342.1,266.21c-.06-1.14-.16-2.29-.17-3.44q0-32.91-.08-65.83c0-1.67.46-3.44-.69-5.16a11.84,11.84,0,0,0-1.14.69c-6.35,5.07-11.31,4.72-15.44-3.1.19-7.7,1.72-9.43,9.33-10,1.87-.15,2.19-1.44,2.76-2.62,4.15-8.72,2.71-17.89-3.92-25.23a22.09,22.09,0,0,0-24-5.79c-13.15,4.58-19.34,20.15-12.58,31.79.69,1.19,1.1,2.67,3.26,2.3,7.1-1.23,9.69.63,11.08,7.59-.25,3.73-1.68,6.55-5.53,7.82-3.68,1.21-6.55-.74-10-2.66ZM264.6,243c6.83-.89,12-7.62,12-15.67.05-13.72-11.13-25-25.75-25.88-12.95-.82-25.85,9.51-27.55,22.17-.9,6.64.5,12.63,6,17,1.77,1.42,3.67,3.21,6.36,1.86a3.71,3.71,0,0,0,1.22.53C246.12,243.08,255.36,243.05,264.6,243Z"/><path class="cls-5" d="M158.29,268.09c0-.47-.09-.94-.14-1.41,0,0,0-.31,0-.31,0-1.72,0-3.44,0-5.16.06-2.17.16-4.35.16-6.52q-.06-27-.15-54c0-1.94,0-3.88,0-5.81.06-1.08.12-2.16.17-3.25l0-.1,1.07,0c2.11,2.72,4.81,4.32,8.32,4,4.79-.45,6.56-2.65,7.31-8.75.38,1.65,1.31,2.17,3.08,2.25,3.69.17,7.44-.78,11.08.46,3.77,5.75,6.49,7.07,11.24,5.58,1.71-.53,2.94-1.69,4.82-3.44v76.49Z"/><path class="cls-5" d="M295,268.14V192.55c3.43,1.92,6.3,3.87,10,2.66,3.85-1.27,5.28-4.09,5.53-7.82.47,1.5,1.67,1.47,3,1.53,3.7.17,7.44-.44,11.11.45,4.13,7.82,9.09,8.17,15.44,3.1a11.84,11.84,0,0,1,1.14-.69c1.15,1.72.68,3.49.69,5.16q.07,32.91.08,65.83c0,1.15.11,2.3.17,3.44l-.06,1.92Z"/><path class="cls-3" d="M342,268.13l.06-1.92c5.87-8.36,12.14-16.45,17.37-25.24s10.95-17.25,14.67-26.83c.09-.23.59-.29.9-.42,0,14.45.22,28.9,0,43.35-.07,6.24-5.32,11-11.71,11.13C356.27,268.31,349.16,268.17,342,268.13Z"/><path class="cls-6" d="M342.8,308.47c.07,0,.16,0,.19,0a.44.44,0,0,1,.08.21l-.39,0Z"/><path class="cls-4" d="M189.24,189.48c-3.64-1.24-7.39-.29-11.08-.46-1.77-.08-2.7-.6-3.08-2.25-1.09-5.7-3.22-7.61-8.86-7.28-2.47.15-2.93-1.55-3.56-3-3.63-8.4-2.89-16.35,2.87-23.62,5.89-7.43,13.73-9.87,22.76-7.91,15.11,3.28,22.43,19.84,14.74,32.81-.67,1.12-1.09,2.39-3,2.12-7.49-1-10.18,1.21-10.6,8.57C189.37,188.8,189.29,189.14,189.24,189.48Zm-4-27.64c0-4.21-3.22-7.73-7.15-7.72a7.39,7.39,0,0,0-7.28,7.22,7.13,7.13,0,0,0,7.21,7.54C182.4,168.89,185.24,166.12,185.29,161.84Z"/><path class="cls-4" d="M324.58,189.37c-3.67-.89-7.41-.28-11.11-.45-1.28-.06-2.48,0-3-1.53-1.39-7-4-8.82-11.08-7.59-2.16.37-2.57-1.11-3.26-2.3-6.76-11.64-.57-27.21,12.58-31.79a22.09,22.09,0,0,1,24,5.79c6.63,7.34,8.07,16.51,3.92,25.23-.57,1.18-.89,2.47-2.76,2.62C326.3,179.94,324.77,181.67,324.58,189.37Zm3.14-27.62a7.35,7.35,0,1,0-14.69-.37,7.17,7.17,0,0,0,7.58,7.48A6.79,6.79,0,0,0,327.72,161.75Z"/><path class="cls-4" d="M235.67,242.54c-2.69,1.35-4.59-.44-6.36-1.86-5.48-4.4-6.88-10.39-6-17,1.7-12.66,14.6-23,27.55-22.17,14.62.92,25.8,12.16,25.75,25.88,0,8-5.2,14.78-12,15.67-.12-4.59.17-9.23-1-13.72-1.51-5.78-5.11-9.71-11-11s-10.93.93-14.36,5.9C234.33,229.82,235.14,236.23,235.67,242.54Z"/><path class="cls-7" d="M235.67,242.54c-.53-6.31-1.34-12.72,2.53-18.33,3.43-5,8.31-7.22,14.36-5.9s9.52,5.22,11,11c1.18,4.49.89,9.13,1,13.72-9.24,0-18.48.05-27.71,0A3.71,3.71,0,0,1,235.67,242.54Z"/><path class="cls-3" d="M158.15,200.73q.07,27,.15,54c0,2.17-.1,4.35-.16,6.52a16.17,16.17,0,0,1-.34-2.36q0-27.89,0-55.77A15.85,15.85,0,0,1,158.15,200.73Z"/><path class="cls-3" d="M158.34,191.67c-.05,1.09-.11,2.17-.17,3.25A3.53,3.53,0,0,1,158.34,191.67Z"/><path class="cls-3" d="M159.45,191.54l-1.07,0,.42-1.06Z"/><path class="cls-3" d="M158.15,266.37s0,.32,0,.31l-.09-.15Z"/><path class="cls-6" d="M185.29,161.84c0,4.28-2.89,7-7.22,7a7.13,7.13,0,0,1-7.21-7.54,7.39,7.39,0,0,1,7.28-7.22C182.07,154.11,185.33,157.63,185.29,161.84Z"/><path class="cls-6" d="M327.72,161.75a6.79,6.79,0,0,1-7.11,7.11,7.36,7.36,0,1,1-.43-14.71A7.25,7.25,0,0,1,327.72,161.75Z"/></g></svg>