<?xml version="1.0" encoding="utf-8"?>
<!-- Generator: Adobe Illustrator 25.0.0, SVG Export Plug-In . SVG Version: 6.00 Build 0)  -->
<svg version="1.1" id="圖層_1" xmlns="http://www.w3.org/2000/svg" xmlns:xlink="http://www.w3.org/1999/xlink" x="0px" y="0px"
	 viewBox="0 0 275 125" style="enable-background:new 0 0 275 125;" xml:space="preserve">
<style type="text/css">
	.st0{fill:#211614;}
	.st1{fill:#3F85BE;}
	.st2{fill:#FFFFFF;}
	.st3{fill:#838080;}
</style>
<path class="st0" d="M39,97.6c-0.8,0.7-1.6,1.4-2.4,2.2c-1,0.9-1.8,2-2.3,3.2c-0.6,1.7-0.1,3.7,1.2,4.9c1.4,1.2,3.3,1.7,5.1,1.3
	c2-0.2,3.9-0.7,5.8-1.5c0.8-0.2,1.3-1.1,1.1-1.9s-1.1-1.3-1.9-1.1c-1.7,0.7-3.4,1.2-5.3,1.4c-0.5,0.1-1,0.1-1.5,0
	c0.1,0-0.3-0.1-0.3-0.1s-0.6-0.2-0.3-0.1c-0.2-0.1-0.4-0.2-0.5-0.3l0,0l-0.2-0.2c-0.1-0.1-0.1-0.2,0,0c-0.1-0.1-0.1-0.2-0.2-0.2
	c-0.1-0.2-0.1-0.2,0-0.1c0-0.1-0.1-0.2-0.1-0.3s0-0.2,0-0.1c0-0.1,0-0.2,0-0.3c0-0.2,0-0.2,0-0.1c0-0.1,0-0.2,0.1-0.3
	c0.1-0.3,0.2-0.6,0.3-0.8c0-0.1,0.3-0.4,0,0c0.1-0.1,0.1-0.2,0.2-0.2c0.2-0.2,0.4-0.5,0.7-0.7c0.9-0.9,1.8-1.7,2.7-2.5
	c0.6-0.6,0.7-1.7,0-2.3C40.7,97,39.6,96.9,39,97.6L39,97.6z"/>
<path class="st1" d="M39.6,111.2L39.6,111.2c-1.9,0-3.8-0.7-5.3-1.9l-0.1-0.1c-1.9-1.8-2.5-4.5-1.7-6.9c0.6-1.5,1.5-2.9,2.7-3.9
	c0.6-0.6,1.3-1.2,1.9-1.8l0.5-0.5l0,0c1.5-1.2,3.6-1,4.8,0.5c1,1.3,1,3.1,0,4.4l-0.1,0.1l-0.5,0.5c-0.8,0.7-1.5,1.3-2.1,2
	c-0.2,0.2-0.4,0.4-0.6,0.6l-0.1,0.1v0.1l0,0h0.1c0.3,0,0.6,0,0.9,0c1.6-0.2,3.2-0.6,4.7-1.3c0.1,0,0.2-0.1,0.2-0.1
	c0.3-0.1,0.6-0.1,0.9-0.1c1.5,0,2.9,1,3.3,2.5c0,0,0,0,0,0.1c0.4,1.7-0.6,3.5-2.3,4.1c-2,0.8-4.1,1.3-6.2,1.6
	C40.5,111.1,40,111.2,39.6,111.2z"/>
<path class="st0" d="M47.2,102.4c-1.8,1.5-2.6,3.8-2.2,6.1c0.4,2.3,2.7,3.6,4.8,3.8c2.5,0.2,5-0.7,7.2-1.8s4.3-2.3,5-4.8
	c0.6-2.4-0.4-5.5-2.8-6.4c-0.8-0.2-1.6,0.3-1.9,1.1c-0.2,0.8,0.3,1.6,1.1,1.9c-0.3-0.1,0,0.1,0.1,0.2l0.2,0.3c0.2,0.3,0.3,0.6,0.4,1
	c0.2,0.8,0,1.7-0.5,2.3c-0.6,0.7-1.4,1.2-2.3,1.5c-1,0.5-2.1,1-3.2,1.3c-1,0.3-2,0.5-3,0.4c-0.7,0-1.3-0.3-1.8-0.8
	c-0.2-0.2-0.3-0.5-0.3-0.8c0-0.2,0-0.3,0-0.5c0-0.1,0-0.6,0-0.4c0.2-0.9,0.7-1.7,1.5-2.2c0.6-0.6,0.6-1.6,0-2.2
	C48.8,101.8,47.9,101.8,47.2,102.4L47.2,102.4z"/>
<path class="st1" d="M50.5,114.2L50.5,114.2c-0.3,0-0.6,0-0.9,0c-3.1-0.2-5.8-2.3-6.5-5.4c-0.6-2.9,0.5-5.9,2.8-7.9
	c1.3-1.3,3.4-1.3,4.8,0l0,0c1.3,1.3,1.3,3.5,0,4.8l-0.2,0.2c-0.3,0.3-0.6,0.6-0.7,1v0.1v0.2c0.1,0.1,0.2,0.1,0.4,0.1h0.2
	c0.7,0,1.4-0.1,2.1-0.3c1-0.3,2-0.7,2.9-1.2c0.1,0,0.1-0.1,0.2-0.1c0.5-0.2,1-0.5,1.5-0.9c0.1-0.2,0.2-0.5,0.1-0.8
	c0-0.1-0.1-0.3-0.1-0.4c-1.3-0.8-2-2.3-1.6-3.8l0,0c0.4-1.5,1.8-2.5,3.3-2.5c0.3,0,0.6,0,0.9,0.1l0.2,0.1c3.4,1.3,4.7,5.5,4,8.7
	c-0.8,3.4-3.5,4.9-6,6.1C55.6,113.4,53.1,114.1,50.5,114.2z"/>
<path class="st2" d="M41.1,35.7c-3,1.6-5.7,3.9-7.8,6.6c-2.1,2.8-3.5,6-4.3,9.5c-0.5,1.9-0.5,4,0.2,5.8c0.5,1,1.3,1.9,2.2,2.6
	c1.3,1,2.8,1.7,4.2,0.8c0.4,3.4,0.1,6,0.3,9c5.1,0.5,10.2,0.7,15.4,0.5c2.7-0.2,5.4-0.5,8-1.1c1.3-0.3,2.1-1.4,2.2-2.6V56.3
	c3.6-3.1,4.9-7.6,3.5-11.5c-0.4-1.3-1-2.6-1.8-3.8c-0.6-0.8-1.2-1.6-2-2.3c-1.6-1.3-3.4-2.2-5.3-2.7L41.1,35.7z"/>
<path class="st1" d="M47.5,72.4c-3.9,0-7.8-0.2-11.7-0.6c-0.9-0.1-1.6-0.8-1.7-1.7C34,68.8,34,67.5,34,66.3c0-1,0-2-0.1-3
	c-1.3-0.2-2.6-0.7-3.6-1.5c-1.2-0.8-2.2-2-2.8-3.3l0,0c-0.9-1.8-1-4.1-0.4-7c0.9-3.7,2.4-7.1,4.7-10.2c2.3-3.2,5.7-5.5,8.4-7.1
	c0.3-0.2,0.6-0.3,1-0.3L56,34.1c0.2,0,0.3,0,0.5,0.1c2.2,0.6,4.2,1.7,5.9,3.1l0,0c0.9,0.8,1.7,1.6,2.3,2.6V40c0.9,1.3,1.5,2.7,2,4.2
	c1.5,4.6,0.2,9.7-3.4,12.9v9.6c0,2.2-1.5,4-3.7,4.5c-2.7,0.6-5.5,1-8.3,1.1C50.1,72.4,48.8,72.4,47.5,72.4z M37.8,68.3
	c4.5,0.4,9,0.5,13.5,0.3c2.6-0.1,5.2-0.5,7.7-1c0.4-0.1,0.7-0.4,0.7-0.8V56.3c0-0.5,0.2-1.1,0.7-1.4c3-2.6,4.1-6.2,2.9-9.5
	c-0.4-1.2-0.9-2.3-1.6-3.3c-0.5-0.7-1-1.3-1.6-1.9c-1.3-1-2.8-1.8-4.3-2.3l-14-0.3c-2.6,1.5-4.9,3.4-6.8,5.8c-1.9,2.6-3.3,5.6-4,8.8
	c-0.4,1.5-0.4,3.1,0.1,4.6c0.4,0.7,0.9,1.4,1.6,1.9l0,0c0.5,0.4,1.1,0.7,1.8,0.8c0.1,0,0.3,0,0.4-0.1c0.6-0.3,1.2-0.3,1.8-0.1
	c0.6,0.3,0.9,0.8,1,1.5c0.2,1.8,0.3,3.6,0.2,5.4C37.7,66.9,37.7,67.6,37.8,68.3z"/>
<path class="st0" d="M36.5,70.4c0.1,4.9,0.3,9.9,0.5,14.8c0.1,2.6,0.2,5.2,0.3,7.8c0.1,1.1,0.1,2.2,0.2,3.2c-0.1,1,0,1.9,0.2,2.9
	c0.6,1.5,3.2,1.9,4.6,2c1.9,0.1,3.8,0,5.7-0.3c0.8-0.2,1.3-1.1,1.1-1.9s-1.1-1.3-1.9-1.1c-2.3,0.3-5.3,0.7-7.3-0.7l0.8,1.3
	c-0.5-9.3-0.9-18.7-1.1-28.1C39.5,68.4,36.4,68.4,36.5,70.4z"/>
<path class="st1" d="M44,103c-0.6,0-1.2,0-1.8-0.1h-0.1c-2.2-0.2-5.2-0.8-6.1-3.2c0-0.1-0.1-0.2-0.1-0.3c-0.3-1.1-0.4-2.2-0.3-3.3
	L35.5,93c-0.1-2.6-0.2-5.2-0.3-7.8c-0.2-4.8-0.4-9.8-0.5-14.8v-0.1c0-0.9,0.3-1.7,0.9-2.3c0.7-0.7,1.6-1,2.5-1
	c1.9,0,3.4,1.4,3.4,3.3c0,0,0,0,0,0.1c0.2,7.5,0.5,15.7,1,25.8c0.4,0.1,0.9,0.1,1.3,0.1c1,0,2-0.1,3.1-0.2c0.2-0.1,0.5-0.1,0.7-0.1
	c1.9-0.1,3.5,1.4,3.5,3.3c0.1,1.6-1,3-2.5,3.4h-0.2C46.9,102.9,45.5,103,44,103z"/>
<path class="st0" d="M48.9,102.2c1.7,0.9,3.6,1.3,5.5,1.3c1.8,0.1,3.5-0.1,5.2-0.4c0.7-0.1,1.4-0.4,2-0.9c0.7-0.6,0.6-1.4,0.6-2.2
	c0-1.2,0-2.4,0-3.7c0-6-0.1-12-0.2-18c-0.1-2.9-0.1-5.8-0.3-8.7c-0.1-2-3.2-2-3,0c0.5,8.4,0.5,16.8,0.5,25.3c0,2,0,4,0,6.1l0.8-1.3
	c-1.3,0.6-2.8,0.9-4.2,0.8c-1.8,0.2-3.6-0.2-5.2-0.9C48.8,98.6,47.2,101.2,48.9,102.2L48.9,102.2z"/>
<path class="st1" d="M55.3,105.4c-0.3,0-0.7,0-1,0c-2.1,0-4.2-0.5-6.1-1.5h-0.1c-1.4-0.7-2.1-2.2-1.7-3.7c0.4-1.9,2.2-3.1,4.1-2.7
	c0.3,0.1,0.6,0.2,0.8,0.3c1.3,0.6,2.8,0.9,4.2,0.7h0.1h0.5c0.4,0,0.8,0,1.2,0c0-1.2,0-2.4,0-3.6v-0.7c0-8.1,0-16.4-0.5-24.5
	c-0.1-0.9,0.2-1.8,0.9-2.4c0.7-0.7,1.5-1,2.5-1c1.9,0,3.4,1.4,3.5,3.2c0.2,3,0.2,6,0.3,8.8c0.1,6,0.2,12.1,0.2,18c0,1.2,0,2.5,0,3.7
	v0.2c0.1,1.3-0.3,2.5-1.3,3.4l-0.1,0.1c-0.8,0.5-1.7,0.9-2.7,1C58.5,105.2,56.9,105.4,55.3,105.4z"/>
<path class="st0" d="M40.3,34.4c-2.8,1.5-5.3,3.5-7.4,5.9c-2.1,2.6-3.7,5.5-4.8,8.6c-1,2.9-1.7,6.5-0.3,9.5c1.3,2.7,4.7,5.2,7.7,4.4
	c0.8-0.3,1.2-1.2,0.9-2c-0.3-0.7-1-1.1-1.7-1c-1.1,0.3-2.2-0.5-2.9-1.2c-0.9-0.7-1.5-1.7-1.6-2.8c-0.4-2.5,0.5-5.3,1.5-7.6
	c1-2.4,2.4-4.6,4.1-6.5c1.8-1.8,3.8-3.4,6.1-4.6C43.5,36,42,33.3,40.3,34.4L40.3,34.4z"/>
<path class="st1" d="M34.3,64.8c-3.6,0-6.9-2.8-8.2-5.6s-1.3-6.4,0.2-10.9c1.1-3.4,2.9-6.5,5.1-9.2l0.1-0.1c2.3-2.5,4.9-4.6,7.9-6.3
	l0,0c1.6-0.9,3.6-0.4,4.5,1.2c0.2,0.3,0.3,0.6,0.4,0.9c0.4,1.5-0.2,3-1.5,3.8l0,0c-2.1,1.2-4,2.6-5.6,4.3c-1.6,1.8-2.8,3.8-3.7,6
	c-1.2,2.7-1.6,4.9-1.4,6.5c0.1,0.7,0.5,1.3,1,1.7h0.1c0.8,0.8,1.2,0.8,1.2,0.8c0.3-0.1,0.6-0.1,0.9-0.1c1.7,0,3.1,1.3,3.3,3
	c0.3,1.7-0.8,3.3-2.4,3.7C35.5,64.7,34.9,64.8,34.3,64.8z"/>
<path class="st0" d="M62.7,27.1c1.6-5.1-0.1-10.7-4.2-14.1c-4.1-3.2-9.7-4-14.6-2.1c-4.9,2-8.3,6.6-8.8,11.9
	c-0.7,5.4,1.6,10.8,6,14.1c5.3,3.6,12.3,3.1,17-1.2c1.4-1.3-0.7-3.5-2.2-2.2c-3.2,2.9-7.9,3.5-11.8,1.6c-3.9-2.2-6.2-6.3-6-10.7
	c0-4.1,2.1-7.9,5.6-10c3.6-2,8-1.9,11.5,0.1c4.2,2.3,6.1,7.3,4.6,11.8C59.1,28.2,62.1,29,62.7,27.1L62.7,27.1z"/>
<path class="st1" d="M48.8,41.1c-3.1,0-6.2-1-8.8-2.7h-0.1c-4.9-3.7-7.5-9.7-6.7-15.8c0.6-6,4.4-11.1,9.9-13.5
	c5.5-2.2,11.8-1.3,16.5,2.4c4.8,3.9,6.8,10.3,4.9,16.2l-0.1,0.2c-0.5,1.3-1.8,2.2-3.2,2.2c-1.1,0-2.2-0.5-2.8-1.4
	c-0.6-0.8-0.8-1.9-0.4-2.9c1.2-3.7-0.3-7.7-3.7-9.6c-3-1.7-6.6-1.7-9.7-0.1c-2.9,1.8-4.7,5-4.7,8.4c-0.2,3.7,1.8,7.2,5,9.1
	c1.2,0.6,2.5,0.9,3.9,0.9c2.2,0,4.2-0.8,5.8-2.2c0.6-0.6,1.4-0.9,2.3-0.9c1.5,0,2.7,0.9,3.3,2.3c0.5,1.3,0.2,2.7-0.8,3.6
	C56.4,39.6,52.7,41.1,48.8,41.1z"/>
<path class="st0" d="M59.9,28.4C60.2,28.4,59.6,28.4,59.9,28.4c0.1,0,0.2,0.1,0.3,0.1l0.2,0.1l-0.2-0.1c0.1,0,0.2,0.1,0.3,0.2
	l0.2,0.1l-0.1-0.1c0.1,0.1,0.2,0.1,0.2,0.2c0.1,0.1,0.2,0.2,0.2,0.2c-0.2-0.3,0,0,0,0.1c0.1,0.1,0.1,0.2,0.2,0.3
	c-0.1-0.2-0.1-0.2,0,0v0.1c0,0.1,0.1,0.2,0.1,0.3c0-0.4,0,0,0,0.1s0,0.2,0,0.4c0,0.4,0.1-0.2,0,0.1c0,0.1,0,0.2-0.1,0.3
	s-0.2,0.5-0.1,0.3L61,31.3c-0.1,0.1-0.1,0.2-0.2,0.3s-0.2,0.4-0.1,0.2s-0.1,0.1-0.2,0.2c-0.1,0.1-0.2,0.2-0.3,0.2
	c0,0-0.3,0.3-0.2,0.2s0,0.1,0,0.1c-0.1,0.1-0.2,0.1-0.3,0.2c-0.1,0.1-0.2,0.1-0.3,0.2c0,0-0.4,0.1-0.3,0.1l-0.2,0.1l-0.4,0.1
	c-0.2,0.1-0.5,0.1-0.8,0.2s-0.1,0,0.1,0h-0.2h-0.4c-0.8-0.2-1.6,0.4-1.8,1.2s0.4,1.6,1.2,1.8c0.2,0,0.4,0,0.6,0
	c3.1,0,5.9-1.8,7.1-4.7c0.5-1.4,0.3-2.9-0.5-4.2c-0.9-1.3-2.3-2.1-3.8-2.2c-0.8,0-1.5,0.7-1.5,1.5C58.4,27.7,59,28.4,59.9,28.4
	L59.9,28.4z"/>
<path class="st1" d="M57.1,38.3c-1.9,0-3.4-1.5-3.4-3.4s1.5-3.4,3.4-3.4h0.3h0.1c0.1,0,0.3-0.1,0.4-0.1c0.1,0,0.2-0.1,0.3-0.1h0.1
	l0.2-0.1l0.2-0.1L59,31l0.2-0.1l0.1-0.1l0.1-0.1v-0.1l0.1-0.2l0,0c-1.9-0.3-3.1-2-2.9-3.9c0.3-1.7,1.7-2.9,3.3-2.9H60
	c2.1,0.1,4.1,1.2,5.2,3c1.1,1.7,1.4,3.9,0.7,5.8C64.5,36.1,61,38.4,57.1,38.3L57.1,38.3z"/>
<path class="st0" d="M51.4,21.2c0.2,0.6,0.5,1.1,0.8,1.7c0.3,0.5,0.6,0.9,0.9,1.3c0.6,0.7,1.4,1.3,2.2,1.7c0.4,0.2,0.8,0.3,1.2,0.2
	c0.4-0.1,0.7-0.4,0.9-0.7c0.2-0.4,0.3-0.8,0.2-1.2c-0.1-0.4-0.4-0.7-0.7-0.9c-0.4-0.2-0.8-0.4-1.2-0.7l0.3,0.2
	c-0.3-0.3-0.7-0.6-0.9-0.9l0.2,0.3c-0.4-0.6-0.8-1.3-1.1-1.9l0.2,0.4c0-0.1,0-0.1-0.1-0.2c-0.1-0.4-0.4-0.7-0.7-0.9
	c-0.7-0.6-1.6-0.3-2,0.4C51.4,20.4,51.3,20.8,51.4,21.2z"/>
<path class="st1" d="M56.1,27.9c-0.6,0-1.1-0.1-1.6-0.4c-1.1-0.5-2-1.2-2.8-2.1c-0.4-0.5-0.8-1.1-1.2-1.6l0,0
	c-0.3-0.6-0.6-1.2-0.8-1.9c0-0.1,0-0.1,0-0.2c-0.5-1.8,0.5-3.7,2.3-4.2c0.9-0.2,1.8-0.1,2.6,0.3h0.1c0.7,0.4,1.2,1.1,1.4,1.8
	c0.2,0.4,0.4,0.8,0.7,1.2l0.3,0.3c0.2,0.1,0.4,0.3,0.6,0.4l0.2,0.1c1.6,0.9,2.2,3,1.2,4.7c-0.4,0.8-1.2,1.3-2,1.6H57
	C56.7,27.9,56.4,27.9,56.1,27.9z"/>
<path class="st0" d="M52.1,19.3c-0.8,0.4-1.7,0.7-2.6,0.8c-0.4,0.1-0.9,0.1-1.3,0.1c-0.3,0-0.7,0-1,0l0.9,2.2c0.5-1,1-2.2,0.1-3.2
	s-2.3-0.4-3.4-0.1c-2.4,0.6-4.8,0.9-7.3,0.7c-2-0.1-2,2.9,0,3c1.7,0.1,3.3,0,5-0.2c0.8-0.1,1.6-0.2,2.3-0.4l1.1-0.3
	c0.2-0.1,0.4-0.1,0.7-0.2l0.3-0.1c0.2-0.1,0.2-0.1-0.2,0L46,21.4l0.1,0.1l-0.4-0.7c-0.2-0.5,0.1-0.4,0-0.3s-0.2,0.3-0.2,0.4
	c-0.4,0.7-0.2,1.7,0.6,2.1c0.1,0.1,0.2,0.1,0.3,0.1c1.2,0.2,2.5,0.2,3.7-0.1c1.2-0.2,2.4-0.6,3.5-1.1C55.4,21.1,53.9,18.4,52.1,19.3
	L52.1,19.3z"/>
<path class="st1" d="M48.1,25.2c-0.7,0-1.4-0.1-2.1-0.2h-0.2c-0.3-0.1-0.5-0.2-0.7-0.3c-0.2-0.1-0.4-0.2-0.5-0.4
	c-0.6,0.1-1.2,0.2-1.8,0.3c-1.8,0.2-3.5,0.3-5.3,0.2c-1.9-0.1-3.3-1.7-3.3-3.6l0,0c0-1.8,1.4-3.2,3.2-3.2c0.1,0,0.2,0,0.3,0
	c0.5,0,1,0,1.4,0c1.8,0,3.6-0.2,5.3-0.7l0.4-0.1c0.7-0.2,1.4-0.4,2.1-0.4c1,0,2,0.4,2.7,1.2l0.2,0.2c0.5-0.1,1.1-0.3,1.6-0.5h0.1
	c0.5-0.2,0.9-0.3,1.4-0.3c1.6,0,3,1.1,3.4,2.7c0.4,1.5-0.3,3-1.7,3.7c-1.3,0.7-2.7,1.1-4.1,1.3C49.7,25.2,48.9,25.2,48.1,25.2z"/>
<path class="st2" d="M53.2,70.5l18.9-45.6c0.5-1.3-0.3-2.4-1.3-3.3c-1.6-1.3-3.5-2.1-5.6-2.3c-1.4-0.1-2.8,0.1-3.3,1.4l-31,74.6
	c-0.2,0.4-0.2,0.8-0.2,1.2v12.4c0,0.3,0.2,0.5,0.5,0.5l0,0c0.1,0,0.2,0,0.3-0.1c2.8-2.5,6-6,8.7-8.6c0.4-0.4,0.7-0.8,0.9-1.3
	L53.2,70.5z"/>
<path class="st1" d="M31.2,111.1c-1.3,0-2.3-1-2.4-2.3v-0.1V96.3c0-0.7,0.1-1.3,0.4-1.9l31-74.6c0.4-1,1.5-2.5,4.4-2.5
	c0.3,0,0.6,0,0.8,0h0.1c2.4,0.3,4.6,1.3,6.5,2.8l0.1,0.1c0.7,0.7,2.9,2.7,1.8,5.4L55,71.2L42.9,100c-0.3,0.7-0.8,1.4-1.4,1.9
	c-1.3,1.2-2.8,2.7-4.2,4.1s-3.1,3.1-4.5,4.4C32.4,110.8,31.9,111,31.2,111.1L31.2,111.1z M64.5,21.1c-0.2,0-0.8,0-0.9,0.2l-31,74.6
	c0,0.1-0.1,0.2-0.1,0.3v0.1v9.2l2.1-2.1c1.5-1.5,3-3,4.3-4.3c0.2-0.2,0.3-0.4,0.4-0.6l12.1-28.8l18.9-45.6c0,0,0,0,0-0.1
	c0,0,0-0.3-0.8-1.1c-1.3-1-2.9-1.7-4.6-1.9L64.5,21.1z"/>
<path class="st0" d="M30.7,107.8v-4.4l4.7,2c-1.3,1.3-2.6,2.7-3.9,3.8c-0.2,0.2-0.5,0.2-0.7,0l0,0c-0.1-0.1-0.1-0.2-0.1-0.3V107.8z"
	/>
<path class="st1" d="M31.2,111.1c-0.7,0-1.3-0.3-1.8-0.8c-0.4-0.4-0.6-0.9-0.6-1.5c0,0,0,0,0-0.1v-5.4c0-1,0.9-1.9,1.9-1.9
	c0.2,0,0.5,0.1,0.7,0.1l4.7,2c1,0.4,1.4,1.5,1,2.5c-0.1,0.2-0.2,0.4-0.4,0.6c-1.3,1.3-2.7,2.7-4,3.8
	C32.4,110.9,31.8,111.1,31.2,111.1z"/>
<path class="st0" d="M35.6,103.8l-4.2-1.8c-0.4-0.1-0.8-0.1-1.2,0.2c-0.7,0.4-1,1.4-0.5,2.1l0.2,0.3c0.2,0.2,0.4,0.3,0.7,0.4
	l4.2,1.8c0.8,0.2,1.7-0.3,1.9-1.1c0.1-0.4,0-0.8-0.2-1.2l0,0l-0.2-0.3C36.1,104,35.8,103.8,35.6,103.8z"/>
<path class="st1" d="M35.2,108.6L35.2,108.6c-0.3,0-0.6,0-0.9-0.1l-0.2-0.1l-4.1-1.7c-0.5-0.2-1-0.4-1.4-0.8
	c-0.1-0.1-0.1-0.1-0.2-0.2l-0.2-0.3l-0.1-0.2c-0.9-1.6-0.4-3.7,1.3-4.7c0.8-0.4,1.7-0.6,2.6-0.3l0.2,0.1l4.1,1.7
	c0.5,0.2,1,0.5,1.4,0.8c0.1,0,0.1,0.1,0.1,0.2l0.2,0.3c0.1,0.1,0.1,0.2,0.2,0.3c0.9,1.6,0.4,3.7-1.2,4.6
	C36.4,108.5,35.8,108.6,35.2,108.6z"/>
<path class="st2" d="M63.7,19.3c0.5-0.1,1-0.1,1.6,0c2,0.3,4,1.1,5.6,2.3c1,1,1.9,2,1.3,3.3l-19,45.6L41.3,98.9l-10.2-4.3l30.8-74
	C62.2,19.9,62.9,19.4,63.7,19.3l-2.4,0.4c-0.7-2.4-2.2-4.4-4.2-5.8c-5.4-3.9-12.8-3.2-17.3,1.7c-1.4,1.7-2.4,3.6-2.9,5.8
	c3.3,0.3,6.6,0,9.7-1.1c0.2-0.1,0.4-0.1,0.5,0c0.4,0.2-0.1,1-0.3,1.4c1.3,0.4,4.6-0.2,6.1-1c0.8,2,1.7,3.1,3.3,3.8l5.1,2.2
	c0.7-2.3,0.8-4.7,0-7v7C62.7,22,61,16.8,57,13.8c-5.4-3.9-12.8-3.2-17.3,1.7c-4.4,5.3-4.3,12.9,0.1,18.1c4.4,5,11.9,5.5,16.9,1.2
	l0.3-0.2l-1.4,2.9c3.4,0.9,6.2,3.2,7.5,6.4c1.5,3.1,1.1,6.9-1,9.6c-0.4,0.7-0.2,1.7,0.5,2.1c0.7,0.4,1.7,0.2,2.1-0.5
	c1.3-1.8,2.1-3.9,2.4-6.1c0.1-2.2-0.3-4.3-1.2-6.3c-1.7-4-5.2-7-9.5-8.1c-0.8-0.2-1.6,0.4-1.8,1.2c-0.1,0.7,0.3,1.5,1,1.7L51.7,28
	c0.1-0.5-0.1-1-0.5-1.4c-0.6-0.6-1.5-0.6-2.1-0.1c-0.6,0.6-0.8,1.5-0.5,2.2c0.2,0.5,0.7,0.8,1.2,0.9c0.4,0.1,0.8,0,1.1-0.2
	c0.5-0.3,0.7-0.9,0.8-1.4l-7.3-1.5c0,0.6-0.3,1.1-0.8,1.5c-0.3,0.2-0.7,0.3-1.1,0.2c-0.5-0.1-1-0.4-1.2-0.9
	c-0.4-0.8-0.2-1.7,0.5-2.3c0.6-0.5,1.5-0.5,2.1,0.1c0.4,0.4,0.6,0.9,0.5,1.4l-1,26.6c5.7-1.8,9.1,5.3,4.1,8.7
	C46,62.7,43.3,63,42,61.5l-7.8,1.2c0.1,2.4,0,4.9,0.2,7.3c0,0.9,0.7,1.6,1.6,1.6l0,0c6.6,0.5,13.2,1,19.8,0.1
	c2.9-0.4,6.9-0.7,7.3-4.3c0.1-1.3,0.1-2.7,0-4v-4.7c-0.2-0.8-1-1.4-1.8-1.2c-0.6,0.1-1.1,0.6-1.2,1.2c0,2.7,0,5.3,0,7.9
	c0.1,0.5-0.1,0.9-0.5,1.3c-0.6,0.3-1.2,0.4-1.8,0.5c-0.8,0.2-1.6,0.3-2.4,0.4c-3.3,0.4-6.7,0.6-10,0.4c-3.2-0.1-6.3-0.3-9.4-0.6
	l1.5,1.5c-0.2-2.4,0-4.9-0.2-7.3c-0.1-2-3.2-2-3,0l12.6,9.1c0.1-0.8,0.8-1.5,1.6-1.4c0.7,0.1,1.3,0.7,1.4,1.4c0,9.5,0,19,0.1,28.5
	c0,0.8-0.7,1.5-1.5,1.5s-1.5-0.7-1.5-1.5c-0.1-9.5-0.1-19-0.1-28.5l5.3-1.3c2.7-0.2,5.4-0.6,8-1.2c0.5,7.3,0.5,24.2,0.5,31.7
	c-0.8,0.4-1.7,0.7-2.6,0.8c-3.7,0.4-7.2,0.5-10.4-2.5c-3.1,0.5-6.6,0.6-8.4-0.8c-0.3-5.6-1-21.2-1.2-28.1c0,0,0-0.1,0-0.2
	c4.4,0.4,8.9,0.5,13.3,0.3h0.8l2.6,0.4l6-14.5l10-24.1l2.7-6.5c2.1-5.1-6-8.8-10.1-8c-2.3,0.5-2.9,2.4-3.7,4.2L57,28.6l-9.2,22
	l-10.4,25l-7.1,17c-0.6,1.2-1,2.5-1.2,3.8c-0.1,3.6,0,7.2,0,10.8c0,0.5,0,1,0,1.6c0,1.1,0.9,2,2,2h0.1c0.5,0,1-0.2,1.4-0.5
	c3-2.5,5.5-5.5,8.3-8.2c2-1.8,2.8-4.8,3.8-7.2L54,72.5l0.7-1.6c0.2-0.8-0.2-1.6-1-1.9c-0.8-0.2-1.6,0.3-1.9,1.1l-5.2,12.5L40,98.2
	c-0.5,1-1.2,1.8-2.1,2.5c-1.3,1.2-2.5,2.5-3.7,3.7l-1.7,1.7c-0.3,0.3-0.6,0.6-0.9,0.9l-0.3,0.3l-0.3,0.3c-0.1,0.1-0.1,0.1,0,0h0.8
	l0,0l0.6,0.6c0.1,0.1,0,0.6,0,0.2c0-0.2,0-0.3,0-0.5v-1.8V101v-4.1c0-0.5,0-0.9,0.2-1.4c1-2.5,2.1-5.1,3.2-7.6l6.7-16.2l8-19.7
	L58,34l4.7-11.4l0.5-1.2l0.1-0.3V21c-0.1,0.1,0,0,0.1,0c1-0.5,2.3-0.1,3.3,0.2c1.1,0.3,2.1,0.9,3,1.6c0.5,0.5,1.1,1,0.8,1.7
	c0,0.1-0.1,0.2-0.1,0.3c-1.7,4.1-3.4,8.1-5,12.2l-8,19.4l-5.4,13l-0.3,0.7c-0.2,0.8,0.3,1.6,1.1,1.9c0.8,0.2,1.6-0.3,1.9-1.1
	L65,58.4c-0.8,0.3-1.7,0-2-0.8c-0.3-0.6-0.1-1.4,0.5-1.8c0.7-0.5,1.3-1.3,1.6-2.2c0.2-0.5,0.3-1,0.3-1.5c-0.1,0.4,0-0.2,0-0.3
	s0-0.4,0-0.6c0-0.2,0-0.4,0-0.6c0.1,0.4,0-0.1-0.1-0.2s-0.1-0.3-0.2-0.5c0.1,0.3,0,0.1,0,0S65,49.7,65,49.6
	c-0.1-0.1-0.1-0.2-0.2-0.3c0,0,0.2,0.2,0,0l-0.2-0.2c0,0-0.3-0.3-0.1-0.1s-0.2-0.1-0.2-0.1l-0.2-0.1l-0.2-0.1c0.2,0.1,0,0-0.1,0
	l-0.4-0.1c-0.1,0-0.3,0,0,0c-0.2,0-0.4,0-0.5,0c0,0-0.5,0.1-0.2,0s-0.3,0.1-0.3,0.1H62c-0.5,0.2,0.1-0.1-0.2,0.1
	c-0.4,0.2-0.7,0.4-1,0.7c-0.2,0.2-0.4,0.3-0.5,0.5c-0.1,0.1-0.1,0.1-0.2,0.2c0.2-0.2,0,0,0,0c-0.1,0.2-0.3,0.4-0.4,0.7
	c0,0.1-0.2,0.3,0,0.1c0,0.1-0.1,0.2-0.1,0.3c-0.1,0.2-0.1,0.4-0.2,0.6s-0.1,0.4,0,0.1c0,0.1,0,0.2,0,0.3c0,0.3,0,0.6,0,0.8
	c0,0.1,0,0.4,0,0.1c0,0.1,0,0.2,0.1,0.3c0.1,0.4,0.2,0.7,0.4,1l0.2,0.4c-0.1-0.2,0,0,0,0c0.2,0.2,0.3,0.4,0.5,0.5c0,0,0.2,0.2,0,0
	c0.1,0.1,0.2,0.1,0.2,0.2l0.3,0.2h0.1c0.7,0.3,1.6,0.3,2.2-0.2c0.8-0.4,1.7-0.1,2.1,0.7s0.1,1.7-0.7,2.1c-2.8,1.6-6.3,0.5-7.9-2.3
	c0.1-0.1,0.1-0.2,0-0.4c-1.2-2.5-0.8-5.5,1-7.6c1.7-2.3,4.8-3.2,7.4-2.1c2.1,1,3.4,3.2,3.2,5.6c0,2.7-1.3,5.3-3.5,6.9l-0.8-1.3
	c1.5-1.1,2.5-2.7,2.6-4.6c0.3-2.1-0.1-4.7-3-5.4c-1.1-0.2-2.2,0-3.1,0.6c-2,1.2-3.1,3.4-2.9,5.7c0.2,2.4,2.5,4.7,4.9,4.3
	c0.5-0.1,1.1-0.3,1.5-0.6l-11.4,44.7c1.7,0.2,3.5,0.2,5.2-0.1c0.6-0.1,1.1-0.2,1.7-0.3c0.4,0.5,0.7,1.2,0.8,1.8
	c0.3,1.1,0.1,2.3-0.5,3.3c-0.7,1-1.6,1.7-2.7,2.1c-1.6,0.9-3.3,1.5-5.1,1.9c-1.2,0.3-2.4,0.3-3.6-0.1c-0.9-0.3-1.6-1-2-1.9
	c-0.2-0.7-0.3-1.5-0.1-2.2c0-0.1,0-0.2,0.1-0.2l-0.4,0.2c-1.5,0.6-3,1-4.6,1.3c-1,0.2-2.1,0.2-3.1,0.1c-1-0.2-2-0.8-2.5-1.8
	c-0.4-1.1-0.3-2.3,0.2-3.3c1.1-1.4,2.3-2.6,3.7-3.7c1.9,1,5,0.8,7.8,0.4c1.4,1.4,3.3,2.3,5.2,2.6l-21.3-5.4l9.5,4
	c0.8,0.3,1.6-0.2,1.9-1v-0.1l0,0c0.2-0.8-0.3-1.6-1.1-1.9l-9.5-4c-0.8-0.2-1.7,0.3-1.9,1.1l0,0c-0.2,0.8,0.3,1.6,1.1,1.9L63.7,19.3z
	"/>
<path class="st1" d="M50.6,112.7c-0.9,0-1.8-0.1-2.6-0.4c-1.5-0.5-2.6-1.6-3.2-3c0,0,0-0.1,0-0.2s-0.1-0.2-0.1-0.3
	c-0.9,0.3-1.9,0.5-2.8,0.7c-1.3,0.3-2.5,0.3-3.8,0.1c-0.5-0.1-1-0.2-1.4-0.5c-0.8,0.8-1.8,1.7-2.8,2.5c-0.7,0.6-1.6,1-2.5,1h-0.1
	c-2.1,0-3.9-1.7-4-3.8c0-0.4,0-0.8,0-1.1v-0.5c0-1.2,0-2.4,0-3.6c0-2.4-0.1-4.8,0-7.3c0,0,0-0.1,0-0.2c0.2-1.5,0.6-3,1.3-4.4
	l7.6-18.2v-0.1h-0.3c-1.8-0.1-3.2-1.5-3.3-3.3c-0.1-1.3-0.1-2.7-0.1-4s0-2.3-0.1-3.4l0,0c-0.1-0.9,0.2-1.8,0.9-2.4
	c0.7-0.7,1.5-1,2.5-1c0.9,0,1.7,0.3,2.4,0.9l3.8-0.6l0,0l1.9-4.6c-0.6,0.1-1.2,0-1.6-0.3c-0.5-0.4-0.8-1-0.7-1.6L42.1,38
	c-1.4-0.8-2.7-1.8-3.8-3c-3.3-3.9-4.6-9.2-3.3-14.2c0.3-1.2,0.7-2.3,1.2-3.4s1.2-2.2,2.1-3.1l0,0l0,0c2.8-3.1,6.7-4.9,10.9-4.8
	c3.2,0,6.3,1,8.9,2.9c1.5,1.1,2.7,2.4,3.7,4c0.4-0.2,0.8-0.3,1.2-0.3c0.5-0.1,1.1-0.2,1.6-0.1c3.3,0,7.9,1.7,10,4.8
	c1.2,1.7,1.4,3.9,0.6,5.8l-7,17c0.3,1,0.6,2,0.7,3c1.1,1.5,1.6,3.3,1.6,5.2c0,3.2-1.5,6.3-4.1,8.2l-1.2,1.4L65,62.2v1.1
	c0.1,1.4,0.1,2.8,0,4.2v0.1c-0.2,1.7-1,3.2-2.4,4.1l-0.3,1c0.3,8.3,0.4,21.8,0.3,28.4c0,0.4-0.1,0.8-0.4,1.1
	c0.1,0.2,0.1,0.5,0.2,0.7c0.4,1.6,0.1,3.3-0.8,4.7l-0.1,0.1c-0.9,1.2-2.1,2.2-3.5,2.8c-1.7,0.9-3.6,1.6-5.5,2.1
	C52,112.7,51.3,112.7,50.6,112.7z M31.2,110.3L31.2,110.3z M48.3,107.9c0.2,0.4,0.5,0.6,0.9,0.8c0.8,0.3,1.7,0.3,2.5,0.1
	c1.6-0.4,3.2-1,4.6-1.8l0.2-0.1c0.7-0.3,1.4-0.8,1.8-1.4c0.3-0.6,0.4-1.2,0.3-1.8c0,0,0,0,0-0.1h-0.4c-0.9,0.1-1.9,0.2-2.8,0.2h-0.6
	c-0.8,0-1.6,0-2.3-0.2c-0.7-0.1-1.5-0.3-2.2-0.5l0,0h-0.1c-0.5,0.3-1.1,0.4-1.7,0.4c-1.2,0-2.4-0.6-3-1.6l-1.8-0.4l0,0
	c-0.4,0.7-1,1.3-1.6,1.9c-0.8,0.8-1.7,1.6-2.5,2.5c0.5,0,0.9,0,1.4-0.1h0.1c1.4-0.2,2.8-0.6,4.2-1.2l0.5-0.2c1-0.4,2.1,0.1,2.5,1
	c0.2,0.4,0.2,0.9,0,1.3C48.2,107.1,48.2,107.5,48.3,107.9z M34.1,99.5v2.3l1.1-1.1l0.5-0.5L34.1,99.5z M58.8,86.3l-3.5,13.8h0.2
	c0.8,0,1.6-0.1,2.4-0.2c0.3,0,0.7-0.1,1-0.2C58.8,96.2,58.8,91.3,58.8,86.3z M51.8,82.7c0,6,0,10.8,0.1,15.2l6.3-24.7
	c-0.6,0.1-1.1,0.2-1.7,0.2L56,73.5h-0.3L51.8,82.7z M35.5,92.8l1.5,0.6c0-1.2-0.1-2.4-0.2-3.7l-0.6,1.4C36,91.7,35.8,92.2,35.5,92.8
	z M40.3,81.5c0.1,3.3,0.3,6.9,0.4,10.1L45,81.4V74l-1.6-0.1L40.3,81.5z M46.3,67.2c1.6,0,3.2,0,4.8-0.1l4.3-10.4l-0.1-0.1
	c-1.4-3.2-1-6.9,1.3-9.7c1.1-1.3,2.5-2.3,4.1-2.9l0.2-0.5c-0.8-1.4-1.9-2.5-3.3-3.3l-6.1,14.6c1.3,3.1,0.2,6.7-2.7,8.4h-0.1
	c-0.3,0.2-0.7,0.4-1,0.5L46.3,67.2z M39.3,63.9l0.8,0.5l0.3-0.8L39.3,63.9L39.3,63.9z M45.4,51h0.2l4.7-11.4c-1.5,0.2-3,0.1-4.5-0.2
	L45.4,51z M60.1,34c1.3,0.7,2.5,1.5,3.6,2.5l0.1-0.2c0.6-1.4,1.1-2.7,1.7-4.1c1.1-2.6,2.2-5.2,3.3-7.9l-0.1-0.1l0,0
	c-0.7-0.6-1.5-1-2.3-1.3h-0.1c-0.5-0.2-0.9-0.3-1.4-0.3l-1.5,3.5c0,0.2-0.1,0.5-0.2,0.7c0,0.1-0.1,0.3-0.1,0.4
	c-0.1,0.3-0.2,0.5-0.5,0.8L60.1,34z M46,35.5c2,0.6,4.1,0.5,6.1-0.2l0.3-0.6l-1.3-3.2c-0.5,0.1-1.1,0.2-1.6,0.1
	c-1.1-0.2-2-0.9-2.5-1.9c0,0,0,0,0-0.1c-0.1-0.2-0.2-0.4-0.2-0.6l-0.5-0.1L46,35.5z M38.4,23.3c-0.4,3.3,0.6,6.6,2.8,9.1
	c0.3,0.4,0.7,0.7,1.1,1.1l0.1-3.4h-0.2c-1.1-0.2-2-0.9-2.5-1.9v-0.1c-0.7-1.5-0.3-3.3,1-4.4l0,0c0.1-0.1,0.3-0.2,0.4-0.3
	C40.2,23.4,39.3,23.4,38.4,23.3z M53.6,27.7l0.8,2l1.4-3.3l-0.4-0.2h-0.1c-1.5-0.7-2.7-1.8-3.4-3.2c-1.3,0.4-2.7,0.6-4.1,0.6
	c-0.5,0-1.1-0.1-1.6-0.2s-0.9-0.5-1.1-0.9c-0.5,0.1-0.9,0.2-1.4,0.3c0.6,0.2,1.1,0.5,1.5,0.9c0.3,0.3,0.6,0.7,0.7,1.1l1.7,0.4
	c0,0,0.1-0.1,0.2-0.2l0,0c0.6-0.5,1.4-0.8,2.2-0.8c0.9,0,1.8,0.4,2.5,1.1C53.2,26,53.6,26.8,53.6,27.7z M56.9,22.8l0.4,0.1l0.9-2.1
	c0.3-0.6,0.5-1.3,0.9-1.9c-0.7-1.5-1.7-2.7-3-3.6c-0.2-0.1-0.4-0.3-0.6-0.4c-0.6-0.4-1.3-0.7-2-1c-1.3-0.5-2.7-0.8-4.2-0.8
	c-3.1,0-6,1.3-8.1,3.6c-0.6,0.7-1.2,1.5-1.6,2.3c-0.1,0.2-0.2,0.3-0.2,0.5c2.2,0,4.5-0.4,6.6-1.1c0.7-0.2,1.4-0.2,2,0.2
	c0.5,0.3,0.8,0.7,1,1.2c1-0.1,2-0.4,3-0.8c0.9-0.5,2.1-0.1,2.5,0.8c0,0.1,0.1,0.2,0.1,0.2C55.3,21.8,55.9,22.3,56.9,22.8z"/>
<path class="st0" d="M43.9,54.6l0.5-0.1h0.2h0.1h-0.1h0.2h0.7h0.2c0.2,0-0.4-0.1-0.1,0l0.4,0.1l0.4,0.1l0.2,0.1c-0.3,0-0.2-0.1,0,0
	s0.4,0.3,0.7,0.4s-0.3-0.3-0.1-0.1l0.1,0.1c0.1,0.1,0.2,0.2,0.3,0.3s0.2,0.2,0.2,0.3c0-0.2-0.2-0.2-0.1-0.1l0.1,0.2
	c0.1,0.1,0.1,0.2,0.2,0.3l0.1,0.2c0.2,0.3-0.1-0.2,0-0.1c0.1,0.2,0.2,0.5,0.2,0.8c0,0.1,0.1,0.3,0.1,0.3s0-0.4,0-0.1
	c0,0.1,0,0.2,0,0.2v0.4c0,0.1,0,0.2,0,0.2s0.1-0.4,0-0.1s-0.1,0.6-0.2,0.8s-0.1,0.1,0-0.1c0,0.1-0.1,0.1-0.1,0.2
	C48,59,48,59.2,47.9,59.3s-0.2,0.2-0.2,0.4s0.2-0.3,0,0c-0.1,0.1-0.1,0.2-0.2,0.2l-0.3,0.3c-0.1,0.1-0.5,0.4-0.2,0.2
	c-0.1,0.1-0.3,0.2-0.4,0.3l-0.2,0.1h-0.1c-0.2,0.1-0.1,0,0.1,0c-0.1,0.1-0.4,0.1-0.5,0.2l-0.6,0.1l0,0c-0.1,0-0.2,0-0.3-0.1
	c-0.2,0-0.4,0-0.6,0c0,0-0.4,0-0.1,0s-0.1,0-0.2,0l-0.3-0.1h-0.1c-0.2-0.1-0.1,0,0.1,0c-0.2-0.1-0.3-0.1-0.5-0.3
	c-0.3-0.2,0.1,0.2,0,0c-0.1-0.1-0.2-0.2-0.2-0.3c-0.6-0.6-1.6-0.6-2.2,0c-0.6,0.6-0.6,1.6,0,2.2c1.4,1.6,3.7,1.8,5.6,1.3
	c1.8-0.5,3.3-1.7,4.1-3.3c1.5-2.9,0.6-6.5-2.2-8.3c-1.7-1-3.7-1.2-5.5-0.6c-0.8,0.2-1.3,1.1-1.1,1.9S43,54.8,43.9,54.6L43.9,54.6
	L43.9,54.6z"/>
<path class="st1" d="M44.8,66c-1.9,0.1-3.8-0.7-5.2-2.1c-1.3-1.3-1.3-3.4,0-4.7l0,0c1.3-1.3,3.4-1.3,4.8,0l0.1,0.1h0.4H45l0,0
	l0.4-0.1h0.2l0,0l0.1-0.1l0,0l0.1-0.1l0.1-0.1l0.2-0.2l0.1-0.1l0.1-0.1v-0.1l0,0c0-0.1,0.1-0.2,0.1-0.3s0.1-0.2,0.1-0.3v-0.3
	c0-0.1-0.1-0.2-0.1-0.4l0,0c0-0.1-0.1-0.1-0.1-0.2V57h-0.1l-0.1-0.1l0.1-0.3h-0.1c-0.1,0-0.2-0.1-0.3-0.1h-0.1h-0.3H45l-0.3,0.1
	h-0.1c-0.3,0.1-0.6,0.1-0.9,0.1l0,0c-1.9,0-3.4-1.5-3.5-3.4c0-1.5,1-2.9,2.5-3.3c2.3-0.7,4.9-0.4,7,0.8l0,0c3.6,2.3,4.8,7,2.8,10.8
	c-1.1,2.1-3,3.6-5.3,4.2C46.3,65.9,45.5,66,44.8,66z"/>
<path class="st2" d="M52.8,101.8c-2-0.3-3.8-1.2-5.2-2.6c-2.8,0.4-5.8,0.5-7.8-0.4c-1.4,1.1-2.6,2.4-3.7,3.7c-0.6,1-0.7,2.2-0.2,3.3
	c0.5,0.9,1.4,1.6,2.5,1.8c1,0.2,2.1,0.2,3.1-0.1c1.6-0.3,3.1-0.7,4.6-1.3l0.4-0.2c0,0.1-0.1,0.2-0.1,0.2c-0.1,0.7-0.1,1.5,0.1,2.2
	c0.4,0.9,1.1,1.6,2,1.9c1.2,0.4,2.4,0.4,3.6,0.1c1.8-0.4,3.5-1,5.1-1.9c1.1-0.4,2.1-1.2,2.8-2.1c0.6-1,0.8-2.2,0.5-3.3
	c-0.1-0.7-0.4-1.3-0.8-1.8c-0.5,0.2-1.1,0.3-1.7,0.3C56.3,102,54.6,102,52.8,101.8"/>
<path class="st0" d="M39,97.6c-0.8,0.7-1.6,1.4-2.4,2.2c-1,0.9-1.8,2-2.3,3.2c-0.6,1.7-0.1,3.7,1.2,4.9c1.4,1.2,3.3,1.7,5.1,1.3
	c2-0.2,3.9-0.7,5.8-1.5c0.8-0.2,1.3-1.1,1.1-1.9s-1.1-1.3-1.9-1.1c-1.7,0.7-3.4,1.2-5.3,1.4c-0.5,0.1-1,0.1-1.5,0
	c0.1,0-0.3-0.1-0.3-0.1s-0.6-0.2-0.3-0.1c-0.2-0.1-0.4-0.2-0.5-0.3l0,0l-0.2-0.2c-0.1-0.1-0.1-0.2,0,0c-0.1-0.1-0.1-0.2-0.2-0.2
	c-0.1-0.2-0.1-0.2,0-0.1c0-0.1-0.1-0.2-0.1-0.3s0-0.2,0-0.1c0-0.1,0-0.2,0-0.3c0-0.2,0-0.2,0-0.1c0-0.1,0-0.2,0.1-0.3
	c0.1-0.3,0.2-0.6,0.3-0.8c0-0.1,0.3-0.4,0,0c0.1-0.1,0.1-0.2,0.2-0.2c0.2-0.2,0.4-0.5,0.7-0.7c0.9-0.9,1.8-1.7,2.7-2.5
	c0.6-0.6,0.7-1.7,0-2.3C40.7,97,39.6,96.9,39,97.6L39,97.6z"/>
<path class="st0" d="M47.2,102.4c-1.8,1.5-2.6,3.8-2.2,6.1c0.4,2.3,2.7,3.6,4.8,3.8c2.5,0.2,5-0.7,7.2-1.8s4.3-2.3,5-4.8
	c0.6-2.4-0.4-5.5-2.8-6.4c-0.8-0.2-1.6,0.3-1.9,1.1c-0.2,0.8,0.3,1.6,1.1,1.9c-0.3-0.1,0,0.1,0.1,0.2l0.2,0.3c0.2,0.3,0.3,0.6,0.4,1
	c0.2,0.8,0,1.7-0.5,2.3c-0.6,0.7-1.4,1.2-2.3,1.5c-1,0.5-2.1,1-3.2,1.3c-1,0.3-2,0.5-3,0.4c-0.7,0-1.3-0.3-1.8-0.8
	c-0.2-0.2-0.3-0.5-0.3-0.8c0-0.2,0-0.3,0-0.5c0-0.1,0-0.6,0-0.4c0.2-0.9,0.7-1.7,1.5-2.2c0.6-0.6,0.6-1.6,0-2.2
	C48.8,101.8,47.9,101.8,47.2,102.4L47.2,102.4z"/>
<path class="st3" d="M52.2,70.4h-0.8c-4.4,0.2-8.9,0.1-13.3-0.3c0,0.2,0,0.2,0,0.2c0.1,6.9,0.8,22.5,1.2,28.1
	c1.8,1.4,5.3,1.3,8.4,0.8c3.2,3,6.7,2.8,10.4,2.5c0.9-0.1,1.8-0.4,2.6-0.8c0.1-7.5,0-24.4-0.5-31.7C57.6,69.8,54.9,70.2,52.2,70.4"
	/>
<path class="st2" d="M41.1,35.7c-3,1.6-5.7,3.9-7.8,6.6c-2.1,2.8-3.5,6-4.3,9.5c-0.5,1.9-0.5,4,0.2,5.8c0.5,1,1.3,1.9,2.2,2.6
	c1.3,1,2.8,1.7,4.2,0.8c0.4,3.4,0.1,6,0.3,9c5.1,0.5,10.2,0.7,15.4,0.5c2.7-0.2,5.4-0.5,8-1.1c1.3-0.3,2.1-1.4,2.2-2.6V56.3
	c3.6-3.1,4.9-7.6,3.5-11.5c-0.4-1.3-1-2.6-1.8-3.8c-0.6-0.8-1.2-1.6-2-2.3c-1.6-1.3-3.4-2.2-5.3-2.7L41.1,35.7z"/>
<path class="st2" d="M61.2,26.7C62.7,22,61,16.8,57,13.8c-5.4-3.9-12.8-3.2-17.3,1.7c-4.4,5.3-4.3,12.9,0.1,18.1
	c4.4,5,11.9,5.5,16.9,1.2l0.3-0.2"/>
<path class="st2" d="M61.2,19.7c-0.7-2.4-2.2-4.4-4.2-5.8c-5.4-3.9-12.8-3.2-17.3,1.7c-1.4,1.7-2.4,3.6-2.9,5.8
	c3.3,0.3,6.6,0,9.7-1.1c0.2-0.1,0.4-0.1,0.5,0c0.4,0.2-0.1,1-0.3,1.4c1.3,0.4,4.6-0.2,6.1-1c0.8,2,1.7,3.1,3.3,3.8l5.1,2.2
	C61.9,24.4,61.9,22,61.2,19.7"/>
<path class="st0" d="M46.9,71.7c0,9.5,0,19,0.1,28.5c0,0.8,0.7,1.5,1.5,1.5s1.5-0.7,1.5-1.5c-0.1-9.5-0.1-19-0.1-28.5
	c-0.1-0.8-0.8-1.5-1.6-1.4C47.5,70.4,46.9,71,46.9,71.7"/>
<path class="st0" d="M36.5,70.4c0.1,4.9,0.3,9.9,0.5,14.8c0.1,2.6,0.2,5.2,0.3,7.8c0.1,1.1,0.1,2.2,0.2,3.2c-0.1,1,0,1.9,0.2,2.9
	c0.6,1.5,3.2,1.9,4.6,2c1.9,0.1,3.8,0,5.7-0.3c0.8-0.2,1.3-1.1,1.1-1.9s-1.1-1.3-1.9-1.1c-2.3,0.3-5.3,0.7-7.3-0.7l0.8,1.3
	c-0.5-9.3-0.9-18.7-1.1-28.1C39.5,68.4,36.4,68.4,36.5,70.4z"/>
<path class="st0" d="M48.9,102.2c1.7,0.9,3.6,1.3,5.5,1.3c1.8,0.1,3.5-0.1,5.2-0.4c0.7-0.1,1.4-0.4,2-0.9c0.7-0.6,0.6-1.4,0.6-2.2
	c0-1.2,0-2.4,0-3.7c0-6-0.1-12-0.2-18c-0.1-2.9-0.1-5.8-0.3-8.7c-0.1-2-3.2-2-3,0c0.5,8.4,0.5,16.8,0.5,25.3c0,2,0,4,0,6.1l0.8-1.3
	c-1.3,0.6-2.8,0.9-4.2,0.8c-1.8,0.2-3.6-0.2-5.2-0.9C48.8,98.6,47.2,101.2,48.9,102.2L48.9,102.2z"/>
<path class="st0" d="M55.5,37.5c3.4,0.9,6.1,3.2,7.5,6.4c1.5,3.1,1.1,6.9-1,9.6c-0.4,0.7-0.2,1.7,0.5,2.1c0.7,0.4,1.7,0.2,2.1-0.5
	c1.3-1.8,2.1-3.9,2.4-6.1c0.1-2.2-0.3-4.3-1.2-6.3c-1.7-4-5.2-7-9.5-8.1c-0.8-0.2-1.6,0.4-1.8,1.2C54.4,36.5,54.8,37.3,55.5,37.5"/>
<path class="st0" d="M40.3,34.4c-2.8,1.5-5.3,3.5-7.4,5.9c-2.1,2.6-3.7,5.5-4.8,8.6c-1,2.9-1.7,6.5-0.3,9.5c1.3,2.7,4.7,5.2,7.7,4.4
	c0.8-0.3,1.2-1.2,0.9-2c-0.3-0.7-1-1.1-1.7-1c-1.1,0.3-2.2-0.5-2.9-1.2c-0.9-0.7-1.5-1.7-1.6-2.8c-0.4-2.5,0.5-5.3,1.5-7.6
	c1-2.4,2.4-4.6,4.1-6.5c1.8-1.8,3.8-3.4,6.1-4.6C43.5,36,42,33.3,40.3,34.4L40.3,34.4z"/>
<path class="st0" d="M34.2,62.6c0.1,2.4,0,4.9,0.2,7.3c0,0.8,0.7,1.5,1.6,1.5c6.6,0.5,13.2,1,19.8,0.1c2.9-0.4,6.9-0.7,7.3-4.3
	c0.1-1.3,0.1-2.7,0-4v-4.7c-0.2-0.8-1-1.4-1.8-1.2c-0.6,0.1-1.1,0.6-1.2,1.2c0,2.7,0,5.3,0,7.9c0.1,0.5-0.1,0.9-0.5,1.3
	c-0.6,0.3-1.2,0.4-1.8,0.5c-0.8,0.2-1.6,0.3-2.4,0.4c-3.3,0.4-6.7,0.6-10,0.4c-3.2-0.1-6.3-0.3-9.4-0.6l1.5,1.5
	c-0.2-2.4,0-4.9-0.2-7.3C37.2,60.7,34.1,60.7,34.2,62.6"/>
<path class="st0" d="M62.7,27.1c1.6-5.1-0.1-10.7-4.2-14.1c-4.1-3.2-9.7-4-14.6-2.1c-4.9,2-8.3,6.6-8.8,11.9
	c-0.7,5.4,1.6,10.8,6,14.1c5.3,3.6,12.3,3.1,17-1.2c1.4-1.3-0.7-3.5-2.2-2.2c-3.2,2.9-7.9,3.5-11.8,1.6c-3.9-2.2-6.2-6.3-6-10.7
	c0-4.1,2.1-7.9,5.6-10c3.6-2,8-1.9,11.5,0.1c4.2,2.3,6.1,7.3,4.6,11.8C59.1,28.2,62.1,29,62.7,27.1L62.7,27.1z"/>
<path class="st0" d="M59.9,28.4C60.2,28.4,59.6,28.4,59.9,28.4c0.1,0,0.2,0.1,0.3,0.1l0.2,0.1l-0.2-0.1c0.1,0,0.2,0.1,0.3,0.2
	l0.2,0.1l-0.1-0.1c0.1,0.1,0.2,0.1,0.2,0.2c0.1,0.1,0.2,0.2,0.2,0.2c-0.2-0.3,0,0,0,0.1c0.1,0.1,0.1,0.2,0.2,0.3
	c-0.1-0.2-0.1-0.2,0,0v0.1c0,0.1,0.1,0.2,0.1,0.3c0-0.4,0,0,0,0.1s0,0.2,0,0.4c0,0.4,0.1-0.2,0,0.1c0,0.1,0,0.2-0.1,0.3
	s-0.2,0.5-0.1,0.3L61,31.3c-0.1,0.1-0.1,0.2-0.2,0.3s-0.2,0.4-0.1,0.2s-0.1,0.1-0.2,0.2c-0.1,0.1-0.2,0.2-0.3,0.2
	c0,0-0.3,0.3-0.2,0.2s0,0.1,0,0.1c-0.1,0.1-0.2,0.1-0.3,0.2c-0.1,0.1-0.2,0.1-0.3,0.2c0,0-0.4,0.1-0.3,0.1l-0.2,0.1l-0.4,0.1
	c-0.2,0.1-0.5,0.1-0.8,0.2s-0.1,0,0.1,0h-0.2h-0.4c-0.8-0.2-1.6,0.4-1.8,1.2s0.4,1.6,1.2,1.8c0.2,0,0.4,0,0.6,0
	c3.1,0,5.9-1.8,7.1-4.7c0.5-1.4,0.3-2.9-0.5-4.2c-0.9-1.3-2.3-2.1-3.8-2.2c-0.8,0-1.5,0.7-1.5,1.5C58.4,27.7,59,28.4,59.9,28.4
	L59.9,28.4z"/>
<path class="st0" d="M44.4,26.5c0,0.6-0.3,1.1-0.8,1.5c-0.3,0.2-0.7,0.3-1.1,0.2c-0.5-0.1-1-0.4-1.2-0.9c-0.4-0.8-0.2-1.7,0.5-2.3
	c0.6-0.5,1.5-0.5,2.1,0.1C44.3,25.5,44.5,26,44.4,26.5"/>
<path class="st0" d="M51.7,28c0,0.6-0.3,1.1-0.7,1.5c-0.3,0.2-0.7,0.3-1.1,0.2c-0.5-0.1-1-0.4-1.2-0.9c-0.3-0.8-0.1-1.7,0.5-2.2
	s1.5-0.5,2.1,0.1C51.6,27,51.8,27.5,51.7,28"/>
<path class="st0" d="M51.4,21.2c0.2,0.6,0.5,1.1,0.8,1.7c0.3,0.5,0.6,0.9,0.9,1.3c0.6,0.7,1.4,1.3,2.2,1.7c0.4,0.2,0.8,0.3,1.2,0.2
	c0.4-0.1,0.7-0.4,0.9-0.7c0.2-0.4,0.3-0.8,0.2-1.2c-0.1-0.4-0.4-0.7-0.7-0.9c-0.4-0.2-0.8-0.4-1.2-0.7l0.3,0.2
	c-0.3-0.3-0.7-0.6-0.9-0.9l0.2,0.3c-0.4-0.6-0.8-1.3-1.1-1.9l0.2,0.4c0-0.1,0-0.1-0.1-0.2c-0.1-0.4-0.4-0.7-0.7-0.9
	c-0.7-0.6-1.6-0.3-2,0.4C51.4,20.4,51.3,20.8,51.4,21.2z"/>
<path class="st0" d="M52.1,19.3c-0.8,0.4-1.7,0.7-2.6,0.8c-0.4,0.1-0.9,0.1-1.3,0.1c-0.3,0-0.7,0-1,0l0.9,2.2c0.5-1,1-2.2,0.1-3.2
	s-2.3-0.4-3.4-0.1c-2.4,0.6-4.8,0.9-7.3,0.7c-2-0.1-2,2.9,0,3c1.7,0.1,3.3,0,5-0.2c0.8-0.1,1.6-0.2,2.3-0.4l1.1-0.3
	c0.2-0.1,0.4-0.1,0.7-0.2l0.3-0.1c0.2-0.1,0.2-0.1-0.2,0L46,21.4l0.1,0.1l-0.4-0.7c-0.2-0.5,0.1-0.4,0-0.3s-0.2,0.3-0.2,0.4
	c-0.4,0.7-0.2,1.7,0.6,2.1c0.1,0.1,0.2,0.1,0.3,0.1c1.2,0.2,2.5,0.2,3.7-0.1c1.2-0.2,2.4-0.6,3.5-1.1C55.4,21.1,53.9,18.4,52.1,19.3
	L52.1,19.3z"/>
<path class="st2" d="M53.2,70.5l18.9-45.6c0.5-1.3-0.3-2.4-1.3-3.3c-1.6-1.3-3.5-2.1-5.6-2.3c-1.4-0.1-2.8,0.1-3.3,1.4l-31,74.6
	c-0.2,0.4-0.2,0.8-0.2,1.2v12.4c0,0.3,0.2,0.5,0.5,0.5l0,0c0.1,0,0.2,0,0.3-0.1c2.8-2.5,6-6,8.7-8.6c0.4-0.4,0.7-0.8,0.9-1.3
	L53.2,70.5z"/>
<path class="st1" d="M63.7,19.3c-0.8,0.1-1.4,0.6-1.7,1.3l-30.8,74l10.2,4.3l11.9-28.4l18.9-45.6c0.5-1.3-0.3-2.4-1.3-3.3
	c-1.6-1.3-3.5-2.1-5.6-2.3C64.7,19.2,64.2,19.2,63.7,19.3"/>
<path class="st0" d="M30.7,107.8v-4.4l4.7,2c-1.3,1.3-2.6,2.7-3.9,3.8c-0.2,0.2-0.5,0.2-0.7,0l0,0c-0.1-0.1-0.1-0.2-0.1-0.3V107.8z"
	/>
<path class="st0" d="M35.6,103.8l-4.2-1.8c-0.4-0.1-0.8-0.1-1.2,0.2c-0.7,0.4-1,1.4-0.5,2.1l0.2,0.3c0.2,0.2,0.4,0.3,0.7,0.4
	l4.2,1.8c0.8,0.2,1.7-0.3,1.9-1.1c0.1-0.4,0-0.8-0.2-1.2l0,0l-0.2-0.3C36.1,104,35.8,103.8,35.6,103.8z"/>
<path class="st0" d="M54.7,70.9l6-14.5l10-24.1l2.7-6.5c2.1-5.1-6-8.8-10.1-8c-2.3,0.5-2.9,2.4-3.7,4.2L57,28.6l-9.2,22l-10.4,25
	l-7.1,17c-0.6,1.2-1,2.5-1.2,3.8c-0.1,3.6,0,7.2,0,10.8c0,0.5,0,1,0,1.6c0,1.1,0.9,2,2,2h0.1c0.5,0,1-0.2,1.4-0.5
	c3-2.5,5.5-5.5,8.3-8.2c2-1.8,2.8-4.8,3.8-7.2L54,72.5L54.7,70.9c0.2-0.8-0.3-1.6-1.1-1.9c-0.8-0.2-1.6,0.3-1.9,1.1l-5.2,12.5
	L40,98.2c-0.5,1-1.2,1.8-2.1,2.5c-1.3,1.2-2.5,2.5-3.7,3.7l-1.7,1.7c-0.3,0.3-0.6,0.6-0.9,0.9l-0.3,0.3l-0.3,0.3
	c-0.1,0.1-0.1,0.1,0,0h0.8l0,0l0.6,0.6c0.1,0.1,0,0.6,0,0.2c0-0.2,0-0.3,0-0.5v-1.8V101v-4.1c0-0.5,0-0.9,0.2-1.4
	c1-2.5,2.1-5.1,3.2-7.6l6.7-16.2l8-19.7L58,34l4.7-11.4l0.5-1.2l0.1-0.3V21c-0.1,0.1,0,0,0.1,0c1-0.5,2.3-0.1,3.3,0.2
	c1.1,0.3,2.1,0.9,3,1.6c0.5,0.5,1.1,1,0.8,1.7c0,0.1-0.1,0.2-0.1,0.3c-1.7,4.1-3.4,8.1-5,12.2l-8,19.4l-5.4,13l-0.3,0.7
	c-0.2,0.8,0.3,1.6,1.1,1.9C53.7,72.2,54.5,71.7,54.7,70.9"/>
<path class="st0" d="M31.6,96.4l9.5,4c0.8,0.3,1.6-0.2,1.9-1v-0.1l0,0c0.2-0.8-0.3-1.6-1.1-1.9l-9.5-4c-0.8-0.2-1.7,0.3-1.9,1.1l0,0
	C30.4,95.3,30.8,96.2,31.6,96.4"/>
<path class="st2" d="M64.3,57.1c1.5-1.1,2.5-2.7,2.6-4.6c0.3-2.1-0.1-4.7-3-5.4c-1.1-0.2-2.2,0-3.1,0.6c-2,1.2-3.1,3.4-2.9,5.7
	c0.2,2.4,2.5,4.7,4.9,4.3C63.3,57.6,63.8,57.4,64.3,57.1"/>
<path class="st0" d="M65,58.4c2.2-1.6,3.5-4.1,3.4-6.9c0.2-2.3-1-4.5-3.1-5.6c-2.6-1.1-5.7-0.2-7.4,2.1c-1.8,2.1-2.2,5.1-1,7.6
	c1.3,2.9,4.7,4.2,7.6,2.9C64.7,58.6,64.9,58.5,65,58.4c0.7-0.4,1-1.4,0.5-2.1c-0.4-0.7-1.4-1-2.1-0.5l0,0c-0.6,0.5-1.5,0.5-2.2,0.2
	h-0.1l-0.3-0.2c-0.1-0.1-0.2-0.1-0.2-0.2c0.2,0.1,0,0,0,0c-0.2-0.2-0.4-0.3-0.5-0.5c0,0-0.2-0.2,0,0l-0.2-0.4
	c-0.2-0.3-0.3-0.6-0.4-1c0-0.1,0-0.2-0.1-0.3c0,0.3,0-0.1,0-0.1c0-0.3,0-0.6,0-0.8c0-0.1,0-0.2,0-0.3c0,0.3,0,0,0-0.1
	s0.1-0.4,0.2-0.6c0-0.1,0.1-0.2,0.1-0.3c-0.1,0.3,0,0,0-0.1c0.1-0.2,0.2-0.4,0.4-0.7c0,0,0.2-0.2,0,0c0.1-0.1,0.1-0.2,0.2-0.2
	c0.2-0.2,0.3-0.4,0.5-0.5c0.3-0.3,0.6-0.5,1-0.7c0.2-0.1-0.3,0.1,0.2-0.1l0.3-0.1c0,0,0.5-0.1,0.3-0.1s0.3,0,0.2,0
	c0.2,0,0.4,0,0.5,0c-0.3,0-0.1,0,0,0l0.4,0.1c0.1,0,0.4,0.1,0.1,0l0.3,0.1l0.2,0.1c0,0,0.3,0.2,0.2,0.1s0.1,0.1,0.1,0.1l0.2,0.2
	c0.2,0.2,0,0,0,0c0.1,0.1,0.1,0.2,0.2,0.3c0,0.1,0.1,0.2,0.1,0.3s0.1,0.3,0,0c0,0.2,0.1,0.3,0.2,0.5s0.1,0.6,0.1,0.2
	c0,0.2,0,0.4,0,0.6c0,0.2,0,0.4,0,0.6s-0.1,0.8,0,0.3c-0.1,0.5-0.2,1-0.3,1.5c-0.3,0.8-0.8,1.5-1.4,2c-0.7,0.5-0.8,1.5-0.3,2.1
	C63.6,58.5,64.4,58.7,65,58.4"/>
<path class="st2" d="M43.5,53.1c5.7-1.8,9.1,5.3,4.1,8.7c-1.5,0.9-4.2,1.2-5.5-0.3"/>
<path class="st0" d="M43.9,54.6l0.5-0.1h0.2h0.1h-0.1h0.2h0.7h0.2c0.2,0-0.4-0.1-0.1,0l0.4,0.1l0.4,0.1l0.2,0.1c-0.3,0-0.2-0.1,0,0
	s0.4,0.3,0.7,0.4s-0.3-0.3-0.1-0.1l0.1,0.1c0.1,0.1,0.2,0.2,0.3,0.3s0.2,0.2,0.2,0.3c0-0.2-0.2-0.2-0.1-0.1l0.1,0.2
	c0.1,0.1,0.1,0.2,0.2,0.3l0.1,0.2c0.2,0.3-0.1-0.2,0-0.1c0.1,0.2,0.2,0.5,0.2,0.8c0,0.1,0.1,0.3,0.1,0.3s0-0.4,0-0.1
	c0,0.1,0,0.2,0,0.2v0.4c0,0.1,0,0.2,0,0.2s0.1-0.4,0-0.1s-0.1,0.6-0.2,0.8s-0.1,0.1,0-0.1c0,0.1-0.1,0.1-0.1,0.2
	C48,59,48,59.2,47.9,59.3s-0.2,0.2-0.2,0.4s0.2-0.3,0,0c-0.1,0.1-0.1,0.2-0.2,0.2l-0.3,0.3c-0.1,0.1-0.5,0.4-0.2,0.2
	c-0.1,0.1-0.3,0.2-0.4,0.3l-0.2,0.1h-0.1c-0.2,0.1-0.1,0,0.1,0c-0.1,0.1-0.4,0.1-0.5,0.2l-0.6,0.1l0,0c-0.1,0-0.2,0-0.3-0.1
	c-0.2,0-0.4,0-0.6,0c0,0-0.4,0-0.1,0s-0.1,0-0.2,0l-0.3-0.1h-0.1c-0.2-0.1-0.1,0,0.1,0c-0.2-0.1-0.3-0.1-0.5-0.3
	c-0.3-0.2,0.1,0.2,0,0c-0.1-0.1-0.2-0.2-0.2-0.3c-0.6-0.6-1.6-0.6-2.2,0c-0.6,0.6-0.6,1.6,0,2.2c1.4,1.6,3.7,1.8,5.6,1.3
	c1.8-0.5,3.3-1.7,4.1-3.3c1.5-2.9,0.6-6.5-2.2-8.3c-1.7-1-3.7-1.2-5.5-0.6c-0.8,0.2-1.3,1.1-1.1,1.9S43,54.8,43.9,54.6L43.9,54.6
	L43.9,54.6z"/>
<path class="st2" d="M89,33.4l8.9,2.1c-2.9,10.5-6,20.3-9.2,29.1L80,61.3C83.4,52.2,86.4,42.9,89,33.4z M105.3,20.5h9.3v44.8
	c0,3.9-0.7,6.8-1.9,8.6c-1.1,1.8-2.7,2.9-4.6,3.2c-4.3,0.4-8.7,0.7-13.1,0.6c-0.6-3.1-1.3-6.2-2.1-9.4c2.8,0.3,5.5,0.6,8.3,0.6
	s4.2-1.7,4.2-5L105.3,20.5z M128.2,33.3c3.8,8.6,7.4,17.7,10.9,27.4l-9.4,3.5c-3.2-10.2-6.5-19.6-10-28.1L128.2,33.3z"/>
<path class="st2" d="M153.3,66.6l1.9-13h7.9v-3h-4.6c-1.5,0.7-3.1,1.4-4.8,2c-0.7-1.4-1.3-2.7-2-4.1c0,13.7-2,23.7-5.6,30.1
	c-2-2-4-3.8-6.1-5.5c3.1-5.8,4.5-15,4.4-27.6V24.2h23.3c-0.4-1.1-1.1-2.3-1.9-3.9l10.1-0.8c0.7,1.7,1.2,3.1,1.7,4.5h21.3V30h-47.1
	v16.4c1.9-0.6,3.7-1.3,5.5-2c-1.4-1.1-2.8-2-4.2-3l3.9-3.5h-2.8v-5.2H174v6.1c-2,2.7-4.4,5.1-7.1,6.9h3.1v12.7h-8.4l-0.4,3.2h9.1
	c-0.1,4.3-0.2,8.3-0.7,12.1c-0.2,2.7-2.2,4.2-6.2,4.5c-1,0.1-3.7,0.1-8,0.1c-0.3-1.2-0.8-3-1.4-5.8l5.3,0.2c2,0,3.1-0.8,3.3-2
	c0.1-1.1,0.2-2.6,0.3-4.3L153.3,66.6z M157.2,37.9c1.9,1.3,3.5,2.6,5.3,3.8c1.8-1.1,3.2-2.3,4.8-3.8H157.2z M193.1,53.3h3.3
	c-0.4,1.4-0.9,2.8-1.2,4.3H190c-3.4,0-5.2-1.4-5.2-4.1v-2.7h-5.5c0.1,3-1.2,6-3.7,7.8h18.7v5.1c-1.5,2.1-3.3,4.2-5.3,6.1l7.8,3.8
	l-4,5.6c-3-1.8-6.1-3.4-9.2-5.1c-3.2,2.1-6.6,3.9-10.3,5.3c-1-1.7-2.3-3.5-4-5.8c2.8-0.7,5.5-1.7,8.1-2.8c-2-1.1-4.1-2.1-6.1-3.1
	l2.6-3.4h-2.2v-5.4h3.5c-1.5-1.2-3.1-2.4-5-3.9c1.2-0.6,2-1.5,2.4-2.7c0.3-2.1,0.4-4.3,0.3-6.4h11.1c-4.9-3.5-8.6-8.4-11-13.9
	l5.9-0.3c0.8,1.3,1.7,2.6,2.6,3.8c2.6-1.5,5.2-3.1,7.6-4.8l4,4.4c-2.9,1.7-5.5,3-7.8,4.3c0.7,0.6,1.4,1.1,2,1.7
	c2.6-1.4,5.1-2.9,7.4-4.5l4,4c-2,1.2-3.9,2.3-5.9,3.5c2.1,0.9,4.3,1.5,6.5,2c-1.3,1.8-2.3,3.5-3.3,5.5c-1.9-0.6-3.7-1.2-5.4-2v2.3
	C191.2,52.9,191.7,53.3,193.1,53.3z M186.9,63.9h-10.1c2.2,1.1,4.5,2.1,6.8,3.1C184.8,66,185.9,65,186.9,63.9z"/>
<path class="st2" d="M201.8,29.2h57.4v8.1h-8.9c-2.7,8.4-7.1,16.2-13,22.7c6.9,4.5,14.5,7.8,22.5,9.6c-2.3,2.8-4.5,5.8-6.5,8.7
	c-8.3-2.5-16.1-6.6-22.9-11.9c-7.1,5.2-15,9.4-23.4,12.3c-1.9-3-3.8-5.9-6-8.6c7.9-2.2,15.4-5.9,22.4-10.2
	c-5.8-6.4-10-14.3-12.1-22.6h-9.6L201.8,29.2z M240.3,37.3h-19.7c2,6.2,5.3,12.1,10,16.8C235,49.3,238.3,43.7,240.3,37.3z"/>
<path class="st2" d="M69.6,109c38.4,9,78.1,10.5,117,4.4c29.1-4.5,60.5-12.8,85-29.8c2.1-1.5-1.7-3.7-3.5-2.5
	c-23.6,16.3-53.7,24-81.6,28.7c-38.6,6.3-78.1,4.9-116.2-4.2C67.6,105,66.8,108.3,69.6,109L69.6,109z"/>
<path class="st2" d="M3.6,80.4c6.2,4.6,12.8,8.5,19.7,11.7c2.3,1.1,4.6-1.7,1.9-3C18.6,86,12.3,82.3,6.5,78
	C4.6,76.6,1.2,78.6,3.6,80.4L3.6,80.4z"/>
<path class="st2" d="M230.6,15.2c-10.2,0-18.6,7.3-20.4,17.3h40.7C249.2,22.4,240.8,15.2,230.6,15.2z M219.7,29
	c0.9-5.3,5.5-9.2,10.9-9.2c5.4,0,10,3.9,10.9,9.2H219.7z"/>
</svg>
