<?xml version="1.0" encoding="utf-8"?>
<!-- Generator: Adobe Illustrator 25.0.0, SVG Export Plug-In . SVG Version: 6.00 Build 0)  -->
<svg version="1.1" id="圖層_1" xmlns="http://www.w3.org/2000/svg" xmlns:xlink="http://www.w3.org/1999/xlink" x="0px" y="0px"
	 viewBox="0 0 200 87.3" style="enable-background:new 0 0 200 87.3;" xml:space="preserve">
<style type="text/css">
	.st0{fill:#FFFFFF;}
	.st1{fill:#211614;}
	.st2{fill:#838080;}
	.st3{fill:#3F85BE;}
	.st4{fill:#231815;}
</style>
<path class="st0" d="M38.6,71.5c-1.4-0.2-2.8-0.8-3.8-1.9c-2,0.3-4.2,0.4-5.6-0.3c-1,0.8-1.9,1.7-2.7,2.7c-0.4,0.7-0.5,1.6-0.2,2.3
	c0.4,0.7,1,1.2,1.8,1.3c0.8,0.1,1.5,0.1,2.3,0c1.1-0.2,2.2-0.5,3.3-1l0.3-0.1c0,0.1,0,0.1-0.1,0.2c-0.1,0.5-0.1,1.1,0.1,1.6
	c0.3,0.7,0.8,1.2,1.5,1.4c0.8,0.3,1.7,0.3,2.6,0.1c1.3-0.3,2.5-0.8,3.6-1.4c0.8-0.3,1.5-0.9,2-1.6c0.4-0.7,0.6-1.6,0.4-2.4
	c-0.1-0.5-0.3-0.9-0.6-1.3c-0.4,0.1-0.8,0.2-1.2,0.3C41.1,71.6,39.8,71.6,38.6,71.5"/>
<path class="st1" d="M28.6,68.4c-0.6,0.5-1.2,1.1-1.8,1.6c-0.7,0.6-1.3,1.4-1.6,2.3c-0.5,1.3-0.1,2.7,0.9,3.6c1,0.8,2.4,1.2,3.7,1
	c1.4-0.2,2.8-0.5,4.2-1.1c0.6-0.2,0.9-0.8,0.8-1.4c-0.2-0.6-0.8-0.9-1.4-0.8c-1.2,0.5-2.5,0.9-3.8,1c-0.4,0-0.7,0-1.1,0l-0.2,0
	c0,0-0.4-0.1-0.3-0.1c-0.1-0.1-0.3-0.1-0.4-0.2c-0.1-0.1-0.1-0.1,0,0c-0.1,0-0.1-0.1-0.2-0.1c-0.1-0.1-0.1-0.1,0,0
	c0-0.1-0.1-0.1-0.1-0.2c-0.1-0.1-0.1-0.1,0,0c0-0.1,0-0.1-0.1-0.2c0-0.1,0-0.1,0,0v-0.2c0-0.1,0-0.2,0-0.1c0-0.1,0-0.2,0-0.2
	c0-0.2,0.1-0.4,0.2-0.6c0-0.1,0.2-0.3,0,0l0.1-0.2c0.1-0.2,0.3-0.3,0.5-0.5c0.6-0.6,1.3-1.2,2-1.8c0.4-0.4,0.4-1.1,0-1.6
	S29.1,68,28.6,68.4L28.6,68.4z"/>
<path class="st1" d="M34.5,71.9c-1.3,1.1-1.9,2.8-1.6,4.4c0.3,1.6,1.9,2.6,3.5,2.8c1.8,0,3.6-0.4,5.2-1.3c1.6-0.8,3.1-1.6,3.6-3.5
	c0.4-1.7-0.3-4-2-4.7c-0.6-0.2-1.2,0.2-1.4,0.8c-0.2,0.6,0.2,1.2,0.8,1.4c-0.2-0.1,0,0.1,0.1,0.1l0.1,0.2c0.1,0.2,0.2,0.5,0.3,0.7
	c0.1,0.6,0,1.2-0.4,1.7c-0.5,0.5-1,0.8-1.6,1.1c-0.8,0.4-1.5,0.7-2.3,1c-0.7,0.2-1.4,0.3-2.2,0.3c-0.5,0-1-0.3-1.3-0.6
	c-0.1-0.2-0.2-0.3-0.2-0.5c0-0.1,0-0.2,0-0.4c0-0.1,0-0.4,0-0.3c0.2-0.6,0.5-1.2,1.1-1.6c0.4-0.4,0.4-1.1,0-1.6
	C35.7,71.4,35,71.4,34.5,71.9L34.5,71.9z"/>
<path class="st2" d="M38.1,48.7h-0.6c-3.2,0.1-6.5,0-9.7-0.3c0,0.1,0,0.2,0,0.2c0.1,5,0.6,16.3,0.8,20.4c1.3,1,3.9,0.9,6.1,0.6
	c2.3,2.2,4.8,2.1,7.6,1.8c0.7-0.1,1.3-0.3,1.9-0.6c0.1-5.5,0-17.7-0.3-23C42,48.2,40.1,48.5,38.1,48.7"/>
<path class="st0" d="M30.1,23.5c-2.2,1.2-4.1,2.8-5.7,4.8c-1.5,2.1-2.5,4.4-3.1,6.9c-0.4,1.4-0.3,2.9,0.2,4.2
	c0.4,0.8,0.9,1.4,1.6,1.9c0.9,0.7,2,1.2,3.1,0.6c0.3,2.5,0.1,4.4,0.2,6.5c3.7,0.4,7.4,0.5,11.1,0.4c2-0.1,3.9-0.4,5.8-0.8
	c0.9-0.2,1.6-1,1.6-1.9v-7.6c2.5-2,3.5-5.3,2.5-8.4c-0.3-1-0.7-1.9-1.3-2.7c-0.4-0.6-0.9-1.2-1.5-1.6c-1.1-0.9-2.4-1.6-3.8-2
	L30.1,23.5z"/>
<path class="st0" d="M44.7,17c1.1-3.4-0.1-7.2-3-9.3c-3.9-2.8-9.3-2.3-12.6,1.3c-3.2,3.8-3.1,9.3,0,13.1c3.2,3.6,8.6,4,12.2,0.8
	l0.2-0.2"/>
<path class="st0" d="M44.7,11.9c-0.5-1.7-1.6-3.2-3-4.2c-3.9-2.8-9.3-2.3-12.6,1.3c-1,1.2-1.8,2.6-2.1,4.2c2.4,0.2,4.8,0,7-0.8
	c0.1-0.1,0.3-0.1,0.4,0c0.3,0.2-0.1,0.8-0.2,1c1.5,0.1,3-0.1,4.4-0.8c0.3,1.2,1.2,2.2,2.3,2.8l3.7,1.6
	C45.2,15.3,45.2,13.5,44.7,11.9"/>
<path class="st1" d="M34.3,49.6c0,6.9,0,13.8,0.1,20.7c0.1,0.6,0.6,1.1,1.2,1c0.5,0,1-0.5,1-1c-0.1-6.9-0.1-13.8-0.1-20.7
	c-0.1-0.6-0.6-1.1-1.2-1C34.8,48.7,34.3,49.1,34.3,49.6"/>
<path class="st1" d="M26.8,48.7c0.1,3.6,0.2,7.1,0.4,10.7c0.1,1.9,0.2,3.8,0.3,5.7l0.1,2.3c0,0.7,0,1.4,0.2,2.1
	c0.4,1.1,2.3,1.3,3.3,1.4c1.4,0.1,2.8,0,4.1-0.2c0.6-0.2,0.9-0.8,0.8-1.3c0,0,0,0,0,0c-0.2-0.6-0.8-0.9-1.4-0.8
	c-1.6,0.2-3.8,0.5-5.3-0.5l0.5,1c-0.4-6.8-0.7-13.6-0.8-20.4C29,47.2,26.7,47.2,26.8,48.7L26.8,48.7z"/>
<path class="st1" d="M35.8,71.7c1.2,0.6,2.6,1,4,1c1.3,0.1,2.6,0,3.8-0.3c0.5-0.1,1-0.3,1.4-0.6c0.5-0.4,0.4-1,0.4-1.6
	c0-0.9,0-1.8,0-2.7c0-4.3,0-8.7-0.1-13c0-2.1-0.1-4.2-0.2-6.3c-0.1-1.4-2.3-1.4-2.2,0c0.4,6.1,0.3,12.2,0.3,18.3c0,1.5,0,2.9,0,4.4
	l0.5-1c-1,0.4-2,0.6-3.1,0.6c-1.3,0.1-2.6-0.1-3.8-0.7C35.6,69.2,34.6,71.1,35.8,71.7L35.8,71.7z"/>
<path class="st1" d="M40.6,24.8c2.5,0.6,4.5,2.4,5.5,4.7c1.1,2.3,0.8,5-0.7,7c-0.3,0.5-0.1,1.2,0.4,1.5c0.5,0.3,1.2,0.1,1.5-0.4
	c1-1.3,1.5-2.8,1.7-4.5c0.1-1.6-0.2-3.2-0.9-4.6c-1.3-2.9-3.8-5.1-6.9-5.9c-0.6-0.1-1.2,0.3-1.3,0.9C39.8,24.2,40.1,24.7,40.6,24.8"
	/>
<path class="st1" d="M29.5,22.5c-2,1.1-3.8,2.6-5.4,4.3c-1.5,1.9-2.7,4-3.5,6.3c-0.7,2.1-1.2,4.7-0.2,6.9c0.9,1.9,3.4,3.7,5.6,3.2
	c0.6-0.2,0.9-0.8,0.7-1.4c-0.2-0.5-0.7-0.8-1.3-0.7c-0.8,0.2-1.6-0.4-2.1-0.9c-0.6-0.5-1-1.3-1.2-2.1c-0.3-1.8,0.4-3.9,1.1-5.5
	c0.7-1.7,1.7-3.3,3-4.7c1.3-1.3,2.8-2.4,4.4-3.3c0.5-0.3,0.7-1,0.3-1.5C30.7,22.4,30.1,22.3,29.5,22.5L29.5,22.5z"/>
<path class="st1" d="M25.1,43.1c0.1,1.8,0,3.6,0.1,5.3c0,0.6,0.5,1.1,1.1,1.1c4.8,0.4,9.6,0.7,14.3,0.1c2.1-0.3,5-0.5,5.3-3.1
	c0.1-1,0.1-1.9,0-2.9v-3.4c-0.1-0.6-0.6-1.1-1.2-1c-0.5,0-1,0.5-1,1c0,1.9,0,3.8,0,5.8c0.1,0.3-0.1,0.7-0.3,0.9
	c-0.4,0.2-0.9,0.3-1.3,0.3c-0.6,0.1-1.1,0.2-1.7,0.3c-2.4,0.3-4.8,0.4-7.2,0.3c-2.3-0.1-4.6-0.2-6.8-0.4l1.1,1.1
	c-0.1-1.8,0-3.5-0.1-5.3C27.3,41.7,25,41.7,25.1,43.1"/>
<path class="st1" d="M45.7,17.3c1.2-3.7,0-7.8-3.1-10.2c-3-2.3-7-2.9-10.6-1.6c-3.6,1.5-6,4.8-6.4,8.6c-0.5,3.9,1.2,7.8,4.4,10.2
	c3.8,2.6,8.9,2.3,12.3-0.8c1-1-0.5-2.5-1.6-1.6c-2.4,2.1-5.8,2.6-8.6,1.2c-2.8-1.6-4.5-4.6-4.4-7.8c0-3,1.5-5.7,4.1-7.3
	c2.6-1.4,5.8-1.4,8.4,0.1c3,1.7,4.4,5.3,3.3,8.6C43.2,18,45.3,18.6,45.7,17.3L45.7,17.3z"/>
<path class="st1" d="M43.7,18.3C44,18.3,43.5,18.2,43.7,18.3l0.2,0.1l0.2,0.1l-0.1,0c0,0,0.2,0.1,0.2,0.1l0.1,0.1l-0.1-0.1
	c0.1,0,0.1,0.1,0.2,0.2c0.1,0.1,0.1,0.1,0.2,0.2c-0.1-0.2,0,0,0,0c0.1,0.1,0.1,0.1,0.1,0.2c-0.1-0.1-0.1-0.2,0,0v0.1
	c0,0.1,0.1,0.2,0.1,0.2c0-0.3,0,0,0,0c0,0,0,0.2,0,0.3c0,0.3,0.1-0.2,0,0c0,0.1,0,0.2-0.1,0.3c-0.1,0.1-0.1,0.3-0.1,0.2
	c0.1-0.1-0.1,0.1-0.1,0.1c0,0.1-0.1,0.2-0.1,0.2c0,0-0.2,0.3-0.1,0.1s-0.1,0.1-0.1,0.1c-0.1,0.1-0.1,0.1-0.2,0.2
	c0,0-0.2,0.2-0.1,0.1l-0.2,0.1l-0.2,0.1l-0.3,0.1c0,0-0.3,0.1-0.2,0.1l-0.2,0.1l-0.3,0.1l-0.6,0.1H42h-0.3c-0.6-0.1-1.1,0.4-1.2,1
	c-0.1,0.6,0.4,1.1,1,1.2c0.1,0,0.1,0,0.2,0c2.2,0,4.3-1.3,5.1-3.4c0.4-1,0.2-2.1-0.3-3c-0.6-0.9-1.6-1.5-2.8-1.6
	c-0.6,0-1.1,0.5-1.1,1.1C42.6,17.8,43.1,18.3,43.7,18.3L43.7,18.3z"/>
<path class="st1" d="M32.5,16.9c0,0.4-0.2,0.8-0.6,1c-0.2,0.1-0.5,0.2-0.8,0.1c-0.4-0.1-0.7-0.3-0.9-0.7c-0.2-0.6-0.1-1.2,0.3-1.6
	c0.5-0.4,1.1-0.3,1.5,0.1C32.4,16.1,32.6,16.5,32.5,16.9"/>
<path class="st1" d="M37.8,18c0,0.4-0.2,0.8-0.6,1c-0.2,0.1-0.5,0.2-0.8,0.1c-0.4-0.1-0.7-0.3-0.9-0.7c-0.2-0.6-0.1-1.2,0.4-1.6
	c0.4-0.4,1.1-0.3,1.5,0.1C37.7,17.2,37.9,17.6,37.8,18"/>
<path class="st1" d="M37.6,13c0.2,0.4,0.3,0.8,0.6,1.2c0.2,0.3,0.4,0.7,0.7,1c0.5,0.5,1,0.9,1.6,1.2c0.3,0.1,0.6,0.2,0.9,0.1
	c0.3-0.1,0.5-0.3,0.7-0.5c0.1-0.3,0.2-0.6,0.1-0.9c-0.1-0.3-0.3-0.5-0.5-0.7c-0.3-0.1-0.6-0.3-0.8-0.5l0.2,0.2
	c-0.3-0.2-0.5-0.4-0.7-0.7l0.2,0.2c-0.3-0.4-0.6-0.9-0.8-1.4l0.1,0.3c0,0,0-0.1-0.1-0.1c-0.1-0.3-0.3-0.5-0.5-0.7
	c-0.5-0.3-1.2-0.1-1.5,0.4C37.5,12.4,37.5,12.7,37.6,13L37.6,13z"/>
<path class="st1" d="M38.1,11.7c-0.6,0.3-1.2,0.5-1.9,0.6c-0.3,0.1-0.6,0.1-0.9,0.1c-0.2,0-0.5,0-0.7,0l0.7,1.6
	c0.4-0.7,0.8-1.6,0.1-2.3c-0.7-0.7-1.6-0.3-2.5-0.1c-1.7,0.5-3.5,0.6-5.3,0.5c-1.4-0.1-1.4,2.1,0,2.2c1.2,0.1,2.4,0,3.6-0.1
	c0.6-0.1,1.1-0.2,1.7-0.3c0.3-0.1,0.5-0.1,0.8-0.2l0.5-0.1l0.2-0.1c0.2,0,0.1,0-0.1,0l-0.5-0.2l0.1,0.1l-0.3-0.5
	c-0.2-0.4,0.1-0.3,0-0.2c-0.1,0.1-0.1,0.2-0.2,0.3c-0.3,0.5-0.1,1.2,0.4,1.5l0.2,0.1c0.9,0.2,1.8,0.1,2.7,0c0.9-0.1,1.8-0.4,2.6-0.8
	C40.5,12.9,39.4,11,38.1,11.7L38.1,11.7z"/>
<path class="st0" d="M38.9,48.7l13.7-33.1c0.4-0.9-0.2-1.7-1-2.4c-1.2-0.9-2.6-1.5-4-1.7c-1-0.1-2,0.1-2.4,1l-22.5,54
	c-0.1,0.3-0.2,0.5-0.1,0.8v9c0,0.2,0.2,0.3,0.4,0.3c0.1,0,0.2,0,0.2-0.1c2-1.8,4.3-4.4,6.3-6.2c0.3-0.3,0.5-0.6,0.6-0.9L38.9,48.7z"
	/>
<path class="st3" d="M46.5,11.6c-0.6,0.1-1,0.4-1.3,1L22.9,66.2l7.4,3.1l8.6-20.6l13.7-33.1c0.4-0.9-0.2-1.7-1-2.4
	c-1.2-0.9-2.5-1.5-4-1.7C47.2,11.6,46.8,11.6,46.5,11.6"/>
<path class="st1" d="M22.6,75.8v-3.2L26,74c-1,1-1.9,1.9-2.8,2.7c-0.1,0.1-0.4,0.1-0.5,0c-0.1-0.1-0.1-0.1-0.1-0.2L22.6,75.8z"/>
<path class="st1" d="M26.1,72.9L23,71.6c-0.6-0.2-1.2,0.2-1.4,0.8c-0.1,0.3,0,0.6,0.1,0.8l0.2,0.2c0.1,0.1,0.3,0.2,0.5,0.3l3,1.3
	c0.3,0.1,0.6,0,0.9-0.1c0.5-0.3,0.7-1,0.4-1.5c0,0,0,0,0,0l0,0l-0.2-0.2C26.4,73,26.3,72.9,26.1,72.9L26.1,72.9z"/>
<path class="st1" d="M40,49l4.3-10.5l7.3-17.5l1.9-4.8c1.6-3.7-4.3-6.4-7.3-5.8c-1.7,0.3-2.1,1.7-2.7,3.1l-2,4.8l-6.6,16l-7.5,18.1
	l-5.2,12.3c-0.4,0.9-0.7,1.8-0.8,2.8c-0.1,2.6,0,5.2,0,7.8c0,0.4,0,0.8,0,1.1c0,0.8,0.7,1.5,1.5,1.5c0,0,0,0,0,0
	c0.4,0,0.7-0.1,1-0.4c2.2-1.8,4-4,6-5.9c1.4-1.3,2-3.5,2.7-5.2l6.8-16.2L40,49c0.2-0.6-0.2-1.2-0.8-1.4c0,0,0,0,0,0
	c-0.6-0.1-1.2,0.2-1.4,0.8l-3.8,9.1l-4.8,11.4c-0.4,0.7-0.9,1.3-1.6,1.8c-0.9,0.9-1.8,1.8-2.7,2.7c-0.4,0.4-0.8,0.8-1.3,1.3
	l-0.7,0.6l-0.2,0.2l-0.2,0.2c-0.1,0.1-0.1,0.1,0,0h0.6l0.4,0.4c0.1,0.1,0,0.5,0,0.2c0-0.1,0-0.2,0-0.4v-8.1c0-0.3,0-0.7,0.2-1
	c0.7-1.8,1.5-3.7,2.3-5.5L31,49.7l6-14.3l5.5-13.1l3.4-8.3l0.4-0.9c0-0.1,0.1-0.1,0.1-0.2v0c-0.1,0.1,0,0,0.1,0
	c0.8-0.3,1.7-0.2,2.4,0.1c0.8,0.2,1.6,0.6,2.2,1.2c0.4,0.4,0.8,0.7,0.6,1.3c0,0.1-0.1,0.1-0.1,0.2c-1.2,2.9-2.4,5.9-3.6,8.8L42,38.6
	L38.1,48l-0.2,0.5c-0.2,0.6,0.2,1.2,0.8,1.4C39.3,50,39.9,49.7,40,49"/>
<path class="st1" d="M23.2,67.6l6.9,2.9c0.6,0.2,1.2-0.2,1.4-0.8l0,0c0.1-0.6-0.2-1.2-0.8-1.4l-6.8-2.9c-0.6-0.2-1.2,0.2-1.4,0.8
	l0,0C22.3,66.8,22.7,67.4,23.2,67.6"/>
<path class="st0" d="M46.9,39c1.1-0.8,1.8-2,1.9-3.3c0.2-1.5,0-3.4-2.2-3.9c-0.8-0.2-1.6,0-2.3,0.4c-1.4,0.8-2.3,2.5-2.1,4.1
	c0.1,1.8,1.8,3.4,3.6,3.1C46.2,39.4,46.6,39.2,46.9,39"/>
<path class="st1" d="M47.5,40c1.6-1.1,2.5-3,2.5-5c0.1-1.7-0.8-3.3-2.3-4c-1.9-0.8-4.1-0.2-5.4,1.5c-1.3,1.6-1.6,3.7-0.7,5.5
	c0.9,2.1,3.4,3.1,5.5,2.1C47.2,40.1,47.4,40.1,47.5,40c0.5-0.3,0.7-1,0.3-1.5c-0.3-0.5-0.9-0.6-1.4-0.4c-0.5,0.3-1.1,0.4-1.6,0.1
	c0.2,0.1,0,0-0.1,0l-0.2-0.1l-0.2-0.1c0.1,0.1,0,0,0,0s-0.3-0.3-0.4-0.4c-0.1-0.1-0.1-0.2,0,0c-0.1-0.1-0.1-0.2-0.2-0.3
	c-0.2-0.2-0.3-0.5-0.3-0.8c0-0.1,0-0.1,0-0.2c0,0.2,0,0,0-0.1c0-0.2,0-0.4,0-0.6v-0.2c0,0.2,0,0,0-0.1s0.1-0.3,0.1-0.4l0.1-0.2
	c-0.1,0.2,0,0,0-0.1c0.1-0.2,0.2-0.3,0.3-0.5c0,0,0.1-0.2,0,0L44,34c0.1-0.1,0.2-0.3,0.4-0.4c0.2-0.2,0.5-0.4,0.8-0.5
	c0.2-0.1-0.2,0.1,0.1,0l0.2-0.1c0,0,0.3-0.1,0.2,0c-0.2,0,0.2,0,0.2,0h0.4c-0.2,0-0.1,0,0,0l0.3,0.1c0,0,0.3,0.1,0.1,0l0.2,0.1
	l0.2,0.1c0,0,0.2,0.2,0.1,0.1c-0.1-0.1,0.1,0.1,0.1,0.1l0.1,0.1c0.1,0.1,0,0,0,0l0.1,0.2l0.1,0.2c0,0.1,0.1,0.2,0,0
	c0,0.1,0.1,0.2,0.1,0.4c0,0.1,0.1,0.5,0,0.2c0,0.1,0,0.3,0,0.4c0,0.1,0,0.3,0,0.5s-0.1,0.5,0,0.2c-0.1,0.4-0.1,0.8-0.3,1.1
	c-0.2,0.6-0.6,1.2-1.1,1.6c-0.5,0.3-0.7,1-0.4,1.5C46.3,40.2,47,40.4,47.5,40"/>
<path class="st0" d="M31.8,36.2c1.8-0.6,3.8,0.3,4.4,2.1c0.5,1.5-0.1,3.2-1.5,4.1c-1.1,0.7-3.1,0.9-4-0.2"/>
<path class="st1" d="M32.1,37.2l0.4-0.1h0.2l0,0h0.1h0.7c0.2,0-0.3-0.1-0.1,0c0.1,0,0.2,0,0.3,0.1l0.3,0.1c0,0,0.1,0,0.1,0
	c-0.3,0-0.1-0.1,0,0c0.1,0.1,0.3,0.2,0.5,0.3c0.2,0.1-0.2-0.2-0.1,0l0.1,0.1c0.1,0.1,0.2,0.1,0.2,0.2c0.1,0.1,0.1,0.1,0.2,0.2
	c0-0.1-0.1-0.2-0.1-0.1l0.1,0.1c0.1,0.1,0.1,0.2,0.1,0.2l0.1,0.1c0.1,0.2,0-0.1,0,0c0,0.1,0.1,0.4,0.2,0.5c0,0,0.1,0.2,0,0.2
	c0,0,0-0.3,0-0.1c0,0.1,0,0.1,0,0.2c0,0.1,0,0.2,0,0.3c0,0.1,0,0.1,0,0.2c0,0.1,0.1-0.3,0-0.1c-0.1,0.2-0.1,0.4-0.2,0.6
	c-0.1,0.2-0.1,0.1,0-0.1c0,0,0,0.1-0.1,0.1l-0.2,0.3c-0.1,0.1-0.1,0.2-0.2,0.3c-0.1,0.1,0.2-0.2,0,0l-0.1,0.2
	c-0.1,0.1-0.1,0.2-0.2,0.2c0,0-0.4,0.3-0.1,0.1c-0.1,0.1-0.2,0.1-0.3,0.2L34,41.7h-0.1H34c0,0.1-0.3,0.1-0.4,0.1l-0.4,0.1l0,0
	c-0.1,0-0.2,0-0.3,0h-0.4c0,0-0.3,0-0.1,0c0.2,0-0.1,0-0.1,0l-0.2,0h-0.1c-0.1,0-0.1,0,0,0c-0.1,0-0.2-0.1-0.3-0.2
	c-0.1-0.1,0.1,0.1,0,0c-0.1-0.1-0.1-0.1-0.2-0.2c-0.4-0.4-1.1-0.4-1.6,0c-0.4,0.4-0.4,1.1,0,1.6c1,1.1,2.7,1.3,4.1,0.9
	c1.3-0.3,2.4-1.2,3-2.3c1.1-2.1,0.4-4.7-1.6-6c-1.2-0.7-2.7-0.9-4-0.4c-0.6,0.1-0.9,0.7-0.8,1.3c0,0,0,0,0,0
	C30.9,37.1,31.5,37.5,32.1,37.2L32.1,37.2z"/>
<path class="st4" d="M62.6,24.3l6.5,1.5c-2.1,7.7-4.3,14.7-6.7,21.1L56,44.5C58.5,37.9,60.7,31.1,62.6,24.3z M74.4,14.9h6.7v32.6
	c0,2.8-0.4,4.9-1.3,6.3c-0.7,1.2-2,2.1-3.4,2.4c-3.1,0.3-6.3,0.5-9.5,0.4c-0.4-2.3-0.9-4.6-1.6-6.8c2,0.2,4,0.4,6,0.4
	c2,0,3.1-1.2,3.1-3.6L74.4,14.9z M91,24.2c2.7,6.3,5.4,12.9,7.9,19.8l-6.8,2.6c-2.3-7.4-4.7-14.2-7.2-20.4L91,24.2z"/>
<path class="st4" d="M109.3,48.4l1.3-9.4h5.7v-2.2H113c-1.1,0.5-2.2,1-3.4,1.5c-0.5-1-0.9-2-1.5-3c0,9.9-1.4,17.2-4.1,21.8
	c-1.5-1.4-2.9-2.8-4.3-4c2.2-4.2,3.3-10.8,3.2-20V17.5h16.9c-0.3-0.8-0.8-1.7-1.3-2.8l7.3-0.5c0.5,1.2,0.8,2.3,1.2,3.3h15.4v4.4
	h-34.2v11.9c1.4-0.4,2.7-0.9,4-1.5l-3-2.2l2.8-2.6h-2.1v-3.8h14.3v4.5c-1.5,2-3.2,3.7-5.2,5.1h2.2v9.3h-6.1l-0.3,2.3h6.6
	c-0.1,3.1-0.2,6.1-0.4,8.8c-0.1,1.9-1.7,3-4.6,3.3c-0.8,0.1-2.7,0.1-5.8,0.1c-0.2-0.8-0.6-2.2-1-4.2l3.9,0.1c1.5,0,2.3-0.5,2.4-1.5
	c0.1-0.8,0.2-1.8,0.2-3.1L109.3,48.4z M112.1,27.5c1.3,0.9,2.6,1.8,3.9,2.7c1.2-0.8,2.4-1.7,3.4-2.7H112.1z M138.1,38.7h2.4
	c-0.2,0.5-0.5,1.6-0.8,3.1h-3.9c-2.5,0-3.7-1-3.7-3v-1.9h-4c0.1,2.2-0.9,4.3-2.6,5.6h13.6v3.7c-1.1,1.6-2.4,3.1-3.8,4.4
	c1.9,0.9,3.8,1.8,5.6,2.7l-2.9,4c-2.2-1.3-4.4-2.5-6.6-3.7c-2.3,1.6-4.9,2.8-7.5,3.8c-0.7-1.2-1.7-2.6-2.9-4.2c2-0.5,4-1.2,5.9-2.1
	c-1.5-0.8-2.9-1.5-4.4-2.3l1.9-2.5h-1.6v-3.9h2.6c-1.1-0.9-2.3-1.8-3.6-2.8c0.9-0.4,1.5-1.1,1.8-2c0.2-1.6,0.3-3.2,0.3-4.7h8
	c-3.5-2.6-6.3-6.1-8-10.1l4.3-0.3c0.6,1,1.2,1.9,1.9,2.7c1.9-1.1,3.8-2.2,5.5-3.4l2.9,3.2c-2.1,1.2-3.9,2.2-5.6,3.1
	c0.5,0.4,1,0.8,1.5,1.2c1.9-1,3.7-2.1,5.4-3.3l2.9,3c-1.4,0.9-2.8,1.8-4.3,2.6c1.5,0.6,3.1,1.1,4.7,1.5c-0.9,1.3-1.7,2.6-2.4,4
	c-1.4-0.4-2.7-0.8-4-1.4v1.8C136.7,38.3,137.2,38.7,138.1,38.7L138.1,38.7z M133.6,46.4h-7.3c1.6,0.8,3.3,1.5,4.9,2.3
	C132.1,48,132.9,47.2,133.6,46.4L133.6,46.4z"/>
<path class="st4" d="M144.5,21.3h41.6v5.8h-6.4c-1.9,6.1-5.1,11.7-9.4,16.5c5,3.3,10.5,5.7,16.4,7c-1.7,2-3.3,4.1-4.7,6.3
	c-6-1.9-11.7-4.9-16.7-8.7c-5.2,3.8-10.9,6.8-17,8.9c-1.3-2.2-2.8-4.2-4.3-6.2c5.7-1.7,11.2-4.2,16.2-7.4
	c-4.2-4.7-7.2-10.3-8.8-16.4h-6.9L144.5,21.3z M172.4,27.1h-14.3c1.4,4.6,3.9,8.8,7.2,12.2C168.6,35.8,171.1,31.6,172.4,27.1z"/>
<path class="st4" d="M50.8,76.6c27.8,6.5,56.6,7.6,84.8,3.2c21.1-3.3,43.8-9.3,61.6-21.6c1.6-1.1-1.3-2.7-2.5-1.8
	c-17.1,11.8-38.9,17.4-59.1,20.8c-28,4.6-56.6,3.5-84.3-3C49.3,73.8,48.8,76.2,50.8,76.6z"/>
<path class="st4" d="M2.9,55.9c4.5,3.3,9.3,6.1,14.3,8.5c1.7,0.8,3.3-1.2,1.4-2.1C13.8,60,9.3,57.3,5,54.2
	C3.7,53.1,1.2,54.6,2.9,55.9z"/>
<path class="st3" d="M165.4,11c-7.3,0-13.6,5.3-14.8,12.5h29.6C179,16.3,172.7,11,165.4,11z"/>
<path class="st4" d="M165.4,17.4c-3.9,0-7.2,2.8-7.9,6.7h15.7C172.6,20.2,169.3,17.4,165.4,17.4z"/>
</svg>
